<?xml version="1.0" encoding="utf-8" standalone="no"?>
<!DOCTYPE svg PUBLIC "-//W3C//DTD SVG 1.1//EN"
  "http://www.w3.org/Graphics/SVG/1.1/DTD/svg11.dtd">
<!-- Created with matplotlib (https://matplotlib.org/) -->
<svg height="345.6pt" version="1.1" viewBox="0 0 460.8 345.6" width="460.8pt" xmlns="http://www.w3.org/2000/svg" xmlns:xlink="http://www.w3.org/1999/xlink">
 <defs>
  <style type="text/css">
*{stroke-linecap:butt;stroke-linejoin:round;}
  </style>
 </defs>
 <g id="figure_1">
  <g id="patch_1">
   <path d="M 0 345.6 
L 460.8 345.6 
L 460.8 0 
L 0 0 
z
" style="fill:#ffffff;"/>
  </g>
  <g id="axes_1">
   <g id="patch_2">
    <path d="M 57.6 307.584 
L 414.72 307.584 
L 414.72 41.472 
L 57.6 41.472 
z
" style="fill:#ffffff;"/>
   </g>
   <g id="PolyCollection_1">
    <path clip-path="url(#p1f3f819e9b)" d="M 73.832727 161.791675 
L 73.832727 209.129762 
L 75.196822 163.757756 
L 76.560917 163.325713 
L 77.925011 241.056316 
L 79.289106 233.889084 
L 80.653201 162.569443 
L 82.017296 162.926084 
L 83.38139 162.932832 
L 84.745485 163.481663 
L 86.10958 277.187886 
L 87.473675 162.494056 
L 88.837769 233.518121 
L 90.201864 226.001736 
L 91.565959 183.72174 
L 92.930053 173.026458 
L 94.294148 242.122161 
L 95.658243 211.158715 
L 97.022338 205.991493 
L 98.386432 163.130971 
L 99.750527 163.541686 
L 101.114622 163.380482 
L 102.478717 228.735549 
L 103.842811 209.912293 
L 105.206906 162.497575 
L 106.571001 163.653064 
L 107.935095 162.528351 
L 109.29919 163.181726 
L 110.663285 279.701543 
L 112.02738 162.997394 
L 113.391474 163.328478 
L 114.755569 224.752674 
L 116.119664 163.009247 
L 117.483759 245.24783 
L 118.847853 164.717524 
L 120.211948 226.124092 
L 121.576043 167.307233 
L 122.940138 163.237306 
L 124.304232 164.311297 
L 125.668327 163.980263 
L 127.032422 185.621897 
L 128.396516 162.511318 
L 129.760611 268.079889 
L 131.124706 244.707222 
L 132.488801 167.312079 
L 133.852895 162.821548 
L 135.21699 165.874705 
L 136.581085 163.041214 
L 137.94518 163.151904 
L 139.309274 163.861842 
L 140.673369 188.419427 
L 142.037464 163.050174 
L 143.401558 279.371652 
L 144.765653 162.993157 
L 146.129748 213.795918 
L 147.493843 162.514471 
L 148.857937 254.33787 
L 150.222032 260.480104 
L 151.586127 223.422609 
L 152.950222 226.806937 
L 154.314316 212.002435 
L 155.678411 179.651347 
L 157.042506 162.911163 
L 158.4066 223.138527 
L 159.770695 168.777816 
L 161.13479 162.975468 
L 162.498885 256.450588 
L 163.862979 207.060373 
L 165.227074 266.610741 
L 166.591169 164.686474 
L 167.955264 233.621626 
L 169.319358 163.125562 
L 170.683453 240.657684 
L 172.047548 180.563938 
L 173.411642 224.303385 
L 174.775737 163.029631 
L 176.139832 163.022109 
L 177.503927 189.278715 
L 178.868021 220.592236 
L 180.232116 164.686295 
L 181.596211 163.013587 
L 182.960306 164.320799 
L 184.3244 165.943568 
L 185.688495 164.760422 
L 187.05259 164.897093 
L 188.416684 239.924444 
L 189.780779 268.782314 
L 191.144874 162.859841 
L 192.508969 163.78642 
L 193.873063 167.548421 
L 195.237158 266.99492 
L 196.601253 170.898975 
L 197.965348 164.274994 
L 199.329442 163.100198 
L 200.693537 197.915763 
L 202.057632 187.348497 
L 203.421727 162.669643 
L 204.785821 163.202533 
L 206.149916 233.276591 
L 207.514011 213.779668 
L 208.878105 204.352714 
L 210.2422 261.000671 
L 211.606295 216.485376 
L 212.97039 211.732588 
L 214.334484 195.689515 
L 215.698579 162.856683 
L 217.062674 162.867564 
L 218.426769 163.534255 
L 219.790863 162.488321 
L 221.154958 162.997025 
L 222.519053 237.772835 
L 223.883147 230.524001 
L 225.247242 164.213651 
L 226.611337 227.568576 
L 227.975432 249.868957 
L 229.339526 260.525426 
L 230.703621 231.230808 
L 232.067716 162.74837 
L 233.431811 162.543374 
L 234.795905 170.103013 
L 236.16 268.201066 
L 237.524095 246.599391 
L 238.888189 204.01552 
L 240.252284 162.273621 
L 241.616379 227.144747 
L 242.980474 168.278108 
L 244.344568 162.960431 
L 245.708663 167.3146 
L 247.072758 171.587016 
L 248.436853 162.465956 
L 249.800947 162.848922 
L 251.165042 190.916041 
L 252.529137 162.5138 
L 253.893231 167.552244 
L 255.257326 270.449559 
L 256.621421 162.554782 
L 257.985516 162.405854 
L 259.34961 214.462398 
L 260.713705 184.838767 
L 262.0778 250.82831 
L 263.441895 273.412269 
L 264.805989 283.484288 
L 266.170084 162.731186 
L 267.534179 165.67931 
L 268.898273 163.200013 
L 270.262368 277.417403 
L 271.626463 163.652824 
L 272.990558 184.253455 
L 274.354652 168.15351 
L 275.718747 163.183235 
L 277.082842 163.019293 
L 278.446937 226.957262 
L 279.811031 164.054593 
L 281.175126 163.090499 
L 282.539221 231.991511 
L 283.903316 163.731107 
L 285.26741 162.552508 
L 286.631505 260.237356 
L 287.9956 179.561223 
L 289.359694 162.484786 
L 290.723789 164.036481 
L 292.087884 165.501834 
L 293.451979 163.174074 
L 294.816073 163.197431 
L 296.180168 163.549326 
L 297.544263 207.13239 
L 298.908358 214.584208 
L 300.272452 169.209433 
L 301.636547 263.883302 
L 303.000642 162.930892 
L 304.364736 279.215826 
L 305.728831 193.418243 
L 307.092926 163.193361 
L 308.457021 164.688309 
L 309.821115 237.177508 
L 311.18521 283.621115 
L 312.549305 238.476609 
L 313.9134 163.809034 
L 315.277494 162.193874 
L 316.641589 184.166761 
L 318.005684 162.958478 
L 319.369778 163.418907 
L 320.733873 263.962526 
L 322.097968 162.488834 
L 323.462063 164.102219 
L 324.826157 163.572674 
L 326.190252 162.236614 
L 327.554347 191.588983 
L 328.918442 162.706656 
L 330.282536 162.989569 
L 331.646631 164.421829 
L 333.010726 162.851907 
L 334.37482 194.533531 
L 335.738915 165.457811 
L 337.10301 273.169894 
L 338.467105 162.941504 
L 339.831199 162.982707 
L 341.195294 163.868361 
L 342.559389 165.802397 
L 343.923484 215.654342 
L 345.287578 163.6612 
L 346.651673 272.941437 
L 348.015768 251.995482 
L 349.379862 163.026937 
L 350.743957 162.770074 
L 352.108052 162.878053 
L 353.472147 179.898999 
L 354.836241 162.195761 
L 356.200336 164.473119 
L 357.564431 164.988178 
L 358.928526 217.919268 
L 360.29262 163.020252 
L 361.656715 162.647791 
L 363.02081 249.635757 
L 364.384905 245.84866 
L 365.748999 162.912828 
L 367.113094 163.211693 
L 368.477189 226.825976 
L 369.841283 220.991804 
L 371.205378 200.760269 
L 372.569473 163.683981 
L 373.933568 202.776848 
L 375.297662 164.480987 
L 376.661757 192.701418 
L 378.025852 162.826667 
L 379.389947 162.494035 
L 380.754041 162.802176 
L 382.118136 242.074967 
L 383.482231 163.056581 
L 384.846325 162.332195 
L 386.21042 232.364066 
L 387.574515 163.429288 
L 388.93861 162.947305 
L 390.302704 163.692311 
L 391.666799 182.413673 
L 393.030894 167.316726 
L 394.394989 163.949297 
L 395.759083 278.251178 
L 397.123178 163.422483 
L 398.487273 163.048964 
L 398.487273 90.989567 
L 398.487273 90.989567 
L 397.123178 123.575717 
L 395.759083 166.769193 
L 394.394989 124.916565 
L 393.030894 149.321885 
L 391.666799 160.015926 
L 390.302704 130.659568 
L 388.93861 104.069522 
L 387.574515 127.272844 
L 386.21042 164.579225 
L 384.846325 57.279804 
L 383.482231 114.686921 
L 382.118136 165.179757 
L 380.754041 89.835178 
L 379.389947 74.146836 
L 378.025852 97.431003 
L 376.661757 159.857083 
L 375.297662 140.876837 
L 373.933568 161.221256 
L 372.569473 127.254629 
L 371.205378 161.17717 
L 369.841283 162.596662 
L 368.477189 163.804539 
L 367.113094 113.455663 
L 365.748999 95.923211 
L 364.384905 165.360184 
L 363.02081 165.43076 
L 361.656715 75.126269 
L 360.29262 100.201665 
L 358.928526 162.518673 
L 357.564431 140.921092 
L 356.200336 143.219657 
L 354.836241 53.568 
L 353.472147 158.13271 
L 352.108052 96.814651 
L 350.743957 89.634666 
L 349.379862 102.317355 
L 348.015768 165.573365 
L 346.651673 166.829847 
L 345.287578 134.207568 
L 343.923484 162.490611 
L 342.559389 144.63883 
L 341.195294 132.445175 
L 339.831199 97.224362 
L 338.467105 101.000745 
L 337.10301 166.868473 
L 335.738915 148.23878 
L 334.37482 160.835167 
L 333.010726 93.265575 
L 331.646631 141.650458 
L 330.282536 109.776489 
L 328.918442 88.450929 
L 327.554347 160.638322 
L 326.190252 58.599628 
L 324.826157 128.738295 
L 323.462063 137.473415 
L 322.097968 77.662674 
L 320.733873 166.593402 
L 319.369778 124.100992 
L 318.005684 97.628037 
L 316.641589 158.744661 
L 315.277494 54.745887 
L 313.9134 131.664759 
L 312.549305 164.958439 
L 311.18521 166.778497 
L 309.821115 164.32332 
L 308.457021 143.815059 
L 307.092926 124.187537 
L 305.728831 160.009924 
L 304.364736 166.767209 
L 303.000642 96.466182 
L 301.636547 165.8804 
L 300.272452 153.42545 
L 298.908358 162.202473 
L 297.544263 161.474319 
L 296.180168 118.748609 
L 294.816073 124.564341 
L 293.451979 116.128803 
L 292.087884 146.79063 
L 290.723789 129.188595 
L 289.359694 77.039847 
L 287.9956 159.53732 
L 286.631505 166.236299 
L 285.26741 84.461681 
L 283.903316 129.024454 
L 282.539221 164.518547 
L 281.175126 101.39857 
L 279.811031 133.536367 
L 278.446937 164.508889 
L 277.082842 108.055917 
L 275.718747 117.46791 
L 274.354652 151.218298 
L 272.990558 159.16832 
L 271.626463 134.688977 
L 270.262368 166.904853 
L 268.898273 113.592658 
L 267.534179 147.01296 
L 266.170084 78.978899 
L 264.805989 166.789392 
L 263.441895 166.878823 
L 262.0778 165.477018 
L 260.713705 160.067287 
L 259.34961 161.485273 
L 257.985516 61.545684 
L 256.621421 85.753701 
L 255.257326 166.831458 
L 253.893231 150.961904 
L 252.529137 68.735146 
L 251.165042 159.773422 
L 249.800947 97.905267 
L 248.436853 71.13284 
L 247.072758 154.368939 
L 245.708663 149.897605 
L 244.344568 99.285495 
L 242.980474 152.204975 
L 241.616379 164.179227 
L 240.252284 58.264721 
L 238.888189 160.992833 
L 237.524095 164.781612 
L 236.16 166.807849 
L 234.795905 154.196169 
L 233.431811 73.73199 
L 232.067716 87.625869 
L 230.703621 164.609742 
L 229.339526 166.236563 
L 227.975432 165.195613 
L 226.611337 162.773701 
L 225.247242 140.559564 
L 223.883147 164.35841 
L 222.519053 164.338651 
L 221.154958 108.838878 
L 219.790863 81.151406 
L 218.426769 116.699101 
L 217.062674 93.746258 
L 215.698579 92.965929 
L 214.334484 160.914242 
L 212.97039 161.288594 
L 211.606295 161.992742 
L 210.2422 165.536137 
L 208.878105 161.237974 
L 207.514011 162.307161 
L 206.149916 164.647599 
L 204.785821 110.440108 
L 203.421727 87.349498 
L 202.057632 159.725441 
L 200.693537 161.074077 
L 199.329442 115.146147 
L 197.965348 138.646453 
L 196.601253 154.536599 
L 195.237158 166.811761 
L 193.873063 150.947779 
L 192.508969 131.317028 
L 191.144874 97.333047 
L 189.780779 166.844455 
L 188.416684 164.372917 
L 187.05259 144.843126 
L 185.688495 144.332172 
L 184.3244 146.717037 
L 182.960306 142.647543 
L 181.596211 96.018724 
L 180.232116 136.575697 
L 178.868021 162.088272 
L 177.503927 159.657917 
L 176.139832 101.867289 
L 174.775737 111.654855 
L 173.411642 163.344205 
L 172.047548 158.132373 
L 170.683453 165.169508 
L 169.319358 103.872052 
L 167.955264 164.49308 
L 166.591169 143.509242 
L 165.227074 166.807567 
L 163.862979 161.358196 
L 162.498885 164.984934 
L 161.13479 98.519094 
L 159.770695 152.935238 
L 158.4066 162.595033 
L 157.042506 99.229994 
L 155.678411 159.37698 
L 154.314316 161.995873 
L 152.950222 163.922796 
L 151.586127 163.405121 
L 150.222032 165.305975 
L 148.857937 165.048977 
L 147.493843 72.911402 
L 146.129748 162.185183 
L 144.765653 86.925897 
L 143.401558 166.887749 
L 142.037464 101.892436 
L 140.673369 160.136317 
L 139.309274 128.120396 
L 137.94518 121.410656 
L 136.581085 111.264029 
L 135.21699 149.012138 
L 133.852895 91.291197 
L 132.488801 148.315215 
L 131.124706 165.341221 
L 129.760611 166.544826 
L 128.396516 82.507361 
L 127.032422 160.15921 
L 125.668327 129.007101 
L 124.304232 143.063192 
L 122.940138 109.153774 
L 121.576043 147.968607 
L 120.211948 162.603869 
L 118.847853 145.607985 
L 117.483759 165.149936 
L 116.119664 99.30451 
L 114.755569 163.686937 
L 113.391474 124.215 
L 112.02738 107.853661 
L 110.663285 166.832749 
L 109.29919 122.60535 
L 107.935095 63.040898 
L 106.571001 127.864202 
L 105.206906 65.242861 
L 103.842811 161.759755 
L 102.478717 164.523422 
L 101.114622 117.626546 
L 99.750527 131.095697 
L 98.386432 100.336229 
L 97.022338 160.67434 
L 95.658243 162.157778 
L 94.294148 165.171633 
L 92.930053 157.598718 
L 91.565959 160.021411 
L 90.201864 163.475809 
L 88.837769 164.632632 
L 87.473675 58.811618 
L 86.10958 166.790347 
L 84.745485 118.949506 
L 83.38139 97.710821 
L 82.017296 94.126497 
L 80.653201 64.883085 
L 79.289106 164.292749 
L 77.925011 164.920881 
L 76.560917 121.757874 
L 75.196822 129.10323 
L 73.832727 161.791675 
z
" style="fill:#008000;fill-opacity:0.4;"/>
   </g>
   <g id="matplotlib.axis_1">
    <g id="xtick_1">
     <g id="line2d_1">
      <defs>
       <path d="M 0 0 
L 0 3.5 
" id="m562f799e01" style="stroke:#000000;stroke-width:0.8;"/>
      </defs>
      <g>
       <use style="stroke:#000000;stroke-width:0.8;" x="73.832727" xlink:href="#m562f799e01" y="307.584"/>
      </g>
     </g>
     <g id="text_1">
      <!-- 0.0 -->
      <defs>
       <path d="M 31.78125 66.40625 
Q 24.171875 66.40625 20.328125 58.90625 
Q 16.5 51.421875 16.5 36.375 
Q 16.5 21.390625 20.328125 13.890625 
Q 24.171875 6.390625 31.78125 6.390625 
Q 39.453125 6.390625 43.28125 13.890625 
Q 47.125 21.390625 47.125 36.375 
Q 47.125 51.421875 43.28125 58.90625 
Q 39.453125 66.40625 31.78125 66.40625 
z
M 31.78125 74.21875 
Q 44.046875 74.21875 50.515625 64.515625 
Q 56.984375 54.828125 56.984375 36.375 
Q 56.984375 17.96875 50.515625 8.265625 
Q 44.046875 -1.421875 31.78125 -1.421875 
Q 19.53125 -1.421875 13.0625 8.265625 
Q 6.59375 17.96875 6.59375 36.375 
Q 6.59375 54.828125 13.0625 64.515625 
Q 19.53125 74.21875 31.78125 74.21875 
z
" id="DejaVuSans-48"/>
       <path d="M 10.6875 12.40625 
L 21 12.40625 
L 21 0 
L 10.6875 0 
z
" id="DejaVuSans-46"/>
      </defs>
      <g transform="translate(65.881165 322.182437)scale(0.1 -0.1)">
       <use xlink:href="#DejaVuSans-48"/>
       <use x="63.623047" xlink:href="#DejaVuSans-46"/>
       <use x="95.410156" xlink:href="#DejaVuSans-48"/>
      </g>
     </g>
    </g>
    <g id="xtick_2">
     <g id="line2d_2">
      <g>
       <use style="stroke:#000000;stroke-width:0.8;" x="138.763636" xlink:href="#m562f799e01" y="307.584"/>
      </g>
     </g>
     <g id="text_2">
      <!-- 0.2 -->
      <defs>
       <path d="M 19.1875 8.296875 
L 53.609375 8.296875 
L 53.609375 0 
L 7.328125 0 
L 7.328125 8.296875 
Q 12.9375 14.109375 22.625 23.890625 
Q 32.328125 33.6875 34.8125 36.53125 
Q 39.546875 41.84375 41.421875 45.53125 
Q 43.3125 49.21875 43.3125 52.78125 
Q 43.3125 58.59375 39.234375 62.25 
Q 35.15625 65.921875 28.609375 65.921875 
Q 23.96875 65.921875 18.8125 64.3125 
Q 13.671875 62.703125 7.8125 59.421875 
L 7.8125 69.390625 
Q 13.765625 71.78125 18.9375 73 
Q 24.125 74.21875 28.421875 74.21875 
Q 39.75 74.21875 46.484375 68.546875 
Q 53.21875 62.890625 53.21875 53.421875 
Q 53.21875 48.921875 51.53125 44.890625 
Q 49.859375 40.875 45.40625 35.40625 
Q 44.1875 33.984375 37.640625 27.21875 
Q 31.109375 20.453125 19.1875 8.296875 
z
" id="DejaVuSans-50"/>
      </defs>
      <g transform="translate(130.812074 322.182437)scale(0.1 -0.1)">
       <use xlink:href="#DejaVuSans-48"/>
       <use x="63.623047" xlink:href="#DejaVuSans-46"/>
       <use x="95.410156" xlink:href="#DejaVuSans-50"/>
      </g>
     </g>
    </g>
    <g id="xtick_3">
     <g id="line2d_3">
      <g>
       <use style="stroke:#000000;stroke-width:0.8;" x="203.694545" xlink:href="#m562f799e01" y="307.584"/>
      </g>
     </g>
     <g id="text_3">
      <!-- 0.4 -->
      <defs>
       <path d="M 37.796875 64.3125 
L 12.890625 25.390625 
L 37.796875 25.390625 
z
M 35.203125 72.90625 
L 47.609375 72.90625 
L 47.609375 25.390625 
L 58.015625 25.390625 
L 58.015625 17.1875 
L 47.609375 17.1875 
L 47.609375 0 
L 37.796875 0 
L 37.796875 17.1875 
L 4.890625 17.1875 
L 4.890625 26.703125 
z
" id="DejaVuSans-52"/>
      </defs>
      <g transform="translate(195.742983 322.182437)scale(0.1 -0.1)">
       <use xlink:href="#DejaVuSans-48"/>
       <use x="63.623047" xlink:href="#DejaVuSans-46"/>
       <use x="95.410156" xlink:href="#DejaVuSans-52"/>
      </g>
     </g>
    </g>
    <g id="xtick_4">
     <g id="line2d_4">
      <g>
       <use style="stroke:#000000;stroke-width:0.8;" x="268.625455" xlink:href="#m562f799e01" y="307.584"/>
      </g>
     </g>
     <g id="text_4">
      <!-- 0.6 -->
      <defs>
       <path d="M 33.015625 40.375 
Q 26.375 40.375 22.484375 35.828125 
Q 18.609375 31.296875 18.609375 23.390625 
Q 18.609375 15.53125 22.484375 10.953125 
Q 26.375 6.390625 33.015625 6.390625 
Q 39.65625 6.390625 43.53125 10.953125 
Q 47.40625 15.53125 47.40625 23.390625 
Q 47.40625 31.296875 43.53125 35.828125 
Q 39.65625 40.375 33.015625 40.375 
z
M 52.59375 71.296875 
L 52.59375 62.3125 
Q 48.875 64.0625 45.09375 64.984375 
Q 41.3125 65.921875 37.59375 65.921875 
Q 27.828125 65.921875 22.671875 59.328125 
Q 17.53125 52.734375 16.796875 39.40625 
Q 19.671875 43.65625 24.015625 45.921875 
Q 28.375 48.1875 33.59375 48.1875 
Q 44.578125 48.1875 50.953125 41.515625 
Q 57.328125 34.859375 57.328125 23.390625 
Q 57.328125 12.15625 50.6875 5.359375 
Q 44.046875 -1.421875 33.015625 -1.421875 
Q 20.359375 -1.421875 13.671875 8.265625 
Q 6.984375 17.96875 6.984375 36.375 
Q 6.984375 53.65625 15.1875 63.9375 
Q 23.390625 74.21875 37.203125 74.21875 
Q 40.921875 74.21875 44.703125 73.484375 
Q 48.484375 72.75 52.59375 71.296875 
z
" id="DejaVuSans-54"/>
      </defs>
      <g transform="translate(260.673892 322.182437)scale(0.1 -0.1)">
       <use xlink:href="#DejaVuSans-48"/>
       <use x="63.623047" xlink:href="#DejaVuSans-46"/>
       <use x="95.410156" xlink:href="#DejaVuSans-54"/>
      </g>
     </g>
    </g>
    <g id="xtick_5">
     <g id="line2d_5">
      <g>
       <use style="stroke:#000000;stroke-width:0.8;" x="333.556364" xlink:href="#m562f799e01" y="307.584"/>
      </g>
     </g>
     <g id="text_5">
      <!-- 0.8 -->
      <defs>
       <path d="M 31.78125 34.625 
Q 24.75 34.625 20.71875 30.859375 
Q 16.703125 27.09375 16.703125 20.515625 
Q 16.703125 13.921875 20.71875 10.15625 
Q 24.75 6.390625 31.78125 6.390625 
Q 38.8125 6.390625 42.859375 10.171875 
Q 46.921875 13.96875 46.921875 20.515625 
Q 46.921875 27.09375 42.890625 30.859375 
Q 38.875 34.625 31.78125 34.625 
z
M 21.921875 38.8125 
Q 15.578125 40.375 12.03125 44.71875 
Q 8.5 49.078125 8.5 55.328125 
Q 8.5 64.0625 14.71875 69.140625 
Q 20.953125 74.21875 31.78125 74.21875 
Q 42.671875 74.21875 48.875 69.140625 
Q 55.078125 64.0625 55.078125 55.328125 
Q 55.078125 49.078125 51.53125 44.71875 
Q 48 40.375 41.703125 38.8125 
Q 48.828125 37.15625 52.796875 32.3125 
Q 56.78125 27.484375 56.78125 20.515625 
Q 56.78125 9.90625 50.3125 4.234375 
Q 43.84375 -1.421875 31.78125 -1.421875 
Q 19.734375 -1.421875 13.25 4.234375 
Q 6.78125 9.90625 6.78125 20.515625 
Q 6.78125 27.484375 10.78125 32.3125 
Q 14.796875 37.15625 21.921875 38.8125 
z
M 18.3125 54.390625 
Q 18.3125 48.734375 21.84375 45.5625 
Q 25.390625 42.390625 31.78125 42.390625 
Q 38.140625 42.390625 41.71875 45.5625 
Q 45.3125 48.734375 45.3125 54.390625 
Q 45.3125 60.0625 41.71875 63.234375 
Q 38.140625 66.40625 31.78125 66.40625 
Q 25.390625 66.40625 21.84375 63.234375 
Q 18.3125 60.0625 18.3125 54.390625 
z
" id="DejaVuSans-56"/>
      </defs>
      <g transform="translate(325.604801 322.182437)scale(0.1 -0.1)">
       <use xlink:href="#DejaVuSans-48"/>
       <use x="63.623047" xlink:href="#DejaVuSans-46"/>
       <use x="95.410156" xlink:href="#DejaVuSans-56"/>
      </g>
     </g>
    </g>
    <g id="xtick_6">
     <g id="line2d_6">
      <g>
       <use style="stroke:#000000;stroke-width:0.8;" x="398.487273" xlink:href="#m562f799e01" y="307.584"/>
      </g>
     </g>
     <g id="text_6">
      <!-- 1.0 -->
      <defs>
       <path d="M 12.40625 8.296875 
L 28.515625 8.296875 
L 28.515625 63.921875 
L 10.984375 60.40625 
L 10.984375 69.390625 
L 28.421875 72.90625 
L 38.28125 72.90625 
L 38.28125 8.296875 
L 54.390625 8.296875 
L 54.390625 0 
L 12.40625 0 
z
" id="DejaVuSans-49"/>
      </defs>
      <g transform="translate(390.53571 322.182437)scale(0.1 -0.1)">
       <use xlink:href="#DejaVuSans-49"/>
       <use x="63.623047" xlink:href="#DejaVuSans-46"/>
       <use x="95.410156" xlink:href="#DejaVuSans-48"/>
      </g>
     </g>
    </g>
   </g>
   <g id="matplotlib.axis_2">
    <g id="ytick_1">
     <g id="line2d_7">
      <defs>
       <path d="M 0 0 
L -3.5 0 
" id="mc047d3228c" style="stroke:#000000;stroke-width:0.8;"/>
      </defs>
      <g>
       <use style="stroke:#000000;stroke-width:0.8;" x="57.6" xlink:href="#mc047d3228c" y="287.056944"/>
      </g>
     </g>
     <g id="text_7">
      <!-- 0.20 -->
      <g transform="translate(28.334375 290.856163)scale(0.1 -0.1)">
       <use xlink:href="#DejaVuSans-48"/>
       <use x="63.623047" xlink:href="#DejaVuSans-46"/>
       <use x="95.410156" xlink:href="#DejaVuSans-50"/>
       <use x="159.033203" xlink:href="#DejaVuSans-48"/>
      </g>
     </g>
    </g>
    <g id="ytick_2">
     <g id="line2d_8">
      <g>
       <use style="stroke:#000000;stroke-width:0.8;" x="57.6" xlink:href="#mc047d3228c" y="255.649345"/>
      </g>
     </g>
     <g id="text_8">
      <!-- 0.25 -->
      <defs>
       <path d="M 10.796875 72.90625 
L 49.515625 72.90625 
L 49.515625 64.59375 
L 19.828125 64.59375 
L 19.828125 46.734375 
Q 21.96875 47.46875 24.109375 47.828125 
Q 26.265625 48.1875 28.421875 48.1875 
Q 40.625 48.1875 47.75 41.5 
Q 54.890625 34.8125 54.890625 23.390625 
Q 54.890625 11.625 47.5625 5.09375 
Q 40.234375 -1.421875 26.90625 -1.421875 
Q 22.3125 -1.421875 17.546875 -0.640625 
Q 12.796875 0.140625 7.71875 1.703125 
L 7.71875 11.625 
Q 12.109375 9.234375 16.796875 8.0625 
Q 21.484375 6.890625 26.703125 6.890625 
Q 35.15625 6.890625 40.078125 11.328125 
Q 45.015625 15.765625 45.015625 23.390625 
Q 45.015625 31 40.078125 35.4375 
Q 35.15625 39.890625 26.703125 39.890625 
Q 22.75 39.890625 18.8125 39.015625 
Q 14.890625 38.140625 10.796875 36.28125 
z
" id="DejaVuSans-53"/>
      </defs>
      <g transform="translate(28.334375 259.448564)scale(0.1 -0.1)">
       <use xlink:href="#DejaVuSans-48"/>
       <use x="63.623047" xlink:href="#DejaVuSans-46"/>
       <use x="95.410156" xlink:href="#DejaVuSans-50"/>
       <use x="159.033203" xlink:href="#DejaVuSans-53"/>
      </g>
     </g>
    </g>
    <g id="ytick_3">
     <g id="line2d_9">
      <g>
       <use style="stroke:#000000;stroke-width:0.8;" x="57.6" xlink:href="#mc047d3228c" y="224.241746"/>
      </g>
     </g>
     <g id="text_9">
      <!-- 0.30 -->
      <defs>
       <path d="M 40.578125 39.3125 
Q 47.65625 37.796875 51.625 33 
Q 55.609375 28.21875 55.609375 21.1875 
Q 55.609375 10.40625 48.1875 4.484375 
Q 40.765625 -1.421875 27.09375 -1.421875 
Q 22.515625 -1.421875 17.65625 -0.515625 
Q 12.796875 0.390625 7.625 2.203125 
L 7.625 11.71875 
Q 11.71875 9.328125 16.59375 8.109375 
Q 21.484375 6.890625 26.8125 6.890625 
Q 36.078125 6.890625 40.9375 10.546875 
Q 45.796875 14.203125 45.796875 21.1875 
Q 45.796875 27.640625 41.28125 31.265625 
Q 36.765625 34.90625 28.71875 34.90625 
L 20.21875 34.90625 
L 20.21875 43.015625 
L 29.109375 43.015625 
Q 36.375 43.015625 40.234375 45.921875 
Q 44.09375 48.828125 44.09375 54.296875 
Q 44.09375 59.90625 40.109375 62.90625 
Q 36.140625 65.921875 28.71875 65.921875 
Q 24.65625 65.921875 20.015625 65.03125 
Q 15.375 64.15625 9.8125 62.3125 
L 9.8125 71.09375 
Q 15.4375 72.65625 20.34375 73.4375 
Q 25.25 74.21875 29.59375 74.21875 
Q 40.828125 74.21875 47.359375 69.109375 
Q 53.90625 64.015625 53.90625 55.328125 
Q 53.90625 49.265625 50.4375 45.09375 
Q 46.96875 40.921875 40.578125 39.3125 
z
" id="DejaVuSans-51"/>
      </defs>
      <g transform="translate(28.334375 228.040965)scale(0.1 -0.1)">
       <use xlink:href="#DejaVuSans-48"/>
       <use x="63.623047" xlink:href="#DejaVuSans-46"/>
       <use x="95.410156" xlink:href="#DejaVuSans-51"/>
       <use x="159.033203" xlink:href="#DejaVuSans-48"/>
      </g>
     </g>
    </g>
    <g id="ytick_4">
     <g id="line2d_10">
      <g>
       <use style="stroke:#000000;stroke-width:0.8;" x="57.6" xlink:href="#mc047d3228c" y="192.834147"/>
      </g>
     </g>
     <g id="text_10">
      <!-- 0.35 -->
      <g transform="translate(28.334375 196.633366)scale(0.1 -0.1)">
       <use xlink:href="#DejaVuSans-48"/>
       <use x="63.623047" xlink:href="#DejaVuSans-46"/>
       <use x="95.410156" xlink:href="#DejaVuSans-51"/>
       <use x="159.033203" xlink:href="#DejaVuSans-53"/>
      </g>
     </g>
    </g>
    <g id="ytick_5">
     <g id="line2d_11">
      <g>
       <use style="stroke:#000000;stroke-width:0.8;" x="57.6" xlink:href="#mc047d3228c" y="161.426548"/>
      </g>
     </g>
     <g id="text_11">
      <!-- 0.40 -->
      <g transform="translate(28.334375 165.225767)scale(0.1 -0.1)">
       <use xlink:href="#DejaVuSans-48"/>
       <use x="63.623047" xlink:href="#DejaVuSans-46"/>
       <use x="95.410156" xlink:href="#DejaVuSans-52"/>
       <use x="159.033203" xlink:href="#DejaVuSans-48"/>
      </g>
     </g>
    </g>
    <g id="ytick_6">
     <g id="line2d_12">
      <g>
       <use style="stroke:#000000;stroke-width:0.8;" x="57.6" xlink:href="#mc047d3228c" y="130.018949"/>
      </g>
     </g>
     <g id="text_12">
      <!-- 0.45 -->
      <g transform="translate(28.334375 133.818168)scale(0.1 -0.1)">
       <use xlink:href="#DejaVuSans-48"/>
       <use x="63.623047" xlink:href="#DejaVuSans-46"/>
       <use x="95.410156" xlink:href="#DejaVuSans-52"/>
       <use x="159.033203" xlink:href="#DejaVuSans-53"/>
      </g>
     </g>
    </g>
    <g id="ytick_7">
     <g id="line2d_13">
      <g>
       <use style="stroke:#000000;stroke-width:0.8;" x="57.6" xlink:href="#mc047d3228c" y="98.61135"/>
      </g>
     </g>
     <g id="text_13">
      <!-- 0.50 -->
      <g transform="translate(28.334375 102.410569)scale(0.1 -0.1)">
       <use xlink:href="#DejaVuSans-48"/>
       <use x="63.623047" xlink:href="#DejaVuSans-46"/>
       <use x="95.410156" xlink:href="#DejaVuSans-53"/>
       <use x="159.033203" xlink:href="#DejaVuSans-48"/>
      </g>
     </g>
    </g>
    <g id="ytick_8">
     <g id="line2d_14">
      <g>
       <use style="stroke:#000000;stroke-width:0.8;" x="57.6" xlink:href="#mc047d3228c" y="67.203751"/>
      </g>
     </g>
     <g id="text_14">
      <!-- 0.55 -->
      <g transform="translate(28.334375 71.00297)scale(0.1 -0.1)">
       <use xlink:href="#DejaVuSans-48"/>
       <use x="63.623047" xlink:href="#DejaVuSans-46"/>
       <use x="95.410156" xlink:href="#DejaVuSans-53"/>
       <use x="159.033203" xlink:href="#DejaVuSans-53"/>
      </g>
     </g>
    </g>
   </g>
   <g id="line2d_15">
    <path clip-path="url(#p1f3f819e9b)" d="M 73.832727 225.582222 
L 75.196822 134.30483 
L 76.560917 126.356195 
L 77.925011 219.908126 
L 79.289106 197.520789 
L 80.653201 75.153642 
L 82.017296 106.55496 
L 83.38139 98.508333 
L 84.745485 143.602107 
L 86.10958 290.203357 
L 87.473675 79.092783 
L 88.837769 249.055634 
L 90.201864 212.352713 
L 91.565959 191.913276 
L 92.930053 183.279327 
L 94.294148 244.050519 
L 95.658243 225.966651 
L 98.386432 118.888096 
L 99.750527 116.97286 
L 101.114622 134.698681 
L 102.478717 241.564921 
L 103.842811 220.842816 
L 105.206906 86.967925 
L 106.571001 120.96351 
L 107.935095 62.333688 
L 109.29919 112.889873 
L 110.663285 279.177406 
L 112.02738 102.113297 
L 113.391474 124.568474 
L 114.755569 228.617453 
L 116.119664 105.975804 
L 117.483759 236.90529 
L 118.847853 145.91245 
L 120.211948 190.506216 
L 121.576043 175.088225 
L 122.940138 124.563449 
L 124.304232 127.850568 
L 125.668327 154.574666 
L 127.032422 197.490638 
L 128.396516 79.418166 
L 129.760611 257.829661 
L 131.124706 259.880577 
L 133.852895 92.770793 
L 135.21699 133.248278 
L 136.581085 104.566231 
L 137.94518 109.208902 
L 139.309274 149.005471 
L 140.673369 195.689098 
L 142.037464 106.535487 
L 143.401558 266.748162 
L 144.765653 116.114805 
L 146.129748 217.583963 
L 147.493843 69.108936 
L 148.857937 226.145047 
L 150.222032 227.792061 
L 151.586127 227.609269 
L 152.950222 222.488574 
L 154.314316 216.107178 
L 155.678411 188.82905 
L 157.042506 98.149658 
L 158.4066 202.1465 
L 159.770695 166.827399 
L 161.13479 104.256552 
L 162.498885 222.40503 
L 163.862979 218.889891 
L 165.227074 285.779283 
L 166.591169 149.06703 
L 167.955264 238.451172 
L 169.319358 113.73725 
L 170.683453 246.78298 
L 172.047548 149.701463 
L 173.411642 221.295713 
L 174.775737 103.210679 
L 176.139832 103.775387 
L 177.503927 161.693513 
L 178.868021 188.767491 
L 180.232116 167.005794 
L 181.596211 111.121625 
L 182.960306 134.231336 
L 184.3244 161.70796 
L 185.688495 146.149892 
L 187.05259 155.430837 
L 188.416684 204.476944 
L 189.780779 274.323675 
L 191.144874 93.218665 
L 192.508969 132.376403 
L 193.873063 155.318398 
L 195.237158 284.608408 
L 196.601253 150.534393 
L 197.965348 147.627305 
L 199.329442 103.642219 
L 200.693537 203.917261 
L 202.057632 161.852435 
L 203.421727 83.898146 
L 204.785821 117.003012 
L 206.149916 249.855271 
L 207.514011 220.871711 
L 208.878105 210.108955 
L 210.2422 234.71304 
L 211.606295 199.442934 
L 212.97039 178.19004 
L 214.334484 206.934903 
L 215.698579 92.045277 
L 217.062674 97.304794 
L 218.426769 146.626031 
L 219.790863 77.041239 
L 221.154958 102.172972 
L 222.519053 210.55243 
L 223.883147 222.514328 
L 225.247242 127.353072 
L 226.611337 190.648806 
L 227.975432 238.024029 
L 229.339526 273.380191 
L 230.703621 247.284873 
L 232.067716 87.320946 
L 233.431811 96.076757 
L 234.795905 177.659251 
L 236.16 287.436976 
L 237.524095 210.520394 
L 238.888189 183.528704 
L 240.252284 66.954374 
L 241.616379 226.535129 
L 242.980474 137.206264 
L 244.344568 101.510271 
L 245.708663 173.582545 
L 247.072758 144.927508 
L 248.436853 91.355566 
L 249.800947 92.039624 
L 251.165042 158.549612 
L 252.529137 80.203356 
L 253.893231 156.193414 
L 255.257326 280.706956 
L 256.621421 80.516176 
L 257.985516 59.508261 
L 259.34961 181.939479 
L 260.713705 194.071606 
L 262.0778 268.608749 
L 263.441895 266.66399 
L 264.805989 288.565137 
L 266.170084 107.874707 
L 267.534179 154.176418 
L 268.898273 118.331553 
L 270.262368 261.634377 
L 271.626463 120.023795 
L 272.990558 157.36052 
L 274.354652 148.884865 
L 275.718747 108.712034 
L 277.082842 104.30806 
L 278.446937 239.951827 
L 279.811031 146.427535 
L 281.175126 118.779425 
L 282.539221 235.575492 
L 283.903316 134.011483 
L 285.26741 80.741682 
L 286.631505 275.150323 
L 287.9956 196.664618 
L 289.359694 75.46018 
L 290.723789 155.613001 
L 292.087884 154.018123 
L 293.451979 128.143915 
L 294.816073 111.474646 
L 296.180168 147.135462 
L 297.544263 223.336579 
L 298.908358 214.408655 
L 300.272452 179.897357 
L 301.636547 241.362028 
L 303.000642 103.4142 
L 304.364736 295.488 
L 305.728831 164.603112 
L 307.092926 112.960226 
L 308.457021 148.844036 
L 309.821115 213.402355 
L 311.18521 291.155008 
L 312.549305 233.474324 
L 313.9134 136.592559 
L 315.277494 59.549091 
L 316.641589 152.787574 
L 318.005684 105.929949 
L 319.369778 122.626228 
L 320.733873 278.87338 
L 322.097968 74.047467 
L 323.462063 143.019182 
L 324.826157 115.571453 
L 326.190252 57.848683 
L 327.554347 203.314863 
L 328.918442 90.784576 
L 330.282536 101.648465 
L 331.646631 134.696169 
L 333.010726 94.846207 
L 334.37482 205.271556 
L 335.738915 142.344547 
L 337.10301 270.061664 
L 338.467105 102.47951 
L 339.831199 106.921172 
L 341.195294 140.588234 
L 342.559389 168.620144 
L 343.923484 225.734235 
L 345.287578 127.564759 
L 346.651673 281.504709 
L 348.015768 269.383888 
L 349.379862 104.109564 
L 350.743957 88.366819 
L 352.108052 96.201759 
L 353.472147 153.899403 
L 354.836241 60.763309 
L 356.200336 130.683534 
L 357.564431 170.075573 
L 358.928526 223.273764 
L 360.29262 105.166744 
L 361.656715 103.099496 
L 363.02081 265.231175 
L 364.384905 260.55584 
L 365.748999 98.203679 
L 367.113094 117.01369 
L 368.477189 215.955793 
L 369.841283 218.235357 
L 371.205378 206.036645 
L 372.569473 131.433547 
L 373.933568 207.390313 
L 375.297662 147.203931 
L 376.661757 160.16145 
L 378.025852 93.775836 
L 379.389947 72.771062 
L 380.754041 90.322884 
L 382.118136 245.298029 
L 383.482231 105.807459 
L 384.846325 75.539328 
L 386.21042 245.979573 
L 387.574515 114.030597 
L 388.93861 102.175484 
L 390.302704 131.458045 
L 391.666799 198.868803 
L 393.030894 172.780395 
L 394.394989 153.272507 
L 395.759083 295.35546 
L 397.123178 127.701068 
L 398.487273 118.301402 
L 398.487273 118.301402 
" style="fill:none;stroke:#1f77b4;stroke-linecap:square;stroke-width:1.5;"/>
   </g>
   <g id="line2d_16">
    <path clip-path="url(#p1f3f819e9b)" d="M 73.832727 191.463854 
L 75.196822 140.394158 
L 76.560917 135.144152 
L 77.925011 213.171622 
L 79.289106 207.180483 
L 80.653201 95.852202 
L 82.017296 116.097089 
L 83.38139 118.446415 
L 84.745485 134.02565 
L 86.10958 240.151795 
L 87.473675 92.009094 
L 88.837769 208.641493 
L 90.201864 202.690547 
L 91.565959 172.527799 
L 92.930053 164.820374 
L 94.294148 214.675991 
L 95.658243 192.831105 
L 97.022338 187.81904 
L 98.386432 120.774419 
L 99.750527 141.314179 
L 101.114622 132.965815 
L 102.478717 205.124039 
L 103.842811 191.837045 
L 105.206906 96.431969 
L 106.571001 139.256858 
L 107.935095 94.379073 
L 109.29919 135.187704 
L 110.663285 241.507615 
L 112.02738 124.884199 
L 113.391474 136.608842 
L 114.755569 201.924975 
L 116.119664 119.718801 
L 117.483759 216.636911 
L 118.847853 152.296699 
L 120.211948 201.930433 
L 121.576043 154.859418 
L 122.940138 126.988819 
L 124.304232 150.299361 
L 125.668327 141.30884 
L 127.032422 173.859017 
L 128.396516 107.640106 
L 129.760611 232.783234 
L 131.124706 216.860654 
L 132.488801 155.032821 
L 133.852895 113.916485 
L 135.21699 155.640069 
L 136.581085 127.183038 
L 137.94518 134.240347 
L 139.309274 140.231613 
L 140.673369 175.810076 
L 142.037464 121.522069 
L 143.401558 240.727883 
L 144.765653 111.70689 
L 146.129748 194.421419 
L 147.493843 101.123446 
L 148.857937 221.898994 
L 150.222032 226.101793 
L 151.586127 201.022546 
L 152.950222 203.273913 
L 154.314316 193.088472 
L 155.678411 169.707487 
L 157.042506 119.426149 
L 158.4066 200.59463 
L 161.13479 119.121119 
L 162.498885 223.155388 
L 163.862979 189.862156 
L 165.227074 232.830909 
L 166.591169 150.923913 
L 167.955264 208.309113 
L 169.319358 123.052509 
L 170.683453 213.568491 
L 172.047548 170.08049 
L 173.411642 201.434103 
L 174.775737 127.428616 
L 176.139832 121.428192 
L 177.503927 176.266034 
L 178.868021 198.490983 
L 180.232116 146.903911 
L 181.596211 117.565293 
L 182.960306 149.887514 
L 184.3244 153.48103 
L 185.688495 151.541679 
L 187.05259 152.081019 
L 188.416684 211.379665 
L 189.780779 233.955608 
L 191.144874 118.029044 
L 192.508969 141.962144 
L 193.873063 156.90151 
L 195.237158 233.079097 
L 196.601253 162.138591 
L 197.965348 147.454202 
L 199.329442 129.825155 
L 200.693537 183.22388 
L 202.057632 174.97098 
L 203.421727 110.997875 
L 204.785821 127.514528 
L 206.149916 208.540026 
L 207.514011 194.555348 
L 208.878105 187.815412 
L 210.2422 226.907828 
L 211.606295 195.736914 
L 212.97039 192.090179 
L 214.334484 181.383872 
L 215.698579 115.093172 
L 217.062674 115.666085 
L 218.426769 132.885823 
L 219.790863 106.713277 
L 221.154958 125.518525 
L 222.519053 210.559855 
L 223.883147 206.025155 
L 225.247242 148.395738 
L 226.611337 202.696631 
L 227.975432 219.64157 
L 229.339526 228.079964 
L 230.703621 207.08544 
L 232.067716 111.29506 
L 233.431811 102.231042 
L 234.795905 159.983378 
L 236.16 234.041519 
L 237.524095 215.875118 
L 238.888189 186.760302 
L 240.252284 91.174404 
L 241.616379 203.584948 
L 242.980474 158.832272 
L 244.344568 119.570781 
L 245.708663 156.13202 
L 247.072758 162.347302 
L 248.436853 100.500754 
L 249.800947 118.37864 
L 251.165042 177.356308 
L 252.529137 98.628469 
L 253.893231 156.906584 
L 255.257326 235.296475 
L 256.621421 109.84676 
L 257.985516 93.351542 
L 259.34961 194.130802 
L 260.713705 173.308198 
L 262.0778 221.314618 
L 263.441895 236.737904 
L 264.805989 244.45278 
L 266.170084 106.109684 
L 267.534179 153.580478 
L 268.898273 129.420046 
L 270.262368 239.155363 
L 271.626463 143.931497 
L 272.990558 172.798522 
L 274.354652 157.312546 
L 275.718747 131.6941 
L 277.082842 125.136728 
L 278.446937 203.908274 
L 279.811031 143.958899 
L 281.175126 121.362831 
L 282.539221 207.171437 
L 283.903316 140.285719 
L 285.26741 108.967855 
L 286.631505 227.919862 
L 287.9956 169.715539 
L 289.359694 103.926676 
L 290.723789 141.526624 
L 292.087884 153.409577 
L 293.451979 131.420499 
L 294.816073 136.565249 
L 296.180168 134.246431 
L 297.544263 189.98055 
L 298.908358 194.837784 
L 300.272452 159.461078 
L 301.636547 229.167816 
L 303.000642 117.646565 
L 304.364736 241.758683 
L 305.728831 179.109221 
L 307.092926 136.319218 
L 308.457021 151.130215 
L 309.821115 210.38397 
L 311.18521 244.620507 
L 312.549305 211.947165 
L 313.9134 142.270521 
L 315.277494 88.673264 
L 316.641589 172.668367 
L 318.005684 118.493403 
L 319.369778 136.703068 
L 320.733873 230.711314 
L 322.097968 104.342942 
L 323.462063 146.500415 
L 324.826157 139.697357 
L 326.190252 91.325851 
L 327.554347 178.027224 
L 328.918442 111.805312 
L 330.282536 126.150719 
L 331.646631 149.384216 
L 333.010726 115.308452 
L 334.37482 180.29294 
L 335.738915 154.698305 
L 337.10301 236.724199 
L 338.467105 120.702765 
L 339.831199 118.290137 
L 341.195294 142.926169 
L 342.559389 152.268274 
L 343.923484 196.015185 
L 345.287578 143.754102 
L 346.651673 236.977562 
L 348.015768 222.250373 
L 349.379862 121.739655 
L 350.743957 112.686995 
L 352.108052 117.737981 
L 353.472147 169.695515 
L 354.836241 87.978565 
L 356.200336 150.373713 
L 357.564431 149.895969 
L 358.928526 197.300181 
L 360.29262 120.32903 
L 361.656715 103.443814 
L 363.02081 220.36042 
L 364.384905 217.743249 
L 365.748999 117.22266 
L 367.113094 129.374467 
L 368.477189 203.294722 
L 369.841283 199.033157 
L 371.205378 185.223626 
L 372.569473 138.956972 
L 373.933568 186.672362 
L 375.297662 149.062495 
L 376.661757 178.519026 
L 378.025852 118.023351 
L 379.389947 101.949825 
L 380.754041 112.88684 
L 382.118136 214.638756 
L 383.482231 129.399917 
L 384.846325 90.8814 
L 386.21042 207.710502 
L 387.574515 138.529228 
L 388.93861 122.57183 
L 390.302704 141.353683 
L 391.666799 171.769689 
L 394.394989 138.600942 
L 395.759083 241.056601 
L 397.123178 136.5042 
L 398.487273 114.502484 
L 398.487273 114.502484 
" style="fill:none;stroke:#ff7f0e;stroke-linecap:square;stroke-width:1.5;"/>
   </g>
   <g id="line2d_17">
    <path clip-path="url(#p1f3f819e9b)" d="M 73.832727 209.129762 
L 75.196822 163.757756 
L 76.560917 163.325713 
L 77.925011 241.056316 
L 79.289106 233.889084 
L 80.653201 162.569443 
L 82.017296 162.926084 
L 83.38139 162.932832 
L 84.745485 163.481663 
L 86.10958 277.187886 
L 87.473675 162.494056 
L 88.837769 233.518121 
L 90.201864 226.001736 
L 91.565959 183.72174 
L 92.930053 173.026458 
L 94.294148 242.122161 
L 95.658243 211.158715 
L 97.022338 205.991493 
L 98.386432 163.130971 
L 99.750527 163.541686 
L 101.114622 163.380482 
L 102.478717 228.735549 
L 103.842811 209.912293 
L 105.206906 162.497575 
L 106.571001 163.653064 
L 107.935095 162.528351 
L 109.29919 163.181726 
L 110.663285 279.701543 
L 112.02738 162.997394 
L 113.391474 163.328478 
L 114.755569 224.752674 
L 116.119664 163.009247 
L 117.483759 245.24783 
L 118.847853 164.717524 
L 120.211948 226.124092 
L 121.576043 167.307233 
L 122.940138 163.237306 
L 124.304232 164.311297 
L 125.668327 163.980263 
L 127.032422 185.621897 
L 128.396516 162.511318 
L 129.760611 268.079889 
L 131.124706 244.707222 
L 132.488801 167.312079 
L 133.852895 162.821548 
L 135.21699 165.874705 
L 136.581085 163.041214 
L 137.94518 163.151904 
L 139.309274 163.861842 
L 140.673369 188.419427 
L 142.037464 163.050174 
L 143.401558 279.371652 
L 144.765653 162.993157 
L 146.129748 213.795918 
L 147.493843 162.514471 
L 148.857937 254.33787 
L 150.222032 260.480104 
L 151.586127 223.422609 
L 152.950222 226.806937 
L 154.314316 212.002435 
L 155.678411 179.651347 
L 157.042506 162.911163 
L 158.4066 223.138527 
L 159.770695 168.777816 
L 161.13479 162.975468 
L 162.498885 256.450588 
L 163.862979 207.060373 
L 165.227074 266.610741 
L 166.591169 164.686474 
L 167.955264 233.621626 
L 169.319358 163.125562 
L 170.683453 240.657684 
L 172.047548 180.563938 
L 173.411642 224.303385 
L 174.775737 163.029631 
L 176.139832 163.022109 
L 177.503927 189.278715 
L 178.868021 220.592236 
L 180.232116 164.686295 
L 181.596211 163.013587 
L 182.960306 164.320799 
L 184.3244 165.943568 
L 185.688495 164.760422 
L 187.05259 164.897093 
L 188.416684 239.924444 
L 189.780779 268.782314 
L 191.144874 162.859841 
L 192.508969 163.78642 
L 193.873063 167.548421 
L 195.237158 266.99492 
L 196.601253 170.898975 
L 197.965348 164.274994 
L 199.329442 163.100198 
L 200.693537 197.915763 
L 202.057632 187.348497 
L 203.421727 162.669643 
L 204.785821 163.202533 
L 206.149916 233.276591 
L 207.514011 213.779668 
L 208.878105 204.352714 
L 210.2422 261.000671 
L 211.606295 216.485376 
L 212.97039 211.732588 
L 214.334484 195.689515 
L 215.698579 162.856683 
L 217.062674 162.867564 
L 218.426769 163.534255 
L 219.790863 162.488321 
L 221.154958 162.997025 
L 222.519053 237.772835 
L 223.883147 230.524001 
L 225.247242 164.213651 
L 226.611337 227.568576 
L 227.975432 249.868957 
L 229.339526 260.525426 
L 230.703621 231.230808 
L 232.067716 162.74837 
L 233.431811 162.543374 
L 234.795905 170.103013 
L 236.16 268.201066 
L 237.524095 246.599391 
L 240.252284 162.273621 
L 241.616379 227.144747 
L 242.980474 168.278108 
L 244.344568 162.960431 
L 247.072758 171.587016 
L 248.436853 162.465956 
L 249.800947 162.848922 
L 251.165042 190.916041 
L 252.529137 162.5138 
L 253.893231 167.552244 
L 255.257326 270.449559 
L 256.621421 162.554782 
L 257.985516 162.405854 
L 259.34961 214.462398 
L 260.713705 184.838767 
L 262.0778 250.82831 
L 263.441895 273.412269 
L 264.805989 283.484288 
L 266.170084 162.731186 
L 267.534179 165.67931 
L 268.898273 163.200013 
L 270.262368 277.417403 
L 271.626463 163.652824 
L 272.990558 184.253455 
L 274.354652 168.15351 
L 275.718747 163.183235 
L 277.082842 163.019293 
L 278.446937 226.957262 
L 279.811031 164.054593 
L 281.175126 163.090499 
L 282.539221 231.991511 
L 283.903316 163.731107 
L 285.26741 162.552508 
L 286.631505 260.237356 
L 287.9956 179.561223 
L 289.359694 162.484786 
L 292.087884 165.501834 
L 293.451979 163.174074 
L 294.816073 163.197431 
L 296.180168 163.549326 
L 297.544263 207.13239 
L 298.908358 214.584208 
L 300.272452 169.209433 
L 301.636547 263.883302 
L 303.000642 162.930892 
L 304.364736 279.215826 
L 305.728831 193.418243 
L 307.092926 163.193361 
L 308.457021 164.688309 
L 309.821115 237.177508 
L 311.18521 283.621115 
L 312.549305 238.476609 
L 313.9134 163.809034 
L 315.277494 162.193874 
L 316.641589 184.166761 
L 318.005684 162.958478 
L 319.369778 163.418907 
L 320.733873 263.962526 
L 322.097968 162.488834 
L 323.462063 164.102219 
L 324.826157 163.572674 
L 326.190252 162.236614 
L 327.554347 191.588983 
L 328.918442 162.706656 
L 330.282536 162.989569 
L 331.646631 164.421829 
L 333.010726 162.851907 
L 334.37482 194.533531 
L 335.738915 165.457811 
L 337.10301 273.169894 
L 338.467105 162.941504 
L 339.831199 162.982707 
L 341.195294 163.868361 
L 342.559389 165.802397 
L 343.923484 215.654342 
L 345.287578 163.6612 
L 346.651673 272.941437 
L 348.015768 251.995482 
L 349.379862 163.026937 
L 350.743957 162.770074 
L 352.108052 162.878053 
L 353.472147 179.898999 
L 354.836241 162.195761 
L 356.200336 164.473119 
L 357.564431 164.988178 
L 358.928526 217.919268 
L 360.29262 163.020252 
L 361.656715 162.647791 
L 363.02081 249.635757 
L 364.384905 245.84866 
L 365.748999 162.912828 
L 367.113094 163.211693 
L 368.477189 226.825976 
L 369.841283 220.991804 
L 371.205378 200.760269 
L 372.569473 163.683981 
L 373.933568 202.776848 
L 375.297662 164.480987 
L 376.661757 192.701418 
L 378.025852 162.826667 
L 379.389947 162.494035 
L 380.754041 162.802176 
L 382.118136 242.074967 
L 383.482231 163.056581 
L 384.846325 162.332195 
L 386.21042 232.364066 
L 387.574515 163.429288 
L 388.93861 162.947305 
L 390.302704 163.692311 
L 391.666799 182.413673 
L 393.030894 167.316726 
L 394.394989 163.949297 
L 395.759083 278.251178 
L 397.123178 163.422483 
L 398.487273 163.048964 
L 398.487273 163.048964 
" style="fill:none;stroke:#2ca02c;stroke-linecap:square;stroke-width:1.5;"/>
   </g>
   <g id="line2d_18">
    <path clip-path="url(#p1f3f819e9b)" d="M 73.832727 161.791675 
L 75.196822 129.10323 
L 76.560917 121.757874 
L 77.925011 164.920881 
L 79.289106 164.292749 
L 80.653201 64.883085 
L 82.017296 94.126497 
L 83.38139 97.710821 
L 84.745485 118.949506 
L 86.10958 166.790347 
L 87.473675 58.811618 
L 88.837769 164.632632 
L 90.201864 163.475809 
L 91.565959 160.021411 
L 92.930053 157.598718 
L 94.294148 165.171633 
L 95.658243 162.157778 
L 97.022338 160.67434 
L 98.386432 100.336229 
L 99.750527 131.095697 
L 101.114622 117.626546 
L 102.478717 164.523422 
L 103.842811 161.759755 
L 105.206906 65.242861 
L 106.571001 127.864202 
L 107.935095 63.040898 
L 109.29919 122.60535 
L 110.663285 166.832749 
L 112.02738 107.853661 
L 113.391474 124.215 
L 114.755569 163.686937 
L 116.119664 99.30451 
L 117.483759 165.149936 
L 118.847853 145.607985 
L 120.211948 162.603869 
L 121.576043 147.968607 
L 122.940138 109.153774 
L 124.304232 143.063192 
L 125.668327 129.007101 
L 127.032422 160.15921 
L 128.396516 82.507361 
L 129.760611 166.544826 
L 131.124706 165.341221 
L 132.488801 148.315215 
L 133.852895 91.291197 
L 135.21699 149.012138 
L 136.581085 111.264029 
L 137.94518 121.410656 
L 139.309274 128.120396 
L 140.673369 160.136317 
L 142.037464 101.892436 
L 143.401558 166.887749 
L 144.765653 86.925897 
L 146.129748 162.185183 
L 147.493843 72.911402 
L 148.857937 165.048977 
L 150.222032 165.305975 
L 151.586127 163.405121 
L 152.950222 163.922796 
L 154.314316 161.995873 
L 155.678411 159.37698 
L 157.042506 99.229994 
L 158.4066 162.595033 
L 159.770695 152.935238 
L 161.13479 98.519094 
L 162.498885 164.984934 
L 163.862979 161.358196 
L 165.227074 166.807567 
L 166.591169 143.509242 
L 167.955264 164.49308 
L 169.319358 103.872052 
L 170.683453 165.169508 
L 172.047548 158.132373 
L 173.411642 163.344205 
L 174.775737 111.654855 
L 176.139832 101.867289 
L 177.503927 159.657917 
L 178.868021 162.088272 
L 180.232116 136.575697 
L 181.596211 96.018724 
L 182.960306 142.647543 
L 184.3244 146.717037 
L 185.688495 144.332172 
L 187.05259 144.843126 
L 188.416684 164.372917 
L 189.780779 166.844455 
L 191.144874 97.333047 
L 192.508969 131.317028 
L 193.873063 150.947779 
L 195.237158 166.811761 
L 196.601253 154.536599 
L 197.965348 138.646453 
L 199.329442 115.146147 
L 200.693537 161.074077 
L 202.057632 159.725441 
L 203.421727 87.349498 
L 204.785821 110.440108 
L 206.149916 164.647599 
L 207.514011 162.307161 
L 208.878105 161.237974 
L 210.2422 165.536137 
L 211.606295 161.992742 
L 212.97039 161.288594 
L 214.334484 160.914242 
L 215.698579 92.965929 
L 217.062674 93.746258 
L 218.426769 116.699101 
L 219.790863 81.151406 
L 221.154958 108.838878 
L 222.519053 164.338651 
L 223.883147 164.35841 
L 225.247242 140.559564 
L 226.611337 162.773701 
L 227.975432 165.195613 
L 229.339526 166.236563 
L 230.703621 164.609742 
L 232.067716 87.625869 
L 233.431811 73.73199 
L 234.795905 154.196169 
L 236.16 166.807849 
L 237.524095 164.781612 
L 238.888189 160.992833 
L 240.252284 58.264721 
L 241.616379 164.179227 
L 242.980474 152.204975 
L 244.344568 99.285495 
L 245.708663 149.897605 
L 247.072758 154.368939 
L 248.436853 71.13284 
L 249.800947 97.905267 
L 251.165042 159.773422 
L 252.529137 68.735146 
L 253.893231 150.961904 
L 255.257326 166.831458 
L 256.621421 85.753701 
L 257.985516 61.545684 
L 259.34961 161.485273 
L 260.713705 160.067287 
L 262.0778 165.477018 
L 263.441895 166.878823 
L 264.805989 166.789392 
L 266.170084 78.978899 
L 267.534179 147.01296 
L 268.898273 113.592658 
L 270.262368 166.904853 
L 271.626463 134.688977 
L 272.990558 159.16832 
L 274.354652 151.218298 
L 275.718747 117.46791 
L 277.082842 108.055917 
L 278.446937 164.508889 
L 281.175126 101.39857 
L 282.539221 164.518547 
L 283.903316 129.024454 
L 285.26741 84.461681 
L 286.631505 166.236299 
L 287.9956 159.53732 
L 289.359694 77.039847 
L 290.723789 129.188595 
L 292.087884 146.79063 
L 293.451979 116.128803 
L 294.816073 124.564341 
L 296.180168 118.748609 
L 297.544263 161.474319 
L 298.908358 162.202473 
L 300.272452 153.42545 
L 301.636547 165.8804 
L 303.000642 96.466182 
L 304.364736 166.767209 
L 305.728831 160.009924 
L 307.092926 124.187537 
L 309.821115 164.32332 
L 311.18521 166.778497 
L 312.549305 164.958439 
L 313.9134 131.664759 
L 315.277494 54.745887 
L 316.641589 158.744661 
L 318.005684 97.628037 
L 319.369778 124.100992 
L 320.733873 166.593402 
L 322.097968 77.662674 
L 323.462063 137.473415 
L 324.826157 128.738295 
L 326.190252 58.599628 
L 327.554347 160.638322 
L 328.918442 88.450929 
L 330.282536 109.776489 
L 331.646631 141.650458 
L 333.010726 93.265575 
L 334.37482 160.835167 
L 335.738915 148.23878 
L 337.10301 166.868473 
L 338.467105 101.000745 
L 339.831199 97.224362 
L 341.195294 132.445175 
L 342.559389 144.63883 
L 343.923484 162.490611 
L 345.287578 134.207568 
L 346.651673 166.829847 
L 348.015768 165.573365 
L 349.379862 102.317355 
L 350.743957 89.634666 
L 352.108052 96.814651 
L 353.472147 158.13271 
L 354.836241 53.568 
L 356.200336 143.219657 
L 357.564431 140.921092 
L 358.928526 162.518673 
L 360.29262 100.201665 
L 361.656715 75.126269 
L 363.02081 165.43076 
L 364.384905 165.360184 
L 365.748999 95.923211 
L 367.113094 113.455663 
L 368.477189 163.804539 
L 369.841283 162.596662 
L 371.205378 161.17717 
L 372.569473 127.254629 
L 373.933568 161.221256 
L 375.297662 140.876837 
L 376.661757 159.857083 
L 378.025852 97.431003 
L 379.389947 74.146836 
L 380.754041 89.835178 
L 382.118136 165.179757 
L 383.482231 114.686921 
L 384.846325 57.279804 
L 386.21042 164.579225 
L 387.574515 127.272844 
L 388.93861 104.069522 
L 390.302704 130.659568 
L 391.666799 160.015926 
L 393.030894 149.321885 
L 394.394989 124.916565 
L 395.759083 166.769193 
L 397.123178 123.575717 
L 398.487273 90.989567 
L 398.487273 90.989567 
" style="fill:none;stroke:#d62728;stroke-linecap:square;stroke-width:1.5;"/>
   </g>
   <g id="patch_3">
    <path d="M 57.6 307.584 
L 57.6 41.472 
" style="fill:none;stroke:#000000;stroke-linecap:square;stroke-linejoin:miter;stroke-width:0.8;"/>
   </g>
   <g id="patch_4">
    <path d="M 414.72 307.584 
L 414.72 41.472 
" style="fill:none;stroke:#000000;stroke-linecap:square;stroke-linejoin:miter;stroke-width:0.8;"/>
   </g>
   <g id="patch_5">
    <path d="M 57.6 307.584 
L 414.72 307.584 
" style="fill:none;stroke:#000000;stroke-linecap:square;stroke-linejoin:miter;stroke-width:0.8;"/>
   </g>
   <g id="patch_6">
    <path d="M 57.6 41.472 
L 414.72 41.472 
" style="fill:none;stroke:#000000;stroke-linecap:square;stroke-linejoin:miter;stroke-width:0.8;"/>
   </g>
   <g id="text_15">
    <!-- Plot of Train Data vs MCMC Uncertainty  -->
    <defs>
     <path d="M 19.671875 64.796875 
L 19.671875 37.40625 
L 32.078125 37.40625 
Q 38.96875 37.40625 42.71875 40.96875 
Q 46.484375 44.53125 46.484375 51.125 
Q 46.484375 57.671875 42.71875 61.234375 
Q 38.96875 64.796875 32.078125 64.796875 
z
M 9.8125 72.90625 
L 32.078125 72.90625 
Q 44.34375 72.90625 50.609375 67.359375 
Q 56.890625 61.8125 56.890625 51.125 
Q 56.890625 40.328125 50.609375 34.8125 
Q 44.34375 29.296875 32.078125 29.296875 
L 19.671875 29.296875 
L 19.671875 0 
L 9.8125 0 
z
" id="DejaVuSans-80"/>
     <path d="M 9.421875 75.984375 
L 18.40625 75.984375 
L 18.40625 0 
L 9.421875 0 
z
" id="DejaVuSans-108"/>
     <path d="M 30.609375 48.390625 
Q 23.390625 48.390625 19.1875 42.75 
Q 14.984375 37.109375 14.984375 27.296875 
Q 14.984375 17.484375 19.15625 11.84375 
Q 23.34375 6.203125 30.609375 6.203125 
Q 37.796875 6.203125 41.984375 11.859375 
Q 46.1875 17.53125 46.1875 27.296875 
Q 46.1875 37.015625 41.984375 42.703125 
Q 37.796875 48.390625 30.609375 48.390625 
z
M 30.609375 56 
Q 42.328125 56 49.015625 48.375 
Q 55.71875 40.765625 55.71875 27.296875 
Q 55.71875 13.875 49.015625 6.21875 
Q 42.328125 -1.421875 30.609375 -1.421875 
Q 18.84375 -1.421875 12.171875 6.21875 
Q 5.515625 13.875 5.515625 27.296875 
Q 5.515625 40.765625 12.171875 48.375 
Q 18.84375 56 30.609375 56 
z
" id="DejaVuSans-111"/>
     <path d="M 18.3125 70.21875 
L 18.3125 54.6875 
L 36.8125 54.6875 
L 36.8125 47.703125 
L 18.3125 47.703125 
L 18.3125 18.015625 
Q 18.3125 11.328125 20.140625 9.421875 
Q 21.96875 7.515625 27.59375 7.515625 
L 36.8125 7.515625 
L 36.8125 0 
L 27.59375 0 
Q 17.1875 0 13.234375 3.875 
Q 9.28125 7.765625 9.28125 18.015625 
L 9.28125 47.703125 
L 2.6875 47.703125 
L 2.6875 54.6875 
L 9.28125 54.6875 
L 9.28125 70.21875 
z
" id="DejaVuSans-116"/>
     <path id="DejaVuSans-32"/>
     <path d="M 37.109375 75.984375 
L 37.109375 68.5 
L 28.515625 68.5 
Q 23.6875 68.5 21.796875 66.546875 
Q 19.921875 64.59375 19.921875 59.515625 
L 19.921875 54.6875 
L 34.71875 54.6875 
L 34.71875 47.703125 
L 19.921875 47.703125 
L 19.921875 0 
L 10.890625 0 
L 10.890625 47.703125 
L 2.296875 47.703125 
L 2.296875 54.6875 
L 10.890625 54.6875 
L 10.890625 58.5 
Q 10.890625 67.625 15.140625 71.796875 
Q 19.390625 75.984375 28.609375 75.984375 
z
" id="DejaVuSans-102"/>
     <path d="M -0.296875 72.90625 
L 61.375 72.90625 
L 61.375 64.59375 
L 35.5 64.59375 
L 35.5 0 
L 25.59375 0 
L 25.59375 64.59375 
L -0.296875 64.59375 
z
" id="DejaVuSans-84"/>
     <path d="M 41.109375 46.296875 
Q 39.59375 47.171875 37.8125 47.578125 
Q 36.03125 48 33.890625 48 
Q 26.265625 48 22.1875 43.046875 
Q 18.109375 38.09375 18.109375 28.8125 
L 18.109375 0 
L 9.078125 0 
L 9.078125 54.6875 
L 18.109375 54.6875 
L 18.109375 46.1875 
Q 20.953125 51.171875 25.484375 53.578125 
Q 30.03125 56 36.53125 56 
Q 37.453125 56 38.578125 55.875 
Q 39.703125 55.765625 41.0625 55.515625 
z
" id="DejaVuSans-114"/>
     <path d="M 34.28125 27.484375 
Q 23.390625 27.484375 19.1875 25 
Q 14.984375 22.515625 14.984375 16.5 
Q 14.984375 11.71875 18.140625 8.90625 
Q 21.296875 6.109375 26.703125 6.109375 
Q 34.1875 6.109375 38.703125 11.40625 
Q 43.21875 16.703125 43.21875 25.484375 
L 43.21875 27.484375 
z
M 52.203125 31.203125 
L 52.203125 0 
L 43.21875 0 
L 43.21875 8.296875 
Q 40.140625 3.328125 35.546875 0.953125 
Q 30.953125 -1.421875 24.3125 -1.421875 
Q 15.921875 -1.421875 10.953125 3.296875 
Q 6 8.015625 6 15.921875 
Q 6 25.140625 12.171875 29.828125 
Q 18.359375 34.515625 30.609375 34.515625 
L 43.21875 34.515625 
L 43.21875 35.40625 
Q 43.21875 41.609375 39.140625 45 
Q 35.0625 48.390625 27.6875 48.390625 
Q 23 48.390625 18.546875 47.265625 
Q 14.109375 46.140625 10.015625 43.890625 
L 10.015625 52.203125 
Q 14.9375 54.109375 19.578125 55.046875 
Q 24.21875 56 28.609375 56 
Q 40.484375 56 46.34375 49.84375 
Q 52.203125 43.703125 52.203125 31.203125 
z
" id="DejaVuSans-97"/>
     <path d="M 9.421875 54.6875 
L 18.40625 54.6875 
L 18.40625 0 
L 9.421875 0 
z
M 9.421875 75.984375 
L 18.40625 75.984375 
L 18.40625 64.59375 
L 9.421875 64.59375 
z
" id="DejaVuSans-105"/>
     <path d="M 54.890625 33.015625 
L 54.890625 0 
L 45.90625 0 
L 45.90625 32.71875 
Q 45.90625 40.484375 42.875 44.328125 
Q 39.84375 48.1875 33.796875 48.1875 
Q 26.515625 48.1875 22.3125 43.546875 
Q 18.109375 38.921875 18.109375 30.90625 
L 18.109375 0 
L 9.078125 0 
L 9.078125 54.6875 
L 18.109375 54.6875 
L 18.109375 46.1875 
Q 21.34375 51.125 25.703125 53.5625 
Q 30.078125 56 35.796875 56 
Q 45.21875 56 50.046875 50.171875 
Q 54.890625 44.34375 54.890625 33.015625 
z
" id="DejaVuSans-110"/>
     <path d="M 19.671875 64.796875 
L 19.671875 8.109375 
L 31.59375 8.109375 
Q 46.6875 8.109375 53.6875 14.9375 
Q 60.6875 21.78125 60.6875 36.53125 
Q 60.6875 51.171875 53.6875 57.984375 
Q 46.6875 64.796875 31.59375 64.796875 
z
M 9.8125 72.90625 
L 30.078125 72.90625 
Q 51.265625 72.90625 61.171875 64.09375 
Q 71.09375 55.28125 71.09375 36.53125 
Q 71.09375 17.671875 61.125 8.828125 
Q 51.171875 0 30.078125 0 
L 9.8125 0 
z
" id="DejaVuSans-68"/>
     <path d="M 2.984375 54.6875 
L 12.5 54.6875 
L 29.59375 8.796875 
L 46.6875 54.6875 
L 56.203125 54.6875 
L 35.6875 0 
L 23.484375 0 
z
" id="DejaVuSans-118"/>
     <path d="M 44.28125 53.078125 
L 44.28125 44.578125 
Q 40.484375 46.53125 36.375 47.5 
Q 32.28125 48.484375 27.875 48.484375 
Q 21.1875 48.484375 17.84375 46.4375 
Q 14.5 44.390625 14.5 40.28125 
Q 14.5 37.15625 16.890625 35.375 
Q 19.28125 33.59375 26.515625 31.984375 
L 29.59375 31.296875 
Q 39.15625 29.25 43.1875 25.515625 
Q 47.21875 21.78125 47.21875 15.09375 
Q 47.21875 7.46875 41.1875 3.015625 
Q 35.15625 -1.421875 24.609375 -1.421875 
Q 20.21875 -1.421875 15.453125 -0.5625 
Q 10.6875 0.296875 5.421875 2 
L 5.421875 11.28125 
Q 10.40625 8.6875 15.234375 7.390625 
Q 20.0625 6.109375 24.8125 6.109375 
Q 31.15625 6.109375 34.5625 8.28125 
Q 37.984375 10.453125 37.984375 14.40625 
Q 37.984375 18.0625 35.515625 20.015625 
Q 33.0625 21.96875 24.703125 23.78125 
L 21.578125 24.515625 
Q 13.234375 26.265625 9.515625 29.90625 
Q 5.8125 33.546875 5.8125 39.890625 
Q 5.8125 47.609375 11.28125 51.796875 
Q 16.75 56 26.8125 56 
Q 31.78125 56 36.171875 55.265625 
Q 40.578125 54.546875 44.28125 53.078125 
z
" id="DejaVuSans-115"/>
     <path d="M 9.8125 72.90625 
L 24.515625 72.90625 
L 43.109375 23.296875 
L 61.8125 72.90625 
L 76.515625 72.90625 
L 76.515625 0 
L 66.890625 0 
L 66.890625 64.015625 
L 48.09375 14.015625 
L 38.1875 14.015625 
L 19.390625 64.015625 
L 19.390625 0 
L 9.8125 0 
z
" id="DejaVuSans-77"/>
     <path d="M 64.40625 67.28125 
L 64.40625 56.890625 
Q 59.421875 61.53125 53.78125 63.8125 
Q 48.140625 66.109375 41.796875 66.109375 
Q 29.296875 66.109375 22.65625 58.46875 
Q 16.015625 50.828125 16.015625 36.375 
Q 16.015625 21.96875 22.65625 14.328125 
Q 29.296875 6.6875 41.796875 6.6875 
Q 48.140625 6.6875 53.78125 8.984375 
Q 59.421875 11.28125 64.40625 15.921875 
L 64.40625 5.609375 
Q 59.234375 2.09375 53.4375 0.328125 
Q 47.65625 -1.421875 41.21875 -1.421875 
Q 24.65625 -1.421875 15.125 8.703125 
Q 5.609375 18.84375 5.609375 36.375 
Q 5.609375 53.953125 15.125 64.078125 
Q 24.65625 74.21875 41.21875 74.21875 
Q 47.75 74.21875 53.53125 72.484375 
Q 59.328125 70.75 64.40625 67.28125 
z
" id="DejaVuSans-67"/>
     <path d="M 8.6875 72.90625 
L 18.609375 72.90625 
L 18.609375 28.609375 
Q 18.609375 16.890625 22.84375 11.734375 
Q 27.09375 6.59375 36.625 6.59375 
Q 46.09375 6.59375 50.34375 11.734375 
Q 54.59375 16.890625 54.59375 28.609375 
L 54.59375 72.90625 
L 64.5 72.90625 
L 64.5 27.390625 
Q 64.5 13.140625 57.4375 5.859375 
Q 50.390625 -1.421875 36.625 -1.421875 
Q 22.796875 -1.421875 15.734375 5.859375 
Q 8.6875 13.140625 8.6875 27.390625 
z
" id="DejaVuSans-85"/>
     <path d="M 48.78125 52.59375 
L 48.78125 44.1875 
Q 44.96875 46.296875 41.140625 47.34375 
Q 37.3125 48.390625 33.40625 48.390625 
Q 24.65625 48.390625 19.8125 42.84375 
Q 14.984375 37.3125 14.984375 27.296875 
Q 14.984375 17.28125 19.8125 11.734375 
Q 24.65625 6.203125 33.40625 6.203125 
Q 37.3125 6.203125 41.140625 7.25 
Q 44.96875 8.296875 48.78125 10.40625 
L 48.78125 2.09375 
Q 45.015625 0.34375 40.984375 -0.53125 
Q 36.96875 -1.421875 32.421875 -1.421875 
Q 20.0625 -1.421875 12.78125 6.34375 
Q 5.515625 14.109375 5.515625 27.296875 
Q 5.515625 40.671875 12.859375 48.328125 
Q 20.21875 56 33.015625 56 
Q 37.15625 56 41.109375 55.140625 
Q 45.0625 54.296875 48.78125 52.59375 
z
" id="DejaVuSans-99"/>
     <path d="M 56.203125 29.59375 
L 56.203125 25.203125 
L 14.890625 25.203125 
Q 15.484375 15.921875 20.484375 11.0625 
Q 25.484375 6.203125 34.421875 6.203125 
Q 39.59375 6.203125 44.453125 7.46875 
Q 49.3125 8.734375 54.109375 11.28125 
L 54.109375 2.78125 
Q 49.265625 0.734375 44.1875 -0.34375 
Q 39.109375 -1.421875 33.890625 -1.421875 
Q 20.796875 -1.421875 13.15625 6.1875 
Q 5.515625 13.8125 5.515625 26.8125 
Q 5.515625 40.234375 12.765625 48.109375 
Q 20.015625 56 32.328125 56 
Q 43.359375 56 49.78125 48.890625 
Q 56.203125 41.796875 56.203125 29.59375 
z
M 47.21875 32.234375 
Q 47.125 39.59375 43.09375 43.984375 
Q 39.0625 48.390625 32.421875 48.390625 
Q 24.90625 48.390625 20.390625 44.140625 
Q 15.875 39.890625 15.1875 32.171875 
z
" id="DejaVuSans-101"/>
     <path d="M 32.171875 -5.078125 
Q 28.375 -14.84375 24.75 -17.8125 
Q 21.140625 -20.796875 15.09375 -20.796875 
L 7.90625 -20.796875 
L 7.90625 -13.28125 
L 13.1875 -13.28125 
Q 16.890625 -13.28125 18.9375 -11.515625 
Q 21 -9.765625 23.484375 -3.21875 
L 25.09375 0.875 
L 2.984375 54.6875 
L 12.5 54.6875 
L 29.59375 11.921875 
L 46.6875 54.6875 
L 56.203125 54.6875 
z
" id="DejaVuSans-121"/>
    </defs>
    <g transform="translate(115.666875 35.472)scale(0.12 -0.12)">
     <use xlink:href="#DejaVuSans-80"/>
     <use x="60.302734" xlink:href="#DejaVuSans-108"/>
     <use x="88.085938" xlink:href="#DejaVuSans-111"/>
     <use x="149.267578" xlink:href="#DejaVuSans-116"/>
     <use x="188.476562" xlink:href="#DejaVuSans-32"/>
     <use x="220.263672" xlink:href="#DejaVuSans-111"/>
     <use x="281.445312" xlink:href="#DejaVuSans-102"/>
     <use x="316.650391" xlink:href="#DejaVuSans-32"/>
     <use x="348.4375" xlink:href="#DejaVuSans-84"/>
     <use x="409.302734" xlink:href="#DejaVuSans-114"/>
     <use x="450.416016" xlink:href="#DejaVuSans-97"/>
     <use x="511.695312" xlink:href="#DejaVuSans-105"/>
     <use x="539.478516" xlink:href="#DejaVuSans-110"/>
     <use x="602.857422" xlink:href="#DejaVuSans-32"/>
     <use x="634.644531" xlink:href="#DejaVuSans-68"/>
     <use x="711.646484" xlink:href="#DejaVuSans-97"/>
     <use x="772.925781" xlink:href="#DejaVuSans-116"/>
     <use x="812.134766" xlink:href="#DejaVuSans-97"/>
     <use x="873.414062" xlink:href="#DejaVuSans-32"/>
     <use x="905.201172" xlink:href="#DejaVuSans-118"/>
     <use x="964.380859" xlink:href="#DejaVuSans-115"/>
     <use x="1016.480469" xlink:href="#DejaVuSans-32"/>
     <use x="1048.267578" xlink:href="#DejaVuSans-77"/>
     <use x="1134.546875" xlink:href="#DejaVuSans-67"/>
     <use x="1204.371094" xlink:href="#DejaVuSans-77"/>
     <use x="1290.650391" xlink:href="#DejaVuSans-67"/>
     <use x="1360.474609" xlink:href="#DejaVuSans-32"/>
     <use x="1392.261719" xlink:href="#DejaVuSans-85"/>
     <use x="1465.455078" xlink:href="#DejaVuSans-110"/>
     <use x="1528.833984" xlink:href="#DejaVuSans-99"/>
     <use x="1583.814453" xlink:href="#DejaVuSans-101"/>
     <use x="1645.337891" xlink:href="#DejaVuSans-114"/>
     <use x="1686.451172" xlink:href="#DejaVuSans-116"/>
     <use x="1725.660156" xlink:href="#DejaVuSans-97"/>
     <use x="1786.939453" xlink:href="#DejaVuSans-105"/>
     <use x="1814.722656" xlink:href="#DejaVuSans-110"/>
     <use x="1878.101562" xlink:href="#DejaVuSans-116"/>
     <use x="1917.310547" xlink:href="#DejaVuSans-121"/>
     <use x="1976.490234" xlink:href="#DejaVuSans-32"/>
    </g>
   </g>
   <g id="legend_1">
    <g id="patch_7">
     <path d="M 277.843437 108.1845 
L 407.72 108.1845 
Q 409.72 108.1845 409.72 106.1845 
L 409.72 48.472 
Q 409.72 46.472 407.72 46.472 
L 277.843437 46.472 
Q 275.843437 46.472 275.843437 48.472 
L 275.843437 106.1845 
Q 275.843437 108.1845 277.843437 108.1845 
z
" style="fill:#ffffff;opacity:0.8;stroke:#cccccc;stroke-linejoin:miter;"/>
    </g>
    <g id="line2d_19">
     <path d="M 279.843437 54.570438 
L 299.843437 54.570438 
" style="fill:none;stroke:#1f77b4;stroke-linecap:square;stroke-width:1.5;"/>
    </g>
    <g id="line2d_20"/>
    <g id="text_16">
     <!-- actual -->
     <defs>
      <path d="M 8.5 21.578125 
L 8.5 54.6875 
L 17.484375 54.6875 
L 17.484375 21.921875 
Q 17.484375 14.15625 20.5 10.265625 
Q 23.53125 6.390625 29.59375 6.390625 
Q 36.859375 6.390625 41.078125 11.03125 
Q 45.3125 15.671875 45.3125 23.6875 
L 45.3125 54.6875 
L 54.296875 54.6875 
L 54.296875 0 
L 45.3125 0 
L 45.3125 8.40625 
Q 42.046875 3.421875 37.71875 1 
Q 33.40625 -1.421875 27.6875 -1.421875 
Q 18.265625 -1.421875 13.375 4.4375 
Q 8.5 10.296875 8.5 21.578125 
z
M 31.109375 56 
z
" id="DejaVuSans-117"/>
     </defs>
     <g transform="translate(307.843437 58.070438)scale(0.1 -0.1)">
      <use xlink:href="#DejaVuSans-97"/>
      <use x="61.279297" xlink:href="#DejaVuSans-99"/>
      <use x="116.259766" xlink:href="#DejaVuSans-116"/>
      <use x="155.46875" xlink:href="#DejaVuSans-117"/>
      <use x="218.847656" xlink:href="#DejaVuSans-97"/>
      <use x="280.126953" xlink:href="#DejaVuSans-108"/>
     </g>
    </g>
    <g id="line2d_21">
     <path d="M 279.843437 69.248563 
L 299.843437 69.248563 
" style="fill:none;stroke:#ff7f0e;stroke-linecap:square;stroke-width:1.5;"/>
    </g>
    <g id="line2d_22"/>
    <g id="text_17">
     <!-- pred. (mean) -->
     <defs>
      <path d="M 18.109375 8.203125 
L 18.109375 -20.796875 
L 9.078125 -20.796875 
L 9.078125 54.6875 
L 18.109375 54.6875 
L 18.109375 46.390625 
Q 20.953125 51.265625 25.265625 53.625 
Q 29.59375 56 35.59375 56 
Q 45.5625 56 51.78125 48.09375 
Q 58.015625 40.1875 58.015625 27.296875 
Q 58.015625 14.40625 51.78125 6.484375 
Q 45.5625 -1.421875 35.59375 -1.421875 
Q 29.59375 -1.421875 25.265625 0.953125 
Q 20.953125 3.328125 18.109375 8.203125 
z
M 48.6875 27.296875 
Q 48.6875 37.203125 44.609375 42.84375 
Q 40.53125 48.484375 33.40625 48.484375 
Q 26.265625 48.484375 22.1875 42.84375 
Q 18.109375 37.203125 18.109375 27.296875 
Q 18.109375 17.390625 22.1875 11.75 
Q 26.265625 6.109375 33.40625 6.109375 
Q 40.53125 6.109375 44.609375 11.75 
Q 48.6875 17.390625 48.6875 27.296875 
z
" id="DejaVuSans-112"/>
      <path d="M 45.40625 46.390625 
L 45.40625 75.984375 
L 54.390625 75.984375 
L 54.390625 0 
L 45.40625 0 
L 45.40625 8.203125 
Q 42.578125 3.328125 38.25 0.953125 
Q 33.9375 -1.421875 27.875 -1.421875 
Q 17.96875 -1.421875 11.734375 6.484375 
Q 5.515625 14.40625 5.515625 27.296875 
Q 5.515625 40.1875 11.734375 48.09375 
Q 17.96875 56 27.875 56 
Q 33.9375 56 38.25 53.625 
Q 42.578125 51.265625 45.40625 46.390625 
z
M 14.796875 27.296875 
Q 14.796875 17.390625 18.875 11.75 
Q 22.953125 6.109375 30.078125 6.109375 
Q 37.203125 6.109375 41.296875 11.75 
Q 45.40625 17.390625 45.40625 27.296875 
Q 45.40625 37.203125 41.296875 42.84375 
Q 37.203125 48.484375 30.078125 48.484375 
Q 22.953125 48.484375 18.875 42.84375 
Q 14.796875 37.203125 14.796875 27.296875 
z
" id="DejaVuSans-100"/>
      <path d="M 31 75.875 
Q 24.46875 64.65625 21.28125 53.65625 
Q 18.109375 42.671875 18.109375 31.390625 
Q 18.109375 20.125 21.3125 9.0625 
Q 24.515625 -2 31 -13.1875 
L 23.1875 -13.1875 
Q 15.875 -1.703125 12.234375 9.375 
Q 8.59375 20.453125 8.59375 31.390625 
Q 8.59375 42.28125 12.203125 53.3125 
Q 15.828125 64.359375 23.1875 75.875 
z
" id="DejaVuSans-40"/>
      <path d="M 52 44.1875 
Q 55.375 50.25 60.0625 53.125 
Q 64.75 56 71.09375 56 
Q 79.640625 56 84.28125 50.015625 
Q 88.921875 44.046875 88.921875 33.015625 
L 88.921875 0 
L 79.890625 0 
L 79.890625 32.71875 
Q 79.890625 40.578125 77.09375 44.375 
Q 74.3125 48.1875 68.609375 48.1875 
Q 61.625 48.1875 57.5625 43.546875 
Q 53.515625 38.921875 53.515625 30.90625 
L 53.515625 0 
L 44.484375 0 
L 44.484375 32.71875 
Q 44.484375 40.625 41.703125 44.40625 
Q 38.921875 48.1875 33.109375 48.1875 
Q 26.21875 48.1875 22.15625 43.53125 
Q 18.109375 38.875 18.109375 30.90625 
L 18.109375 0 
L 9.078125 0 
L 9.078125 54.6875 
L 18.109375 54.6875 
L 18.109375 46.1875 
Q 21.1875 51.21875 25.484375 53.609375 
Q 29.78125 56 35.6875 56 
Q 41.65625 56 45.828125 52.96875 
Q 50 49.953125 52 44.1875 
z
" id="DejaVuSans-109"/>
      <path d="M 8.015625 75.875 
L 15.828125 75.875 
Q 23.140625 64.359375 26.78125 53.3125 
Q 30.421875 42.28125 30.421875 31.390625 
Q 30.421875 20.453125 26.78125 9.375 
Q 23.140625 -1.703125 15.828125 -13.1875 
L 8.015625 -13.1875 
Q 14.5 -2 17.703125 9.0625 
Q 20.90625 20.125 20.90625 31.390625 
Q 20.90625 42.671875 17.703125 53.65625 
Q 14.5 64.65625 8.015625 75.875 
z
" id="DejaVuSans-41"/>
     </defs>
     <g transform="translate(307.843437 72.748563)scale(0.1 -0.1)">
      <use xlink:href="#DejaVuSans-112"/>
      <use x="63.476562" xlink:href="#DejaVuSans-114"/>
      <use x="104.558594" xlink:href="#DejaVuSans-101"/>
      <use x="166.082031" xlink:href="#DejaVuSans-100"/>
      <use x="229.558594" xlink:href="#DejaVuSans-46"/>
      <use x="261.345703" xlink:href="#DejaVuSans-32"/>
      <use x="293.132812" xlink:href="#DejaVuSans-40"/>
      <use x="332.146484" xlink:href="#DejaVuSans-109"/>
      <use x="429.558594" xlink:href="#DejaVuSans-101"/>
      <use x="491.082031" xlink:href="#DejaVuSans-97"/>
      <use x="552.361328" xlink:href="#DejaVuSans-110"/>
      <use x="615.740234" xlink:href="#DejaVuSans-41"/>
     </g>
    </g>
    <g id="line2d_23">
     <path d="M 279.843437 83.926688 
L 299.843437 83.926688 
" style="fill:none;stroke:#2ca02c;stroke-linecap:square;stroke-width:1.5;"/>
    </g>
    <g id="line2d_24"/>
    <g id="text_18">
     <!-- pred.(5th percen.) -->
     <defs>
      <path d="M 54.890625 33.015625 
L 54.890625 0 
L 45.90625 0 
L 45.90625 32.71875 
Q 45.90625 40.484375 42.875 44.328125 
Q 39.84375 48.1875 33.796875 48.1875 
Q 26.515625 48.1875 22.3125 43.546875 
Q 18.109375 38.921875 18.109375 30.90625 
L 18.109375 0 
L 9.078125 0 
L 9.078125 75.984375 
L 18.109375 75.984375 
L 18.109375 46.1875 
Q 21.34375 51.125 25.703125 53.5625 
Q 30.078125 56 35.796875 56 
Q 45.21875 56 50.046875 50.171875 
Q 54.890625 44.34375 54.890625 33.015625 
z
" id="DejaVuSans-104"/>
     </defs>
     <g transform="translate(307.843437 87.426688)scale(0.1 -0.1)">
      <use xlink:href="#DejaVuSans-112"/>
      <use x="63.476562" xlink:href="#DejaVuSans-114"/>
      <use x="104.558594" xlink:href="#DejaVuSans-101"/>
      <use x="166.082031" xlink:href="#DejaVuSans-100"/>
      <use x="229.558594" xlink:href="#DejaVuSans-46"/>
      <use x="261.345703" xlink:href="#DejaVuSans-40"/>
      <use x="300.359375" xlink:href="#DejaVuSans-53"/>
      <use x="363.982422" xlink:href="#DejaVuSans-116"/>
      <use x="403.191406" xlink:href="#DejaVuSans-104"/>
      <use x="466.570312" xlink:href="#DejaVuSans-32"/>
      <use x="498.357422" xlink:href="#DejaVuSans-112"/>
      <use x="561.833984" xlink:href="#DejaVuSans-101"/>
      <use x="623.357422" xlink:href="#DejaVuSans-114"/>
      <use x="664.439453" xlink:href="#DejaVuSans-99"/>
      <use x="719.419922" xlink:href="#DejaVuSans-101"/>
      <use x="780.943359" xlink:href="#DejaVuSans-110"/>
      <use x="844.322266" xlink:href="#DejaVuSans-46"/>
      <use x="876.109375" xlink:href="#DejaVuSans-41"/>
     </g>
    </g>
    <g id="line2d_25">
     <path d="M 279.843437 98.604813 
L 299.843437 98.604813 
" style="fill:none;stroke:#d62728;stroke-linecap:square;stroke-width:1.5;"/>
    </g>
    <g id="line2d_26"/>
    <g id="text_19">
     <!-- pred.(95th percen.) -->
     <defs>
      <path d="M 10.984375 1.515625 
L 10.984375 10.5 
Q 14.703125 8.734375 18.5 7.8125 
Q 22.3125 6.890625 25.984375 6.890625 
Q 35.75 6.890625 40.890625 13.453125 
Q 46.046875 20.015625 46.78125 33.40625 
Q 43.953125 29.203125 39.59375 26.953125 
Q 35.25 24.703125 29.984375 24.703125 
Q 19.046875 24.703125 12.671875 31.3125 
Q 6.296875 37.9375 6.296875 49.421875 
Q 6.296875 60.640625 12.9375 67.421875 
Q 19.578125 74.21875 30.609375 74.21875 
Q 43.265625 74.21875 49.921875 64.515625 
Q 56.59375 54.828125 56.59375 36.375 
Q 56.59375 19.140625 48.40625 8.859375 
Q 40.234375 -1.421875 26.421875 -1.421875 
Q 22.703125 -1.421875 18.890625 -0.6875 
Q 15.09375 0.046875 10.984375 1.515625 
z
M 30.609375 32.421875 
Q 37.25 32.421875 41.125 36.953125 
Q 45.015625 41.5 45.015625 49.421875 
Q 45.015625 57.28125 41.125 61.84375 
Q 37.25 66.40625 30.609375 66.40625 
Q 23.96875 66.40625 20.09375 61.84375 
Q 16.21875 57.28125 16.21875 49.421875 
Q 16.21875 41.5 20.09375 36.953125 
Q 23.96875 32.421875 30.609375 32.421875 
z
" id="DejaVuSans-57"/>
     </defs>
     <g transform="translate(307.843437 102.104813)scale(0.1 -0.1)">
      <use xlink:href="#DejaVuSans-112"/>
      <use x="63.476562" xlink:href="#DejaVuSans-114"/>
      <use x="104.558594" xlink:href="#DejaVuSans-101"/>
      <use x="166.082031" xlink:href="#DejaVuSans-100"/>
      <use x="229.558594" xlink:href="#DejaVuSans-46"/>
      <use x="261.345703" xlink:href="#DejaVuSans-40"/>
      <use x="300.359375" xlink:href="#DejaVuSans-57"/>
      <use x="363.982422" xlink:href="#DejaVuSans-53"/>
      <use x="427.605469" xlink:href="#DejaVuSans-116"/>
      <use x="466.814453" xlink:href="#DejaVuSans-104"/>
      <use x="530.193359" xlink:href="#DejaVuSans-32"/>
      <use x="561.980469" xlink:href="#DejaVuSans-112"/>
      <use x="625.457031" xlink:href="#DejaVuSans-101"/>
      <use x="686.980469" xlink:href="#DejaVuSans-114"/>
      <use x="728.0625" xlink:href="#DejaVuSans-99"/>
      <use x="783.042969" xlink:href="#DejaVuSans-101"/>
      <use x="844.566406" xlink:href="#DejaVuSans-110"/>
      <use x="907.945312" xlink:href="#DejaVuSans-46"/>
      <use x="939.732422" xlink:href="#DejaVuSans-41"/>
     </g>
    </g>
   </g>
  </g>
 </g>
 <defs>
  <clipPath id="p1f3f819e9b">
   <rect height="266.112" width="357.12" x="57.6" y="41.472"/>
  </clipPath>
 </defs>
</svg>
