<?xml version="1.0" encoding="utf-8" standalone="no"?>
<!DOCTYPE svg PUBLIC "-//W3C//DTD SVG 1.1//EN"
  "http://www.w3.org/Graphics/SVG/1.1/DTD/svg11.dtd">
<!-- Created with matplotlib (https://matplotlib.org/) -->
<svg height="345.6pt" version="1.1" viewBox="0 0 460.8 345.6" width="460.8pt" xmlns="http://www.w3.org/2000/svg" xmlns:xlink="http://www.w3.org/1999/xlink">
 <defs>
  <style type="text/css">
*{stroke-linecap:butt;stroke-linejoin:round;}
  </style>
 </defs>
 <g id="figure_1">
  <g id="patch_1">
   <path d="M 0 345.6 
L 460.8 345.6 
L 460.8 0 
L 0 0 
z
" style="fill:#ffffff;"/>
  </g>
  <g id="axes_1">
   <g id="patch_2">
    <path d="M 57.6 307.584 
L 414.72 307.584 
L 414.72 41.472 
L 57.6 41.472 
z
" style="fill:#ffffff;"/>
   </g>
   <g id="PolyCollection_1">
    <path clip-path="url(#pb697d5246f)" d="M 73.832727 81.967943 
L 73.832727 146.992816 
L 75.196822 246.05347 
L 76.560917 146.065748 
L 77.925011 189.722499 
L 79.289106 147.124017 
L 80.653201 261.779933 
L 82.017296 235.004404 
L 83.38139 147.570437 
L 84.745485 150.460936 
L 86.10958 147.96109 
L 87.473675 271.613072 
L 88.837769 169.068482 
L 90.201864 147.876667 
L 91.565959 162.47773 
L 92.930053 223.671457 
L 94.294148 154.891604 
L 95.658243 268.816206 
L 97.022338 244.422296 
L 98.386432 262.77582 
L 99.750527 227.478531 
L 101.114622 192.11981 
L 102.478717 147.571864 
L 103.842811 221.958456 
L 105.206906 147.743277 
L 106.571001 148.633539 
L 107.935095 147.859138 
L 109.29919 279.333431 
L 110.663285 144.501902 
L 112.02738 151.031176 
L 113.391474 149.213246 
L 114.755569 150.704606 
L 116.119664 254.18976 
L 117.483759 156.955634 
L 118.847853 233.277288 
L 120.211948 144.654057 
L 121.576043 151.178504 
L 122.940138 145.821508 
L 124.304232 145.277089 
L 125.668327 237.734422 
L 127.032422 145.437512 
L 128.396516 160.652781 
L 129.760611 153.881833 
L 131.124706 149.169868 
L 132.488801 150.720076 
L 133.852895 147.888776 
L 135.21699 175.613409 
L 136.581085 157.268768 
L 137.94518 202.391623 
L 139.309274 200.04702 
L 140.673369 244.683546 
L 142.037464 154.182266 
L 143.401558 236.26933 
L 144.765653 145.908562 
L 146.129748 220.833135 
L 147.493843 236.6177 
L 148.857937 147.720725 
L 150.222032 151.017709 
L 151.586127 169.06911 
L 152.950222 148.040679 
L 154.314316 244.312965 
L 155.678411 145.051165 
L 157.042506 214.46091 
L 158.4066 148.608073 
L 159.770695 213.853958 
L 161.13479 147.816247 
L 162.498885 148.098623 
L 163.862979 216.721476 
L 165.227074 254.97111 
L 166.591169 147.539207 
L 167.955264 146.083579 
L 169.319358 279.097742 
L 170.683453 149.72803 
L 172.047548 147.078886 
L 173.411642 269.372533 
L 174.775737 148.781249 
L 176.139832 147.743404 
L 177.503927 147.91105 
L 178.868021 211.471049 
L 180.232116 151.946876 
L 181.596211 236.286805 
L 182.960306 146.820111 
L 184.3244 149.80724 
L 185.688495 232.369119 
L 187.05259 201.957787 
L 188.416684 201.578407 
L 189.780779 153.494351 
L 191.144874 147.8119 
L 192.508969 283.756233 
L 193.873063 149.254839 
L 195.237158 147.769302 
L 196.601253 282.397883 
L 197.965348 159.524794 
L 199.329442 149.086574 
L 200.693537 146.772108 
L 202.057632 164.260577 
L 203.421727 196.732426 
L 204.785821 148.354898 
L 206.149916 220.744574 
L 207.514011 194.201467 
L 208.878105 149.014263 
L 210.2422 147.912979 
L 211.606295 147.213445 
L 212.97039 264.018862 
L 214.334484 150.249696 
L 215.698579 230.216343 
L 217.062674 260.507367 
L 218.426769 147.758129 
L 219.790863 153.311353 
L 221.154958 243.680926 
L 222.519053 275.776824 
L 223.883147 149.667091 
L 225.247242 144.886258 
L 226.611337 149.644901 
L 227.975432 147.780891 
L 229.339526 148.070392 
L 230.703621 183.90234 
L 232.067716 154.089084 
L 233.431811 273.772577 
L 234.795905 176.774594 
L 236.16 145.754926 
L 237.524095 150.432152 
L 238.888189 146.941056 
L 240.252284 153.55385 
L 241.616379 145.808253 
L 242.980474 146.810056 
L 244.344568 152.183258 
L 245.708663 148.558931 
L 247.072758 277.696095 
L 248.436853 174.328794 
L 249.800947 273.117916 
L 251.165042 152.069722 
L 252.529137 146.188375 
L 253.893231 214.900022 
L 255.257326 208.249709 
L 256.621421 220.708487 
L 257.985516 148.000066 
L 259.34961 289.657052 
L 260.713705 150.659909 
L 262.0778 150.806679 
L 263.441895 154.586346 
L 264.805989 242.090798 
L 266.170084 151.066243 
L 267.534179 218.483712 
L 268.898273 147.823907 
L 270.262368 148.922413 
L 271.626463 248.348463 
L 272.990558 150.17678 
L 274.354652 161.042165 
L 275.718747 234.467338 
L 277.082842 226.455532 
L 278.446937 146.568262 
L 279.811031 146.337621 
L 281.175126 147.834274 
L 282.539221 187.290457 
L 283.903316 223.026799 
L 285.26741 244.835084 
L 286.631505 228.607759 
L 287.9956 168.484231 
L 289.359694 147.647356 
L 290.723789 180.768998 
L 292.087884 193.752269 
L 293.451979 263.939978 
L 294.816073 191.725668 
L 296.180168 146.942244 
L 297.544263 163.832492 
L 298.908358 193.789154 
L 300.272452 178.570373 
L 301.636547 145.80695 
L 303.000642 151.224744 
L 304.364736 153.608869 
L 305.728831 156.717107 
L 307.092926 148.00028 
L 308.457021 147.327383 
L 309.821115 147.524976 
L 311.18521 144.687584 
L 312.549305 288.404267 
L 313.9134 148.886468 
L 315.277494 221.226808 
L 316.641589 145.434827 
L 318.005684 151.292075 
L 319.369778 275.890145 
L 320.733873 156.098933 
L 322.097968 224.058284 
L 323.462063 148.919461 
L 324.826157 193.506909 
L 326.190252 147.273142 
L 327.554347 144.612162 
L 328.918442 207.16033 
L 330.282536 148.036345 
L 331.646631 145.701962 
L 333.010726 158.336052 
L 334.37482 197.273116 
L 335.738915 147.966355 
L 337.10301 149.065092 
L 338.467105 148.685347 
L 339.831199 147.123284 
L 341.195294 150.70672 
L 342.559389 149.40727 
L 343.923484 279.805647 
L 345.287578 148.906198 
L 346.651673 159.972256 
L 348.015768 148.266977 
L 349.379862 218.782984 
L 350.743957 156.543042 
L 352.108052 148.986348 
L 353.472147 152.610172 
L 354.836241 155.563996 
L 356.200336 151.255257 
L 357.564431 169.835794 
L 358.928526 236.505104 
L 360.29262 147.620119 
L 361.656715 153.1581 
L 363.02081 145.644992 
L 364.384905 197.924012 
L 365.748999 147.806366 
L 367.113094 240.795919 
L 368.477189 218.498405 
L 369.841283 149.002569 
L 371.205378 164.020792 
L 372.569473 178.790938 
L 373.933568 146.292708 
L 375.297662 255.228046 
L 376.661757 206.898264 
L 378.025852 150.475088 
L 379.389947 277.377456 
L 380.754041 151.092538 
L 382.118136 150.453772 
L 383.482231 146.243909 
L 384.846325 167.996587 
L 386.21042 185.362338 
L 387.574515 188.046017 
L 388.93861 209.668337 
L 390.302704 153.09626 
L 391.666799 150.020742 
L 393.030894 204.667884 
L 394.394989 146.704849 
L 395.759083 148.424021 
L 397.123178 206.797825 
L 398.487273 152.035632 
L 398.487273 135.964573 
L 398.487273 135.964573 
L 397.123178 158.400991 
L 395.759083 108.489709 
L 394.394989 76.877416 
L 393.030894 156.750434 
L 391.666799 122.10943 
L 390.302704 137.156007 
L 388.93861 158.556727 
L 387.574515 156.887638 
L 386.21042 156.310714 
L 384.846325 145.880548 
L 383.482231 68.543703 
L 382.118136 118.94365 
L 380.754041 111.565764 
L 379.389947 162.081302 
L 378.025852 109.473492 
L 376.661757 158.491963 
L 375.297662 160.204051 
L 373.933568 73.08613 
L 372.569473 153.684145 
L 371.205378 137.45577 
L 369.841283 115.189982 
L 368.477189 158.725504 
L 367.113094 159.285222 
L 365.748999 90.283644 
L 364.384905 157.424989 
L 363.02081 64.843423 
L 361.656715 129.921155 
L 360.29262 102.544596 
L 358.928526 158.972234 
L 357.564431 143.540079 
L 356.200336 124.276151 
L 354.836241 127.859043 
L 353.472147 134.300923 
L 352.108052 100.753103 
L 350.743957 149.533133 
L 349.379862 157.174567 
L 348.015768 91.414053 
L 346.651673 138.122171 
L 345.287578 114.988997 
L 343.923484 163.473244 
L 342.559389 109.994944 
L 341.195294 109.91346 
L 339.831199 88.921847 
L 338.467105 109.620402 
L 337.10301 117.532089 
L 335.738915 102.061048 
L 334.37482 154.95885 
L 333.010726 132.563923 
L 331.646631 72.713112 
L 330.282536 105.399565 
L 328.918442 156.89035 
L 327.554347 59.691946 
L 326.190252 90.872612 
L 324.826157 154.75118 
L 323.462063 112.156599 
L 322.097968 159.082486 
L 320.733873 148.167894 
L 319.369778 162.795778 
L 318.005684 126.918475 
L 316.641589 59.206016 
L 315.277494 157.428649 
L 313.9134 97.066023 
L 312.549305 163.237518 
L 311.18521 61.098726 
L 309.821115 97.066861 
L 308.457021 96.013331 
L 307.092926 103.50796 
L 305.728831 148.743898 
L 304.364736 142.287142 
L 303.000642 113.638496 
L 301.636547 69.453468 
L 300.272452 153.008923 
L 298.908358 154.351326 
L 297.544263 141.169613 
L 296.180168 88.347539 
L 294.816073 154.308068 
L 293.451979 162.423641 
L 292.087884 153.897356 
L 290.723789 155.679123 
L 289.359694 97.137393 
L 287.9956 145.075287 
L 286.631505 158.969531 
L 285.26741 160.01075 
L 283.903316 159.137268 
L 282.539221 156.725639 
L 281.175126 99.767816 
L 279.811031 72.796081 
L 278.446937 87.046927 
L 277.082842 158.880533 
L 275.718747 160.019327 
L 274.354652 144.287582 
L 272.990558 121.911854 
L 271.626463 160.682692 
L 270.262368 112.106029 
L 268.898273 96.745384 
L 267.534179 159.342834 
L 266.170084 116.812261 
L 264.805989 159.077243 
L 263.441895 125.663199 
L 262.0778 127.31702 
L 260.713705 125.302765 
L 259.34961 163.667678 
L 257.985516 101.023533 
L 256.621421 157.398412 
L 255.257326 157.160558 
L 253.893231 157.927185 
L 252.529137 68.099359 
L 251.165042 137.07999 
L 249.800947 161.743471 
L 248.436853 150.69872 
L 247.072758 161.999194 
L 245.708663 96.525508 
L 244.344568 117.951925 
L 242.980474 90.978629 
L 241.616379 63.265486 
L 240.252284 142.609571 
L 238.888189 80.060009 
L 237.524095 126.981058 
L 236.16 76.131953 
L 234.795905 152.38538 
L 233.431811 162.481749 
L 232.067716 129.802437 
L 230.703621 156.146732 
L 229.339526 95.945235 
L 227.975432 92.732409 
L 226.611337 121.957948 
L 225.247242 58.664622 
L 223.883147 121.252025 
L 222.519053 162.870623 
L 221.154958 159.314902 
L 219.790863 129.218854 
L 218.426769 91.881689 
L 217.062674 162.314139 
L 215.698579 159.925511 
L 214.334484 106.772271 
L 212.97039 160.561736 
L 211.606295 88.976741 
L 210.2422 93.824112 
L 208.878105 116.245968 
L 207.514011 157.338708 
L 206.149916 157.57849 
L 204.785821 95.68728 
L 203.421727 154.550809 
L 202.057632 141.774642 
L 200.693537 78.350214 
L 199.329442 99.766882 
L 197.965348 135.831795 
L 196.601253 163.575223 
L 195.237158 91.351091 
L 193.873063 101.087474 
L 192.508969 163.44995 
L 191.144874 101.316592 
L 189.780779 142.048053 
L 188.416684 155.429466 
L 187.05259 155.77293 
L 185.688495 159.765593 
L 184.3244 120.154569 
L 182.960306 80.551411 
L 181.596211 159.260043 
L 180.232116 122.837372 
L 178.868021 158.424005 
L 177.503927 101.388914 
L 176.139832 99.000898 
L 174.775737 98.107994 
L 173.411642 161.327664 
L 172.047548 88.061109 
L 170.683453 122.905541 
L 169.319358 162.834101 
L 167.955264 65.574718 
L 166.591169 94.520131 
L 165.227074 162.028182 
L 163.862979 157.413202 
L 162.498885 107.12889 
L 161.13479 96.535066 
L 159.770695 158.79908 
L 158.4066 99.981945 
L 157.042506 157.584016 
L 155.678411 55.485966 
L 154.314316 160.016479 
L 152.950222 104.106039 
L 151.586127 143.980124 
L 150.222032 129.560501 
L 148.857937 95.463305 
L 147.493843 160.288066 
L 146.129748 158.171978 
L 144.765653 66.51196 
L 143.401558 159.284979 
L 142.037464 145.055111 
L 140.673369 159.970825 
L 139.309274 157.682655 
L 137.94518 156.17295 
L 136.581085 133.498602 
L 135.21699 149.756618 
L 133.852895 89.27239 
L 132.488801 127.409379 
L 131.124706 103.625843 
L 129.760611 142.756557 
L 128.396516 133.417568 
L 127.032422 65.303106 
L 125.668327 159.917269 
L 124.304232 58.320936 
L 122.940138 74.903794 
L 121.576043 125.827385 
L 120.211948 53.568 
L 118.847853 159.207829 
L 117.483759 148.760543 
L 116.119664 160.093452 
L 114.755569 110.089837 
L 113.391474 101.548319 
L 112.02738 130.704927 
L 110.663285 53.906886 
L 109.29919 162.232632 
L 107.935095 99.612372 
L 106.571001 98.324225 
L 105.206906 98.007445 
L 103.842811 159.18859 
L 102.478717 95.620577 
L 101.114622 157.263605 
L 99.750527 159.263266 
L 98.386432 160.531916 
L 97.022338 159.314916 
L 95.658243 161.353819 
L 94.294148 141.120183 
L 92.930053 159.609999 
L 91.565959 149.940665 
L 90.201864 95.971329 
L 88.837769 145.224756 
L 87.473675 162.817292 
L 86.10958 100.699961 
L 84.745485 126.595943 
L 83.38139 100.02733 
L 82.017296 158.910494 
L 80.653201 160.40646 
L 79.289106 82.721789 
L 77.925011 154.22849 
L 76.560917 79.783736 
L 75.196822 160.379054 
L 73.832727 81.967943 
z
" style="fill:#008000;fill-opacity:0.4;"/>
   </g>
   <g id="matplotlib.axis_1">
    <g id="xtick_1">
     <g id="line2d_1">
      <defs>
       <path d="M 0 0 
L 0 3.5 
" id="m2db9c1a0c4" style="stroke:#000000;stroke-width:0.8;"/>
      </defs>
      <g>
       <use style="stroke:#000000;stroke-width:0.8;" x="73.832727" xlink:href="#m2db9c1a0c4" y="307.584"/>
      </g>
     </g>
     <g id="text_1">
      <!-- 0.0 -->
      <defs>
       <path d="M 31.78125 66.40625 
Q 24.171875 66.40625 20.328125 58.90625 
Q 16.5 51.421875 16.5 36.375 
Q 16.5 21.390625 20.328125 13.890625 
Q 24.171875 6.390625 31.78125 6.390625 
Q 39.453125 6.390625 43.28125 13.890625 
Q 47.125 21.390625 47.125 36.375 
Q 47.125 51.421875 43.28125 58.90625 
Q 39.453125 66.40625 31.78125 66.40625 
z
M 31.78125 74.21875 
Q 44.046875 74.21875 50.515625 64.515625 
Q 56.984375 54.828125 56.984375 36.375 
Q 56.984375 17.96875 50.515625 8.265625 
Q 44.046875 -1.421875 31.78125 -1.421875 
Q 19.53125 -1.421875 13.0625 8.265625 
Q 6.59375 17.96875 6.59375 36.375 
Q 6.59375 54.828125 13.0625 64.515625 
Q 19.53125 74.21875 31.78125 74.21875 
z
" id="DejaVuSans-48"/>
       <path d="M 10.6875 12.40625 
L 21 12.40625 
L 21 0 
L 10.6875 0 
z
" id="DejaVuSans-46"/>
      </defs>
      <g transform="translate(65.881165 322.182437)scale(0.1 -0.1)">
       <use xlink:href="#DejaVuSans-48"/>
       <use x="63.623047" xlink:href="#DejaVuSans-46"/>
       <use x="95.410156" xlink:href="#DejaVuSans-48"/>
      </g>
     </g>
    </g>
    <g id="xtick_2">
     <g id="line2d_2">
      <g>
       <use style="stroke:#000000;stroke-width:0.8;" x="138.763636" xlink:href="#m2db9c1a0c4" y="307.584"/>
      </g>
     </g>
     <g id="text_2">
      <!-- 0.2 -->
      <defs>
       <path d="M 19.1875 8.296875 
L 53.609375 8.296875 
L 53.609375 0 
L 7.328125 0 
L 7.328125 8.296875 
Q 12.9375 14.109375 22.625 23.890625 
Q 32.328125 33.6875 34.8125 36.53125 
Q 39.546875 41.84375 41.421875 45.53125 
Q 43.3125 49.21875 43.3125 52.78125 
Q 43.3125 58.59375 39.234375 62.25 
Q 35.15625 65.921875 28.609375 65.921875 
Q 23.96875 65.921875 18.8125 64.3125 
Q 13.671875 62.703125 7.8125 59.421875 
L 7.8125 69.390625 
Q 13.765625 71.78125 18.9375 73 
Q 24.125 74.21875 28.421875 74.21875 
Q 39.75 74.21875 46.484375 68.546875 
Q 53.21875 62.890625 53.21875 53.421875 
Q 53.21875 48.921875 51.53125 44.890625 
Q 49.859375 40.875 45.40625 35.40625 
Q 44.1875 33.984375 37.640625 27.21875 
Q 31.109375 20.453125 19.1875 8.296875 
z
" id="DejaVuSans-50"/>
      </defs>
      <g transform="translate(130.812074 322.182437)scale(0.1 -0.1)">
       <use xlink:href="#DejaVuSans-48"/>
       <use x="63.623047" xlink:href="#DejaVuSans-46"/>
       <use x="95.410156" xlink:href="#DejaVuSans-50"/>
      </g>
     </g>
    </g>
    <g id="xtick_3">
     <g id="line2d_3">
      <g>
       <use style="stroke:#000000;stroke-width:0.8;" x="203.694545" xlink:href="#m2db9c1a0c4" y="307.584"/>
      </g>
     </g>
     <g id="text_3">
      <!-- 0.4 -->
      <defs>
       <path d="M 37.796875 64.3125 
L 12.890625 25.390625 
L 37.796875 25.390625 
z
M 35.203125 72.90625 
L 47.609375 72.90625 
L 47.609375 25.390625 
L 58.015625 25.390625 
L 58.015625 17.1875 
L 47.609375 17.1875 
L 47.609375 0 
L 37.796875 0 
L 37.796875 17.1875 
L 4.890625 17.1875 
L 4.890625 26.703125 
z
" id="DejaVuSans-52"/>
      </defs>
      <g transform="translate(195.742983 322.182437)scale(0.1 -0.1)">
       <use xlink:href="#DejaVuSans-48"/>
       <use x="63.623047" xlink:href="#DejaVuSans-46"/>
       <use x="95.410156" xlink:href="#DejaVuSans-52"/>
      </g>
     </g>
    </g>
    <g id="xtick_4">
     <g id="line2d_4">
      <g>
       <use style="stroke:#000000;stroke-width:0.8;" x="268.625455" xlink:href="#m2db9c1a0c4" y="307.584"/>
      </g>
     </g>
     <g id="text_4">
      <!-- 0.6 -->
      <defs>
       <path d="M 33.015625 40.375 
Q 26.375 40.375 22.484375 35.828125 
Q 18.609375 31.296875 18.609375 23.390625 
Q 18.609375 15.53125 22.484375 10.953125 
Q 26.375 6.390625 33.015625 6.390625 
Q 39.65625 6.390625 43.53125 10.953125 
Q 47.40625 15.53125 47.40625 23.390625 
Q 47.40625 31.296875 43.53125 35.828125 
Q 39.65625 40.375 33.015625 40.375 
z
M 52.59375 71.296875 
L 52.59375 62.3125 
Q 48.875 64.0625 45.09375 64.984375 
Q 41.3125 65.921875 37.59375 65.921875 
Q 27.828125 65.921875 22.671875 59.328125 
Q 17.53125 52.734375 16.796875 39.40625 
Q 19.671875 43.65625 24.015625 45.921875 
Q 28.375 48.1875 33.59375 48.1875 
Q 44.578125 48.1875 50.953125 41.515625 
Q 57.328125 34.859375 57.328125 23.390625 
Q 57.328125 12.15625 50.6875 5.359375 
Q 44.046875 -1.421875 33.015625 -1.421875 
Q 20.359375 -1.421875 13.671875 8.265625 
Q 6.984375 17.96875 6.984375 36.375 
Q 6.984375 53.65625 15.1875 63.9375 
Q 23.390625 74.21875 37.203125 74.21875 
Q 40.921875 74.21875 44.703125 73.484375 
Q 48.484375 72.75 52.59375 71.296875 
z
" id="DejaVuSans-54"/>
      </defs>
      <g transform="translate(260.673892 322.182437)scale(0.1 -0.1)">
       <use xlink:href="#DejaVuSans-48"/>
       <use x="63.623047" xlink:href="#DejaVuSans-46"/>
       <use x="95.410156" xlink:href="#DejaVuSans-54"/>
      </g>
     </g>
    </g>
    <g id="xtick_5">
     <g id="line2d_5">
      <g>
       <use style="stroke:#000000;stroke-width:0.8;" x="333.556364" xlink:href="#m2db9c1a0c4" y="307.584"/>
      </g>
     </g>
     <g id="text_5">
      <!-- 0.8 -->
      <defs>
       <path d="M 31.78125 34.625 
Q 24.75 34.625 20.71875 30.859375 
Q 16.703125 27.09375 16.703125 20.515625 
Q 16.703125 13.921875 20.71875 10.15625 
Q 24.75 6.390625 31.78125 6.390625 
Q 38.8125 6.390625 42.859375 10.171875 
Q 46.921875 13.96875 46.921875 20.515625 
Q 46.921875 27.09375 42.890625 30.859375 
Q 38.875 34.625 31.78125 34.625 
z
M 21.921875 38.8125 
Q 15.578125 40.375 12.03125 44.71875 
Q 8.5 49.078125 8.5 55.328125 
Q 8.5 64.0625 14.71875 69.140625 
Q 20.953125 74.21875 31.78125 74.21875 
Q 42.671875 74.21875 48.875 69.140625 
Q 55.078125 64.0625 55.078125 55.328125 
Q 55.078125 49.078125 51.53125 44.71875 
Q 48 40.375 41.703125 38.8125 
Q 48.828125 37.15625 52.796875 32.3125 
Q 56.78125 27.484375 56.78125 20.515625 
Q 56.78125 9.90625 50.3125 4.234375 
Q 43.84375 -1.421875 31.78125 -1.421875 
Q 19.734375 -1.421875 13.25 4.234375 
Q 6.78125 9.90625 6.78125 20.515625 
Q 6.78125 27.484375 10.78125 32.3125 
Q 14.796875 37.15625 21.921875 38.8125 
z
M 18.3125 54.390625 
Q 18.3125 48.734375 21.84375 45.5625 
Q 25.390625 42.390625 31.78125 42.390625 
Q 38.140625 42.390625 41.71875 45.5625 
Q 45.3125 48.734375 45.3125 54.390625 
Q 45.3125 60.0625 41.71875 63.234375 
Q 38.140625 66.40625 31.78125 66.40625 
Q 25.390625 66.40625 21.84375 63.234375 
Q 18.3125 60.0625 18.3125 54.390625 
z
" id="DejaVuSans-56"/>
      </defs>
      <g transform="translate(325.604801 322.182437)scale(0.1 -0.1)">
       <use xlink:href="#DejaVuSans-48"/>
       <use x="63.623047" xlink:href="#DejaVuSans-46"/>
       <use x="95.410156" xlink:href="#DejaVuSans-56"/>
      </g>
     </g>
    </g>
    <g id="xtick_6">
     <g id="line2d_6">
      <g>
       <use style="stroke:#000000;stroke-width:0.8;" x="398.487273" xlink:href="#m2db9c1a0c4" y="307.584"/>
      </g>
     </g>
     <g id="text_6">
      <!-- 1.0 -->
      <defs>
       <path d="M 12.40625 8.296875 
L 28.515625 8.296875 
L 28.515625 63.921875 
L 10.984375 60.40625 
L 10.984375 69.390625 
L 28.421875 72.90625 
L 38.28125 72.90625 
L 38.28125 8.296875 
L 54.390625 8.296875 
L 54.390625 0 
L 12.40625 0 
z
" id="DejaVuSans-49"/>
      </defs>
      <g transform="translate(390.53571 322.182437)scale(0.1 -0.1)">
       <use xlink:href="#DejaVuSans-49"/>
       <use x="63.623047" xlink:href="#DejaVuSans-46"/>
       <use x="95.410156" xlink:href="#DejaVuSans-48"/>
      </g>
     </g>
    </g>
   </g>
   <g id="matplotlib.axis_2">
    <g id="ytick_1">
     <g id="line2d_7">
      <defs>
       <path d="M 0 0 
L -3.5 0 
" id="m1040f2eab6" style="stroke:#000000;stroke-width:0.8;"/>
      </defs>
      <g>
       <use style="stroke:#000000;stroke-width:0.8;" x="57.6" xlink:href="#m1040f2eab6" y="286.909806"/>
      </g>
     </g>
     <g id="text_7">
      <!-- 0.20 -->
      <g transform="translate(28.334375 290.709024)scale(0.1 -0.1)">
       <use xlink:href="#DejaVuSans-48"/>
       <use x="63.623047" xlink:href="#DejaVuSans-46"/>
       <use x="95.410156" xlink:href="#DejaVuSans-50"/>
       <use x="159.033203" xlink:href="#DejaVuSans-48"/>
      </g>
     </g>
    </g>
    <g id="ytick_2">
     <g id="line2d_8">
      <g>
       <use style="stroke:#000000;stroke-width:0.8;" x="57.6" xlink:href="#m1040f2eab6" y="254.954082"/>
      </g>
     </g>
     <g id="text_8">
      <!-- 0.25 -->
      <defs>
       <path d="M 10.796875 72.90625 
L 49.515625 72.90625 
L 49.515625 64.59375 
L 19.828125 64.59375 
L 19.828125 46.734375 
Q 21.96875 47.46875 24.109375 47.828125 
Q 26.265625 48.1875 28.421875 48.1875 
Q 40.625 48.1875 47.75 41.5 
Q 54.890625 34.8125 54.890625 23.390625 
Q 54.890625 11.625 47.5625 5.09375 
Q 40.234375 -1.421875 26.90625 -1.421875 
Q 22.3125 -1.421875 17.546875 -0.640625 
Q 12.796875 0.140625 7.71875 1.703125 
L 7.71875 11.625 
Q 12.109375 9.234375 16.796875 8.0625 
Q 21.484375 6.890625 26.703125 6.890625 
Q 35.15625 6.890625 40.078125 11.328125 
Q 45.015625 15.765625 45.015625 23.390625 
Q 45.015625 31 40.078125 35.4375 
Q 35.15625 39.890625 26.703125 39.890625 
Q 22.75 39.890625 18.8125 39.015625 
Q 14.890625 38.140625 10.796875 36.28125 
z
" id="DejaVuSans-53"/>
      </defs>
      <g transform="translate(28.334375 258.753301)scale(0.1 -0.1)">
       <use xlink:href="#DejaVuSans-48"/>
       <use x="63.623047" xlink:href="#DejaVuSans-46"/>
       <use x="95.410156" xlink:href="#DejaVuSans-50"/>
       <use x="159.033203" xlink:href="#DejaVuSans-53"/>
      </g>
     </g>
    </g>
    <g id="ytick_3">
     <g id="line2d_9">
      <g>
       <use style="stroke:#000000;stroke-width:0.8;" x="57.6" xlink:href="#m1040f2eab6" y="222.998359"/>
      </g>
     </g>
     <g id="text_9">
      <!-- 0.30 -->
      <defs>
       <path d="M 40.578125 39.3125 
Q 47.65625 37.796875 51.625 33 
Q 55.609375 28.21875 55.609375 21.1875 
Q 55.609375 10.40625 48.1875 4.484375 
Q 40.765625 -1.421875 27.09375 -1.421875 
Q 22.515625 -1.421875 17.65625 -0.515625 
Q 12.796875 0.390625 7.625 2.203125 
L 7.625 11.71875 
Q 11.71875 9.328125 16.59375 8.109375 
Q 21.484375 6.890625 26.8125 6.890625 
Q 36.078125 6.890625 40.9375 10.546875 
Q 45.796875 14.203125 45.796875 21.1875 
Q 45.796875 27.640625 41.28125 31.265625 
Q 36.765625 34.90625 28.71875 34.90625 
L 20.21875 34.90625 
L 20.21875 43.015625 
L 29.109375 43.015625 
Q 36.375 43.015625 40.234375 45.921875 
Q 44.09375 48.828125 44.09375 54.296875 
Q 44.09375 59.90625 40.109375 62.90625 
Q 36.140625 65.921875 28.71875 65.921875 
Q 24.65625 65.921875 20.015625 65.03125 
Q 15.375 64.15625 9.8125 62.3125 
L 9.8125 71.09375 
Q 15.4375 72.65625 20.34375 73.4375 
Q 25.25 74.21875 29.59375 74.21875 
Q 40.828125 74.21875 47.359375 69.109375 
Q 53.90625 64.015625 53.90625 55.328125 
Q 53.90625 49.265625 50.4375 45.09375 
Q 46.96875 40.921875 40.578125 39.3125 
z
" id="DejaVuSans-51"/>
      </defs>
      <g transform="translate(28.334375 226.797578)scale(0.1 -0.1)">
       <use xlink:href="#DejaVuSans-48"/>
       <use x="63.623047" xlink:href="#DejaVuSans-46"/>
       <use x="95.410156" xlink:href="#DejaVuSans-51"/>
       <use x="159.033203" xlink:href="#DejaVuSans-48"/>
      </g>
     </g>
    </g>
    <g id="ytick_4">
     <g id="line2d_10">
      <g>
       <use style="stroke:#000000;stroke-width:0.8;" x="57.6" xlink:href="#m1040f2eab6" y="191.042636"/>
      </g>
     </g>
     <g id="text_10">
      <!-- 0.35 -->
      <g transform="translate(28.334375 194.841854)scale(0.1 -0.1)">
       <use xlink:href="#DejaVuSans-48"/>
       <use x="63.623047" xlink:href="#DejaVuSans-46"/>
       <use x="95.410156" xlink:href="#DejaVuSans-51"/>
       <use x="159.033203" xlink:href="#DejaVuSans-53"/>
      </g>
     </g>
    </g>
    <g id="ytick_5">
     <g id="line2d_11">
      <g>
       <use style="stroke:#000000;stroke-width:0.8;" x="57.6" xlink:href="#m1040f2eab6" y="159.086912"/>
      </g>
     </g>
     <g id="text_11">
      <!-- 0.40 -->
      <g transform="translate(28.334375 162.886131)scale(0.1 -0.1)">
       <use xlink:href="#DejaVuSans-48"/>
       <use x="63.623047" xlink:href="#DejaVuSans-46"/>
       <use x="95.410156" xlink:href="#DejaVuSans-52"/>
       <use x="159.033203" xlink:href="#DejaVuSans-48"/>
      </g>
     </g>
    </g>
    <g id="ytick_6">
     <g id="line2d_12">
      <g>
       <use style="stroke:#000000;stroke-width:0.8;" x="57.6" xlink:href="#m1040f2eab6" y="127.131189"/>
      </g>
     </g>
     <g id="text_12">
      <!-- 0.45 -->
      <g transform="translate(28.334375 130.930408)scale(0.1 -0.1)">
       <use xlink:href="#DejaVuSans-48"/>
       <use x="63.623047" xlink:href="#DejaVuSans-46"/>
       <use x="95.410156" xlink:href="#DejaVuSans-52"/>
       <use x="159.033203" xlink:href="#DejaVuSans-53"/>
      </g>
     </g>
    </g>
    <g id="ytick_7">
     <g id="line2d_13">
      <g>
       <use style="stroke:#000000;stroke-width:0.8;" x="57.6" xlink:href="#m1040f2eab6" y="95.175466"/>
      </g>
     </g>
     <g id="text_13">
      <!-- 0.50 -->
      <g transform="translate(28.334375 98.974684)scale(0.1 -0.1)">
       <use xlink:href="#DejaVuSans-48"/>
       <use x="63.623047" xlink:href="#DejaVuSans-46"/>
       <use x="95.410156" xlink:href="#DejaVuSans-53"/>
       <use x="159.033203" xlink:href="#DejaVuSans-48"/>
      </g>
     </g>
    </g>
    <g id="ytick_8">
     <g id="line2d_14">
      <g>
       <use style="stroke:#000000;stroke-width:0.8;" x="57.6" xlink:href="#m1040f2eab6" y="63.219742"/>
      </g>
     </g>
     <g id="text_14">
      <!-- 0.55 -->
      <g transform="translate(28.334375 67.018961)scale(0.1 -0.1)">
       <use xlink:href="#DejaVuSans-48"/>
       <use x="63.623047" xlink:href="#DejaVuSans-46"/>
       <use x="95.410156" xlink:href="#DejaVuSans-53"/>
       <use x="159.033203" xlink:href="#DejaVuSans-53"/>
      </g>
     </g>
    </g>
   </g>
   <g id="line2d_15">
    <path clip-path="url(#pb697d5246f)" d="M 73.832727 80.205487 
L 75.196822 239.981548 
L 76.560917 98.066819 
L 77.925011 190.105694 
L 79.289106 87.212099 
L 80.653201 268.139653 
L 82.017296 238.982612 
L 83.38139 115.806081 
L 84.745485 146.449063 
L 86.10958 100.429626 
L 87.473675 248.314961 
L 88.837769 145.089027 
L 90.201864 97.168225 
L 91.565959 164.582018 
L 92.930053 188.819156 
L 94.294148 143.720683 
L 95.658243 272.994366 
L 97.022338 249.05889 
L 98.386432 268.92832 
L 99.750527 221.240794 
L 101.114622 165.02812 
L 102.478717 100.062135 
L 103.842811 210.901839 
L 105.206906 100.919187 
L 106.571001 98.738529 
L 107.935095 99.398734 
L 109.29919 287.29647 
L 110.663285 56.666902 
L 112.02738 137.884929 
L 113.391474 100.816929 
L 114.755569 109.774757 
L 116.119664 259.259157 
L 117.483759 153.76245 
L 118.847853 235.053336 
L 120.211948 55.431493 
L 121.576043 128.5954 
L 124.304232 55.389951 
L 125.668327 232.392063 
L 127.032422 71.308375 
L 128.396516 164.763527 
L 129.760611 152.986565 
L 131.124706 100.294133 
L 132.488801 131.491867 
L 133.852895 88.48905 
L 135.21699 177.640405 
L 136.581085 130.416876 
L 137.94518 202.319171 
L 139.309274 178.879648 
L 140.673369 245.932982 
L 142.037464 151.549196 
L 143.401558 237.455767 
L 144.765653 63.754042 
L 146.129748 222.013484 
L 147.493843 202.888622 
L 148.857937 95.070651 
L 150.222032 129.529786 
L 151.586127 171.821907 
L 152.950222 120.123299 
L 154.314316 243.152834 
L 155.678411 53.701411 
L 157.042506 214.721827 
L 158.4066 100.971595 
L 159.770695 194.051587 
L 161.13479 99.700396 
L 162.498885 136.705124 
L 163.862979 219.540111 
L 165.227074 221.129588 
L 166.591169 94.76068 
L 167.955264 65.028436 
L 169.319358 281.260673 
L 170.683453 150.790567 
L 172.047548 86.74235 
L 173.411642 274.795391 
L 174.775737 98.799245 
L 176.139832 102.668444 
L 177.503927 103.237895 
L 178.868021 197.766759 
L 180.232116 124.634169 
L 181.596211 234.529901 
L 182.960306 76.993937 
L 184.3244 123.404512 
L 185.688495 219.49729 
L 187.05259 205.389477 
L 188.416684 203.697102 
L 189.780779 146.511696 
L 191.144874 115.695514 
L 192.508969 278.892754 
L 193.873063 102.497161 
L 195.237158 91.551687 
L 196.601253 266.246596 
L 197.965348 136.182328 
L 199.329442 99.855062 
L 200.693537 75.647323 
L 202.057632 142.299932 
L 203.421727 199.650868 
L 204.785821 98.801801 
L 206.149916 223.634917 
L 207.514011 163.956325 
L 208.878105 131.892592 
L 210.2422 94.705716 
L 211.606295 89.232979 
L 212.97039 270.577235 
L 214.334484 105.957966 
L 215.698579 195.811069 
L 217.062674 233.652397 
L 218.426769 92.723823 
L 219.790863 131.126933 
L 221.154958 248.245298 
L 222.519053 266.160954 
L 223.883147 131.566643 
L 225.247242 62.966014 
L 226.611337 145.870664 
L 227.975432 97.080027 
L 229.339526 99.111132 
L 230.703621 159.358536 
L 232.067716 131.417091 
L 233.431811 273.954316 
L 234.795905 181.321065 
L 236.16 99.741938 
L 237.524095 152.115452 
L 238.888189 79.124745 
L 240.252284 143.543648 
L 241.616379 60.44279 
L 242.980474 115.209148 
L 244.344568 116.911749 
L 245.708663 99.252377 
L 247.072758 285.609847 
L 248.436853 151.428404 
L 249.800947 278.583422 
L 251.165042 145.046846 
L 252.529137 65.158176 
L 253.893231 212.993661 
L 255.257326 208.618923 
L 256.621421 224.362229 
L 257.985516 100.769635 
L 259.34961 291.079388 
L 260.713705 128.570475 
L 262.0778 131.1934 
L 263.441895 124.924966 
L 264.805989 246.443634 
L 266.170084 112.431556 
L 267.534179 184.439944 
L 268.898273 97.212323 
L 270.262368 115.239825 
L 271.626463 237.021169 
L 272.990558 119.609451 
L 274.354652 146.457371 
L 275.718747 209.070137 
L 277.082842 227.45043 
L 278.446937 112.98439 
L 279.811031 70.182894 
L 281.175126 101.845264 
L 283.903316 214.5678 
L 285.26741 244.422115 
L 286.631505 225.331766 
L 287.9956 170.638906 
L 289.359694 102.621788 
L 290.723789 159.520232 
L 292.087884 197.182608 
L 293.451979 240.417424 
L 294.816073 192.301691 
L 296.180168 98.547434 
L 297.544263 166.406051 
L 298.908358 195.780391 
L 300.272452 150.297171 
L 301.636547 76.446216 
L 303.000642 113.160786 
L 304.364736 146.28481 
L 305.728831 152.872163 
L 307.092926 110.565342 
L 308.457021 107.904069 
L 309.821115 103.630311 
L 311.18521 75.316262 
L 312.549305 295.488 
L 313.9134 98.265584 
L 315.277494 224.753367 
L 316.641589 58.264688 
L 318.005684 153.171908 
L 319.369778 269.617925 
L 320.733873 143.792264 
L 322.097968 221.21459 
L 323.462063 113.898963 
L 324.826157 193.947411 
L 326.190252 88.494802 
L 327.554347 71.700791 
L 328.918442 205.852835 
L 330.282536 125.502086 
L 331.646631 87.793054 
L 333.010726 131.351262 
L 334.37482 199.019423 
L 335.738915 103.719148 
L 337.10301 140.9514 
L 338.467105 113.888098 
L 339.831199 94.829705 
L 341.195294 108.263252 
L 342.559389 105.452426 
L 343.923484 261.043565 
L 345.287578 144.028097 
L 346.651673 134.443937 
L 348.015768 90.092588 
L 349.379862 222.077395 
L 350.743957 146.326353 
L 352.108052 101.234271 
L 353.472147 137.130774 
L 354.836241 126.812271 
L 356.200336 126.959267 
L 357.564431 172.987013 
L 358.928526 240.623858 
L 360.29262 132.285008 
L 361.656715 124.418787 
L 363.02081 69.362271 
L 364.384905 181.574794 
L 365.748999 89.688668 
L 367.113094 245.115554 
L 368.477189 216.887146 
L 369.841283 125.223432 
L 371.205378 167.886879 
L 372.569473 183.005132 
L 373.933568 71.620263 
L 375.297662 259.946205 
L 376.661757 174.664049 
L 378.025852 109.703177 
L 379.389947 284.418537 
L 380.754041 110.863808 
L 382.118136 121.585593 
L 383.482231 68.884214 
L 384.846325 171.455055 
L 386.21042 156.159768 
L 387.574515 162.318914 
L 388.93861 179.957834 
L 390.302704 131.890035 
L 391.666799 124.772857 
L 393.030894 204.475543 
L 394.394989 73.228914 
L 395.759083 121.58048 
L 397.123178 176.14296 
L 398.487273 140.358302 
L 398.487273 140.358302 
" style="fill:none;stroke:#1f77b4;stroke-linecap:square;stroke-width:1.5;"/>
   </g>
   <g id="line2d_16">
    <path clip-path="url(#pb697d5246f)" d="M 73.832727 95.28962 
L 75.196822 229.124045 
L 76.560917 94.250344 
L 77.925011 175.084768 
L 79.289106 96.240794 
L 80.653201 237.636176 
L 82.017296 214.600622 
L 83.38139 111.698177 
L 84.745485 134.961309 
L 86.10958 109.003928 
L 87.473675 247.452615 
L 88.837769 156.565972 
L 90.201864 106.09228 
L 91.565959 155.881245 
L 92.930053 201.412512 
L 94.294148 145.433019 
L 95.658243 245.624805 
L 97.022338 221.365451 
L 98.386432 238.746016 
L 99.750527 213.354458 
L 101.114622 177.788448 
L 102.478717 104.73369 
L 103.842811 207.497176 
L 105.206906 106.704338 
L 106.571001 110.670377 
L 107.935095 108.042003 
L 109.29919 254.12411 
L 110.663285 69.941554 
L 112.02738 136.249469 
L 113.391474 115.001242 
L 114.755569 122.858278 
L 116.119664 231.44909 
L 117.483759 152.408525 
L 118.847853 215.538472 
L 120.211948 70.246528 
L 121.576043 131.64353 
L 122.940138 89.88701 
L 124.304232 75.030072 
L 125.668327 221.773088 
L 127.032422 79.337167 
L 128.396516 146.214641 
L 129.760611 147.705072 
L 131.124706 115.879627 
L 132.488801 132.316117 
L 133.852895 103.024725 
L 135.21699 161.573514 
L 136.581085 144.890918 
L 137.94518 187.482023 
L 139.309274 185.86841 
L 140.673369 225.574814 
L 142.037464 148.261593 
L 143.401558 218.531092 
L 144.765653 81.579028 
L 146.129748 204.645747 
L 147.493843 213.946815 
L 148.857937 105.035189 
L 150.222032 133.737622 
L 151.586127 155.082539 
L 152.950222 114.05243 
L 154.314316 226.338034 
L 155.678411 72.704159 
L 157.042506 199.175074 
L 158.4066 111.389677 
L 159.770695 199.387287 
L 161.13479 105.88345 
L 162.498885 122.271598 
L 163.862979 198.974531 
L 165.227074 230.024258 
L 166.591169 103.914078 
L 167.955264 81.777058 
L 169.319358 256.52124 
L 170.683453 135.645179 
L 172.047548 98.660989 
L 173.411642 245.690277 
L 174.775737 111.089181 
L 176.139832 107.842117 
L 177.503927 109.804464 
L 178.868021 197.678519 
L 180.232116 132.486555 
L 181.596211 217.53186 
L 182.960306 93.329522 
L 184.3244 125.523451 
L 185.688495 216.229921 
L 187.05259 186.029362 
L 188.416684 184.988622 
L 189.780779 144.49955 
L 191.144874 111.18271 
L 192.508969 261.149056 
L 193.873063 114.918468 
L 195.237158 103.182174 
L 196.601253 258.186489 
L 197.965348 147.543179 
L 199.329442 113.031204 
L 200.693537 91.682254 
L 202.057632 152.812933 
L 203.421727 179.248829 
L 204.785821 108.20384 
L 206.149916 201.815518 
L 207.514011 177.068577 
L 208.878105 126.376589 
L 210.2422 105.254671 
L 211.606295 99.724695 
L 212.97039 239.608102 
L 214.334484 120.203235 
L 215.698579 207.976113 
L 217.062674 237.041089 
L 218.426769 103.423003 
L 219.790863 137.875598 
L 221.154958 221.22867 
L 222.519053 253.889417 
L 223.883147 129.229733 
L 225.247242 73.833642 
L 226.611337 132.807168 
L 227.975432 103.922974 
L 229.339526 106.937831 
L 230.703621 169.221325 
L 232.067716 139.354691 
L 233.431811 252.149022 
L 234.795905 165.129963 
L 236.16 92.919025 
L 237.524095 138.109304 
L 238.888189 94.069185 
L 240.252284 145.444931 
L 241.616379 79.591278 
L 244.344568 131.057471 
L 245.708663 109.456331 
L 247.072758 252.560108 
L 248.436853 161.450216 
L 249.800947 249.268631 
L 251.165042 141.3502 
L 252.529137 83.708391 
L 253.893231 200.678596 
L 255.257326 192.981863 
L 256.621421 199.936307 
L 257.985516 109.313705 
L 259.34961 266.364077 
L 260.713705 129.888067 
L 262.0778 131.758481 
L 263.441895 138.392908 
L 264.805989 219.419384 
L 266.170084 127.323158 
L 267.534179 197.098735 
L 268.898273 106.061353 
L 270.262368 118.682651 
L 271.626463 230.675266 
L 272.990558 126.950064 
L 274.354652 151.91151 
L 275.718747 215.309033 
L 277.082842 210.173739 
L 278.446937 103.212364 
L 279.811031 87.522968 
L 281.175126 108.385635 
L 282.539221 171.331255 
L 283.903316 209.394568 
L 285.26741 226.488212 
L 286.631505 212.091661 
L 287.9956 155.403262 
L 289.359694 105.957679 
L 290.723789 169.774669 
L 292.087884 175.808839 
L 293.451979 240.886092 
L 294.816073 176.325667 
L 296.180168 99.335596 
L 297.544263 151.318362 
L 298.908358 177.42304 
L 300.272452 164.463275 
L 301.636547 82.77658 
L 303.000642 126.296769 
L 304.364736 144.570049 
L 305.728831 152.273349 
L 307.092926 112.710515 
L 308.457021 106.874866 
L 309.821115 106.478078 
L 311.18521 77.207321 
L 312.549305 263.750093 
L 313.9134 111.221849 
L 315.277494 201.211347 
L 316.641589 76.096156 
L 318.005684 138.791849 
L 319.369778 254.457937 
L 320.733873 150.09539 
L 322.097968 210.285743 
L 323.462063 118.857422 
L 324.826157 178.859349 
L 326.190252 101.11664 
L 327.554347 75.403298 
L 328.918442 191.686207 
L 330.282536 116.573827 
L 331.646631 87.188101 
L 333.010726 145.318509 
L 334.37482 181.41886 
L 335.738915 110.362711 
L 337.10301 128.685031 
L 338.467105 117.473743 
L 339.831199 99.237681 
L 341.195294 122.890568 
L 342.559389 119.234322 
L 343.923484 255.497585 
L 345.287578 129.130927 
L 346.651673 148.781902 
L 348.015768 105.61528 
L 349.379862 198.124599 
L 350.743957 151.450803 
L 352.108052 113.15994 
L 353.472147 138.944101 
L 354.836241 140.712988 
L 356.200336 131.119186 
L 357.564431 155.190325 
L 358.928526 216.078455 
L 360.29262 118.182531 
L 361.656715 138.003574 
L 363.02081 79.582602 
L 364.384905 185.653505 
L 365.748999 103.099308 
L 367.113094 219.561548 
L 368.477189 205.204822 
L 369.841283 122.158175 
L 371.205378 149.580198 
L 372.569473 168.181381 
L 373.933568 87.360918 
L 375.297662 232.52115 
L 376.661757 187.565824 
L 378.025852 121.838017 
L 379.389947 252.670752 
L 380.754041 124.945869 
L 382.118136 125.914806 
L 383.482231 84.464116 
L 384.846325 155.635744 
L 386.21042 170.200152 
L 387.574515 172.53396 
L 388.93861 192.060396 
L 390.302704 141.0147 
L 391.666799 127.54032 
L 393.030894 189.782726 
L 394.394989 90.509406 
L 395.759083 118.694678 
L 397.123178 188.993694 
L 398.487273 139.246329 
L 398.487273 139.246329 
" style="fill:none;stroke:#ff7f0e;stroke-linecap:square;stroke-width:1.5;"/>
   </g>
   <g id="line2d_17">
    <path clip-path="url(#pb697d5246f)" d="M 73.832727 146.992816 
L 75.196822 246.05347 
L 76.560917 146.065748 
L 77.925011 189.722499 
L 79.289106 147.124017 
L 80.653201 261.779933 
L 82.017296 235.004404 
L 83.38139 147.570437 
L 84.745485 150.460936 
L 86.10958 147.96109 
L 87.473675 271.613072 
L 88.837769 169.068482 
L 90.201864 147.876667 
L 91.565959 162.47773 
L 92.930053 223.671457 
L 94.294148 154.891604 
L 95.658243 268.816206 
L 97.022338 244.422296 
L 98.386432 262.77582 
L 101.114622 192.11981 
L 102.478717 147.571864 
L 103.842811 221.958456 
L 105.206906 147.743277 
L 106.571001 148.633539 
L 107.935095 147.859138 
L 109.29919 279.333431 
L 110.663285 144.501902 
L 112.02738 151.031176 
L 113.391474 149.213246 
L 114.755569 150.704606 
L 116.119664 254.18976 
L 117.483759 156.955634 
L 118.847853 233.277288 
L 120.211948 144.654057 
L 121.576043 151.178504 
L 122.940138 145.821508 
L 124.304232 145.277089 
L 125.668327 237.734422 
L 127.032422 145.437512 
L 128.396516 160.652781 
L 129.760611 153.881833 
L 131.124706 149.169868 
L 132.488801 150.720076 
L 133.852895 147.888776 
L 135.21699 175.613409 
L 136.581085 157.268768 
L 137.94518 202.391623 
L 139.309274 200.04702 
L 140.673369 244.683546 
L 142.037464 154.182266 
L 143.401558 236.26933 
L 144.765653 145.908562 
L 146.129748 220.833135 
L 147.493843 236.6177 
L 148.857937 147.720725 
L 150.222032 151.017709 
L 151.586127 169.06911 
L 152.950222 148.040679 
L 154.314316 244.312965 
L 155.678411 145.051165 
L 157.042506 214.46091 
L 158.4066 148.608073 
L 159.770695 213.853958 
L 161.13479 147.816247 
L 162.498885 148.098623 
L 163.862979 216.721476 
L 165.227074 254.97111 
L 166.591169 147.539207 
L 167.955264 146.083579 
L 169.319358 279.097742 
L 170.683453 149.72803 
L 172.047548 147.078886 
L 173.411642 269.372533 
L 174.775737 148.781249 
L 176.139832 147.743404 
L 177.503927 147.91105 
L 178.868021 211.471049 
L 180.232116 151.946876 
L 181.596211 236.286805 
L 182.960306 146.820111 
L 184.3244 149.80724 
L 185.688495 232.369119 
L 187.05259 201.957787 
L 188.416684 201.578407 
L 189.780779 153.494351 
L 191.144874 147.8119 
L 192.508969 283.756233 
L 193.873063 149.254839 
L 195.237158 147.769302 
L 196.601253 282.397883 
L 197.965348 159.524794 
L 199.329442 149.086574 
L 200.693537 146.772108 
L 202.057632 164.260577 
L 203.421727 196.732426 
L 204.785821 148.354898 
L 206.149916 220.744574 
L 207.514011 194.201467 
L 208.878105 149.014263 
L 210.2422 147.912979 
L 211.606295 147.213445 
L 212.97039 264.018862 
L 214.334484 150.249696 
L 215.698579 230.216343 
L 217.062674 260.507367 
L 218.426769 147.758129 
L 219.790863 153.311353 
L 221.154958 243.680926 
L 222.519053 275.776824 
L 223.883147 149.667091 
L 225.247242 144.886258 
L 226.611337 149.644901 
L 227.975432 147.780891 
L 229.339526 148.070392 
L 230.703621 183.90234 
L 232.067716 154.089084 
L 233.431811 273.772577 
L 234.795905 176.774594 
L 236.16 145.754926 
L 237.524095 150.432152 
L 238.888189 146.941056 
L 240.252284 153.55385 
L 241.616379 145.808253 
L 242.980474 146.810056 
L 244.344568 152.183258 
L 245.708663 148.558931 
L 247.072758 277.696095 
L 248.436853 174.328794 
L 249.800947 273.117916 
L 251.165042 152.069722 
L 252.529137 146.188375 
L 253.893231 214.900022 
L 255.257326 208.249709 
L 256.621421 220.708487 
L 257.985516 148.000066 
L 259.34961 289.657052 
L 260.713705 150.659909 
L 262.0778 150.806679 
L 263.441895 154.586346 
L 264.805989 242.090798 
L 266.170084 151.066243 
L 267.534179 218.483712 
L 268.898273 147.823907 
L 270.262368 148.922413 
L 271.626463 248.348463 
L 272.990558 150.17678 
L 274.354652 161.042165 
L 275.718747 234.467338 
L 277.082842 226.455532 
L 278.446937 146.568262 
L 279.811031 146.337621 
L 281.175126 147.834274 
L 282.539221 187.290457 
L 283.903316 223.026799 
L 285.26741 244.835084 
L 286.631505 228.607759 
L 287.9956 168.484231 
L 289.359694 147.647356 
L 290.723789 180.768998 
L 292.087884 193.752269 
L 293.451979 263.939978 
L 294.816073 191.725668 
L 296.180168 146.942244 
L 297.544263 163.832492 
L 298.908358 193.789154 
L 300.272452 178.570373 
L 301.636547 145.80695 
L 303.000642 151.224744 
L 304.364736 153.608869 
L 305.728831 156.717107 
L 307.092926 148.00028 
L 308.457021 147.327383 
L 309.821115 147.524976 
L 311.18521 144.687584 
L 312.549305 288.404267 
L 313.9134 148.886468 
L 315.277494 221.226808 
L 316.641589 145.434827 
L 318.005684 151.292075 
L 319.369778 275.890145 
L 320.733873 156.098933 
L 322.097968 224.058284 
L 323.462063 148.919461 
L 324.826157 193.506909 
L 326.190252 147.273142 
L 327.554347 144.612162 
L 328.918442 207.16033 
L 330.282536 148.036345 
L 331.646631 145.701962 
L 333.010726 158.336052 
L 334.37482 197.273116 
L 335.738915 147.966355 
L 337.10301 149.065092 
L 338.467105 148.685347 
L 339.831199 147.123284 
L 341.195294 150.70672 
L 342.559389 149.40727 
L 343.923484 279.805647 
L 345.287578 148.906198 
L 346.651673 159.972256 
L 348.015768 148.266977 
L 349.379862 218.782984 
L 350.743957 156.543042 
L 352.108052 148.986348 
L 353.472147 152.610172 
L 354.836241 155.563996 
L 356.200336 151.255257 
L 357.564431 169.835794 
L 358.928526 236.505104 
L 360.29262 147.620119 
L 361.656715 153.1581 
L 363.02081 145.644992 
L 364.384905 197.924012 
L 365.748999 147.806366 
L 367.113094 240.795919 
L 368.477189 218.498405 
L 369.841283 149.002569 
L 372.569473 178.790938 
L 373.933568 146.292708 
L 375.297662 255.228046 
L 376.661757 206.898264 
L 378.025852 150.475088 
L 379.389947 277.377456 
L 380.754041 151.092538 
L 382.118136 150.453772 
L 383.482231 146.243909 
L 384.846325 167.996587 
L 386.21042 185.362338 
L 387.574515 188.046017 
L 388.93861 209.668337 
L 390.302704 153.09626 
L 391.666799 150.020742 
L 393.030894 204.667884 
L 394.394989 146.704849 
L 395.759083 148.424021 
L 397.123178 206.797825 
L 398.487273 152.035632 
L 398.487273 152.035632 
" style="fill:none;stroke:#2ca02c;stroke-linecap:square;stroke-width:1.5;"/>
   </g>
   <g id="line2d_18">
    <path clip-path="url(#pb697d5246f)" d="M 73.832727 81.967943 
L 75.196822 160.379054 
L 76.560917 79.783736 
L 77.925011 154.22849 
L 79.289106 82.721789 
L 80.653201 160.40646 
L 82.017296 158.910494 
L 83.38139 100.02733 
L 84.745485 126.595943 
L 86.10958 100.699961 
L 87.473675 162.817292 
L 88.837769 145.224756 
L 90.201864 95.971329 
L 91.565959 149.940665 
L 92.930053 159.609999 
L 94.294148 141.120183 
L 95.658243 161.353819 
L 97.022338 159.314916 
L 98.386432 160.531916 
L 99.750527 159.263266 
L 101.114622 157.263605 
L 102.478717 95.620577 
L 103.842811 159.18859 
L 105.206906 98.007445 
L 106.571001 98.324225 
L 107.935095 99.612372 
L 109.29919 162.232632 
L 110.663285 53.906886 
L 112.02738 130.704927 
L 113.391474 101.548319 
L 114.755569 110.089837 
L 116.119664 160.093452 
L 117.483759 148.760543 
L 118.847853 159.207829 
L 120.211948 53.568 
L 121.576043 125.827385 
L 122.940138 74.903794 
L 124.304232 58.320936 
L 125.668327 159.917269 
L 127.032422 65.303106 
L 128.396516 133.417568 
L 129.760611 142.756557 
L 131.124706 103.625843 
L 132.488801 127.409379 
L 133.852895 89.27239 
L 135.21699 149.756618 
L 136.581085 133.498602 
L 137.94518 156.17295 
L 139.309274 157.682655 
L 140.673369 159.970825 
L 142.037464 145.055111 
L 143.401558 159.284979 
L 144.765653 66.51196 
L 146.129748 158.171978 
L 147.493843 160.288066 
L 148.857937 95.463305 
L 150.222032 129.560501 
L 151.586127 143.980124 
L 152.950222 104.106039 
L 154.314316 160.016479 
L 155.678411 55.485966 
L 157.042506 157.584016 
L 158.4066 99.981945 
L 159.770695 158.79908 
L 161.13479 96.535066 
L 162.498885 107.12889 
L 163.862979 157.413202 
L 165.227074 162.028182 
L 166.591169 94.520131 
L 167.955264 65.574718 
L 169.319358 162.834101 
L 170.683453 122.905541 
L 172.047548 88.061109 
L 173.411642 161.327664 
L 174.775737 98.107994 
L 176.139832 99.000898 
L 177.503927 101.388914 
L 178.868021 158.424005 
L 180.232116 122.837372 
L 181.596211 159.260043 
L 182.960306 80.551411 
L 185.688495 159.765593 
L 187.05259 155.77293 
L 188.416684 155.429466 
L 189.780779 142.048053 
L 191.144874 101.316592 
L 192.508969 163.44995 
L 193.873063 101.087474 
L 195.237158 91.351091 
L 196.601253 163.575223 
L 197.965348 135.831795 
L 199.329442 99.766882 
L 200.693537 78.350214 
L 202.057632 141.774642 
L 203.421727 154.550809 
L 204.785821 95.68728 
L 206.149916 157.57849 
L 207.514011 157.338708 
L 208.878105 116.245968 
L 210.2422 93.824112 
L 211.606295 88.976741 
L 212.97039 160.561736 
L 214.334484 106.772271 
L 215.698579 159.925511 
L 217.062674 162.314139 
L 218.426769 91.881689 
L 219.790863 129.218854 
L 221.154958 159.314902 
L 222.519053 162.870623 
L 223.883147 121.252025 
L 225.247242 58.664622 
L 226.611337 121.957948 
L 227.975432 92.732409 
L 229.339526 95.945235 
L 230.703621 156.146732 
L 232.067716 129.802437 
L 233.431811 162.481749 
L 234.795905 152.38538 
L 236.16 76.131953 
L 237.524095 126.981058 
L 238.888189 80.060009 
L 240.252284 142.609571 
L 241.616379 63.265486 
L 244.344568 117.951925 
L 245.708663 96.525508 
L 247.072758 161.999194 
L 248.436853 150.69872 
L 249.800947 161.743471 
L 251.165042 137.07999 
L 252.529137 68.099359 
L 253.893231 157.927185 
L 255.257326 157.160558 
L 256.621421 157.398412 
L 257.985516 101.023533 
L 259.34961 163.667678 
L 260.713705 125.302765 
L 262.0778 127.31702 
L 263.441895 125.663199 
L 264.805989 159.077243 
L 266.170084 116.812261 
L 267.534179 159.342834 
L 268.898273 96.745384 
L 270.262368 112.106029 
L 271.626463 160.682692 
L 272.990558 121.911854 
L 274.354652 144.287582 
L 275.718747 160.019327 
L 277.082842 158.880533 
L 278.446937 87.046927 
L 279.811031 72.796081 
L 281.175126 99.767816 
L 282.539221 156.725639 
L 283.903316 159.137268 
L 285.26741 160.01075 
L 286.631505 158.969531 
L 287.9956 145.075287 
L 289.359694 97.137393 
L 290.723789 155.679123 
L 292.087884 153.897356 
L 293.451979 162.423641 
L 294.816073 154.308068 
L 296.180168 88.347539 
L 297.544263 141.169613 
L 298.908358 154.351326 
L 300.272452 153.008923 
L 301.636547 69.453468 
L 303.000642 113.638496 
L 304.364736 142.287142 
L 305.728831 148.743898 
L 307.092926 103.50796 
L 308.457021 96.013331 
L 309.821115 97.066861 
L 311.18521 61.098726 
L 312.549305 163.237518 
L 313.9134 97.066023 
L 315.277494 157.428649 
L 316.641589 59.206016 
L 318.005684 126.918475 
L 319.369778 162.795778 
L 320.733873 148.167894 
L 322.097968 159.082486 
L 323.462063 112.156599 
L 324.826157 154.75118 
L 326.190252 90.872612 
L 327.554347 59.691946 
L 328.918442 156.89035 
L 330.282536 105.399565 
L 331.646631 72.713112 
L 333.010726 132.563923 
L 334.37482 154.95885 
L 335.738915 102.061048 
L 337.10301 117.532089 
L 338.467105 109.620402 
L 339.831199 88.921847 
L 341.195294 109.91346 
L 342.559389 109.994944 
L 343.923484 163.473244 
L 345.287578 114.988997 
L 346.651673 138.122171 
L 348.015768 91.414053 
L 349.379862 157.174567 
L 350.743957 149.533133 
L 352.108052 100.753103 
L 353.472147 134.300923 
L 354.836241 127.859043 
L 356.200336 124.276151 
L 357.564431 143.540079 
L 358.928526 158.972234 
L 360.29262 102.544596 
L 361.656715 129.921155 
L 363.02081 64.843423 
L 364.384905 157.424989 
L 365.748999 90.283644 
L 367.113094 159.285222 
L 368.477189 158.725504 
L 369.841283 115.189982 
L 371.205378 137.45577 
L 372.569473 153.684145 
L 373.933568 73.08613 
L 375.297662 160.204051 
L 376.661757 158.491963 
L 378.025852 109.473492 
L 379.389947 162.081302 
L 380.754041 111.565764 
L 382.118136 118.94365 
L 383.482231 68.543703 
L 384.846325 145.880548 
L 386.21042 156.310714 
L 387.574515 156.887638 
L 388.93861 158.556727 
L 390.302704 137.156007 
L 391.666799 122.10943 
L 393.030894 156.750434 
L 394.394989 76.877416 
L 395.759083 108.489709 
L 397.123178 158.400991 
L 398.487273 135.964573 
L 398.487273 135.964573 
" style="fill:none;stroke:#d62728;stroke-linecap:square;stroke-width:1.5;"/>
   </g>
   <g id="patch_3">
    <path d="M 57.6 307.584 
L 57.6 41.472 
" style="fill:none;stroke:#000000;stroke-linecap:square;stroke-linejoin:miter;stroke-width:0.8;"/>
   </g>
   <g id="patch_4">
    <path d="M 414.72 307.584 
L 414.72 41.472 
" style="fill:none;stroke:#000000;stroke-linecap:square;stroke-linejoin:miter;stroke-width:0.8;"/>
   </g>
   <g id="patch_5">
    <path d="M 57.6 307.584 
L 414.72 307.584 
" style="fill:none;stroke:#000000;stroke-linecap:square;stroke-linejoin:miter;stroke-width:0.8;"/>
   </g>
   <g id="patch_6">
    <path d="M 57.6 41.472 
L 414.72 41.472 
" style="fill:none;stroke:#000000;stroke-linecap:square;stroke-linejoin:miter;stroke-width:0.8;"/>
   </g>
   <g id="text_15">
    <!-- Plot of Train Data vs MCMC Uncertainty  -->
    <defs>
     <path d="M 19.671875 64.796875 
L 19.671875 37.40625 
L 32.078125 37.40625 
Q 38.96875 37.40625 42.71875 40.96875 
Q 46.484375 44.53125 46.484375 51.125 
Q 46.484375 57.671875 42.71875 61.234375 
Q 38.96875 64.796875 32.078125 64.796875 
z
M 9.8125 72.90625 
L 32.078125 72.90625 
Q 44.34375 72.90625 50.609375 67.359375 
Q 56.890625 61.8125 56.890625 51.125 
Q 56.890625 40.328125 50.609375 34.8125 
Q 44.34375 29.296875 32.078125 29.296875 
L 19.671875 29.296875 
L 19.671875 0 
L 9.8125 0 
z
" id="DejaVuSans-80"/>
     <path d="M 9.421875 75.984375 
L 18.40625 75.984375 
L 18.40625 0 
L 9.421875 0 
z
" id="DejaVuSans-108"/>
     <path d="M 30.609375 48.390625 
Q 23.390625 48.390625 19.1875 42.75 
Q 14.984375 37.109375 14.984375 27.296875 
Q 14.984375 17.484375 19.15625 11.84375 
Q 23.34375 6.203125 30.609375 6.203125 
Q 37.796875 6.203125 41.984375 11.859375 
Q 46.1875 17.53125 46.1875 27.296875 
Q 46.1875 37.015625 41.984375 42.703125 
Q 37.796875 48.390625 30.609375 48.390625 
z
M 30.609375 56 
Q 42.328125 56 49.015625 48.375 
Q 55.71875 40.765625 55.71875 27.296875 
Q 55.71875 13.875 49.015625 6.21875 
Q 42.328125 -1.421875 30.609375 -1.421875 
Q 18.84375 -1.421875 12.171875 6.21875 
Q 5.515625 13.875 5.515625 27.296875 
Q 5.515625 40.765625 12.171875 48.375 
Q 18.84375 56 30.609375 56 
z
" id="DejaVuSans-111"/>
     <path d="M 18.3125 70.21875 
L 18.3125 54.6875 
L 36.8125 54.6875 
L 36.8125 47.703125 
L 18.3125 47.703125 
L 18.3125 18.015625 
Q 18.3125 11.328125 20.140625 9.421875 
Q 21.96875 7.515625 27.59375 7.515625 
L 36.8125 7.515625 
L 36.8125 0 
L 27.59375 0 
Q 17.1875 0 13.234375 3.875 
Q 9.28125 7.765625 9.28125 18.015625 
L 9.28125 47.703125 
L 2.6875 47.703125 
L 2.6875 54.6875 
L 9.28125 54.6875 
L 9.28125 70.21875 
z
" id="DejaVuSans-116"/>
     <path id="DejaVuSans-32"/>
     <path d="M 37.109375 75.984375 
L 37.109375 68.5 
L 28.515625 68.5 
Q 23.6875 68.5 21.796875 66.546875 
Q 19.921875 64.59375 19.921875 59.515625 
L 19.921875 54.6875 
L 34.71875 54.6875 
L 34.71875 47.703125 
L 19.921875 47.703125 
L 19.921875 0 
L 10.890625 0 
L 10.890625 47.703125 
L 2.296875 47.703125 
L 2.296875 54.6875 
L 10.890625 54.6875 
L 10.890625 58.5 
Q 10.890625 67.625 15.140625 71.796875 
Q 19.390625 75.984375 28.609375 75.984375 
z
" id="DejaVuSans-102"/>
     <path d="M -0.296875 72.90625 
L 61.375 72.90625 
L 61.375 64.59375 
L 35.5 64.59375 
L 35.5 0 
L 25.59375 0 
L 25.59375 64.59375 
L -0.296875 64.59375 
z
" id="DejaVuSans-84"/>
     <path d="M 41.109375 46.296875 
Q 39.59375 47.171875 37.8125 47.578125 
Q 36.03125 48 33.890625 48 
Q 26.265625 48 22.1875 43.046875 
Q 18.109375 38.09375 18.109375 28.8125 
L 18.109375 0 
L 9.078125 0 
L 9.078125 54.6875 
L 18.109375 54.6875 
L 18.109375 46.1875 
Q 20.953125 51.171875 25.484375 53.578125 
Q 30.03125 56 36.53125 56 
Q 37.453125 56 38.578125 55.875 
Q 39.703125 55.765625 41.0625 55.515625 
z
" id="DejaVuSans-114"/>
     <path d="M 34.28125 27.484375 
Q 23.390625 27.484375 19.1875 25 
Q 14.984375 22.515625 14.984375 16.5 
Q 14.984375 11.71875 18.140625 8.90625 
Q 21.296875 6.109375 26.703125 6.109375 
Q 34.1875 6.109375 38.703125 11.40625 
Q 43.21875 16.703125 43.21875 25.484375 
L 43.21875 27.484375 
z
M 52.203125 31.203125 
L 52.203125 0 
L 43.21875 0 
L 43.21875 8.296875 
Q 40.140625 3.328125 35.546875 0.953125 
Q 30.953125 -1.421875 24.3125 -1.421875 
Q 15.921875 -1.421875 10.953125 3.296875 
Q 6 8.015625 6 15.921875 
Q 6 25.140625 12.171875 29.828125 
Q 18.359375 34.515625 30.609375 34.515625 
L 43.21875 34.515625 
L 43.21875 35.40625 
Q 43.21875 41.609375 39.140625 45 
Q 35.0625 48.390625 27.6875 48.390625 
Q 23 48.390625 18.546875 47.265625 
Q 14.109375 46.140625 10.015625 43.890625 
L 10.015625 52.203125 
Q 14.9375 54.109375 19.578125 55.046875 
Q 24.21875 56 28.609375 56 
Q 40.484375 56 46.34375 49.84375 
Q 52.203125 43.703125 52.203125 31.203125 
z
" id="DejaVuSans-97"/>
     <path d="M 9.421875 54.6875 
L 18.40625 54.6875 
L 18.40625 0 
L 9.421875 0 
z
M 9.421875 75.984375 
L 18.40625 75.984375 
L 18.40625 64.59375 
L 9.421875 64.59375 
z
" id="DejaVuSans-105"/>
     <path d="M 54.890625 33.015625 
L 54.890625 0 
L 45.90625 0 
L 45.90625 32.71875 
Q 45.90625 40.484375 42.875 44.328125 
Q 39.84375 48.1875 33.796875 48.1875 
Q 26.515625 48.1875 22.3125 43.546875 
Q 18.109375 38.921875 18.109375 30.90625 
L 18.109375 0 
L 9.078125 0 
L 9.078125 54.6875 
L 18.109375 54.6875 
L 18.109375 46.1875 
Q 21.34375 51.125 25.703125 53.5625 
Q 30.078125 56 35.796875 56 
Q 45.21875 56 50.046875 50.171875 
Q 54.890625 44.34375 54.890625 33.015625 
z
" id="DejaVuSans-110"/>
     <path d="M 19.671875 64.796875 
L 19.671875 8.109375 
L 31.59375 8.109375 
Q 46.6875 8.109375 53.6875 14.9375 
Q 60.6875 21.78125 60.6875 36.53125 
Q 60.6875 51.171875 53.6875 57.984375 
Q 46.6875 64.796875 31.59375 64.796875 
z
M 9.8125 72.90625 
L 30.078125 72.90625 
Q 51.265625 72.90625 61.171875 64.09375 
Q 71.09375 55.28125 71.09375 36.53125 
Q 71.09375 17.671875 61.125 8.828125 
Q 51.171875 0 30.078125 0 
L 9.8125 0 
z
" id="DejaVuSans-68"/>
     <path d="M 2.984375 54.6875 
L 12.5 54.6875 
L 29.59375 8.796875 
L 46.6875 54.6875 
L 56.203125 54.6875 
L 35.6875 0 
L 23.484375 0 
z
" id="DejaVuSans-118"/>
     <path d="M 44.28125 53.078125 
L 44.28125 44.578125 
Q 40.484375 46.53125 36.375 47.5 
Q 32.28125 48.484375 27.875 48.484375 
Q 21.1875 48.484375 17.84375 46.4375 
Q 14.5 44.390625 14.5 40.28125 
Q 14.5 37.15625 16.890625 35.375 
Q 19.28125 33.59375 26.515625 31.984375 
L 29.59375 31.296875 
Q 39.15625 29.25 43.1875 25.515625 
Q 47.21875 21.78125 47.21875 15.09375 
Q 47.21875 7.46875 41.1875 3.015625 
Q 35.15625 -1.421875 24.609375 -1.421875 
Q 20.21875 -1.421875 15.453125 -0.5625 
Q 10.6875 0.296875 5.421875 2 
L 5.421875 11.28125 
Q 10.40625 8.6875 15.234375 7.390625 
Q 20.0625 6.109375 24.8125 6.109375 
Q 31.15625 6.109375 34.5625 8.28125 
Q 37.984375 10.453125 37.984375 14.40625 
Q 37.984375 18.0625 35.515625 20.015625 
Q 33.0625 21.96875 24.703125 23.78125 
L 21.578125 24.515625 
Q 13.234375 26.265625 9.515625 29.90625 
Q 5.8125 33.546875 5.8125 39.890625 
Q 5.8125 47.609375 11.28125 51.796875 
Q 16.75 56 26.8125 56 
Q 31.78125 56 36.171875 55.265625 
Q 40.578125 54.546875 44.28125 53.078125 
z
" id="DejaVuSans-115"/>
     <path d="M 9.8125 72.90625 
L 24.515625 72.90625 
L 43.109375 23.296875 
L 61.8125 72.90625 
L 76.515625 72.90625 
L 76.515625 0 
L 66.890625 0 
L 66.890625 64.015625 
L 48.09375 14.015625 
L 38.1875 14.015625 
L 19.390625 64.015625 
L 19.390625 0 
L 9.8125 0 
z
" id="DejaVuSans-77"/>
     <path d="M 64.40625 67.28125 
L 64.40625 56.890625 
Q 59.421875 61.53125 53.78125 63.8125 
Q 48.140625 66.109375 41.796875 66.109375 
Q 29.296875 66.109375 22.65625 58.46875 
Q 16.015625 50.828125 16.015625 36.375 
Q 16.015625 21.96875 22.65625 14.328125 
Q 29.296875 6.6875 41.796875 6.6875 
Q 48.140625 6.6875 53.78125 8.984375 
Q 59.421875 11.28125 64.40625 15.921875 
L 64.40625 5.609375 
Q 59.234375 2.09375 53.4375 0.328125 
Q 47.65625 -1.421875 41.21875 -1.421875 
Q 24.65625 -1.421875 15.125 8.703125 
Q 5.609375 18.84375 5.609375 36.375 
Q 5.609375 53.953125 15.125 64.078125 
Q 24.65625 74.21875 41.21875 74.21875 
Q 47.75 74.21875 53.53125 72.484375 
Q 59.328125 70.75 64.40625 67.28125 
z
" id="DejaVuSans-67"/>
     <path d="M 8.6875 72.90625 
L 18.609375 72.90625 
L 18.609375 28.609375 
Q 18.609375 16.890625 22.84375 11.734375 
Q 27.09375 6.59375 36.625 6.59375 
Q 46.09375 6.59375 50.34375 11.734375 
Q 54.59375 16.890625 54.59375 28.609375 
L 54.59375 72.90625 
L 64.5 72.90625 
L 64.5 27.390625 
Q 64.5 13.140625 57.4375 5.859375 
Q 50.390625 -1.421875 36.625 -1.421875 
Q 22.796875 -1.421875 15.734375 5.859375 
Q 8.6875 13.140625 8.6875 27.390625 
z
" id="DejaVuSans-85"/>
     <path d="M 48.78125 52.59375 
L 48.78125 44.1875 
Q 44.96875 46.296875 41.140625 47.34375 
Q 37.3125 48.390625 33.40625 48.390625 
Q 24.65625 48.390625 19.8125 42.84375 
Q 14.984375 37.3125 14.984375 27.296875 
Q 14.984375 17.28125 19.8125 11.734375 
Q 24.65625 6.203125 33.40625 6.203125 
Q 37.3125 6.203125 41.140625 7.25 
Q 44.96875 8.296875 48.78125 10.40625 
L 48.78125 2.09375 
Q 45.015625 0.34375 40.984375 -0.53125 
Q 36.96875 -1.421875 32.421875 -1.421875 
Q 20.0625 -1.421875 12.78125 6.34375 
Q 5.515625 14.109375 5.515625 27.296875 
Q 5.515625 40.671875 12.859375 48.328125 
Q 20.21875 56 33.015625 56 
Q 37.15625 56 41.109375 55.140625 
Q 45.0625 54.296875 48.78125 52.59375 
z
" id="DejaVuSans-99"/>
     <path d="M 56.203125 29.59375 
L 56.203125 25.203125 
L 14.890625 25.203125 
Q 15.484375 15.921875 20.484375 11.0625 
Q 25.484375 6.203125 34.421875 6.203125 
Q 39.59375 6.203125 44.453125 7.46875 
Q 49.3125 8.734375 54.109375 11.28125 
L 54.109375 2.78125 
Q 49.265625 0.734375 44.1875 -0.34375 
Q 39.109375 -1.421875 33.890625 -1.421875 
Q 20.796875 -1.421875 13.15625 6.1875 
Q 5.515625 13.8125 5.515625 26.8125 
Q 5.515625 40.234375 12.765625 48.109375 
Q 20.015625 56 32.328125 56 
Q 43.359375 56 49.78125 48.890625 
Q 56.203125 41.796875 56.203125 29.59375 
z
M 47.21875 32.234375 
Q 47.125 39.59375 43.09375 43.984375 
Q 39.0625 48.390625 32.421875 48.390625 
Q 24.90625 48.390625 20.390625 44.140625 
Q 15.875 39.890625 15.1875 32.171875 
z
" id="DejaVuSans-101"/>
     <path d="M 32.171875 -5.078125 
Q 28.375 -14.84375 24.75 -17.8125 
Q 21.140625 -20.796875 15.09375 -20.796875 
L 7.90625 -20.796875 
L 7.90625 -13.28125 
L 13.1875 -13.28125 
Q 16.890625 -13.28125 18.9375 -11.515625 
Q 21 -9.765625 23.484375 -3.21875 
L 25.09375 0.875 
L 2.984375 54.6875 
L 12.5 54.6875 
L 29.59375 11.921875 
L 46.6875 54.6875 
L 56.203125 54.6875 
z
" id="DejaVuSans-121"/>
    </defs>
    <g transform="translate(115.666875 35.472)scale(0.12 -0.12)">
     <use xlink:href="#DejaVuSans-80"/>
     <use x="60.302734" xlink:href="#DejaVuSans-108"/>
     <use x="88.085938" xlink:href="#DejaVuSans-111"/>
     <use x="149.267578" xlink:href="#DejaVuSans-116"/>
     <use x="188.476562" xlink:href="#DejaVuSans-32"/>
     <use x="220.263672" xlink:href="#DejaVuSans-111"/>
     <use x="281.445312" xlink:href="#DejaVuSans-102"/>
     <use x="316.650391" xlink:href="#DejaVuSans-32"/>
     <use x="348.4375" xlink:href="#DejaVuSans-84"/>
     <use x="409.302734" xlink:href="#DejaVuSans-114"/>
     <use x="450.416016" xlink:href="#DejaVuSans-97"/>
     <use x="511.695312" xlink:href="#DejaVuSans-105"/>
     <use x="539.478516" xlink:href="#DejaVuSans-110"/>
     <use x="602.857422" xlink:href="#DejaVuSans-32"/>
     <use x="634.644531" xlink:href="#DejaVuSans-68"/>
     <use x="711.646484" xlink:href="#DejaVuSans-97"/>
     <use x="772.925781" xlink:href="#DejaVuSans-116"/>
     <use x="812.134766" xlink:href="#DejaVuSans-97"/>
     <use x="873.414062" xlink:href="#DejaVuSans-32"/>
     <use x="905.201172" xlink:href="#DejaVuSans-118"/>
     <use x="964.380859" xlink:href="#DejaVuSans-115"/>
     <use x="1016.480469" xlink:href="#DejaVuSans-32"/>
     <use x="1048.267578" xlink:href="#DejaVuSans-77"/>
     <use x="1134.546875" xlink:href="#DejaVuSans-67"/>
     <use x="1204.371094" xlink:href="#DejaVuSans-77"/>
     <use x="1290.650391" xlink:href="#DejaVuSans-67"/>
     <use x="1360.474609" xlink:href="#DejaVuSans-32"/>
     <use x="1392.261719" xlink:href="#DejaVuSans-85"/>
     <use x="1465.455078" xlink:href="#DejaVuSans-110"/>
     <use x="1528.833984" xlink:href="#DejaVuSans-99"/>
     <use x="1583.814453" xlink:href="#DejaVuSans-101"/>
     <use x="1645.337891" xlink:href="#DejaVuSans-114"/>
     <use x="1686.451172" xlink:href="#DejaVuSans-116"/>
     <use x="1725.660156" xlink:href="#DejaVuSans-97"/>
     <use x="1786.939453" xlink:href="#DejaVuSans-105"/>
     <use x="1814.722656" xlink:href="#DejaVuSans-110"/>
     <use x="1878.101562" xlink:href="#DejaVuSans-116"/>
     <use x="1917.310547" xlink:href="#DejaVuSans-121"/>
     <use x="1976.490234" xlink:href="#DejaVuSans-32"/>
    </g>
   </g>
   <g id="legend_1">
    <g id="patch_7">
     <path d="M 277.843437 108.1845 
L 407.72 108.1845 
Q 409.72 108.1845 409.72 106.1845 
L 409.72 48.472 
Q 409.72 46.472 407.72 46.472 
L 277.843437 46.472 
Q 275.843437 46.472 275.843437 48.472 
L 275.843437 106.1845 
Q 275.843437 108.1845 277.843437 108.1845 
z
" style="fill:#ffffff;opacity:0.8;stroke:#cccccc;stroke-linejoin:miter;"/>
    </g>
    <g id="line2d_19">
     <path d="M 279.843437 54.570438 
L 299.843437 54.570438 
" style="fill:none;stroke:#1f77b4;stroke-linecap:square;stroke-width:1.5;"/>
    </g>
    <g id="line2d_20"/>
    <g id="text_16">
     <!-- actual -->
     <defs>
      <path d="M 8.5 21.578125 
L 8.5 54.6875 
L 17.484375 54.6875 
L 17.484375 21.921875 
Q 17.484375 14.15625 20.5 10.265625 
Q 23.53125 6.390625 29.59375 6.390625 
Q 36.859375 6.390625 41.078125 11.03125 
Q 45.3125 15.671875 45.3125 23.6875 
L 45.3125 54.6875 
L 54.296875 54.6875 
L 54.296875 0 
L 45.3125 0 
L 45.3125 8.40625 
Q 42.046875 3.421875 37.71875 1 
Q 33.40625 -1.421875 27.6875 -1.421875 
Q 18.265625 -1.421875 13.375 4.4375 
Q 8.5 10.296875 8.5 21.578125 
z
M 31.109375 56 
z
" id="DejaVuSans-117"/>
     </defs>
     <g transform="translate(307.843437 58.070438)scale(0.1 -0.1)">
      <use xlink:href="#DejaVuSans-97"/>
      <use x="61.279297" xlink:href="#DejaVuSans-99"/>
      <use x="116.259766" xlink:href="#DejaVuSans-116"/>
      <use x="155.46875" xlink:href="#DejaVuSans-117"/>
      <use x="218.847656" xlink:href="#DejaVuSans-97"/>
      <use x="280.126953" xlink:href="#DejaVuSans-108"/>
     </g>
    </g>
    <g id="line2d_21">
     <path d="M 279.843437 69.248563 
L 299.843437 69.248563 
" style="fill:none;stroke:#ff7f0e;stroke-linecap:square;stroke-width:1.5;"/>
    </g>
    <g id="line2d_22"/>
    <g id="text_17">
     <!-- pred. (mean) -->
     <defs>
      <path d="M 18.109375 8.203125 
L 18.109375 -20.796875 
L 9.078125 -20.796875 
L 9.078125 54.6875 
L 18.109375 54.6875 
L 18.109375 46.390625 
Q 20.953125 51.265625 25.265625 53.625 
Q 29.59375 56 35.59375 56 
Q 45.5625 56 51.78125 48.09375 
Q 58.015625 40.1875 58.015625 27.296875 
Q 58.015625 14.40625 51.78125 6.484375 
Q 45.5625 -1.421875 35.59375 -1.421875 
Q 29.59375 -1.421875 25.265625 0.953125 
Q 20.953125 3.328125 18.109375 8.203125 
z
M 48.6875 27.296875 
Q 48.6875 37.203125 44.609375 42.84375 
Q 40.53125 48.484375 33.40625 48.484375 
Q 26.265625 48.484375 22.1875 42.84375 
Q 18.109375 37.203125 18.109375 27.296875 
Q 18.109375 17.390625 22.1875 11.75 
Q 26.265625 6.109375 33.40625 6.109375 
Q 40.53125 6.109375 44.609375 11.75 
Q 48.6875 17.390625 48.6875 27.296875 
z
" id="DejaVuSans-112"/>
      <path d="M 45.40625 46.390625 
L 45.40625 75.984375 
L 54.390625 75.984375 
L 54.390625 0 
L 45.40625 0 
L 45.40625 8.203125 
Q 42.578125 3.328125 38.25 0.953125 
Q 33.9375 -1.421875 27.875 -1.421875 
Q 17.96875 -1.421875 11.734375 6.484375 
Q 5.515625 14.40625 5.515625 27.296875 
Q 5.515625 40.1875 11.734375 48.09375 
Q 17.96875 56 27.875 56 
Q 33.9375 56 38.25 53.625 
Q 42.578125 51.265625 45.40625 46.390625 
z
M 14.796875 27.296875 
Q 14.796875 17.390625 18.875 11.75 
Q 22.953125 6.109375 30.078125 6.109375 
Q 37.203125 6.109375 41.296875 11.75 
Q 45.40625 17.390625 45.40625 27.296875 
Q 45.40625 37.203125 41.296875 42.84375 
Q 37.203125 48.484375 30.078125 48.484375 
Q 22.953125 48.484375 18.875 42.84375 
Q 14.796875 37.203125 14.796875 27.296875 
z
" id="DejaVuSans-100"/>
      <path d="M 31 75.875 
Q 24.46875 64.65625 21.28125 53.65625 
Q 18.109375 42.671875 18.109375 31.390625 
Q 18.109375 20.125 21.3125 9.0625 
Q 24.515625 -2 31 -13.1875 
L 23.1875 -13.1875 
Q 15.875 -1.703125 12.234375 9.375 
Q 8.59375 20.453125 8.59375 31.390625 
Q 8.59375 42.28125 12.203125 53.3125 
Q 15.828125 64.359375 23.1875 75.875 
z
" id="DejaVuSans-40"/>
      <path d="M 52 44.1875 
Q 55.375 50.25 60.0625 53.125 
Q 64.75 56 71.09375 56 
Q 79.640625 56 84.28125 50.015625 
Q 88.921875 44.046875 88.921875 33.015625 
L 88.921875 0 
L 79.890625 0 
L 79.890625 32.71875 
Q 79.890625 40.578125 77.09375 44.375 
Q 74.3125 48.1875 68.609375 48.1875 
Q 61.625 48.1875 57.5625 43.546875 
Q 53.515625 38.921875 53.515625 30.90625 
L 53.515625 0 
L 44.484375 0 
L 44.484375 32.71875 
Q 44.484375 40.625 41.703125 44.40625 
Q 38.921875 48.1875 33.109375 48.1875 
Q 26.21875 48.1875 22.15625 43.53125 
Q 18.109375 38.875 18.109375 30.90625 
L 18.109375 0 
L 9.078125 0 
L 9.078125 54.6875 
L 18.109375 54.6875 
L 18.109375 46.1875 
Q 21.1875 51.21875 25.484375 53.609375 
Q 29.78125 56 35.6875 56 
Q 41.65625 56 45.828125 52.96875 
Q 50 49.953125 52 44.1875 
z
" id="DejaVuSans-109"/>
      <path d="M 8.015625 75.875 
L 15.828125 75.875 
Q 23.140625 64.359375 26.78125 53.3125 
Q 30.421875 42.28125 30.421875 31.390625 
Q 30.421875 20.453125 26.78125 9.375 
Q 23.140625 -1.703125 15.828125 -13.1875 
L 8.015625 -13.1875 
Q 14.5 -2 17.703125 9.0625 
Q 20.90625 20.125 20.90625 31.390625 
Q 20.90625 42.671875 17.703125 53.65625 
Q 14.5 64.65625 8.015625 75.875 
z
" id="DejaVuSans-41"/>
     </defs>
     <g transform="translate(307.843437 72.748563)scale(0.1 -0.1)">
      <use xlink:href="#DejaVuSans-112"/>
      <use x="63.476562" xlink:href="#DejaVuSans-114"/>
      <use x="104.558594" xlink:href="#DejaVuSans-101"/>
      <use x="166.082031" xlink:href="#DejaVuSans-100"/>
      <use x="229.558594" xlink:href="#DejaVuSans-46"/>
      <use x="261.345703" xlink:href="#DejaVuSans-32"/>
      <use x="293.132812" xlink:href="#DejaVuSans-40"/>
      <use x="332.146484" xlink:href="#DejaVuSans-109"/>
      <use x="429.558594" xlink:href="#DejaVuSans-101"/>
      <use x="491.082031" xlink:href="#DejaVuSans-97"/>
      <use x="552.361328" xlink:href="#DejaVuSans-110"/>
      <use x="615.740234" xlink:href="#DejaVuSans-41"/>
     </g>
    </g>
    <g id="line2d_23">
     <path d="M 279.843437 83.926688 
L 299.843437 83.926688 
" style="fill:none;stroke:#2ca02c;stroke-linecap:square;stroke-width:1.5;"/>
    </g>
    <g id="line2d_24"/>
    <g id="text_18">
     <!-- pred.(5th percen.) -->
     <defs>
      <path d="M 54.890625 33.015625 
L 54.890625 0 
L 45.90625 0 
L 45.90625 32.71875 
Q 45.90625 40.484375 42.875 44.328125 
Q 39.84375 48.1875 33.796875 48.1875 
Q 26.515625 48.1875 22.3125 43.546875 
Q 18.109375 38.921875 18.109375 30.90625 
L 18.109375 0 
L 9.078125 0 
L 9.078125 75.984375 
L 18.109375 75.984375 
L 18.109375 46.1875 
Q 21.34375 51.125 25.703125 53.5625 
Q 30.078125 56 35.796875 56 
Q 45.21875 56 50.046875 50.171875 
Q 54.890625 44.34375 54.890625 33.015625 
z
" id="DejaVuSans-104"/>
     </defs>
     <g transform="translate(307.843437 87.426688)scale(0.1 -0.1)">
      <use xlink:href="#DejaVuSans-112"/>
      <use x="63.476562" xlink:href="#DejaVuSans-114"/>
      <use x="104.558594" xlink:href="#DejaVuSans-101"/>
      <use x="166.082031" xlink:href="#DejaVuSans-100"/>
      <use x="229.558594" xlink:href="#DejaVuSans-46"/>
      <use x="261.345703" xlink:href="#DejaVuSans-40"/>
      <use x="300.359375" xlink:href="#DejaVuSans-53"/>
      <use x="363.982422" xlink:href="#DejaVuSans-116"/>
      <use x="403.191406" xlink:href="#DejaVuSans-104"/>
      <use x="466.570312" xlink:href="#DejaVuSans-32"/>
      <use x="498.357422" xlink:href="#DejaVuSans-112"/>
      <use x="561.833984" xlink:href="#DejaVuSans-101"/>
      <use x="623.357422" xlink:href="#DejaVuSans-114"/>
      <use x="664.439453" xlink:href="#DejaVuSans-99"/>
      <use x="719.419922" xlink:href="#DejaVuSans-101"/>
      <use x="780.943359" xlink:href="#DejaVuSans-110"/>
      <use x="844.322266" xlink:href="#DejaVuSans-46"/>
      <use x="876.109375" xlink:href="#DejaVuSans-41"/>
     </g>
    </g>
    <g id="line2d_25">
     <path d="M 279.843437 98.604813 
L 299.843437 98.604813 
" style="fill:none;stroke:#d62728;stroke-linecap:square;stroke-width:1.5;"/>
    </g>
    <g id="line2d_26"/>
    <g id="text_19">
     <!-- pred.(95th percen.) -->
     <defs>
      <path d="M 10.984375 1.515625 
L 10.984375 10.5 
Q 14.703125 8.734375 18.5 7.8125 
Q 22.3125 6.890625 25.984375 6.890625 
Q 35.75 6.890625 40.890625 13.453125 
Q 46.046875 20.015625 46.78125 33.40625 
Q 43.953125 29.203125 39.59375 26.953125 
Q 35.25 24.703125 29.984375 24.703125 
Q 19.046875 24.703125 12.671875 31.3125 
Q 6.296875 37.9375 6.296875 49.421875 
Q 6.296875 60.640625 12.9375 67.421875 
Q 19.578125 74.21875 30.609375 74.21875 
Q 43.265625 74.21875 49.921875 64.515625 
Q 56.59375 54.828125 56.59375 36.375 
Q 56.59375 19.140625 48.40625 8.859375 
Q 40.234375 -1.421875 26.421875 -1.421875 
Q 22.703125 -1.421875 18.890625 -0.6875 
Q 15.09375 0.046875 10.984375 1.515625 
z
M 30.609375 32.421875 
Q 37.25 32.421875 41.125 36.953125 
Q 45.015625 41.5 45.015625 49.421875 
Q 45.015625 57.28125 41.125 61.84375 
Q 37.25 66.40625 30.609375 66.40625 
Q 23.96875 66.40625 20.09375 61.84375 
Q 16.21875 57.28125 16.21875 49.421875 
Q 16.21875 41.5 20.09375 36.953125 
Q 23.96875 32.421875 30.609375 32.421875 
z
" id="DejaVuSans-57"/>
     </defs>
     <g transform="translate(307.843437 102.104813)scale(0.1 -0.1)">
      <use xlink:href="#DejaVuSans-112"/>
      <use x="63.476562" xlink:href="#DejaVuSans-114"/>
      <use x="104.558594" xlink:href="#DejaVuSans-101"/>
      <use x="166.082031" xlink:href="#DejaVuSans-100"/>
      <use x="229.558594" xlink:href="#DejaVuSans-46"/>
      <use x="261.345703" xlink:href="#DejaVuSans-40"/>
      <use x="300.359375" xlink:href="#DejaVuSans-57"/>
      <use x="363.982422" xlink:href="#DejaVuSans-53"/>
      <use x="427.605469" xlink:href="#DejaVuSans-116"/>
      <use x="466.814453" xlink:href="#DejaVuSans-104"/>
      <use x="530.193359" xlink:href="#DejaVuSans-32"/>
      <use x="561.980469" xlink:href="#DejaVuSans-112"/>
      <use x="625.457031" xlink:href="#DejaVuSans-101"/>
      <use x="686.980469" xlink:href="#DejaVuSans-114"/>
      <use x="728.0625" xlink:href="#DejaVuSans-99"/>
      <use x="783.042969" xlink:href="#DejaVuSans-101"/>
      <use x="844.566406" xlink:href="#DejaVuSans-110"/>
      <use x="907.945312" xlink:href="#DejaVuSans-46"/>
      <use x="939.732422" xlink:href="#DejaVuSans-41"/>
     </g>
    </g>
   </g>
  </g>
 </g>
 <defs>
  <clipPath id="pb697d5246f">
   <rect height="266.112" width="357.12" x="57.6" y="41.472"/>
  </clipPath>
 </defs>
</svg>
