<?xml version="1.0" encoding="utf-8" standalone="no"?>
<!DOCTYPE svg PUBLIC "-//W3C//DTD SVG 1.1//EN"
  "http://www.w3.org/Graphics/SVG/1.1/DTD/svg11.dtd">
<!-- Created with matplotlib (https://matplotlib.org/) -->
<svg height="345.6pt" version="1.1" viewBox="0 0 460.8 345.6" width="460.8pt" xmlns="http://www.w3.org/2000/svg" xmlns:xlink="http://www.w3.org/1999/xlink">
 <defs>
  <style type="text/css">
*{stroke-linecap:butt;stroke-linejoin:round;}
  </style>
 </defs>
 <g id="figure_1">
  <g id="patch_1">
   <path d="M 0 345.6 
L 460.8 345.6 
L 460.8 0 
L 0 0 
z
" style="fill:#ffffff;"/>
  </g>
  <g id="axes_1">
   <g id="patch_2">
    <path d="M 57.6 307.584 
L 414.72 307.584 
L 414.72 41.472 
L 57.6 41.472 
z
" style="fill:#ffffff;"/>
   </g>
   <g id="PolyCollection_1">
    <path clip-path="url(#p8490ebadf2)" d="M 73.832727 144.685251 
L 73.832727 217.047921 
L 75.196822 218.721508 
L 76.560917 213.201859 
L 77.925011 218.776248 
L 79.289106 214.03413 
L 80.653201 219.128217 
L 82.017296 217.39721 
L 83.38139 216.708781 
L 84.745485 214.975739 
L 86.10958 216.264205 
L 87.473675 217.428524 
L 88.837769 217.471523 
L 90.201864 214.988346 
L 91.565959 219.202251 
L 92.930053 220.435871 
L 94.294148 213.377589 
L 95.658243 218.602402 
L 97.022338 220.114127 
L 98.386432 211.161684 
L 99.750527 213.895132 
L 101.114622 214.036841 
L 102.478717 209.425247 
L 103.842811 217.153105 
L 105.206906 218.830651 
L 106.571001 219.654698 
L 107.935095 219.478627 
L 109.29919 218.97553 
L 110.663285 217.71049 
L 112.02738 219.927329 
L 113.391474 213.299929 
L 114.755569 219.060269 
L 116.119664 212.630272 
L 117.483759 216.362146 
L 118.847853 218.489688 
L 120.211948 219.817759 
L 121.576043 218.43511 
L 122.940138 209.412089 
L 124.304232 218.151035 
L 125.668327 217.174502 
L 127.032422 219.98891 
L 128.396516 219.269523 
L 129.760611 215.855057 
L 131.124706 209.567496 
L 132.488801 214.865289 
L 133.852895 217.257112 
L 135.21699 212.68981 
L 136.581085 218.081105 
L 137.94518 218.718449 
L 139.309274 217.140911 
L 140.673369 210.775533 
L 142.037464 218.575221 
L 143.401558 215.265129 
L 144.765653 215.546169 
L 146.129748 214.692317 
L 147.493843 216.794155 
L 148.857937 218.013576 
L 150.222032 212.243457 
L 151.586127 216.773831 
L 152.950222 219.159457 
L 154.314316 216.957538 
L 155.678411 209.377563 
L 157.042506 218.083882 
L 158.4066 212.527333 
L 159.770695 216.388211 
L 161.13479 213.636619 
L 162.498885 218.327253 
L 163.862979 218.575565 
L 165.227074 214.619144 
L 166.591169 212.137451 
L 167.955264 214.499359 
L 169.319358 216.362312 
L 170.683453 211.17926 
L 172.047548 210.064526 
L 173.411642 212.573209 
L 174.775737 214.554685 
L 176.139832 218.392075 
L 177.503927 213.809192 
L 178.868021 218.29313 
L 180.232116 212.843427 
L 181.596211 215.085936 
L 182.960306 215.992731 
L 184.3244 208.692686 
L 185.688495 213.061241 
L 187.05259 219.520423 
L 188.416684 220.098724 
L 189.780779 220.349272 
L 191.144874 215.817781 
L 192.508969 217.856881 
L 193.873063 216.75976 
L 195.237158 213.227727 
L 196.601253 217.88315 
L 197.965348 215.269172 
L 199.329442 218.465215 
L 200.693537 213.694539 
L 202.057632 218.538318 
L 203.421727 217.394738 
L 204.785821 219.915779 
L 206.149916 216.731796 
L 207.514011 215.877874 
L 208.878105 217.78928 
L 210.2422 217.097645 
L 211.606295 216.619289 
L 212.97039 216.397021 
L 214.334484 212.88279 
L 215.698579 209.911498 
L 217.062674 212.900753 
L 218.426769 214.446728 
L 219.790863 212.052042 
L 221.154958 217.963962 
L 222.519053 218.186385 
L 223.883147 217.12586 
L 225.247242 214.935448 
L 226.611337 218.311098 
L 227.975432 211.025013 
L 229.339526 212.65968 
L 230.703621 218.863206 
L 232.067716 218.602114 
L 233.431811 218.301529 
L 234.795905 215.795042 
L 236.16 213.819621 
L 237.524095 217.503513 
L 238.888189 214.787148 
L 240.252284 218.463359 
L 241.616379 212.962917 
L 242.980474 220.303067 
L 244.344568 211.804523 
L 245.708663 211.149443 
L 247.072758 218.417392 
L 248.436853 211.979602 
L 249.800947 220.368185 
L 251.165042 216.000596 
L 252.529137 211.926905 
L 253.893231 219.8228 
L 255.257326 208.447675 
L 256.621421 218.740148 
L 257.985516 211.859121 
L 259.34961 217.108675 
L 260.713705 210.403634 
L 262.0778 220.501805 
L 263.441895 215.834803 
L 264.805989 214.315464 
L 266.170084 211.452336 
L 267.534179 212.319155 
L 268.898273 209.288432 
L 270.262368 213.612681 
L 271.626463 216.424434 
L 272.990558 213.039448 
L 274.354652 218.597624 
L 275.718747 216.225768 
L 277.082842 216.798844 
L 278.446937 213.242602 
L 279.811031 218.039552 
L 281.175126 218.50031 
L 282.539221 212.176606 
L 283.903316 217.343233 
L 285.26741 217.519378 
L 286.631505 219.356447 
L 287.9956 216.366683 
L 289.359694 213.065988 
L 290.723789 218.597922 
L 292.087884 215.481024 
L 293.451979 217.308735 
L 294.816073 219.273002 
L 296.180168 220.664342 
L 297.544263 218.756721 
L 298.908358 218.878492 
L 300.272452 215.963635 
L 301.636547 211.505205 
L 303.000642 216.122655 
L 304.364736 215.548324 
L 305.728831 212.407835 
L 307.092926 217.443706 
L 308.457021 216.98075 
L 309.821115 218.656102 
L 311.18521 219.973866 
L 312.549305 219.645676 
L 313.9134 216.814035 
L 315.277494 217.254968 
L 316.641589 218.471009 
L 318.005684 217.695896 
L 319.369778 217.637811 
L 320.733873 212.178421 
L 322.097968 213.105007 
L 323.462063 210.069744 
L 324.826157 218.359394 
L 326.190252 215.99616 
L 327.554347 217.474671 
L 328.918442 218.191815 
L 330.282536 213.94948 
L 331.646631 219.140938 
L 333.010726 213.045003 
L 334.37482 216.525701 
L 335.738915 211.259498 
L 337.10301 218.288001 
L 338.467105 220.101544 
L 339.831199 214.468027 
L 341.195294 217.889476 
L 342.559389 218.613642 
L 343.923484 218.670935 
L 345.287578 210.678847 
L 346.651673 213.309158 
L 348.015768 213.303438 
L 349.379862 216.046262 
L 350.743957 217.180621 
L 352.108052 212.145495 
L 353.472147 208.83317 
L 354.836241 211.44213 
L 356.200336 218.953372 
L 357.564431 209.22042 
L 358.928526 216.067731 
L 360.29262 211.10039 
L 361.656715 215.45201 
L 363.02081 209.382133 
L 364.384905 218.636072 
L 365.748999 209.526879 
L 367.113094 219.671338 
L 368.477189 212.596984 
L 369.841283 214.099802 
L 371.205378 216.372829 
L 372.569473 209.791679 
L 373.933568 218.291158 
L 375.297662 218.707875 
L 376.661757 209.535412 
L 378.025852 216.211483 
L 379.389947 216.240073 
L 380.754041 218.23116 
L 382.118136 217.93919 
L 383.482231 216.997703 
L 384.846325 218.975968 
L 386.21042 214.651634 
L 387.574515 210.660128 
L 388.93861 215.939219 
L 390.302704 216.429512 
L 391.666799 216.170586 
L 393.030894 217.693948 
L 394.394989 208.400585 
L 395.759083 213.133596 
L 397.123178 218.792714 
L 398.487273 216.779454 
L 398.487273 143.99417 
L 398.487273 143.99417 
L 397.123178 138.175721 
L 395.759083 155.619462 
L 394.394989 159.187988 
L 393.030894 141.551467 
L 391.666799 146.351633 
L 390.302704 147.371109 
L 388.93861 149.904377 
L 387.574515 157.324864 
L 386.21042 150.857344 
L 384.846325 136.324971 
L 383.482231 144.718492 
L 382.118136 138.828888 
L 380.754041 139.141051 
L 379.389947 148.941001 
L 378.025852 147.880379 
L 376.661757 158.073172 
L 375.297662 137.974675 
L 373.933568 138.35552 
L 372.569473 158.087677 
L 371.205378 148.089377 
L 369.841283 152.871726 
L 368.477189 155.956665 
L 367.113094 132.959599 
L 365.748999 158.109506 
L 364.384905 138.44323 
L 363.02081 158.66096 
L 361.656715 151.30384 
L 360.29262 156.835119 
L 358.928526 147.16223 
L 357.564431 158.490834 
L 356.200336 136.97881 
L 354.836241 156.875124 
L 353.472147 158.696466 
L 352.108052 156.070616 
L 350.743957 144.665361 
L 349.379862 148.437863 
L 348.015768 156.006566 
L 346.651673 156.648899 
L 345.287578 158.894806 
L 343.923484 137.83127 
L 342.559389 136.704002 
L 341.195294 141.103974 
L 339.831199 152.080028 
L 338.467105 132.585056 
L 337.10301 140.114313 
L 335.738915 157.285469 
L 334.37482 146.673445 
L 333.010726 155.45086 
L 331.646631 136.527641 
L 330.282536 153.850289 
L 328.918442 140.875479 
L 327.554347 143.279862 
L 326.190252 149.237989 
L 324.826157 137.540117 
L 323.462063 158.047178 
L 322.097968 155.239184 
L 320.733873 156.233898 
L 319.369778 143.478498 
L 318.005684 143.12084 
L 316.641589 138.490214 
L 315.277494 141.875608 
L 313.9134 143.969028 
L 312.549305 134.679577 
L 311.18521 133.222323 
L 309.821115 138.081989 
L 308.457021 143.83728 
L 307.092926 144.402395 
L 305.728831 156.155356 
L 304.364736 148.436132 
L 303.000642 148.370353 
L 301.636547 156.756882 
L 300.272452 149.977352 
L 298.908358 137.271871 
L 297.544263 138.106942 
L 296.180168 129.493474 
L 294.816073 134.489603 
L 293.451979 142.831037 
L 292.087884 148.821024 
L 290.723789 138.118562 
L 289.359694 155.348063 
L 287.9956 148.803008 
L 286.631505 133.595027 
L 285.26741 144.169935 
L 283.903316 144.993352 
L 282.539221 157.119942 
L 281.175126 138.295832 
L 279.811031 141.570043 
L 278.446937 155.2585 
L 277.082842 146.917983 
L 275.718747 147.86652 
L 274.354652 138.305347 
L 272.990558 156.872684 
L 271.626463 147.863501 
L 270.262368 154.774805 
L 268.898273 159.108683 
L 267.534179 156.473738 
L 266.170084 156.896443 
L 264.805989 152.247878 
L 263.441895 147.723775 
L 262.0778 130.633228 
L 260.713705 158.859468 
L 259.34961 142.860902 
L 257.985516 157.813572 
L 256.621421 137.957502 
L 255.257326 159.21291 
L 253.893231 133.971699 
L 252.529137 156.128927 
L 251.165042 148.273183 
L 249.800947 131.267617 
L 248.436853 156.423169 
L 247.072758 138.966405 
L 245.708663 157.6497 
L 244.344568 156.246044 
L 242.980474 131.592686 
L 241.616379 156.386977 
L 240.252284 139.399654 
L 238.888189 150.304842 
L 237.524095 142.727323 
L 236.16 156.099467 
L 234.795905 148.51618 
L 233.431811 140.299885 
L 232.067716 138.018443 
L 230.703621 137.318123 
L 229.339526 156.115179 
L 227.975432 156.92899 
L 226.611337 138.598884 
L 225.247242 153.149928 
L 223.883147 144.181163 
L 222.519053 140.762309 
L 221.154958 140.460669 
L 219.790863 156.316139 
L 218.426769 151.754153 
L 217.062674 155.502631 
L 215.698579 158.979538 
L 214.334484 155.698023 
L 212.97039 148.66399 
L 211.606295 146.171704 
L 210.2422 145.540624 
L 208.878105 142.909296 
L 207.514011 149.756175 
L 206.149916 145.986746 
L 204.785821 132.659649 
L 203.421727 143.080764 
L 202.057632 138.775284 
L 200.693537 154.537234 
L 199.329442 138.417087 
L 197.965348 151.982077 
L 196.601253 141.072835 
L 195.237158 155.449602 
L 193.873063 147.666245 
L 192.508969 141.984914 
L 191.144874 147.798128 
L 189.780779 130.064438 
L 188.416684 132.144879 
L 187.05259 133.410999 
L 185.688495 156.765043 
L 184.3244 158.716811 
L 182.960306 148.262223 
L 181.596211 150.080765 
L 180.232116 155.945662 
L 178.868021 140.546132 
L 177.503927 154.261889 
L 176.139832 138.826673 
L 174.775737 151.484319 
L 173.411642 156.329754 
L 172.047548 158.006599 
L 170.683453 158.354231 
L 169.319358 148.403136 
L 167.955264 154.176706 
L 166.591169 157.031789 
L 165.227074 151.36673 
L 163.862979 138.383832 
L 162.498885 140.087789 
L 161.13479 156.194998 
L 159.770695 147.462445 
L 158.4066 156.020753 
L 157.042506 141.482007 
L 155.678411 158.323414 
L 154.314316 143.11716 
L 152.950222 134.370455 
L 151.586127 144.995907 
L 150.222032 155.986506 
L 148.857937 139.370042 
L 147.493843 146.840451 
L 146.129748 151.178295 
L 144.765653 148.611598 
L 143.401558 149.79781 
L 142.037464 137.913506 
L 140.673369 157.246906 
L 139.309274 145.69571 
L 137.94518 137.757843 
L 136.581085 141.457671 
L 135.21699 156.382191 
L 133.852895 143.835656 
L 132.488801 153.210607 
L 131.124706 158.364028 
L 129.760611 147.604472 
L 128.396516 136.150017 
L 127.032422 132.92191 
L 125.668327 145.755141 
L 124.304232 139.149155 
L 122.940138 158.108977 
L 121.576043 138.872971 
L 120.211948 133.973712 
L 118.847853 138.603327 
L 117.483759 145.453331 
L 116.119664 157.122306 
L 114.755569 136.718114 
L 113.391474 155.022016 
L 112.02738 131.667806 
L 110.663285 139.7675 
L 109.29919 136.713565 
L 107.935095 135.308145 
L 106.571001 134.507746 
L 105.206906 137.392711 
L 103.842811 144.63684 
L 102.478717 158.725888 
L 101.114622 155.212768 
L 99.750527 156.150112 
L 98.386432 158.70174 
L 97.022338 131.832669 
L 95.658243 138.188345 
L 94.294148 155.06614 
L 92.930053 130.404013 
L 91.565959 136.351327 
L 90.201864 152.932547 
L 88.837769 141.760913 
L 87.473675 143.227802 
L 86.10958 147.454767 
L 84.745485 152.430732 
L 83.38139 147.388534 
L 82.017296 144.41578 
L 80.653201 136.349132 
L 79.289106 153.231619 
L 77.925011 135.993454 
L 76.560917 156.162888 
L 75.196822 137.381342 
L 73.832727 144.685251 
z
" style="fill:#008000;fill-opacity:0.4;"/>
   </g>
   <g id="matplotlib.axis_1">
    <g id="xtick_1">
     <g id="line2d_1">
      <defs>
       <path d="M 0 0 
L 0 3.5 
" id="mdada7e5f08" style="stroke:#000000;stroke-width:0.8;"/>
      </defs>
      <g>
       <use style="stroke:#000000;stroke-width:0.8;" x="73.832727" xlink:href="#mdada7e5f08" y="307.584"/>
      </g>
     </g>
     <g id="text_1">
      <!-- 0.0 -->
      <defs>
       <path d="M 31.78125 66.40625 
Q 24.171875 66.40625 20.328125 58.90625 
Q 16.5 51.421875 16.5 36.375 
Q 16.5 21.390625 20.328125 13.890625 
Q 24.171875 6.390625 31.78125 6.390625 
Q 39.453125 6.390625 43.28125 13.890625 
Q 47.125 21.390625 47.125 36.375 
Q 47.125 51.421875 43.28125 58.90625 
Q 39.453125 66.40625 31.78125 66.40625 
z
M 31.78125 74.21875 
Q 44.046875 74.21875 50.515625 64.515625 
Q 56.984375 54.828125 56.984375 36.375 
Q 56.984375 17.96875 50.515625 8.265625 
Q 44.046875 -1.421875 31.78125 -1.421875 
Q 19.53125 -1.421875 13.0625 8.265625 
Q 6.59375 17.96875 6.59375 36.375 
Q 6.59375 54.828125 13.0625 64.515625 
Q 19.53125 74.21875 31.78125 74.21875 
z
" id="DejaVuSans-48"/>
       <path d="M 10.6875 12.40625 
L 21 12.40625 
L 21 0 
L 10.6875 0 
z
" id="DejaVuSans-46"/>
      </defs>
      <g transform="translate(65.881165 322.182437)scale(0.1 -0.1)">
       <use xlink:href="#DejaVuSans-48"/>
       <use x="63.623047" xlink:href="#DejaVuSans-46"/>
       <use x="95.410156" xlink:href="#DejaVuSans-48"/>
      </g>
     </g>
    </g>
    <g id="xtick_2">
     <g id="line2d_2">
      <g>
       <use style="stroke:#000000;stroke-width:0.8;" x="138.763636" xlink:href="#mdada7e5f08" y="307.584"/>
      </g>
     </g>
     <g id="text_2">
      <!-- 0.2 -->
      <defs>
       <path d="M 19.1875 8.296875 
L 53.609375 8.296875 
L 53.609375 0 
L 7.328125 0 
L 7.328125 8.296875 
Q 12.9375 14.109375 22.625 23.890625 
Q 32.328125 33.6875 34.8125 36.53125 
Q 39.546875 41.84375 41.421875 45.53125 
Q 43.3125 49.21875 43.3125 52.78125 
Q 43.3125 58.59375 39.234375 62.25 
Q 35.15625 65.921875 28.609375 65.921875 
Q 23.96875 65.921875 18.8125 64.3125 
Q 13.671875 62.703125 7.8125 59.421875 
L 7.8125 69.390625 
Q 13.765625 71.78125 18.9375 73 
Q 24.125 74.21875 28.421875 74.21875 
Q 39.75 74.21875 46.484375 68.546875 
Q 53.21875 62.890625 53.21875 53.421875 
Q 53.21875 48.921875 51.53125 44.890625 
Q 49.859375 40.875 45.40625 35.40625 
Q 44.1875 33.984375 37.640625 27.21875 
Q 31.109375 20.453125 19.1875 8.296875 
z
" id="DejaVuSans-50"/>
      </defs>
      <g transform="translate(130.812074 322.182437)scale(0.1 -0.1)">
       <use xlink:href="#DejaVuSans-48"/>
       <use x="63.623047" xlink:href="#DejaVuSans-46"/>
       <use x="95.410156" xlink:href="#DejaVuSans-50"/>
      </g>
     </g>
    </g>
    <g id="xtick_3">
     <g id="line2d_3">
      <g>
       <use style="stroke:#000000;stroke-width:0.8;" x="203.694545" xlink:href="#mdada7e5f08" y="307.584"/>
      </g>
     </g>
     <g id="text_3">
      <!-- 0.4 -->
      <defs>
       <path d="M 37.796875 64.3125 
L 12.890625 25.390625 
L 37.796875 25.390625 
z
M 35.203125 72.90625 
L 47.609375 72.90625 
L 47.609375 25.390625 
L 58.015625 25.390625 
L 58.015625 17.1875 
L 47.609375 17.1875 
L 47.609375 0 
L 37.796875 0 
L 37.796875 17.1875 
L 4.890625 17.1875 
L 4.890625 26.703125 
z
" id="DejaVuSans-52"/>
      </defs>
      <g transform="translate(195.742983 322.182437)scale(0.1 -0.1)">
       <use xlink:href="#DejaVuSans-48"/>
       <use x="63.623047" xlink:href="#DejaVuSans-46"/>
       <use x="95.410156" xlink:href="#DejaVuSans-52"/>
      </g>
     </g>
    </g>
    <g id="xtick_4">
     <g id="line2d_4">
      <g>
       <use style="stroke:#000000;stroke-width:0.8;" x="268.625455" xlink:href="#mdada7e5f08" y="307.584"/>
      </g>
     </g>
     <g id="text_4">
      <!-- 0.6 -->
      <defs>
       <path d="M 33.015625 40.375 
Q 26.375 40.375 22.484375 35.828125 
Q 18.609375 31.296875 18.609375 23.390625 
Q 18.609375 15.53125 22.484375 10.953125 
Q 26.375 6.390625 33.015625 6.390625 
Q 39.65625 6.390625 43.53125 10.953125 
Q 47.40625 15.53125 47.40625 23.390625 
Q 47.40625 31.296875 43.53125 35.828125 
Q 39.65625 40.375 33.015625 40.375 
z
M 52.59375 71.296875 
L 52.59375 62.3125 
Q 48.875 64.0625 45.09375 64.984375 
Q 41.3125 65.921875 37.59375 65.921875 
Q 27.828125 65.921875 22.671875 59.328125 
Q 17.53125 52.734375 16.796875 39.40625 
Q 19.671875 43.65625 24.015625 45.921875 
Q 28.375 48.1875 33.59375 48.1875 
Q 44.578125 48.1875 50.953125 41.515625 
Q 57.328125 34.859375 57.328125 23.390625 
Q 57.328125 12.15625 50.6875 5.359375 
Q 44.046875 -1.421875 33.015625 -1.421875 
Q 20.359375 -1.421875 13.671875 8.265625 
Q 6.984375 17.96875 6.984375 36.375 
Q 6.984375 53.65625 15.1875 63.9375 
Q 23.390625 74.21875 37.203125 74.21875 
Q 40.921875 74.21875 44.703125 73.484375 
Q 48.484375 72.75 52.59375 71.296875 
z
" id="DejaVuSans-54"/>
      </defs>
      <g transform="translate(260.673892 322.182437)scale(0.1 -0.1)">
       <use xlink:href="#DejaVuSans-48"/>
       <use x="63.623047" xlink:href="#DejaVuSans-46"/>
       <use x="95.410156" xlink:href="#DejaVuSans-54"/>
      </g>
     </g>
    </g>
    <g id="xtick_5">
     <g id="line2d_5">
      <g>
       <use style="stroke:#000000;stroke-width:0.8;" x="333.556364" xlink:href="#mdada7e5f08" y="307.584"/>
      </g>
     </g>
     <g id="text_5">
      <!-- 0.8 -->
      <defs>
       <path d="M 31.78125 34.625 
Q 24.75 34.625 20.71875 30.859375 
Q 16.703125 27.09375 16.703125 20.515625 
Q 16.703125 13.921875 20.71875 10.15625 
Q 24.75 6.390625 31.78125 6.390625 
Q 38.8125 6.390625 42.859375 10.171875 
Q 46.921875 13.96875 46.921875 20.515625 
Q 46.921875 27.09375 42.890625 30.859375 
Q 38.875 34.625 31.78125 34.625 
z
M 21.921875 38.8125 
Q 15.578125 40.375 12.03125 44.71875 
Q 8.5 49.078125 8.5 55.328125 
Q 8.5 64.0625 14.71875 69.140625 
Q 20.953125 74.21875 31.78125 74.21875 
Q 42.671875 74.21875 48.875 69.140625 
Q 55.078125 64.0625 55.078125 55.328125 
Q 55.078125 49.078125 51.53125 44.71875 
Q 48 40.375 41.703125 38.8125 
Q 48.828125 37.15625 52.796875 32.3125 
Q 56.78125 27.484375 56.78125 20.515625 
Q 56.78125 9.90625 50.3125 4.234375 
Q 43.84375 -1.421875 31.78125 -1.421875 
Q 19.734375 -1.421875 13.25 4.234375 
Q 6.78125 9.90625 6.78125 20.515625 
Q 6.78125 27.484375 10.78125 32.3125 
Q 14.796875 37.15625 21.921875 38.8125 
z
M 18.3125 54.390625 
Q 18.3125 48.734375 21.84375 45.5625 
Q 25.390625 42.390625 31.78125 42.390625 
Q 38.140625 42.390625 41.71875 45.5625 
Q 45.3125 48.734375 45.3125 54.390625 
Q 45.3125 60.0625 41.71875 63.234375 
Q 38.140625 66.40625 31.78125 66.40625 
Q 25.390625 66.40625 21.84375 63.234375 
Q 18.3125 60.0625 18.3125 54.390625 
z
" id="DejaVuSans-56"/>
      </defs>
      <g transform="translate(325.604801 322.182437)scale(0.1 -0.1)">
       <use xlink:href="#DejaVuSans-48"/>
       <use x="63.623047" xlink:href="#DejaVuSans-46"/>
       <use x="95.410156" xlink:href="#DejaVuSans-56"/>
      </g>
     </g>
    </g>
    <g id="xtick_6">
     <g id="line2d_6">
      <g>
       <use style="stroke:#000000;stroke-width:0.8;" x="398.487273" xlink:href="#mdada7e5f08" y="307.584"/>
      </g>
     </g>
     <g id="text_6">
      <!-- 1.0 -->
      <defs>
       <path d="M 12.40625 8.296875 
L 28.515625 8.296875 
L 28.515625 63.921875 
L 10.984375 60.40625 
L 10.984375 69.390625 
L 28.421875 72.90625 
L 38.28125 72.90625 
L 38.28125 8.296875 
L 54.390625 8.296875 
L 54.390625 0 
L 12.40625 0 
z
" id="DejaVuSans-49"/>
      </defs>
      <g transform="translate(390.53571 322.182437)scale(0.1 -0.1)">
       <use xlink:href="#DejaVuSans-49"/>
       <use x="63.623047" xlink:href="#DejaVuSans-46"/>
       <use x="95.410156" xlink:href="#DejaVuSans-48"/>
      </g>
     </g>
    </g>
   </g>
   <g id="matplotlib.axis_2">
    <g id="ytick_1">
     <g id="line2d_7">
      <defs>
       <path d="M 0 0 
L -3.5 0 
" id="m563772e006" style="stroke:#000000;stroke-width:0.8;"/>
      </defs>
      <g>
       <use style="stroke:#000000;stroke-width:0.8;" x="57.6" xlink:href="#m563772e006" y="287.035286"/>
      </g>
     </g>
     <g id="text_7">
      <!-- 0.20 -->
      <g transform="translate(28.334375 290.834504)scale(0.1 -0.1)">
       <use xlink:href="#DejaVuSans-48"/>
       <use x="63.623047" xlink:href="#DejaVuSans-46"/>
       <use x="95.410156" xlink:href="#DejaVuSans-50"/>
       <use x="159.033203" xlink:href="#DejaVuSans-48"/>
      </g>
     </g>
    </g>
    <g id="ytick_2">
     <g id="line2d_8">
      <g>
       <use style="stroke:#000000;stroke-width:0.8;" x="57.6" xlink:href="#m563772e006" y="255.044087"/>
      </g>
     </g>
     <g id="text_8">
      <!-- 0.25 -->
      <defs>
       <path d="M 10.796875 72.90625 
L 49.515625 72.90625 
L 49.515625 64.59375 
L 19.828125 64.59375 
L 19.828125 46.734375 
Q 21.96875 47.46875 24.109375 47.828125 
Q 26.265625 48.1875 28.421875 48.1875 
Q 40.625 48.1875 47.75 41.5 
Q 54.890625 34.8125 54.890625 23.390625 
Q 54.890625 11.625 47.5625 5.09375 
Q 40.234375 -1.421875 26.90625 -1.421875 
Q 22.3125 -1.421875 17.546875 -0.640625 
Q 12.796875 0.140625 7.71875 1.703125 
L 7.71875 11.625 
Q 12.109375 9.234375 16.796875 8.0625 
Q 21.484375 6.890625 26.703125 6.890625 
Q 35.15625 6.890625 40.078125 11.328125 
Q 45.015625 15.765625 45.015625 23.390625 
Q 45.015625 31 40.078125 35.4375 
Q 35.15625 39.890625 26.703125 39.890625 
Q 22.75 39.890625 18.8125 39.015625 
Q 14.890625 38.140625 10.796875 36.28125 
z
" id="DejaVuSans-53"/>
      </defs>
      <g transform="translate(28.334375 258.843306)scale(0.1 -0.1)">
       <use xlink:href="#DejaVuSans-48"/>
       <use x="63.623047" xlink:href="#DejaVuSans-46"/>
       <use x="95.410156" xlink:href="#DejaVuSans-50"/>
       <use x="159.033203" xlink:href="#DejaVuSans-53"/>
      </g>
     </g>
    </g>
    <g id="ytick_3">
     <g id="line2d_9">
      <g>
       <use style="stroke:#000000;stroke-width:0.8;" x="57.6" xlink:href="#m563772e006" y="223.052889"/>
      </g>
     </g>
     <g id="text_9">
      <!-- 0.30 -->
      <defs>
       <path d="M 40.578125 39.3125 
Q 47.65625 37.796875 51.625 33 
Q 55.609375 28.21875 55.609375 21.1875 
Q 55.609375 10.40625 48.1875 4.484375 
Q 40.765625 -1.421875 27.09375 -1.421875 
Q 22.515625 -1.421875 17.65625 -0.515625 
Q 12.796875 0.390625 7.625 2.203125 
L 7.625 11.71875 
Q 11.71875 9.328125 16.59375 8.109375 
Q 21.484375 6.890625 26.8125 6.890625 
Q 36.078125 6.890625 40.9375 10.546875 
Q 45.796875 14.203125 45.796875 21.1875 
Q 45.796875 27.640625 41.28125 31.265625 
Q 36.765625 34.90625 28.71875 34.90625 
L 20.21875 34.90625 
L 20.21875 43.015625 
L 29.109375 43.015625 
Q 36.375 43.015625 40.234375 45.921875 
Q 44.09375 48.828125 44.09375 54.296875 
Q 44.09375 59.90625 40.109375 62.90625 
Q 36.140625 65.921875 28.71875 65.921875 
Q 24.65625 65.921875 20.015625 65.03125 
Q 15.375 64.15625 9.8125 62.3125 
L 9.8125 71.09375 
Q 15.4375 72.65625 20.34375 73.4375 
Q 25.25 74.21875 29.59375 74.21875 
Q 40.828125 74.21875 47.359375 69.109375 
Q 53.90625 64.015625 53.90625 55.328125 
Q 53.90625 49.265625 50.4375 45.09375 
Q 46.96875 40.921875 40.578125 39.3125 
z
" id="DejaVuSans-51"/>
      </defs>
      <g transform="translate(28.334375 226.852108)scale(0.1 -0.1)">
       <use xlink:href="#DejaVuSans-48"/>
       <use x="63.623047" xlink:href="#DejaVuSans-46"/>
       <use x="95.410156" xlink:href="#DejaVuSans-51"/>
       <use x="159.033203" xlink:href="#DejaVuSans-48"/>
      </g>
     </g>
    </g>
    <g id="ytick_4">
     <g id="line2d_10">
      <g>
       <use style="stroke:#000000;stroke-width:0.8;" x="57.6" xlink:href="#m563772e006" y="191.061691"/>
      </g>
     </g>
     <g id="text_10">
      <!-- 0.35 -->
      <g transform="translate(28.334375 194.86091)scale(0.1 -0.1)">
       <use xlink:href="#DejaVuSans-48"/>
       <use x="63.623047" xlink:href="#DejaVuSans-46"/>
       <use x="95.410156" xlink:href="#DejaVuSans-51"/>
       <use x="159.033203" xlink:href="#DejaVuSans-53"/>
      </g>
     </g>
    </g>
    <g id="ytick_5">
     <g id="line2d_11">
      <g>
       <use style="stroke:#000000;stroke-width:0.8;" x="57.6" xlink:href="#m563772e006" y="159.070493"/>
      </g>
     </g>
     <g id="text_11">
      <!-- 0.40 -->
      <g transform="translate(28.334375 162.869712)scale(0.1 -0.1)">
       <use xlink:href="#DejaVuSans-48"/>
       <use x="63.623047" xlink:href="#DejaVuSans-46"/>
       <use x="95.410156" xlink:href="#DejaVuSans-52"/>
       <use x="159.033203" xlink:href="#DejaVuSans-48"/>
      </g>
     </g>
    </g>
    <g id="ytick_6">
     <g id="line2d_12">
      <g>
       <use style="stroke:#000000;stroke-width:0.8;" x="57.6" xlink:href="#m563772e006" y="127.079295"/>
      </g>
     </g>
     <g id="text_12">
      <!-- 0.45 -->
      <g transform="translate(28.334375 130.878513)scale(0.1 -0.1)">
       <use xlink:href="#DejaVuSans-48"/>
       <use x="63.623047" xlink:href="#DejaVuSans-46"/>
       <use x="95.410156" xlink:href="#DejaVuSans-52"/>
       <use x="159.033203" xlink:href="#DejaVuSans-53"/>
      </g>
     </g>
    </g>
    <g id="ytick_7">
     <g id="line2d_13">
      <g>
       <use style="stroke:#000000;stroke-width:0.8;" x="57.6" xlink:href="#m563772e006" y="95.088096"/>
      </g>
     </g>
     <g id="text_13">
      <!-- 0.50 -->
      <g transform="translate(28.334375 98.887315)scale(0.1 -0.1)">
       <use xlink:href="#DejaVuSans-48"/>
       <use x="63.623047" xlink:href="#DejaVuSans-46"/>
       <use x="95.410156" xlink:href="#DejaVuSans-53"/>
       <use x="159.033203" xlink:href="#DejaVuSans-48"/>
      </g>
     </g>
    </g>
    <g id="ytick_8">
     <g id="line2d_14">
      <g>
       <use style="stroke:#000000;stroke-width:0.8;" x="57.6" xlink:href="#m563772e006" y="63.096898"/>
      </g>
     </g>
     <g id="text_14">
      <!-- 0.55 -->
      <g transform="translate(28.334375 66.896117)scale(0.1 -0.1)">
       <use xlink:href="#DejaVuSans-48"/>
       <use x="63.623047" xlink:href="#DejaVuSans-46"/>
       <use x="95.410156" xlink:href="#DejaVuSans-53"/>
       <use x="159.033203" xlink:href="#DejaVuSans-53"/>
      </g>
     </g>
    </g>
   </g>
   <g id="line2d_15">
    <path clip-path="url(#p8490ebadf2)" d="M 73.832727 129.480554 
L 75.196822 103.17931 
L 76.560917 194.073982 
L 77.925011 112.916791 
L 79.289106 205.424459 
L 80.653201 83.587901 
L 82.017296 112.363344 
L 83.38139 131.369954 
L 84.745485 159.504294 
L 86.10958 152.963373 
L 87.473675 119.549206 
L 88.837769 131.845983 
L 90.201864 159.342418 
L 91.565959 80.1015 
L 92.930053 62.842888 
L 94.294148 217.601589 
L 95.658243 99.61805 
L 97.022338 71.19451 
L 98.386432 221.182044 
L 99.750527 174.664922 
L 101.114622 181.583339 
L 102.478717 266.263401 
L 103.842811 128.545131 
L 105.206906 93.757263 
L 106.571001 71.506744 
L 107.935095 73.117181 
L 109.29919 94.741952 
L 110.663285 136.663858 
L 112.02738 83.228319 
L 113.391474 222.130903 
L 114.755569 84.653207 
L 116.119664 195.835418 
L 117.483759 164.753409 
L 118.847853 99.316053 
L 120.211948 68.767658 
L 121.576043 100.348089 
L 122.940138 287.422379 
L 124.304232 120.063625 
L 125.668327 116.848509 
L 127.032422 63.631791 
L 128.396516 79.019557 
L 129.760611 171.819625 
L 131.124706 274.065414 
L 132.488801 157.781887 
L 133.852895 128.520178 
L 135.21699 210.942941 
L 136.581085 100.735823 
L 137.94518 94.672851 
L 139.309274 116.898416 
L 140.673369 264.803962 
L 142.037464 103.552328 
L 143.401558 181.329329 
L 144.765653 175.604824 
L 146.129748 190.123709 
L 147.493843 131.079474 
L 148.857937 125.448383 
L 150.222032 239.054887 
L 151.586127 143.792776 
L 152.950222 104.52358 
L 154.314316 150.764938 
L 155.678411 280.567305 
L 157.042506 102.41792 
L 158.4066 227.509903 
L 159.770695 143.509974 
L 161.13479 179.964584 
L 162.498885 98.655115 
L 163.862979 98.040884 
L 165.227074 192.322144 
L 166.591169 212.012087 
L 167.955264 165.018296 
L 169.319358 139.63392 
L 170.683453 224.991556 
L 172.047548 274.907422 
L 173.411642 214.612971 
L 174.775737 195.804706 
L 176.139832 103.159476 
L 177.503927 204.509511 
L 178.868021 98.181645 
L 180.232116 216.934892 
L 181.596211 183.015265 
L 182.960306 153.740119 
L 184.3244 295.488 
L 185.688495 188.690503 
L 187.05259 92.506407 
L 188.416684 69.246246 
L 189.780779 71.587362 
L 191.144874 171.452366 
L 192.508969 105.376466 
L 193.873063 124.870622 
L 195.237158 214.767169 
L 196.601253 113.832379 
L 197.965348 150.270994 
L 199.329442 103.355902 
L 200.693537 205.888332 
L 202.057632 99.028132 
L 203.421727 124.718344 
L 204.785821 76.338055 
L 206.149916 140.321091 
L 207.514011 147.975945 
L 208.878105 105.882567 
L 210.2422 124.579502 
L 211.606295 145.01484 
L 212.97039 130.36863 
L 214.334484 222.066921 
L 215.698579 248.397596 
L 218.426769 199.67948 
L 219.790863 234.597233 
L 221.154958 113.821502 
L 222.519053 101.153628 
L 223.883147 131.444814 
L 225.247242 156.140099 
L 226.611337 115.630924 
L 227.975432 260.041752 
L 229.339526 220.052115 
L 230.703621 91.252992 
L 232.067716 102.542685 
L 233.431811 98.715898 
L 234.795905 164.571699 
L 236.16 176.145475 
L 237.524095 123.348481 
L 238.888189 194.963338 
L 240.252284 98.718458 
L 241.616379 200.547081 
L 242.980474 58.136343 
L 244.344568 248.327855 
L 245.708663 237.091267 
L 247.072758 100.688476 
L 248.436853 237.526347 
L 249.800947 55.258415 
L 252.529137 246.524192 
L 253.893231 66.808517 
L 255.257326 288.571503 
L 256.621421 92.633732 
L 257.985516 209.076575 
L 259.34961 145.839573 
L 260.713705 240.491291 
L 262.0778 53.568 
L 263.441895 170.635311 
L 264.805989 199.047334 
L 266.170084 243.229738 
L 267.534179 221.293373 
L 268.898273 261.14033 
L 270.262368 208.65749 
L 271.626463 143.268121 
L 272.990558 188.835743 
L 274.354652 97.127215 
L 275.718747 151.524409 
L 277.082842 124.363882 
L 278.446937 219.590802 
L 279.811031 100.212447 
L 281.175126 102.589393 
L 282.539221 209.109206 
L 283.903316 113.790791 
L 285.26741 110.793855 
L 286.631505 99.659639 
L 287.9956 131.304052 
L 289.359694 223.690154 
L 290.723789 100.232281 
L 292.087884 177.644583 
L 293.451979 131.519673 
L 294.816073 97.98266 
L 296.180168 56.536783 
L 297.544263 89.595208 
L 298.908358 88.400017 
L 300.272452 138.013886 
L 301.636547 246.012972 
L 303.000642 143.758866 
L 304.364736 177.884517 
L 305.728831 225.388887 
L 307.092926 113.093383 
L 308.457021 146.418614 
L 309.821115 94.983165 
L 311.18521 64.9076 
L 312.549305 70.06778 
L 313.9134 152.091293 
L 315.277494 144.513858 
L 316.641589 101.765299 
L 318.005684 109.631935 
L 319.369778 109.703595 
L 320.733873 235.121249 
L 322.097968 224.809846 
L 323.462063 273.104398 
L 324.826157 121.178838 
L 326.190252 146.426932 
L 327.554347 121.527542 
L 328.918442 99.772888 
L 330.282536 202.350745 
L 331.646631 87.11589 
L 333.010726 219.620234 
L 334.37482 144.583599 
L 335.738915 240.054931 
L 337.10301 100.89066 
L 338.467105 60.316863 
L 339.831199 193.969691 
L 341.195294 115.17473 
L 342.559389 115.144018 
L 343.923484 99.980191 
L 345.287578 233.718755 
L 346.651673 184.45167 
L 348.015768 197.793279 
L 349.379862 146.295768 
L 350.743957 126.907182 
L 352.108052 240.697955 
L 353.472147 290.240164 
L 354.836241 244.500428 
L 356.200336 89.139013 
L 357.564431 281.379882 
L 358.928526 166.397757 
L 360.29262 259.353942 
L 361.656715 147.127539 
L 363.02081 269.724208 
L 364.384905 94.617826 
L 365.748999 284.541252 
L 367.113094 87.69749 
L 368.477189 226.482986 
L 369.841283 203.730206 
L 371.205378 143.687205 
L 372.569473 278.699659 
L 373.933568 115.741614 
L 375.297662 96.994772 
L 376.661757 285.733884 
L 378.025852 151.685645 
L 379.389947 136.140482 
L 380.754041 110.495058 
L 382.118136 132.238835 
L 383.482231 133.775052 
L 384.846325 98.463808 
L 386.21042 197.20848 
L 387.574515 268.244296 
L 388.93861 142.264877 
L 390.302704 146.254179 
L 391.666799 167.880229 
L 393.030894 125.16942 
L 394.394989 291.209497 
L 395.759083 213.037085 
L 397.123178 90.162732 
L 398.487273 153.148922 
L 398.487273 153.148922 
" style="fill:none;stroke:#1f77b4;stroke-linecap:square;stroke-width:1.5;"/>
   </g>
   <g id="line2d_16">
    <path clip-path="url(#p8490ebadf2)" d="M 73.832727 158.298241 
L 75.196822 154.954649 
L 76.560917 166.190624 
L 77.925011 154.018086 
L 79.289106 163.184637 
L 80.653201 154.498784 
L 82.017296 158.326525 
L 83.38139 159.638504 
L 84.745485 163.035239 
L 86.10958 159.447714 
L 87.473675 157.67336 
L 88.837769 156.869986 
L 90.201864 163.402748 
L 91.565959 154.550344 
L 92.930053 151.885387 
L 94.294148 164.383534 
L 95.658243 155.432132 
L 97.022338 152.471337 
L 98.386432 170.774532 
L 99.750527 165.769564 
L 101.114622 164.611662 
L 102.478717 172.654517 
L 103.842811 158.324845 
L 105.206906 155.03333 
L 106.571001 153.632599 
L 107.935095 154.000471 
L 109.29919 154.657293 
L 110.663285 155.87058 
L 112.02738 152.296766 
L 113.391474 164.292045 
L 114.755569 154.712951 
L 116.119664 168.13004 
L 117.483759 158.376565 
L 118.847853 155.60964 
L 120.211948 153.435056 
L 121.576043 155.73427 
L 122.940138 171.626594 
L 124.304232 155.745637 
L 125.668327 158.963773 
L 127.032422 152.976346 
L 128.396516 154.454574 
L 129.760611 159.508166 
L 131.124706 171.853809 
L 132.488801 163.78647 
L 133.852895 157.927503 
L 135.21699 166.872665 
L 136.581085 157.008932 
L 137.94518 155.213921 
L 139.309274 158.913507 
L 140.673369 169.172052 
L 142.037464 155.228947 
L 143.401558 160.952247 
L 144.765653 160.21322 
L 146.129748 161.958696 
L 147.493843 159.375978 
L 148.857937 155.80037 
L 150.222032 166.501572 
L 151.586127 158.331767 
L 152.950222 153.328587 
L 154.314316 157.368216 
L 155.678411 172.029483 
L 157.042506 157.023951 
L 158.4066 166.385395 
L 159.770695 159.515748 
L 161.13479 165.985614 
L 162.498885 156.364321 
L 163.862979 155.529149 
L 166.591169 168.262105 
L 169.319358 160.238178 
L 170.683453 170.365111 
L 172.047548 170.535243 
L 173.411642 166.855438 
L 174.775737 162.077844 
L 176.139832 155.686251 
L 177.503927 163.829699 
L 178.868021 156.604763 
L 180.232116 166.066872 
L 181.596211 161.44498 
L 182.960306 160.175113 
L 184.3244 173.07117 
L 185.688495 167.280463 
L 187.05259 153.004274 
L 188.416684 152.625602 
L 189.780779 151.665086 
L 191.144874 159.713525 
L 192.508969 157.191832 
L 193.873063 159.819834 
L 195.237158 165.022482 
L 196.601253 156.692843 
L 197.965348 162.929688 
L 199.329442 155.491832 
L 200.693537 164.030399 
L 202.057632 155.731422 
L 203.421727 157.572805 
L 204.785821 152.803858 
L 206.149916 158.866026 
L 207.514011 161.274548 
L 208.878105 157.679352 
L 210.2422 158.803876 
L 211.606295 158.911987 
L 212.97039 160.520228 
L 214.334484 165.640387 
L 215.698579 172.451052 
L 217.062674 165.308 
L 218.426769 162.19198 
L 219.790863 167.146319 
L 221.154958 156.389883 
L 222.519053 156.672103 
L 223.883147 158.054579 
L 225.247242 163.594488 
L 226.611337 155.516161 
L 227.975432 168.736779 
L 229.339526 166.459527 
L 230.703621 155.002923 
L 232.067716 155.32018 
L 233.431811 156.470581 
L 234.795905 160.330508 
L 236.16 165.720632 
L 237.524095 157.429194 
L 238.888189 161.407209 
L 240.252284 156.045726 
L 241.616379 166.714949 
L 242.980474 152.439138 
L 244.344568 167.189941 
L 245.708663 169.550483 
L 247.072758 155.778039 
L 248.436853 167.37641 
L 249.800947 152.302821 
L 251.165042 160.186163 
L 252.529137 166.92278 
L 253.893231 153.437292 
L 255.257326 174.014922 
L 256.621421 155.369198 
L 257.985516 169.550454 
L 259.34961 157.301407 
L 260.713705 171.554258 
L 262.0778 152.037369 
L 263.441895 159.63687 
L 264.805989 162.636522 
L 266.170084 168.466 
L 267.534179 167.242869 
L 268.898273 173.35972 
L 270.262368 164.207117 
L 271.626463 159.757806 
L 272.990558 167.479163 
L 274.354652 155.495961 
L 275.718747 159.705528 
L 277.082842 159.422369 
L 278.446937 164.704767 
L 279.811031 157.051101 
L 281.175126 155.441055 
L 282.539221 168.385352 
L 283.903316 158.623097 
L 285.26741 158.250815 
L 286.631505 153.02213 
L 287.9956 160.667487 
L 289.359694 164.95715 
L 290.723789 155.387978 
L 292.087884 160.313392 
L 293.451979 157.38747 
L 294.816073 153.44259 
L 296.180168 151.495033 
L 297.544263 155.464516 
L 298.908358 154.978756 
L 301.636547 168.208035 
L 303.000642 160.271245 
L 304.364736 160.090722 
L 305.728831 166.666305 
L 307.092926 158.342637 
L 308.457021 157.785762 
L 311.18521 153.123252 
L 312.549305 153.716749 
L 313.9134 157.774226 
L 315.277494 156.824236 
L 316.641589 155.536164 
L 318.005684 157.750548 
L 319.369778 157.922356 
L 320.733873 166.946175 
L 322.097968 164.756732 
L 323.462063 170.598405 
L 324.826157 154.823446 
L 326.190252 160.992359 
L 327.554347 157.726226 
L 328.918442 156.738394 
L 330.282536 163.526118 
L 331.646631 154.636651 
L 333.010726 165.131747 
L 334.37482 159.144912 
L 335.738915 169.094624 
L 337.10301 156.359352 
L 338.467105 152.856027 
L 339.831199 162.434237 
L 341.195294 156.713447 
L 342.559389 154.407719 
L 343.923484 155.234774 
L 345.287578 171.230333 
L 346.651673 166.947289 
L 348.015768 165.886964 
L 349.379862 160.357168 
L 350.743957 158.355047 
L 352.108052 166.699704 
L 353.472147 172.955286 
L 354.836241 168.438042 
L 356.200336 154.82507 
L 357.564431 172.393782 
L 358.928526 159.183034 
L 360.29262 168.579564 
L 361.656715 162.569126 
L 363.02081 172.574157 
L 364.384905 155.59345 
L 365.748999 171.468003 
L 367.113094 152.842808 
L 368.477189 166.237878 
L 371.205378 159.904981 
L 372.569473 171.060136 
L 373.933568 155.348181 
L 375.297662 155.362014 
L 376.661757 171.392858 
L 378.025852 159.723625 
L 379.389947 160.836087 
L 380.754041 155.781967 
L 382.118136 155.443939 
L 383.482231 158.290941 
L 384.846325 154.384873 
L 387.574515 169.293374 
L 388.93861 161.426063 
L 390.302704 159.48551 
L 391.666799 158.782029 
L 393.030894 156.865157 
L 394.394989 174.002156 
L 395.759083 165.352718 
L 397.123178 155.521708 
L 398.487273 157.770674 
L 398.487273 157.770674 
" style="fill:none;stroke:#ff7f0e;stroke-linecap:square;stroke-width:1.5;"/>
   </g>
   <g id="line2d_17">
    <path clip-path="url(#p8490ebadf2)" d="M 73.832727 217.047921 
L 75.196822 218.721508 
L 76.560917 213.201859 
L 77.925011 218.776248 
L 79.289106 214.03413 
L 80.653201 219.128217 
L 82.017296 217.39721 
L 83.38139 216.708781 
L 84.745485 214.975739 
L 87.473675 217.428524 
L 88.837769 217.471523 
L 90.201864 214.988346 
L 91.565959 219.202251 
L 92.930053 220.435871 
L 94.294148 213.377589 
L 95.658243 218.602402 
L 97.022338 220.114127 
L 98.386432 211.161684 
L 99.750527 213.895132 
L 101.114622 214.036841 
L 102.478717 209.425247 
L 103.842811 217.153105 
L 105.206906 218.830651 
L 106.571001 219.654698 
L 107.935095 219.478627 
L 109.29919 218.97553 
L 110.663285 217.71049 
L 112.02738 219.927329 
L 113.391474 213.299929 
L 114.755569 219.060269 
L 116.119664 212.630272 
L 117.483759 216.362146 
L 118.847853 218.489688 
L 120.211948 219.817759 
L 121.576043 218.43511 
L 122.940138 209.412089 
L 124.304232 218.151035 
L 125.668327 217.174502 
L 127.032422 219.98891 
L 128.396516 219.269523 
L 129.760611 215.855057 
L 131.124706 209.567496 
L 132.488801 214.865289 
L 133.852895 217.257112 
L 135.21699 212.68981 
L 136.581085 218.081105 
L 137.94518 218.718449 
L 139.309274 217.140911 
L 140.673369 210.775533 
L 142.037464 218.575221 
L 143.401558 215.265129 
L 144.765653 215.546169 
L 146.129748 214.692317 
L 147.493843 216.794155 
L 148.857937 218.013576 
L 150.222032 212.243457 
L 151.586127 216.773831 
L 152.950222 219.159457 
L 154.314316 216.957538 
L 155.678411 209.377563 
L 157.042506 218.083882 
L 158.4066 212.527333 
L 159.770695 216.388211 
L 161.13479 213.636619 
L 162.498885 218.327253 
L 163.862979 218.575565 
L 165.227074 214.619144 
L 166.591169 212.137451 
L 167.955264 214.499359 
L 169.319358 216.362312 
L 170.683453 211.17926 
L 172.047548 210.064526 
L 173.411642 212.573209 
L 174.775737 214.554685 
L 176.139832 218.392075 
L 177.503927 213.809192 
L 178.868021 218.29313 
L 180.232116 212.843427 
L 181.596211 215.085936 
L 182.960306 215.992731 
L 184.3244 208.692686 
L 185.688495 213.061241 
L 187.05259 219.520423 
L 188.416684 220.098724 
L 189.780779 220.349272 
L 191.144874 215.817781 
L 192.508969 217.856881 
L 193.873063 216.75976 
L 195.237158 213.227727 
L 196.601253 217.88315 
L 197.965348 215.269172 
L 199.329442 218.465215 
L 200.693537 213.694539 
L 202.057632 218.538318 
L 203.421727 217.394738 
L 204.785821 219.915779 
L 206.149916 216.731796 
L 207.514011 215.877874 
L 208.878105 217.78928 
L 210.2422 217.097645 
L 211.606295 216.619289 
L 212.97039 216.397021 
L 214.334484 212.88279 
L 215.698579 209.911498 
L 217.062674 212.900753 
L 218.426769 214.446728 
L 219.790863 212.052042 
L 221.154958 217.963962 
L 222.519053 218.186385 
L 223.883147 217.12586 
L 225.247242 214.935448 
L 226.611337 218.311098 
L 227.975432 211.025013 
L 229.339526 212.65968 
L 230.703621 218.863206 
L 233.431811 218.301529 
L 234.795905 215.795042 
L 236.16 213.819621 
L 237.524095 217.503513 
L 238.888189 214.787148 
L 240.252284 218.463359 
L 241.616379 212.962917 
L 242.980474 220.303067 
L 244.344568 211.804523 
L 245.708663 211.149443 
L 247.072758 218.417392 
L 248.436853 211.979602 
L 249.800947 220.368185 
L 252.529137 211.926905 
L 253.893231 219.8228 
L 255.257326 208.447675 
L 256.621421 218.740148 
L 257.985516 211.859121 
L 259.34961 217.108675 
L 260.713705 210.403634 
L 262.0778 220.501805 
L 263.441895 215.834803 
L 264.805989 214.315464 
L 266.170084 211.452336 
L 267.534179 212.319155 
L 268.898273 209.288432 
L 270.262368 213.612681 
L 271.626463 216.424434 
L 272.990558 213.039448 
L 274.354652 218.597624 
L 275.718747 216.225768 
L 277.082842 216.798844 
L 278.446937 213.242602 
L 279.811031 218.039552 
L 281.175126 218.50031 
L 282.539221 212.176606 
L 283.903316 217.343233 
L 285.26741 217.519378 
L 286.631505 219.356447 
L 287.9956 216.366683 
L 289.359694 213.065988 
L 290.723789 218.597922 
L 292.087884 215.481024 
L 294.816073 219.273002 
L 296.180168 220.664342 
L 297.544263 218.756721 
L 298.908358 218.878492 
L 300.272452 215.963635 
L 301.636547 211.505205 
L 303.000642 216.122655 
L 304.364736 215.548324 
L 305.728831 212.407835 
L 307.092926 217.443706 
L 308.457021 216.98075 
L 309.821115 218.656102 
L 311.18521 219.973866 
L 312.549305 219.645676 
L 313.9134 216.814035 
L 315.277494 217.254968 
L 316.641589 218.471009 
L 318.005684 217.695896 
L 319.369778 217.637811 
L 320.733873 212.178421 
L 322.097968 213.105007 
L 323.462063 210.069744 
L 324.826157 218.359394 
L 326.190252 215.99616 
L 327.554347 217.474671 
L 328.918442 218.191815 
L 330.282536 213.94948 
L 331.646631 219.140938 
L 333.010726 213.045003 
L 334.37482 216.525701 
L 335.738915 211.259498 
L 337.10301 218.288001 
L 338.467105 220.101544 
L 339.831199 214.468027 
L 341.195294 217.889476 
L 342.559389 218.613642 
L 343.923484 218.670935 
L 345.287578 210.678847 
L 346.651673 213.309158 
L 348.015768 213.303438 
L 349.379862 216.046262 
L 350.743957 217.180621 
L 352.108052 212.145495 
L 353.472147 208.83317 
L 354.836241 211.44213 
L 356.200336 218.953372 
L 357.564431 209.22042 
L 358.928526 216.067731 
L 360.29262 211.10039 
L 361.656715 215.45201 
L 363.02081 209.382133 
L 364.384905 218.636072 
L 365.748999 209.526879 
L 367.113094 219.671338 
L 368.477189 212.596984 
L 369.841283 214.099802 
L 371.205378 216.372829 
L 372.569473 209.791679 
L 373.933568 218.291158 
L 375.297662 218.707875 
L 376.661757 209.535412 
L 378.025852 216.211483 
L 379.389947 216.240073 
L 380.754041 218.23116 
L 382.118136 217.93919 
L 383.482231 216.997703 
L 384.846325 218.975968 
L 387.574515 210.660128 
L 388.93861 215.939219 
L 390.302704 216.429512 
L 391.666799 216.170586 
L 393.030894 217.693948 
L 394.394989 208.400585 
L 395.759083 213.133596 
L 397.123178 218.792714 
L 398.487273 216.779454 
L 398.487273 216.779454 
" style="fill:none;stroke:#2ca02c;stroke-linecap:square;stroke-width:1.5;"/>
   </g>
   <g id="line2d_18">
    <path clip-path="url(#p8490ebadf2)" d="M 73.832727 144.685251 
L 75.196822 137.381342 
L 76.560917 156.162888 
L 77.925011 135.993454 
L 79.289106 153.231619 
L 80.653201 136.349132 
L 82.017296 144.41578 
L 83.38139 147.388534 
L 84.745485 152.430732 
L 86.10958 147.454767 
L 87.473675 143.227802 
L 88.837769 141.760913 
L 90.201864 152.932547 
L 91.565959 136.351327 
L 92.930053 130.404013 
L 94.294148 155.06614 
L 95.658243 138.188345 
L 97.022338 131.832669 
L 98.386432 158.70174 
L 99.750527 156.150112 
L 101.114622 155.212768 
L 102.478717 158.725888 
L 103.842811 144.63684 
L 105.206906 137.392711 
L 106.571001 134.507746 
L 107.935095 135.308145 
L 109.29919 136.713565 
L 110.663285 139.7675 
L 112.02738 131.667806 
L 113.391474 155.022016 
L 114.755569 136.718114 
L 116.119664 157.122306 
L 117.483759 145.453331 
L 118.847853 138.603327 
L 120.211948 133.973712 
L 121.576043 138.872971 
L 122.940138 158.108977 
L 124.304232 139.149155 
L 125.668327 145.755141 
L 127.032422 132.92191 
L 128.396516 136.150017 
L 131.124706 158.364028 
L 132.488801 153.210607 
L 133.852895 143.835656 
L 135.21699 156.382191 
L 136.581085 141.457671 
L 137.94518 137.757843 
L 139.309274 145.69571 
L 140.673369 157.246906 
L 142.037464 137.913506 
L 143.401558 149.79781 
L 144.765653 148.611598 
L 146.129748 151.178295 
L 147.493843 146.840451 
L 148.857937 139.370042 
L 150.222032 155.986506 
L 152.950222 134.370455 
L 154.314316 143.11716 
L 155.678411 158.323414 
L 157.042506 141.482007 
L 158.4066 156.020753 
L 159.770695 147.462445 
L 161.13479 156.194998 
L 162.498885 140.087789 
L 163.862979 138.383832 
L 165.227074 151.36673 
L 166.591169 157.031789 
L 167.955264 154.176706 
L 169.319358 148.403136 
L 170.683453 158.354231 
L 172.047548 158.006599 
L 173.411642 156.329754 
L 174.775737 151.484319 
L 176.139832 138.826673 
L 177.503927 154.261889 
L 178.868021 140.546132 
L 180.232116 155.945662 
L 181.596211 150.080765 
L 182.960306 148.262223 
L 184.3244 158.716811 
L 185.688495 156.765043 
L 187.05259 133.410999 
L 188.416684 132.144879 
L 189.780779 130.064438 
L 191.144874 147.798128 
L 192.508969 141.984914 
L 193.873063 147.666245 
L 195.237158 155.449602 
L 196.601253 141.072835 
L 197.965348 151.982077 
L 199.329442 138.417087 
L 200.693537 154.537234 
L 202.057632 138.775284 
L 203.421727 143.080764 
L 204.785821 132.659649 
L 206.149916 145.986746 
L 207.514011 149.756175 
L 208.878105 142.909296 
L 210.2422 145.540624 
L 211.606295 146.171704 
L 212.97039 148.66399 
L 214.334484 155.698023 
L 215.698579 158.979538 
L 218.426769 151.754153 
L 219.790863 156.316139 
L 221.154958 140.460669 
L 222.519053 140.762309 
L 223.883147 144.181163 
L 225.247242 153.149928 
L 226.611337 138.598884 
L 227.975432 156.92899 
L 229.339526 156.115179 
L 230.703621 137.318123 
L 232.067716 138.018443 
L 233.431811 140.299885 
L 236.16 156.099467 
L 237.524095 142.727323 
L 238.888189 150.304842 
L 240.252284 139.399654 
L 241.616379 156.386977 
L 242.980474 131.592686 
L 244.344568 156.246044 
L 245.708663 157.6497 
L 247.072758 138.966405 
L 248.436853 156.423169 
L 249.800947 131.267617 
L 251.165042 148.273183 
L 252.529137 156.128927 
L 253.893231 133.971699 
L 255.257326 159.21291 
L 256.621421 137.957502 
L 257.985516 157.813572 
L 259.34961 142.860902 
L 260.713705 158.859468 
L 262.0778 130.633228 
L 263.441895 147.723775 
L 266.170084 156.896443 
L 267.534179 156.473738 
L 268.898273 159.108683 
L 270.262368 154.774805 
L 271.626463 147.863501 
L 272.990558 156.872684 
L 274.354652 138.305347 
L 275.718747 147.86652 
L 277.082842 146.917983 
L 278.446937 155.2585 
L 279.811031 141.570043 
L 281.175126 138.295832 
L 282.539221 157.119942 
L 283.903316 144.993352 
L 285.26741 144.169935 
L 286.631505 133.595027 
L 287.9956 148.803008 
L 289.359694 155.348063 
L 290.723789 138.118562 
L 292.087884 148.821024 
L 293.451979 142.831037 
L 294.816073 134.489603 
L 296.180168 129.493474 
L 297.544263 138.106942 
L 298.908358 137.271871 
L 300.272452 149.977352 
L 301.636547 156.756882 
L 303.000642 148.370353 
L 304.364736 148.436132 
L 305.728831 156.155356 
L 307.092926 144.402395 
L 308.457021 143.83728 
L 309.821115 138.081989 
L 311.18521 133.222323 
L 312.549305 134.679577 
L 313.9134 143.969028 
L 315.277494 141.875608 
L 316.641589 138.490214 
L 318.005684 143.12084 
L 319.369778 143.478498 
L 320.733873 156.233898 
L 322.097968 155.239184 
L 323.462063 158.047178 
L 324.826157 137.540117 
L 326.190252 149.237989 
L 327.554347 143.279862 
L 328.918442 140.875479 
L 330.282536 153.850289 
L 331.646631 136.527641 
L 333.010726 155.45086 
L 334.37482 146.673445 
L 335.738915 157.285469 
L 337.10301 140.114313 
L 338.467105 132.585056 
L 339.831199 152.080028 
L 341.195294 141.103974 
L 342.559389 136.704002 
L 343.923484 137.83127 
L 345.287578 158.894806 
L 346.651673 156.648899 
L 348.015768 156.006566 
L 349.379862 148.437863 
L 350.743957 144.665361 
L 352.108052 156.070616 
L 353.472147 158.696466 
L 354.836241 156.875124 
L 356.200336 136.97881 
L 357.564431 158.490834 
L 358.928526 147.16223 
L 360.29262 156.835119 
L 361.656715 151.30384 
L 363.02081 158.66096 
L 364.384905 138.44323 
L 365.748999 158.109506 
L 367.113094 132.959599 
L 368.477189 155.956665 
L 369.841283 152.871726 
L 371.205378 148.089377 
L 372.569473 158.087677 
L 373.933568 138.35552 
L 375.297662 137.974675 
L 376.661757 158.073172 
L 378.025852 147.880379 
L 379.389947 148.941001 
L 380.754041 139.141051 
L 382.118136 138.828888 
L 383.482231 144.718492 
L 384.846325 136.324971 
L 386.21042 150.857344 
L 387.574515 157.324864 
L 388.93861 149.904377 
L 390.302704 147.371109 
L 391.666799 146.351633 
L 393.030894 141.551467 
L 394.394989 159.187988 
L 395.759083 155.619462 
L 397.123178 138.175721 
L 398.487273 143.99417 
L 398.487273 143.99417 
" style="fill:none;stroke:#d62728;stroke-linecap:square;stroke-width:1.5;"/>
   </g>
   <g id="patch_3">
    <path d="M 57.6 307.584 
L 57.6 41.472 
" style="fill:none;stroke:#000000;stroke-linecap:square;stroke-linejoin:miter;stroke-width:0.8;"/>
   </g>
   <g id="patch_4">
    <path d="M 414.72 307.584 
L 414.72 41.472 
" style="fill:none;stroke:#000000;stroke-linecap:square;stroke-linejoin:miter;stroke-width:0.8;"/>
   </g>
   <g id="patch_5">
    <path d="M 57.6 307.584 
L 414.72 307.584 
" style="fill:none;stroke:#000000;stroke-linecap:square;stroke-linejoin:miter;stroke-width:0.8;"/>
   </g>
   <g id="patch_6">
    <path d="M 57.6 41.472 
L 414.72 41.472 
" style="fill:none;stroke:#000000;stroke-linecap:square;stroke-linejoin:miter;stroke-width:0.8;"/>
   </g>
   <g id="text_15">
    <!-- Plot of Train Data vs MCMC Uncertainty  -->
    <defs>
     <path d="M 19.671875 64.796875 
L 19.671875 37.40625 
L 32.078125 37.40625 
Q 38.96875 37.40625 42.71875 40.96875 
Q 46.484375 44.53125 46.484375 51.125 
Q 46.484375 57.671875 42.71875 61.234375 
Q 38.96875 64.796875 32.078125 64.796875 
z
M 9.8125 72.90625 
L 32.078125 72.90625 
Q 44.34375 72.90625 50.609375 67.359375 
Q 56.890625 61.8125 56.890625 51.125 
Q 56.890625 40.328125 50.609375 34.8125 
Q 44.34375 29.296875 32.078125 29.296875 
L 19.671875 29.296875 
L 19.671875 0 
L 9.8125 0 
z
" id="DejaVuSans-80"/>
     <path d="M 9.421875 75.984375 
L 18.40625 75.984375 
L 18.40625 0 
L 9.421875 0 
z
" id="DejaVuSans-108"/>
     <path d="M 30.609375 48.390625 
Q 23.390625 48.390625 19.1875 42.75 
Q 14.984375 37.109375 14.984375 27.296875 
Q 14.984375 17.484375 19.15625 11.84375 
Q 23.34375 6.203125 30.609375 6.203125 
Q 37.796875 6.203125 41.984375 11.859375 
Q 46.1875 17.53125 46.1875 27.296875 
Q 46.1875 37.015625 41.984375 42.703125 
Q 37.796875 48.390625 30.609375 48.390625 
z
M 30.609375 56 
Q 42.328125 56 49.015625 48.375 
Q 55.71875 40.765625 55.71875 27.296875 
Q 55.71875 13.875 49.015625 6.21875 
Q 42.328125 -1.421875 30.609375 -1.421875 
Q 18.84375 -1.421875 12.171875 6.21875 
Q 5.515625 13.875 5.515625 27.296875 
Q 5.515625 40.765625 12.171875 48.375 
Q 18.84375 56 30.609375 56 
z
" id="DejaVuSans-111"/>
     <path d="M 18.3125 70.21875 
L 18.3125 54.6875 
L 36.8125 54.6875 
L 36.8125 47.703125 
L 18.3125 47.703125 
L 18.3125 18.015625 
Q 18.3125 11.328125 20.140625 9.421875 
Q 21.96875 7.515625 27.59375 7.515625 
L 36.8125 7.515625 
L 36.8125 0 
L 27.59375 0 
Q 17.1875 0 13.234375 3.875 
Q 9.28125 7.765625 9.28125 18.015625 
L 9.28125 47.703125 
L 2.6875 47.703125 
L 2.6875 54.6875 
L 9.28125 54.6875 
L 9.28125 70.21875 
z
" id="DejaVuSans-116"/>
     <path id="DejaVuSans-32"/>
     <path d="M 37.109375 75.984375 
L 37.109375 68.5 
L 28.515625 68.5 
Q 23.6875 68.5 21.796875 66.546875 
Q 19.921875 64.59375 19.921875 59.515625 
L 19.921875 54.6875 
L 34.71875 54.6875 
L 34.71875 47.703125 
L 19.921875 47.703125 
L 19.921875 0 
L 10.890625 0 
L 10.890625 47.703125 
L 2.296875 47.703125 
L 2.296875 54.6875 
L 10.890625 54.6875 
L 10.890625 58.5 
Q 10.890625 67.625 15.140625 71.796875 
Q 19.390625 75.984375 28.609375 75.984375 
z
" id="DejaVuSans-102"/>
     <path d="M -0.296875 72.90625 
L 61.375 72.90625 
L 61.375 64.59375 
L 35.5 64.59375 
L 35.5 0 
L 25.59375 0 
L 25.59375 64.59375 
L -0.296875 64.59375 
z
" id="DejaVuSans-84"/>
     <path d="M 41.109375 46.296875 
Q 39.59375 47.171875 37.8125 47.578125 
Q 36.03125 48 33.890625 48 
Q 26.265625 48 22.1875 43.046875 
Q 18.109375 38.09375 18.109375 28.8125 
L 18.109375 0 
L 9.078125 0 
L 9.078125 54.6875 
L 18.109375 54.6875 
L 18.109375 46.1875 
Q 20.953125 51.171875 25.484375 53.578125 
Q 30.03125 56 36.53125 56 
Q 37.453125 56 38.578125 55.875 
Q 39.703125 55.765625 41.0625 55.515625 
z
" id="DejaVuSans-114"/>
     <path d="M 34.28125 27.484375 
Q 23.390625 27.484375 19.1875 25 
Q 14.984375 22.515625 14.984375 16.5 
Q 14.984375 11.71875 18.140625 8.90625 
Q 21.296875 6.109375 26.703125 6.109375 
Q 34.1875 6.109375 38.703125 11.40625 
Q 43.21875 16.703125 43.21875 25.484375 
L 43.21875 27.484375 
z
M 52.203125 31.203125 
L 52.203125 0 
L 43.21875 0 
L 43.21875 8.296875 
Q 40.140625 3.328125 35.546875 0.953125 
Q 30.953125 -1.421875 24.3125 -1.421875 
Q 15.921875 -1.421875 10.953125 3.296875 
Q 6 8.015625 6 15.921875 
Q 6 25.140625 12.171875 29.828125 
Q 18.359375 34.515625 30.609375 34.515625 
L 43.21875 34.515625 
L 43.21875 35.40625 
Q 43.21875 41.609375 39.140625 45 
Q 35.0625 48.390625 27.6875 48.390625 
Q 23 48.390625 18.546875 47.265625 
Q 14.109375 46.140625 10.015625 43.890625 
L 10.015625 52.203125 
Q 14.9375 54.109375 19.578125 55.046875 
Q 24.21875 56 28.609375 56 
Q 40.484375 56 46.34375 49.84375 
Q 52.203125 43.703125 52.203125 31.203125 
z
" id="DejaVuSans-97"/>
     <path d="M 9.421875 54.6875 
L 18.40625 54.6875 
L 18.40625 0 
L 9.421875 0 
z
M 9.421875 75.984375 
L 18.40625 75.984375 
L 18.40625 64.59375 
L 9.421875 64.59375 
z
" id="DejaVuSans-105"/>
     <path d="M 54.890625 33.015625 
L 54.890625 0 
L 45.90625 0 
L 45.90625 32.71875 
Q 45.90625 40.484375 42.875 44.328125 
Q 39.84375 48.1875 33.796875 48.1875 
Q 26.515625 48.1875 22.3125 43.546875 
Q 18.109375 38.921875 18.109375 30.90625 
L 18.109375 0 
L 9.078125 0 
L 9.078125 54.6875 
L 18.109375 54.6875 
L 18.109375 46.1875 
Q 21.34375 51.125 25.703125 53.5625 
Q 30.078125 56 35.796875 56 
Q 45.21875 56 50.046875 50.171875 
Q 54.890625 44.34375 54.890625 33.015625 
z
" id="DejaVuSans-110"/>
     <path d="M 19.671875 64.796875 
L 19.671875 8.109375 
L 31.59375 8.109375 
Q 46.6875 8.109375 53.6875 14.9375 
Q 60.6875 21.78125 60.6875 36.53125 
Q 60.6875 51.171875 53.6875 57.984375 
Q 46.6875 64.796875 31.59375 64.796875 
z
M 9.8125 72.90625 
L 30.078125 72.90625 
Q 51.265625 72.90625 61.171875 64.09375 
Q 71.09375 55.28125 71.09375 36.53125 
Q 71.09375 17.671875 61.125 8.828125 
Q 51.171875 0 30.078125 0 
L 9.8125 0 
z
" id="DejaVuSans-68"/>
     <path d="M 2.984375 54.6875 
L 12.5 54.6875 
L 29.59375 8.796875 
L 46.6875 54.6875 
L 56.203125 54.6875 
L 35.6875 0 
L 23.484375 0 
z
" id="DejaVuSans-118"/>
     <path d="M 44.28125 53.078125 
L 44.28125 44.578125 
Q 40.484375 46.53125 36.375 47.5 
Q 32.28125 48.484375 27.875 48.484375 
Q 21.1875 48.484375 17.84375 46.4375 
Q 14.5 44.390625 14.5 40.28125 
Q 14.5 37.15625 16.890625 35.375 
Q 19.28125 33.59375 26.515625 31.984375 
L 29.59375 31.296875 
Q 39.15625 29.25 43.1875 25.515625 
Q 47.21875 21.78125 47.21875 15.09375 
Q 47.21875 7.46875 41.1875 3.015625 
Q 35.15625 -1.421875 24.609375 -1.421875 
Q 20.21875 -1.421875 15.453125 -0.5625 
Q 10.6875 0.296875 5.421875 2 
L 5.421875 11.28125 
Q 10.40625 8.6875 15.234375 7.390625 
Q 20.0625 6.109375 24.8125 6.109375 
Q 31.15625 6.109375 34.5625 8.28125 
Q 37.984375 10.453125 37.984375 14.40625 
Q 37.984375 18.0625 35.515625 20.015625 
Q 33.0625 21.96875 24.703125 23.78125 
L 21.578125 24.515625 
Q 13.234375 26.265625 9.515625 29.90625 
Q 5.8125 33.546875 5.8125 39.890625 
Q 5.8125 47.609375 11.28125 51.796875 
Q 16.75 56 26.8125 56 
Q 31.78125 56 36.171875 55.265625 
Q 40.578125 54.546875 44.28125 53.078125 
z
" id="DejaVuSans-115"/>
     <path d="M 9.8125 72.90625 
L 24.515625 72.90625 
L 43.109375 23.296875 
L 61.8125 72.90625 
L 76.515625 72.90625 
L 76.515625 0 
L 66.890625 0 
L 66.890625 64.015625 
L 48.09375 14.015625 
L 38.1875 14.015625 
L 19.390625 64.015625 
L 19.390625 0 
L 9.8125 0 
z
" id="DejaVuSans-77"/>
     <path d="M 64.40625 67.28125 
L 64.40625 56.890625 
Q 59.421875 61.53125 53.78125 63.8125 
Q 48.140625 66.109375 41.796875 66.109375 
Q 29.296875 66.109375 22.65625 58.46875 
Q 16.015625 50.828125 16.015625 36.375 
Q 16.015625 21.96875 22.65625 14.328125 
Q 29.296875 6.6875 41.796875 6.6875 
Q 48.140625 6.6875 53.78125 8.984375 
Q 59.421875 11.28125 64.40625 15.921875 
L 64.40625 5.609375 
Q 59.234375 2.09375 53.4375 0.328125 
Q 47.65625 -1.421875 41.21875 -1.421875 
Q 24.65625 -1.421875 15.125 8.703125 
Q 5.609375 18.84375 5.609375 36.375 
Q 5.609375 53.953125 15.125 64.078125 
Q 24.65625 74.21875 41.21875 74.21875 
Q 47.75 74.21875 53.53125 72.484375 
Q 59.328125 70.75 64.40625 67.28125 
z
" id="DejaVuSans-67"/>
     <path d="M 8.6875 72.90625 
L 18.609375 72.90625 
L 18.609375 28.609375 
Q 18.609375 16.890625 22.84375 11.734375 
Q 27.09375 6.59375 36.625 6.59375 
Q 46.09375 6.59375 50.34375 11.734375 
Q 54.59375 16.890625 54.59375 28.609375 
L 54.59375 72.90625 
L 64.5 72.90625 
L 64.5 27.390625 
Q 64.5 13.140625 57.4375 5.859375 
Q 50.390625 -1.421875 36.625 -1.421875 
Q 22.796875 -1.421875 15.734375 5.859375 
Q 8.6875 13.140625 8.6875 27.390625 
z
" id="DejaVuSans-85"/>
     <path d="M 48.78125 52.59375 
L 48.78125 44.1875 
Q 44.96875 46.296875 41.140625 47.34375 
Q 37.3125 48.390625 33.40625 48.390625 
Q 24.65625 48.390625 19.8125 42.84375 
Q 14.984375 37.3125 14.984375 27.296875 
Q 14.984375 17.28125 19.8125 11.734375 
Q 24.65625 6.203125 33.40625 6.203125 
Q 37.3125 6.203125 41.140625 7.25 
Q 44.96875 8.296875 48.78125 10.40625 
L 48.78125 2.09375 
Q 45.015625 0.34375 40.984375 -0.53125 
Q 36.96875 -1.421875 32.421875 -1.421875 
Q 20.0625 -1.421875 12.78125 6.34375 
Q 5.515625 14.109375 5.515625 27.296875 
Q 5.515625 40.671875 12.859375 48.328125 
Q 20.21875 56 33.015625 56 
Q 37.15625 56 41.109375 55.140625 
Q 45.0625 54.296875 48.78125 52.59375 
z
" id="DejaVuSans-99"/>
     <path d="M 56.203125 29.59375 
L 56.203125 25.203125 
L 14.890625 25.203125 
Q 15.484375 15.921875 20.484375 11.0625 
Q 25.484375 6.203125 34.421875 6.203125 
Q 39.59375 6.203125 44.453125 7.46875 
Q 49.3125 8.734375 54.109375 11.28125 
L 54.109375 2.78125 
Q 49.265625 0.734375 44.1875 -0.34375 
Q 39.109375 -1.421875 33.890625 -1.421875 
Q 20.796875 -1.421875 13.15625 6.1875 
Q 5.515625 13.8125 5.515625 26.8125 
Q 5.515625 40.234375 12.765625 48.109375 
Q 20.015625 56 32.328125 56 
Q 43.359375 56 49.78125 48.890625 
Q 56.203125 41.796875 56.203125 29.59375 
z
M 47.21875 32.234375 
Q 47.125 39.59375 43.09375 43.984375 
Q 39.0625 48.390625 32.421875 48.390625 
Q 24.90625 48.390625 20.390625 44.140625 
Q 15.875 39.890625 15.1875 32.171875 
z
" id="DejaVuSans-101"/>
     <path d="M 32.171875 -5.078125 
Q 28.375 -14.84375 24.75 -17.8125 
Q 21.140625 -20.796875 15.09375 -20.796875 
L 7.90625 -20.796875 
L 7.90625 -13.28125 
L 13.1875 -13.28125 
Q 16.890625 -13.28125 18.9375 -11.515625 
Q 21 -9.765625 23.484375 -3.21875 
L 25.09375 0.875 
L 2.984375 54.6875 
L 12.5 54.6875 
L 29.59375 11.921875 
L 46.6875 54.6875 
L 56.203125 54.6875 
z
" id="DejaVuSans-121"/>
    </defs>
    <g transform="translate(115.666875 35.472)scale(0.12 -0.12)">
     <use xlink:href="#DejaVuSans-80"/>
     <use x="60.302734" xlink:href="#DejaVuSans-108"/>
     <use x="88.085938" xlink:href="#DejaVuSans-111"/>
     <use x="149.267578" xlink:href="#DejaVuSans-116"/>
     <use x="188.476562" xlink:href="#DejaVuSans-32"/>
     <use x="220.263672" xlink:href="#DejaVuSans-111"/>
     <use x="281.445312" xlink:href="#DejaVuSans-102"/>
     <use x="316.650391" xlink:href="#DejaVuSans-32"/>
     <use x="348.4375" xlink:href="#DejaVuSans-84"/>
     <use x="409.302734" xlink:href="#DejaVuSans-114"/>
     <use x="450.416016" xlink:href="#DejaVuSans-97"/>
     <use x="511.695312" xlink:href="#DejaVuSans-105"/>
     <use x="539.478516" xlink:href="#DejaVuSans-110"/>
     <use x="602.857422" xlink:href="#DejaVuSans-32"/>
     <use x="634.644531" xlink:href="#DejaVuSans-68"/>
     <use x="711.646484" xlink:href="#DejaVuSans-97"/>
     <use x="772.925781" xlink:href="#DejaVuSans-116"/>
     <use x="812.134766" xlink:href="#DejaVuSans-97"/>
     <use x="873.414062" xlink:href="#DejaVuSans-32"/>
     <use x="905.201172" xlink:href="#DejaVuSans-118"/>
     <use x="964.380859" xlink:href="#DejaVuSans-115"/>
     <use x="1016.480469" xlink:href="#DejaVuSans-32"/>
     <use x="1048.267578" xlink:href="#DejaVuSans-77"/>
     <use x="1134.546875" xlink:href="#DejaVuSans-67"/>
     <use x="1204.371094" xlink:href="#DejaVuSans-77"/>
     <use x="1290.650391" xlink:href="#DejaVuSans-67"/>
     <use x="1360.474609" xlink:href="#DejaVuSans-32"/>
     <use x="1392.261719" xlink:href="#DejaVuSans-85"/>
     <use x="1465.455078" xlink:href="#DejaVuSans-110"/>
     <use x="1528.833984" xlink:href="#DejaVuSans-99"/>
     <use x="1583.814453" xlink:href="#DejaVuSans-101"/>
     <use x="1645.337891" xlink:href="#DejaVuSans-114"/>
     <use x="1686.451172" xlink:href="#DejaVuSans-116"/>
     <use x="1725.660156" xlink:href="#DejaVuSans-97"/>
     <use x="1786.939453" xlink:href="#DejaVuSans-105"/>
     <use x="1814.722656" xlink:href="#DejaVuSans-110"/>
     <use x="1878.101562" xlink:href="#DejaVuSans-116"/>
     <use x="1917.310547" xlink:href="#DejaVuSans-121"/>
     <use x="1976.490234" xlink:href="#DejaVuSans-32"/>
    </g>
   </g>
   <g id="legend_1">
    <g id="patch_7">
     <path d="M 277.843437 108.1845 
L 407.72 108.1845 
Q 409.72 108.1845 409.72 106.1845 
L 409.72 48.472 
Q 409.72 46.472 407.72 46.472 
L 277.843437 46.472 
Q 275.843437 46.472 275.843437 48.472 
L 275.843437 106.1845 
Q 275.843437 108.1845 277.843437 108.1845 
z
" style="fill:#ffffff;opacity:0.8;stroke:#cccccc;stroke-linejoin:miter;"/>
    </g>
    <g id="line2d_19">
     <path d="M 279.843437 54.570438 
L 299.843437 54.570438 
" style="fill:none;stroke:#1f77b4;stroke-linecap:square;stroke-width:1.5;"/>
    </g>
    <g id="line2d_20"/>
    <g id="text_16">
     <!-- actual -->
     <defs>
      <path d="M 8.5 21.578125 
L 8.5 54.6875 
L 17.484375 54.6875 
L 17.484375 21.921875 
Q 17.484375 14.15625 20.5 10.265625 
Q 23.53125 6.390625 29.59375 6.390625 
Q 36.859375 6.390625 41.078125 11.03125 
Q 45.3125 15.671875 45.3125 23.6875 
L 45.3125 54.6875 
L 54.296875 54.6875 
L 54.296875 0 
L 45.3125 0 
L 45.3125 8.40625 
Q 42.046875 3.421875 37.71875 1 
Q 33.40625 -1.421875 27.6875 -1.421875 
Q 18.265625 -1.421875 13.375 4.4375 
Q 8.5 10.296875 8.5 21.578125 
z
M 31.109375 56 
z
" id="DejaVuSans-117"/>
     </defs>
     <g transform="translate(307.843437 58.070438)scale(0.1 -0.1)">
      <use xlink:href="#DejaVuSans-97"/>
      <use x="61.279297" xlink:href="#DejaVuSans-99"/>
      <use x="116.259766" xlink:href="#DejaVuSans-116"/>
      <use x="155.46875" xlink:href="#DejaVuSans-117"/>
      <use x="218.847656" xlink:href="#DejaVuSans-97"/>
      <use x="280.126953" xlink:href="#DejaVuSans-108"/>
     </g>
    </g>
    <g id="line2d_21">
     <path d="M 279.843437 69.248563 
L 299.843437 69.248563 
" style="fill:none;stroke:#ff7f0e;stroke-linecap:square;stroke-width:1.5;"/>
    </g>
    <g id="line2d_22"/>
    <g id="text_17">
     <!-- pred. (mean) -->
     <defs>
      <path d="M 18.109375 8.203125 
L 18.109375 -20.796875 
L 9.078125 -20.796875 
L 9.078125 54.6875 
L 18.109375 54.6875 
L 18.109375 46.390625 
Q 20.953125 51.265625 25.265625 53.625 
Q 29.59375 56 35.59375 56 
Q 45.5625 56 51.78125 48.09375 
Q 58.015625 40.1875 58.015625 27.296875 
Q 58.015625 14.40625 51.78125 6.484375 
Q 45.5625 -1.421875 35.59375 -1.421875 
Q 29.59375 -1.421875 25.265625 0.953125 
Q 20.953125 3.328125 18.109375 8.203125 
z
M 48.6875 27.296875 
Q 48.6875 37.203125 44.609375 42.84375 
Q 40.53125 48.484375 33.40625 48.484375 
Q 26.265625 48.484375 22.1875 42.84375 
Q 18.109375 37.203125 18.109375 27.296875 
Q 18.109375 17.390625 22.1875 11.75 
Q 26.265625 6.109375 33.40625 6.109375 
Q 40.53125 6.109375 44.609375 11.75 
Q 48.6875 17.390625 48.6875 27.296875 
z
" id="DejaVuSans-112"/>
      <path d="M 45.40625 46.390625 
L 45.40625 75.984375 
L 54.390625 75.984375 
L 54.390625 0 
L 45.40625 0 
L 45.40625 8.203125 
Q 42.578125 3.328125 38.25 0.953125 
Q 33.9375 -1.421875 27.875 -1.421875 
Q 17.96875 -1.421875 11.734375 6.484375 
Q 5.515625 14.40625 5.515625 27.296875 
Q 5.515625 40.1875 11.734375 48.09375 
Q 17.96875 56 27.875 56 
Q 33.9375 56 38.25 53.625 
Q 42.578125 51.265625 45.40625 46.390625 
z
M 14.796875 27.296875 
Q 14.796875 17.390625 18.875 11.75 
Q 22.953125 6.109375 30.078125 6.109375 
Q 37.203125 6.109375 41.296875 11.75 
Q 45.40625 17.390625 45.40625 27.296875 
Q 45.40625 37.203125 41.296875 42.84375 
Q 37.203125 48.484375 30.078125 48.484375 
Q 22.953125 48.484375 18.875 42.84375 
Q 14.796875 37.203125 14.796875 27.296875 
z
" id="DejaVuSans-100"/>
      <path d="M 31 75.875 
Q 24.46875 64.65625 21.28125 53.65625 
Q 18.109375 42.671875 18.109375 31.390625 
Q 18.109375 20.125 21.3125 9.0625 
Q 24.515625 -2 31 -13.1875 
L 23.1875 -13.1875 
Q 15.875 -1.703125 12.234375 9.375 
Q 8.59375 20.453125 8.59375 31.390625 
Q 8.59375 42.28125 12.203125 53.3125 
Q 15.828125 64.359375 23.1875 75.875 
z
" id="DejaVuSans-40"/>
      <path d="M 52 44.1875 
Q 55.375 50.25 60.0625 53.125 
Q 64.75 56 71.09375 56 
Q 79.640625 56 84.28125 50.015625 
Q 88.921875 44.046875 88.921875 33.015625 
L 88.921875 0 
L 79.890625 0 
L 79.890625 32.71875 
Q 79.890625 40.578125 77.09375 44.375 
Q 74.3125 48.1875 68.609375 48.1875 
Q 61.625 48.1875 57.5625 43.546875 
Q 53.515625 38.921875 53.515625 30.90625 
L 53.515625 0 
L 44.484375 0 
L 44.484375 32.71875 
Q 44.484375 40.625 41.703125 44.40625 
Q 38.921875 48.1875 33.109375 48.1875 
Q 26.21875 48.1875 22.15625 43.53125 
Q 18.109375 38.875 18.109375 30.90625 
L 18.109375 0 
L 9.078125 0 
L 9.078125 54.6875 
L 18.109375 54.6875 
L 18.109375 46.1875 
Q 21.1875 51.21875 25.484375 53.609375 
Q 29.78125 56 35.6875 56 
Q 41.65625 56 45.828125 52.96875 
Q 50 49.953125 52 44.1875 
z
" id="DejaVuSans-109"/>
      <path d="M 8.015625 75.875 
L 15.828125 75.875 
Q 23.140625 64.359375 26.78125 53.3125 
Q 30.421875 42.28125 30.421875 31.390625 
Q 30.421875 20.453125 26.78125 9.375 
Q 23.140625 -1.703125 15.828125 -13.1875 
L 8.015625 -13.1875 
Q 14.5 -2 17.703125 9.0625 
Q 20.90625 20.125 20.90625 31.390625 
Q 20.90625 42.671875 17.703125 53.65625 
Q 14.5 64.65625 8.015625 75.875 
z
" id="DejaVuSans-41"/>
     </defs>
     <g transform="translate(307.843437 72.748563)scale(0.1 -0.1)">
      <use xlink:href="#DejaVuSans-112"/>
      <use x="63.476562" xlink:href="#DejaVuSans-114"/>
      <use x="104.558594" xlink:href="#DejaVuSans-101"/>
      <use x="166.082031" xlink:href="#DejaVuSans-100"/>
      <use x="229.558594" xlink:href="#DejaVuSans-46"/>
      <use x="261.345703" xlink:href="#DejaVuSans-32"/>
      <use x="293.132812" xlink:href="#DejaVuSans-40"/>
      <use x="332.146484" xlink:href="#DejaVuSans-109"/>
      <use x="429.558594" xlink:href="#DejaVuSans-101"/>
      <use x="491.082031" xlink:href="#DejaVuSans-97"/>
      <use x="552.361328" xlink:href="#DejaVuSans-110"/>
      <use x="615.740234" xlink:href="#DejaVuSans-41"/>
     </g>
    </g>
    <g id="line2d_23">
     <path d="M 279.843437 83.926688 
L 299.843437 83.926688 
" style="fill:none;stroke:#2ca02c;stroke-linecap:square;stroke-width:1.5;"/>
    </g>
    <g id="line2d_24"/>
    <g id="text_18">
     <!-- pred.(5th percen.) -->
     <defs>
      <path d="M 54.890625 33.015625 
L 54.890625 0 
L 45.90625 0 
L 45.90625 32.71875 
Q 45.90625 40.484375 42.875 44.328125 
Q 39.84375 48.1875 33.796875 48.1875 
Q 26.515625 48.1875 22.3125 43.546875 
Q 18.109375 38.921875 18.109375 30.90625 
L 18.109375 0 
L 9.078125 0 
L 9.078125 75.984375 
L 18.109375 75.984375 
L 18.109375 46.1875 
Q 21.34375 51.125 25.703125 53.5625 
Q 30.078125 56 35.796875 56 
Q 45.21875 56 50.046875 50.171875 
Q 54.890625 44.34375 54.890625 33.015625 
z
" id="DejaVuSans-104"/>
     </defs>
     <g transform="translate(307.843437 87.426688)scale(0.1 -0.1)">
      <use xlink:href="#DejaVuSans-112"/>
      <use x="63.476562" xlink:href="#DejaVuSans-114"/>
      <use x="104.558594" xlink:href="#DejaVuSans-101"/>
      <use x="166.082031" xlink:href="#DejaVuSans-100"/>
      <use x="229.558594" xlink:href="#DejaVuSans-46"/>
      <use x="261.345703" xlink:href="#DejaVuSans-40"/>
      <use x="300.359375" xlink:href="#DejaVuSans-53"/>
      <use x="363.982422" xlink:href="#DejaVuSans-116"/>
      <use x="403.191406" xlink:href="#DejaVuSans-104"/>
      <use x="466.570312" xlink:href="#DejaVuSans-32"/>
      <use x="498.357422" xlink:href="#DejaVuSans-112"/>
      <use x="561.833984" xlink:href="#DejaVuSans-101"/>
      <use x="623.357422" xlink:href="#DejaVuSans-114"/>
      <use x="664.439453" xlink:href="#DejaVuSans-99"/>
      <use x="719.419922" xlink:href="#DejaVuSans-101"/>
      <use x="780.943359" xlink:href="#DejaVuSans-110"/>
      <use x="844.322266" xlink:href="#DejaVuSans-46"/>
      <use x="876.109375" xlink:href="#DejaVuSans-41"/>
     </g>
    </g>
    <g id="line2d_25">
     <path d="M 279.843437 98.604813 
L 299.843437 98.604813 
" style="fill:none;stroke:#d62728;stroke-linecap:square;stroke-width:1.5;"/>
    </g>
    <g id="line2d_26"/>
    <g id="text_19">
     <!-- pred.(95th percen.) -->
     <defs>
      <path d="M 10.984375 1.515625 
L 10.984375 10.5 
Q 14.703125 8.734375 18.5 7.8125 
Q 22.3125 6.890625 25.984375 6.890625 
Q 35.75 6.890625 40.890625 13.453125 
Q 46.046875 20.015625 46.78125 33.40625 
Q 43.953125 29.203125 39.59375 26.953125 
Q 35.25 24.703125 29.984375 24.703125 
Q 19.046875 24.703125 12.671875 31.3125 
Q 6.296875 37.9375 6.296875 49.421875 
Q 6.296875 60.640625 12.9375 67.421875 
Q 19.578125 74.21875 30.609375 74.21875 
Q 43.265625 74.21875 49.921875 64.515625 
Q 56.59375 54.828125 56.59375 36.375 
Q 56.59375 19.140625 48.40625 8.859375 
Q 40.234375 -1.421875 26.421875 -1.421875 
Q 22.703125 -1.421875 18.890625 -0.6875 
Q 15.09375 0.046875 10.984375 1.515625 
z
M 30.609375 32.421875 
Q 37.25 32.421875 41.125 36.953125 
Q 45.015625 41.5 45.015625 49.421875 
Q 45.015625 57.28125 41.125 61.84375 
Q 37.25 66.40625 30.609375 66.40625 
Q 23.96875 66.40625 20.09375 61.84375 
Q 16.21875 57.28125 16.21875 49.421875 
Q 16.21875 41.5 20.09375 36.953125 
Q 23.96875 32.421875 30.609375 32.421875 
z
" id="DejaVuSans-57"/>
     </defs>
     <g transform="translate(307.843437 102.104813)scale(0.1 -0.1)">
      <use xlink:href="#DejaVuSans-112"/>
      <use x="63.476562" xlink:href="#DejaVuSans-114"/>
      <use x="104.558594" xlink:href="#DejaVuSans-101"/>
      <use x="166.082031" xlink:href="#DejaVuSans-100"/>
      <use x="229.558594" xlink:href="#DejaVuSans-46"/>
      <use x="261.345703" xlink:href="#DejaVuSans-40"/>
      <use x="300.359375" xlink:href="#DejaVuSans-57"/>
      <use x="363.982422" xlink:href="#DejaVuSans-53"/>
      <use x="427.605469" xlink:href="#DejaVuSans-116"/>
      <use x="466.814453" xlink:href="#DejaVuSans-104"/>
      <use x="530.193359" xlink:href="#DejaVuSans-32"/>
      <use x="561.980469" xlink:href="#DejaVuSans-112"/>
      <use x="625.457031" xlink:href="#DejaVuSans-101"/>
      <use x="686.980469" xlink:href="#DejaVuSans-114"/>
      <use x="728.0625" xlink:href="#DejaVuSans-99"/>
      <use x="783.042969" xlink:href="#DejaVuSans-101"/>
      <use x="844.566406" xlink:href="#DejaVuSans-110"/>
      <use x="907.945312" xlink:href="#DejaVuSans-46"/>
      <use x="939.732422" xlink:href="#DejaVuSans-41"/>
     </g>
    </g>
   </g>
  </g>
 </g>
 <defs>
  <clipPath id="p8490ebadf2">
   <rect height="266.112" width="357.12" x="57.6" y="41.472"/>
  </clipPath>
 </defs>
</svg>
