<?xml version="1.0" encoding="utf-8" standalone="no"?>
<!DOCTYPE svg PUBLIC "-//W3C//DTD SVG 1.1//EN"
  "http://www.w3.org/Graphics/SVG/1.1/DTD/svg11.dtd">
<!-- Created with matplotlib (https://matplotlib.org/) -->
<svg height="288pt" version="1.1" viewBox="0 0 432 288" width="432pt" xmlns="http://www.w3.org/2000/svg" xmlns:xlink="http://www.w3.org/1999/xlink">
 <defs>
  <style type="text/css">
*{stroke-linecap:butt;stroke-linejoin:round;}
  </style>
 </defs>
 <g id="figure_1">
  <g id="patch_1">
   <path d="M 0 288 
L 432 288 
L 432 0 
L 0 0 
z
" style="fill:#ffffff;"/>
  </g>
  <g id="axes_1">
   <g id="patch_2">
    <path d="M 54 252 
L 388.8 252 
L 388.8 34.56 
L 54 34.56 
z
" style="fill:#ffffff;"/>
   </g>
   <g id="PolyCollection_1">
    <path clip-path="url(#p1beec873b8)" d="M 69.218182 133.954385 
L 69.218182 222.665306 
L 70.497021 127.314863 
L 71.775859 190.877841 
L 73.054698 196.737033 
L 74.333537 178.07786 
L 75.612376 125.385457 
L 76.891215 122.559288 
L 78.170053 127.316574 
L 79.448892 125.173702 
L 80.727731 193.396718 
L 82.00657 213.016391 
L 83.285409 125.121111 
L 84.564248 123.80719 
L 85.843086 122.685348 
L 87.121925 206.383494 
L 88.400764 182.812928 
L 89.679603 197.474272 
L 90.958442 128.014411 
L 92.23728 124.06554 
L 93.516119 182.060519 
L 94.794958 127.612357 
L 96.073797 127.701193 
L 97.352636 128.673644 
L 98.631474 130.038174 
L 99.910313 125.797711 
L 101.189152 125.679994 
L 102.467991 125.173214 
L 103.74683 123.523558 
L 105.025668 125.920254 
L 106.304507 129.186624 
L 107.583346 168.842119 
L 108.862185 126.662723 
L 110.141024 122.142306 
L 111.419862 129.07857 
L 112.698701 125.048578 
L 113.97754 125.169938 
L 115.256379 128.899788 
L 116.535218 129.049728 
L 117.814057 160.682673 
L 119.092895 129.40132 
L 120.371734 198.634296 
L 121.650573 123.34802 
L 122.929412 152.628628 
L 124.208251 149.29465 
L 125.487089 166.903015 
L 126.765928 125.976664 
L 128.044767 124.986729 
L 129.323606 129.077445 
L 130.602445 175.433926 
L 131.881283 133.525802 
L 133.160122 217.926087 
L 134.438961 121.429158 
L 135.7178 228.142353 
L 136.996639 124.510408 
L 138.275477 194.884035 
L 139.554316 122.623575 
L 140.833155 125.124385 
L 142.111994 129.084111 
L 143.390833 191.866111 
L 144.669672 128.613799 
L 145.94851 127.375072 
L 147.227349 222.835079 
L 148.506188 125.905845 
L 149.785027 123.516968 
L 151.063866 153.693799 
L 152.342704 130.462143 
L 153.621543 201.489874 
L 154.900382 123.196854 
L 156.179221 193.219117 
L 157.45806 182.941817 
L 158.736898 226.341919 
L 160.015737 125.005384 
L 161.294576 130.227623 
L 162.573415 146.887793 
L 163.852254 165.940479 
L 165.131092 229.552006 
L 166.409931 125.109915 
L 167.68877 190.034267 
L 168.967609 124.002311 
L 170.246448 121.99204 
L 171.525286 150.586024 
L 172.804125 131.224294 
L 174.082964 122.31459 
L 175.361803 130.191055 
L 176.640642 172.474175 
L 177.919481 202.189408 
L 179.198319 123.614 
L 180.477158 187.218256 
L 181.755997 125.262883 
L 183.034836 185.023297 
L 184.313675 126.99903 
L 185.592513 175.053338 
L 186.871352 157.752896 
L 188.150191 209.774362 
L 189.42903 123.35302 
L 190.707869 123.635841 
L 191.986707 129.300843 
L 193.265546 127.961241 
L 194.544385 125.196365 
L 195.823224 124.109927 
L 197.102063 122.520542 
L 198.380901 128.92308 
L 199.65974 136.423416 
L 200.938579 150.738765 
L 202.217418 125.068306 
L 203.496257 125.764184 
L 204.775095 127.227129 
L 206.053934 123.549531 
L 207.332773 122.631844 
L 208.611612 163.813242 
L 209.890451 125.758623 
L 211.16929 177.67277 
L 212.448128 131.170241 
L 213.726967 125.932152 
L 215.005806 124.722891 
L 216.284645 121.739519 
L 217.563484 129.831504 
L 218.842322 202.304561 
L 220.121161 140.615458 
L 221.4 125.545446 
L 222.678839 188.513615 
L 223.957678 126.873259 
L 225.236516 173.653388 
L 226.515355 124.358309 
L 227.794194 150.158977 
L 229.073033 132.010173 
L 230.351872 126.383055 
L 231.63071 127.863372 
L 232.909549 124.172036 
L 234.188388 130.663611 
L 235.467227 127.478233 
L 236.746066 155.923428 
L 238.024905 125.072007 
L 239.303743 182.675441 
L 240.582582 126.216447 
L 241.861421 122.33564 
L 243.14026 122.518504 
L 244.419099 185.897156 
L 245.697937 124.416072 
L 246.976776 121.431762 
L 248.255615 206.977228 
L 249.534454 126.71484 
L 250.813293 128.5843 
L 252.092131 202.731123 
L 253.37097 228.538352 
L 254.649809 136.647218 
L 255.928648 138.561889 
L 257.207487 125.948213 
L 258.486325 148.835678 
L 259.765164 125.224228 
L 261.044003 127.541236 
L 262.322842 134.622171 
L 263.601681 181.680318 
L 264.880519 127.583245 
L 266.159358 165.692975 
L 267.438197 129.627946 
L 268.717036 132.100422 
L 269.995875 209.553797 
L 271.274714 174.60406 
L 272.553552 151.457266 
L 273.832391 220.246034 
L 275.11123 132.58215 
L 276.390069 220.66449 
L 277.668908 126.633182 
L 278.947746 186.921684 
L 280.226585 207.804848 
L 281.505424 127.036902 
L 282.784263 175.665394 
L 284.063102 174.240911 
L 285.34194 156.264057 
L 286.620779 125.085788 
L 287.899618 184.326838 
L 289.178457 191.452441 
L 290.457296 125.517345 
L 291.736134 128.866858 
L 293.014973 122.52794 
L 294.293812 182.66113 
L 295.572651 154.716541 
L 296.85149 126.24978 
L 298.130328 121.281611 
L 299.409167 122.874903 
L 300.688006 123.367081 
L 301.966845 129.125211 
L 303.245684 220.810093 
L 304.524523 127.1915 
L 305.803361 179.489874 
L 307.0822 124.309518 
L 308.361039 126.137741 
L 309.639878 222.361392 
L 310.918717 180.561848 
L 312.197555 125.899456 
L 313.476394 157.453864 
L 314.755233 190.335319 
L 316.034072 137.492447 
L 317.312911 125.090672 
L 318.591749 121.914075 
L 319.870588 123.923137 
L 321.149427 126.051766 
L 322.428266 125.01269 
L 323.707105 124.976217 
L 324.985943 130.434884 
L 326.264782 127.085578 
L 327.543621 125.096061 
L 328.82246 128.077448 
L 330.101299 127.649946 
L 331.380138 134.798863 
L 332.658976 127.952862 
L 333.937815 232.691689 
L 335.216654 174.136956 
L 336.495493 172.528011 
L 337.774332 135.073555 
L 339.05317 142.701967 
L 340.332009 220.720534 
L 341.610848 124.601903 
L 342.889687 121.377511 
L 344.168526 125.135253 
L 345.447364 124.965233 
L 346.726203 158.169594 
L 348.005042 191.697338 
L 349.283881 147.772191 
L 350.56272 173.803266 
L 351.841558 126.386339 
L 353.120397 197.392232 
L 354.399236 129.355883 
L 355.678075 127.728167 
L 356.956914 163.874284 
L 358.235752 177.836912 
L 359.514591 227.911604 
L 360.79343 123.947811 
L 362.072269 192.853025 
L 363.351108 224.076585 
L 364.629947 230.304098 
L 365.908785 187.663971 
L 367.187624 180.850097 
L 368.466463 200.016728 
L 369.745302 126.298215 
L 371.024141 127.502919 
L 372.302979 143.379718 
L 373.581818 232.275982 
L 373.581818 134.234468 
L 373.581818 134.234468 
L 372.302979 125.707969 
L 371.024141 93.873174 
L 369.745302 97.800758 
L 368.466463 132.515651 
L 367.187624 131.062658 
L 365.908785 131.143007 
L 364.629947 134.053682 
L 363.351108 133.617841 
L 362.072269 132.129788 
L 360.79343 71.195013 
L 359.514591 134.15914 
L 358.235752 129.872931 
L 356.956914 128.557534 
L 355.678075 96.657461 
L 354.399236 118.003491 
L 353.120397 131.980777 
L 351.841558 87.455019 
L 350.56272 130.030925 
L 349.283881 128.117314 
L 348.005042 131.11762 
L 346.726203 129.510735 
L 345.447364 81.429486 
L 344.168526 84.792321 
L 342.889687 48.243197 
L 341.610848 79.879474 
L 340.332009 133.076588 
L 339.05317 126.773945 
L 337.774332 124.311192 
L 336.495493 129.719471 
L 335.216654 129.167194 
L 333.937815 134.213926 
L 332.658976 109.213488 
L 331.380138 121.377225 
L 330.101299 102.848592 
L 328.82246 98.678221 
L 327.543621 77.878433 
L 326.264782 102.373093 
L 324.985943 111.558467 
L 323.707105 79.504368 
L 322.428266 83.067379 
L 321.149427 85.613475 
L 319.870588 68.595147 
L 318.591749 47.53756 
L 317.312911 78.735758 
L 316.034072 120.904824 
L 314.755233 131.304752 
L 313.476394 127.139502 
L 312.197555 94.064343 
L 310.918717 131.292894 
L 309.639878 133.275779 
L 308.361039 94.576146 
L 307.0822 77.417044 
L 305.803361 131.340866 
L 304.524523 100.586531 
L 303.245684 133.135896 
L 301.966845 117.113953 
L 300.688006 59.326351 
L 299.409167 56.601848 
L 298.130328 44.443636 
L 296.85149 87.634433 
L 295.572651 129.019899 
L 294.293812 130.999239 
L 293.014973 61.592563 
L 291.736134 105.435313 
L 290.457296 88.232223 
L 289.178457 132.100794 
L 287.899618 131.04419 
L 286.620779 85.602639 
L 285.34194 127.156536 
L 284.063102 130.843445 
L 282.784263 129.746719 
L 281.505424 100.270559 
L 280.226585 132.446948 
L 278.947746 131.740976 
L 277.668908 90.080306 
L 276.390069 133.900535 
L 275.11123 117.832428 
L 273.832391 133.250666 
L 272.553552 126.416895 
L 271.274714 131.141604 
L 269.995875 132.412154 
L 268.717036 114.725711 
L 267.438197 114.25173 
L 266.159358 128.803001 
L 264.880519 95.726009 
L 263.601681 130.85986 
L 262.322842 120.33364 
L 261.044003 104.72912 
L 259.765164 77.654166 
L 258.486325 128.103468 
L 257.207487 94.649218 
L 255.928648 124.690242 
L 254.649809 119.346447 
L 253.37097 134.095887 
L 252.092131 132.57573 
L 250.813293 101.677014 
L 249.534454 93.50347 
L 248.255615 133.347845 
L 246.976776 44.974753 
L 245.697937 75.960857 
L 244.419099 131.322361 
L 243.14026 59.287228 
L 241.861421 50.887935 
L 240.582582 85.544677 
L 239.303743 131.220977 
L 238.024905 80.438654 
L 236.746066 129.263728 
L 235.467227 106.335415 
L 234.188388 122.367468 
L 232.909549 72.54915 
L 231.63071 105.816211 
L 230.351872 97.876736 
L 229.073033 116.313262 
L 227.794194 126.247999 
L 226.515355 75.550207 
L 225.236516 131.077437 
L 223.957678 101.551024 
L 222.678839 130.990167 
L 221.4 91.3998 
L 220.121161 124.303808 
L 218.842322 131.975808 
L 217.563484 118.227342 
L 216.284645 48.373853 
L 215.005806 79.030682 
L 213.726967 92.328117 
L 212.448128 113.750506 
L 211.16929 130.444013 
L 209.890451 93.281345 
L 208.611612 129.850349 
L 207.332773 57.194508 
L 206.053934 65.233091 
L 204.775095 105.914022 
L 203.496257 89.918301 
L 202.217418 78.126025 
L 200.938579 128.241692 
L 199.65974 120.304734 
L 198.380901 112.829432 
L 197.102063 54.269937 
L 195.823224 73.130788 
L 194.544385 83.092593 
L 193.265546 105.4933 
L 191.986707 111.589985 
L 190.707869 66.447914 
L 189.42903 70.11322 
L 188.150191 133.277762 
L 186.871352 129.439033 
L 185.592513 129.44154 
L 184.313675 99.062676 
L 183.034836 131.618236 
L 181.755997 83.468844 
L 180.477158 130.93182 
L 179.198319 73.412828 
L 177.919481 132.62531 
L 176.640642 128.84835 
L 175.361803 121.195945 
L 174.082964 53.894011 
L 172.804125 118.980817 
L 171.525286 128.512379 
L 170.246448 54.601432 
L 168.967609 68.880867 
L 167.68877 131.676979 
L 166.409931 85.151099 
L 165.131092 133.990183 
L 163.852254 130.199311 
L 162.573415 128.007592 
L 161.294576 121.232094 
L 160.015737 81.870701 
L 158.736898 134.187251 
L 157.45806 131.167126 
L 156.179221 131.717341 
L 154.900382 58.501705 
L 153.621543 132.903844 
L 152.342704 121.854272 
L 151.063866 127.005334 
L 149.785027 62.204124 
L 148.506188 86.009628 
L 147.227349 133.852756 
L 145.94851 104.355935 
L 144.669672 113.449651 
L 143.390833 131.040698 
L 142.111994 104.576351 
L 140.833155 83.354651 
L 139.554316 64.289137 
L 138.275477 132.271511 
L 136.996639 81.401844 
L 135.7178 133.98788 
L 134.438961 49.517057 
L 133.160122 132.940711 
L 131.881283 118.196955 
L 130.602445 129.634446 
L 129.323606 116.208738 
L 128.044767 80.367204 
L 126.765928 92.43989 
L 125.487089 129.093402 
L 124.208251 124.891188 
L 122.929412 126.44119 
L 121.650573 59.225152 
L 120.371734 132.433152 
L 119.092895 111.748194 
L 117.814057 127.686707 
L 116.535218 114.464691 
L 115.256379 115.593175 
L 113.97754 83.927616 
L 112.698701 82.028023 
L 111.419862 116.083781 
L 110.141024 49.78246 
L 108.862185 98.467921 
L 107.583346 130.545128 
L 106.304507 116.472698 
L 105.025668 85.218452 
L 103.74683 62.304455 
L 102.467991 77.756294 
L 101.189152 80.061179 
L 99.910313 82.917423 
L 98.631474 119.148952 
L 97.352636 106.542157 
L 96.073797 106.204883 
L 94.794958 106.163759 
L 93.516119 131.275962 
L 92.23728 70.053312 
L 90.958442 101.177431 
L 89.679603 131.951938 
L 88.400764 131.572509 
L 87.121925 132.450334 
L 85.843086 54.465303 
L 84.564248 72.61993 
L 83.285409 80.931453 
L 82.00657 133.338 
L 80.727731 131.124325 
L 79.448892 80.771461 
L 78.170053 103.3301 
L 76.891215 61.109243 
L 75.612376 81.659375 
L 74.333537 130.7761 
L 73.054698 131.748859 
L 71.775859 131.347643 
L 70.497021 100.275454 
L 69.218182 133.954385 
z
" style="fill:#008000;fill-opacity:0.4;"/>
   </g>
   <g id="matplotlib.axis_1">
    <g id="xtick_1">
     <g id="line2d_1">
      <defs>
       <path d="M 0 0 
L 0 3.5 
" id="m3bbd10628e" style="stroke:#000000;stroke-width:0.8;"/>
      </defs>
      <g>
       <use style="stroke:#000000;stroke-width:0.8;" x="69.218182" xlink:href="#m3bbd10628e" y="252"/>
      </g>
     </g>
     <g id="text_1">
      <!-- 0.0 -->
      <defs>
       <path d="M 31.78125 66.40625 
Q 24.171875 66.40625 20.328125 58.90625 
Q 16.5 51.421875 16.5 36.375 
Q 16.5 21.390625 20.328125 13.890625 
Q 24.171875 6.390625 31.78125 6.390625 
Q 39.453125 6.390625 43.28125 13.890625 
Q 47.125 21.390625 47.125 36.375 
Q 47.125 51.421875 43.28125 58.90625 
Q 39.453125 66.40625 31.78125 66.40625 
z
M 31.78125 74.21875 
Q 44.046875 74.21875 50.515625 64.515625 
Q 56.984375 54.828125 56.984375 36.375 
Q 56.984375 17.96875 50.515625 8.265625 
Q 44.046875 -1.421875 31.78125 -1.421875 
Q 19.53125 -1.421875 13.0625 8.265625 
Q 6.59375 17.96875 6.59375 36.375 
Q 6.59375 54.828125 13.0625 64.515625 
Q 19.53125 74.21875 31.78125 74.21875 
z
" id="DejaVuSans-48"/>
       <path d="M 10.6875 12.40625 
L 21 12.40625 
L 21 0 
L 10.6875 0 
z
" id="DejaVuSans-46"/>
      </defs>
      <g transform="translate(61.266619 266.598437)scale(0.1 -0.1)">
       <use xlink:href="#DejaVuSans-48"/>
       <use x="63.623047" xlink:href="#DejaVuSans-46"/>
       <use x="95.410156" xlink:href="#DejaVuSans-48"/>
      </g>
     </g>
    </g>
    <g id="xtick_2">
     <g id="line2d_2">
      <g>
       <use style="stroke:#000000;stroke-width:0.8;" x="130.090909" xlink:href="#m3bbd10628e" y="252"/>
      </g>
     </g>
     <g id="text_2">
      <!-- 0.2 -->
      <defs>
       <path d="M 19.1875 8.296875 
L 53.609375 8.296875 
L 53.609375 0 
L 7.328125 0 
L 7.328125 8.296875 
Q 12.9375 14.109375 22.625 23.890625 
Q 32.328125 33.6875 34.8125 36.53125 
Q 39.546875 41.84375 41.421875 45.53125 
Q 43.3125 49.21875 43.3125 52.78125 
Q 43.3125 58.59375 39.234375 62.25 
Q 35.15625 65.921875 28.609375 65.921875 
Q 23.96875 65.921875 18.8125 64.3125 
Q 13.671875 62.703125 7.8125 59.421875 
L 7.8125 69.390625 
Q 13.765625 71.78125 18.9375 73 
Q 24.125 74.21875 28.421875 74.21875 
Q 39.75 74.21875 46.484375 68.546875 
Q 53.21875 62.890625 53.21875 53.421875 
Q 53.21875 48.921875 51.53125 44.890625 
Q 49.859375 40.875 45.40625 35.40625 
Q 44.1875 33.984375 37.640625 27.21875 
Q 31.109375 20.453125 19.1875 8.296875 
z
" id="DejaVuSans-50"/>
      </defs>
      <g transform="translate(122.139347 266.598437)scale(0.1 -0.1)">
       <use xlink:href="#DejaVuSans-48"/>
       <use x="63.623047" xlink:href="#DejaVuSans-46"/>
       <use x="95.410156" xlink:href="#DejaVuSans-50"/>
      </g>
     </g>
    </g>
    <g id="xtick_3">
     <g id="line2d_3">
      <g>
       <use style="stroke:#000000;stroke-width:0.8;" x="190.963636" xlink:href="#m3bbd10628e" y="252"/>
      </g>
     </g>
     <g id="text_3">
      <!-- 0.4 -->
      <defs>
       <path d="M 37.796875 64.3125 
L 12.890625 25.390625 
L 37.796875 25.390625 
z
M 35.203125 72.90625 
L 47.609375 72.90625 
L 47.609375 25.390625 
L 58.015625 25.390625 
L 58.015625 17.1875 
L 47.609375 17.1875 
L 47.609375 0 
L 37.796875 0 
L 37.796875 17.1875 
L 4.890625 17.1875 
L 4.890625 26.703125 
z
" id="DejaVuSans-52"/>
      </defs>
      <g transform="translate(183.012074 266.598437)scale(0.1 -0.1)">
       <use xlink:href="#DejaVuSans-48"/>
       <use x="63.623047" xlink:href="#DejaVuSans-46"/>
       <use x="95.410156" xlink:href="#DejaVuSans-52"/>
      </g>
     </g>
    </g>
    <g id="xtick_4">
     <g id="line2d_4">
      <g>
       <use style="stroke:#000000;stroke-width:0.8;" x="251.836364" xlink:href="#m3bbd10628e" y="252"/>
      </g>
     </g>
     <g id="text_4">
      <!-- 0.6 -->
      <defs>
       <path d="M 33.015625 40.375 
Q 26.375 40.375 22.484375 35.828125 
Q 18.609375 31.296875 18.609375 23.390625 
Q 18.609375 15.53125 22.484375 10.953125 
Q 26.375 6.390625 33.015625 6.390625 
Q 39.65625 6.390625 43.53125 10.953125 
Q 47.40625 15.53125 47.40625 23.390625 
Q 47.40625 31.296875 43.53125 35.828125 
Q 39.65625 40.375 33.015625 40.375 
z
M 52.59375 71.296875 
L 52.59375 62.3125 
Q 48.875 64.0625 45.09375 64.984375 
Q 41.3125 65.921875 37.59375 65.921875 
Q 27.828125 65.921875 22.671875 59.328125 
Q 17.53125 52.734375 16.796875 39.40625 
Q 19.671875 43.65625 24.015625 45.921875 
Q 28.375 48.1875 33.59375 48.1875 
Q 44.578125 48.1875 50.953125 41.515625 
Q 57.328125 34.859375 57.328125 23.390625 
Q 57.328125 12.15625 50.6875 5.359375 
Q 44.046875 -1.421875 33.015625 -1.421875 
Q 20.359375 -1.421875 13.671875 8.265625 
Q 6.984375 17.96875 6.984375 36.375 
Q 6.984375 53.65625 15.1875 63.9375 
Q 23.390625 74.21875 37.203125 74.21875 
Q 40.921875 74.21875 44.703125 73.484375 
Q 48.484375 72.75 52.59375 71.296875 
z
" id="DejaVuSans-54"/>
      </defs>
      <g transform="translate(243.884801 266.598437)scale(0.1 -0.1)">
       <use xlink:href="#DejaVuSans-48"/>
       <use x="63.623047" xlink:href="#DejaVuSans-46"/>
       <use x="95.410156" xlink:href="#DejaVuSans-54"/>
      </g>
     </g>
    </g>
    <g id="xtick_5">
     <g id="line2d_5">
      <g>
       <use style="stroke:#000000;stroke-width:0.8;" x="312.709091" xlink:href="#m3bbd10628e" y="252"/>
      </g>
     </g>
     <g id="text_5">
      <!-- 0.8 -->
      <defs>
       <path d="M 31.78125 34.625 
Q 24.75 34.625 20.71875 30.859375 
Q 16.703125 27.09375 16.703125 20.515625 
Q 16.703125 13.921875 20.71875 10.15625 
Q 24.75 6.390625 31.78125 6.390625 
Q 38.8125 6.390625 42.859375 10.171875 
Q 46.921875 13.96875 46.921875 20.515625 
Q 46.921875 27.09375 42.890625 30.859375 
Q 38.875 34.625 31.78125 34.625 
z
M 21.921875 38.8125 
Q 15.578125 40.375 12.03125 44.71875 
Q 8.5 49.078125 8.5 55.328125 
Q 8.5 64.0625 14.71875 69.140625 
Q 20.953125 74.21875 31.78125 74.21875 
Q 42.671875 74.21875 48.875 69.140625 
Q 55.078125 64.0625 55.078125 55.328125 
Q 55.078125 49.078125 51.53125 44.71875 
Q 48 40.375 41.703125 38.8125 
Q 48.828125 37.15625 52.796875 32.3125 
Q 56.78125 27.484375 56.78125 20.515625 
Q 56.78125 9.90625 50.3125 4.234375 
Q 43.84375 -1.421875 31.78125 -1.421875 
Q 19.734375 -1.421875 13.25 4.234375 
Q 6.78125 9.90625 6.78125 20.515625 
Q 6.78125 27.484375 10.78125 32.3125 
Q 14.796875 37.15625 21.921875 38.8125 
z
M 18.3125 54.390625 
Q 18.3125 48.734375 21.84375 45.5625 
Q 25.390625 42.390625 31.78125 42.390625 
Q 38.140625 42.390625 41.71875 45.5625 
Q 45.3125 48.734375 45.3125 54.390625 
Q 45.3125 60.0625 41.71875 63.234375 
Q 38.140625 66.40625 31.78125 66.40625 
Q 25.390625 66.40625 21.84375 63.234375 
Q 18.3125 60.0625 18.3125 54.390625 
z
" id="DejaVuSans-56"/>
      </defs>
      <g transform="translate(304.757528 266.598437)scale(0.1 -0.1)">
       <use xlink:href="#DejaVuSans-48"/>
       <use x="63.623047" xlink:href="#DejaVuSans-46"/>
       <use x="95.410156" xlink:href="#DejaVuSans-56"/>
      </g>
     </g>
    </g>
    <g id="xtick_6">
     <g id="line2d_6">
      <g>
       <use style="stroke:#000000;stroke-width:0.8;" x="373.581818" xlink:href="#m3bbd10628e" y="252"/>
      </g>
     </g>
     <g id="text_6">
      <!-- 1.0 -->
      <defs>
       <path d="M 12.40625 8.296875 
L 28.515625 8.296875 
L 28.515625 63.921875 
L 10.984375 60.40625 
L 10.984375 69.390625 
L 28.421875 72.90625 
L 38.28125 72.90625 
L 38.28125 8.296875 
L 54.390625 8.296875 
L 54.390625 0 
L 12.40625 0 
z
" id="DejaVuSans-49"/>
      </defs>
      <g transform="translate(365.630256 266.598437)scale(0.1 -0.1)">
       <use xlink:href="#DejaVuSans-49"/>
       <use x="63.623047" xlink:href="#DejaVuSans-46"/>
       <use x="95.410156" xlink:href="#DejaVuSans-48"/>
      </g>
     </g>
    </g>
   </g>
   <g id="matplotlib.axis_2">
    <g id="ytick_1">
     <g id="line2d_7">
      <defs>
       <path d="M 0 0 
L -3.5 0 
" id="m24e144908a" style="stroke:#000000;stroke-width:0.8;"/>
      </defs>
      <g>
       <use style="stroke:#000000;stroke-width:0.8;" x="54" xlink:href="#m24e144908a" y="235.141048"/>
      </g>
     </g>
     <g id="text_7">
      <!-- 0.20 -->
      <g transform="translate(24.734375 238.940267)scale(0.1 -0.1)">
       <use xlink:href="#DejaVuSans-48"/>
       <use x="63.623047" xlink:href="#DejaVuSans-46"/>
       <use x="95.410156" xlink:href="#DejaVuSans-50"/>
       <use x="159.033203" xlink:href="#DejaVuSans-48"/>
      </g>
     </g>
    </g>
    <g id="ytick_2">
     <g id="line2d_8">
      <g>
       <use style="stroke:#000000;stroke-width:0.8;" x="54" xlink:href="#m24e144908a" y="209.156412"/>
      </g>
     </g>
     <g id="text_8">
      <!-- 0.25 -->
      <defs>
       <path d="M 10.796875 72.90625 
L 49.515625 72.90625 
L 49.515625 64.59375 
L 19.828125 64.59375 
L 19.828125 46.734375 
Q 21.96875 47.46875 24.109375 47.828125 
Q 26.265625 48.1875 28.421875 48.1875 
Q 40.625 48.1875 47.75 41.5 
Q 54.890625 34.8125 54.890625 23.390625 
Q 54.890625 11.625 47.5625 5.09375 
Q 40.234375 -1.421875 26.90625 -1.421875 
Q 22.3125 -1.421875 17.546875 -0.640625 
Q 12.796875 0.140625 7.71875 1.703125 
L 7.71875 11.625 
Q 12.109375 9.234375 16.796875 8.0625 
Q 21.484375 6.890625 26.703125 6.890625 
Q 35.15625 6.890625 40.078125 11.328125 
Q 45.015625 15.765625 45.015625 23.390625 
Q 45.015625 31 40.078125 35.4375 
Q 35.15625 39.890625 26.703125 39.890625 
Q 22.75 39.890625 18.8125 39.015625 
Q 14.890625 38.140625 10.796875 36.28125 
z
" id="DejaVuSans-53"/>
      </defs>
      <g transform="translate(24.734375 212.955631)scale(0.1 -0.1)">
       <use xlink:href="#DejaVuSans-48"/>
       <use x="63.623047" xlink:href="#DejaVuSans-46"/>
       <use x="95.410156" xlink:href="#DejaVuSans-50"/>
       <use x="159.033203" xlink:href="#DejaVuSans-53"/>
      </g>
     </g>
    </g>
    <g id="ytick_3">
     <g id="line2d_9">
      <g>
       <use style="stroke:#000000;stroke-width:0.8;" x="54" xlink:href="#m24e144908a" y="183.171777"/>
      </g>
     </g>
     <g id="text_9">
      <!-- 0.30 -->
      <defs>
       <path d="M 40.578125 39.3125 
Q 47.65625 37.796875 51.625 33 
Q 55.609375 28.21875 55.609375 21.1875 
Q 55.609375 10.40625 48.1875 4.484375 
Q 40.765625 -1.421875 27.09375 -1.421875 
Q 22.515625 -1.421875 17.65625 -0.515625 
Q 12.796875 0.390625 7.625 2.203125 
L 7.625 11.71875 
Q 11.71875 9.328125 16.59375 8.109375 
Q 21.484375 6.890625 26.8125 6.890625 
Q 36.078125 6.890625 40.9375 10.546875 
Q 45.796875 14.203125 45.796875 21.1875 
Q 45.796875 27.640625 41.28125 31.265625 
Q 36.765625 34.90625 28.71875 34.90625 
L 20.21875 34.90625 
L 20.21875 43.015625 
L 29.109375 43.015625 
Q 36.375 43.015625 40.234375 45.921875 
Q 44.09375 48.828125 44.09375 54.296875 
Q 44.09375 59.90625 40.109375 62.90625 
Q 36.140625 65.921875 28.71875 65.921875 
Q 24.65625 65.921875 20.015625 65.03125 
Q 15.375 64.15625 9.8125 62.3125 
L 9.8125 71.09375 
Q 15.4375 72.65625 20.34375 73.4375 
Q 25.25 74.21875 29.59375 74.21875 
Q 40.828125 74.21875 47.359375 69.109375 
Q 53.90625 64.015625 53.90625 55.328125 
Q 53.90625 49.265625 50.4375 45.09375 
Q 46.96875 40.921875 40.578125 39.3125 
z
" id="DejaVuSans-51"/>
      </defs>
      <g transform="translate(24.734375 186.970996)scale(0.1 -0.1)">
       <use xlink:href="#DejaVuSans-48"/>
       <use x="63.623047" xlink:href="#DejaVuSans-46"/>
       <use x="95.410156" xlink:href="#DejaVuSans-51"/>
       <use x="159.033203" xlink:href="#DejaVuSans-48"/>
      </g>
     </g>
    </g>
    <g id="ytick_4">
     <g id="line2d_10">
      <g>
       <use style="stroke:#000000;stroke-width:0.8;" x="54" xlink:href="#m24e144908a" y="157.187141"/>
      </g>
     </g>
     <g id="text_10">
      <!-- 0.35 -->
      <g transform="translate(24.734375 160.98636)scale(0.1 -0.1)">
       <use xlink:href="#DejaVuSans-48"/>
       <use x="63.623047" xlink:href="#DejaVuSans-46"/>
       <use x="95.410156" xlink:href="#DejaVuSans-51"/>
       <use x="159.033203" xlink:href="#DejaVuSans-53"/>
      </g>
     </g>
    </g>
    <g id="ytick_5">
     <g id="line2d_11">
      <g>
       <use style="stroke:#000000;stroke-width:0.8;" x="54" xlink:href="#m24e144908a" y="131.202506"/>
      </g>
     </g>
     <g id="text_11">
      <!-- 0.40 -->
      <g transform="translate(24.734375 135.001724)scale(0.1 -0.1)">
       <use xlink:href="#DejaVuSans-48"/>
       <use x="63.623047" xlink:href="#DejaVuSans-46"/>
       <use x="95.410156" xlink:href="#DejaVuSans-52"/>
       <use x="159.033203" xlink:href="#DejaVuSans-48"/>
      </g>
     </g>
    </g>
    <g id="ytick_6">
     <g id="line2d_12">
      <g>
       <use style="stroke:#000000;stroke-width:0.8;" x="54" xlink:href="#m24e144908a" y="105.21787"/>
      </g>
     </g>
     <g id="text_12">
      <!-- 0.45 -->
      <g transform="translate(24.734375 109.017089)scale(0.1 -0.1)">
       <use xlink:href="#DejaVuSans-48"/>
       <use x="63.623047" xlink:href="#DejaVuSans-46"/>
       <use x="95.410156" xlink:href="#DejaVuSans-52"/>
       <use x="159.033203" xlink:href="#DejaVuSans-53"/>
      </g>
     </g>
    </g>
    <g id="ytick_7">
     <g id="line2d_13">
      <g>
       <use style="stroke:#000000;stroke-width:0.8;" x="54" xlink:href="#m24e144908a" y="79.233234"/>
      </g>
     </g>
     <g id="text_13">
      <!-- 0.50 -->
      <g transform="translate(24.734375 83.032453)scale(0.1 -0.1)">
       <use xlink:href="#DejaVuSans-48"/>
       <use x="63.623047" xlink:href="#DejaVuSans-46"/>
       <use x="95.410156" xlink:href="#DejaVuSans-53"/>
       <use x="159.033203" xlink:href="#DejaVuSans-48"/>
      </g>
     </g>
    </g>
    <g id="ytick_8">
     <g id="line2d_14">
      <g>
       <use style="stroke:#000000;stroke-width:0.8;" x="54" xlink:href="#m24e144908a" y="53.248599"/>
      </g>
     </g>
     <g id="text_14">
      <!-- 0.55 -->
      <g transform="translate(24.734375 57.047818)scale(0.1 -0.1)">
       <use xlink:href="#DejaVuSans-48"/>
       <use x="63.623047" xlink:href="#DejaVuSans-46"/>
       <use x="95.410156" xlink:href="#DejaVuSans-53"/>
       <use x="159.033203" xlink:href="#DejaVuSans-53"/>
      </g>
     </g>
    </g>
   </g>
   <g id="line2d_15">
    <path clip-path="url(#p1beec873b8)" d="M 69.218182 218.269224 
L 70.497021 100.708496 
L 71.775859 195.178757 
L 73.054698 201.82095 
L 74.333537 178.202475 
L 75.612376 82.433502 
L 76.891215 77.136274 
L 78.170053 106.388218 
L 79.448892 80.853636 
L 80.727731 203.701198 
L 82.00657 186.10908 
L 83.285409 81.631616 
L 84.564248 81.975133 
L 85.843086 50.990534 
L 87.121925 217.083805 
L 88.400764 151.818196 
L 89.679603 200.592396 
L 90.958442 93.264938 
L 92.23728 67.060472 
L 93.516119 173.335553 
L 94.794958 113.96222 
L 96.073797 110.656454 
L 97.352636 103.187431 
L 98.631474 118.707534 
L 99.910313 82.181971 
L 101.189152 75.100118 
L 102.467991 74.771673 
L 103.74683 58.910651 
L 105.025668 82.130521 
L 106.304507 120.792541 
L 107.583346 139.478092 
L 108.862185 108.824537 
L 110.141024 46.881843 
L 111.419862 120.977032 
L 112.698701 84.656748 
L 113.97754 86.180487 
L 115.256379 126.242039 
L 116.535218 109.087502 
L 117.814057 168.853203 
L 119.092895 108.466989 
L 120.371734 193.648782 
L 121.650573 56.263336 
L 122.929412 161.039623 
L 124.208251 160.356227 
L 125.487089 171.479211 
L 126.765928 95.548467 
L 128.044767 83.411564 
L 129.323606 118.563579 
L 130.602445 183.689391 
L 131.881283 108.649401 
L 133.160122 228.370491 
L 134.438961 63.084823 
L 135.7178 237.744189 
L 136.996639 96.008915 
L 138.275477 179.586417 
L 139.554316 86.897143 
L 140.833155 85.789158 
L 142.111994 96.907984 
L 143.390833 202.236184 
L 144.669672 119.435623 
L 145.94851 108.763733 
L 147.227349 221.080242 
L 148.506188 83.946328 
L 149.785027 60.07944 
L 151.063866 159.549145 
L 152.342704 118.765739 
L 153.621543 171.819609 
L 154.900382 54.824827 
L 156.179221 190.81022 
L 157.45806 181.721314 
L 158.736898 214.108045 
L 160.015737 85.948704 
L 161.294576 126.149014 
L 162.573415 124.975028 
L 163.852254 147.296869 
L 165.131092 242.006708 
L 166.409931 99.519439 
L 167.68877 180.3249 
L 168.967609 66.181672 
L 170.246448 69.60021 
L 171.525286 124.055172 
L 172.804125 115.41528 
L 174.082964 59.82583 
L 175.361803 126.872946 
L 176.640642 182.4229 
L 177.919481 194.574355 
L 179.198319 95.523522 
L 180.477158 196.169292 
L 181.755997 83.782105 
L 183.034836 155.26116 
L 184.313675 102.187542 
L 185.592513 184.598853 
L 186.871352 130.155845 
L 188.150191 181.652195 
L 189.42903 93.714472 
L 190.707869 63.354024 
L 191.986707 103.012294 
L 193.265546 105.078073 
L 194.544385 83.505628 
L 195.823224 72.375889 
L 197.102063 58.243365 
L 198.380901 137.154027 
L 199.65974 144.632405 
L 200.938579 131.554857 
L 202.217418 77.239693 
L 203.496257 94.449317 
L 204.775095 135.818416 
L 206.053934 61.387506 
L 207.332773 64.00364 
L 208.611612 149.488413 
L 209.890451 119.378977 
L 211.16929 182.37093 
L 212.448128 104.958543 
L 215.005806 83.206805 
L 216.284645 53.042281 
L 217.563484 118.367135 
L 218.842322 212.657063 
L 220.121161 149.282095 
L 221.4 118.957506 
L 222.678839 197.503862 
L 223.957678 125.533698 
L 225.236516 143.868976 
L 226.515355 73.800887 
L 227.794194 156.425272 
L 229.073033 140.595951 
L 230.351872 120.45578 
L 231.63071 106.408486 
L 232.909549 70.757566 
L 234.188388 120.826321 
L 235.467227 118.793283 
L 236.746066 128.822313 
L 238.024905 82.912659 
L 239.303743 176.31651 
L 240.582582 81.745949 
L 241.861421 49.219421 
L 243.14026 73.230264 
L 244.419099 181.742622 
L 245.697937 76.118196 
L 246.976776 46.915623 
L 248.255615 184.746446 
L 249.534454 87.589893 
L 250.813293 94.424372 
L 252.092131 204.480217 
L 253.37097 228.622023 
L 254.649809 146.48407 
L 255.928648 117.552257 
L 257.207487 116.455705 
L 258.486325 127.838535 
L 259.765164 73.796209 
L 261.044003 108.521037 
L 262.322842 112.577758 
L 263.601681 185.957849 
L 264.880519 91.046369 
L 266.159358 169.22998 
L 267.438197 105.767705 
L 268.717036 142.505302 
L 269.995875 221.860301 
L 271.274714 148.173591 
L 272.553552 158.210936 
L 273.832391 224.606357 
L 275.11123 107.88961 
L 276.390069 203.757845 
L 277.668908 83.395453 
L 278.947746 155.37913 
L 280.226585 219.878193 
L 281.505424 103.300204 
L 282.784263 180.383625 
L 284.063102 162.654828 
L 285.34194 163.673426 
L 286.620779 103.893173 
L 287.899618 185.069175 
L 289.178457 161.064569 
L 290.457296 100.704339 
L 291.736134 96.94852 
L 293.014973 82.946439 
L 294.293812 186.791956 
L 295.572651 131.423375 
L 296.85149 84.159921 
L 298.130328 47.920189 
L 299.409167 54.719329 
L 300.688006 57.854635 
L 301.966845 131.435328 
L 303.245684 233.115286 
L 304.524523 99.101607 
L 305.803361 153.822651 
L 307.0822 85.805268 
L 308.361039 103.666587 
L 309.639878 229.887474 
L 310.918717 164.891586 
L 312.197555 109.089581 
L 313.476394 165.858214 
L 314.755233 194.927746 
L 316.034072 146.289185 
L 317.312911 80.781919 
L 318.591749 45.508815 
L 321.149427 82.179892 
L 322.428266 95.919008 
L 323.707105 79.148005 
L 324.985943 103.423891 
L 326.264782 120.926102 
L 327.543621 76.286577 
L 328.82246 91.990131 
L 330.101299 97.72598 
L 331.380138 111.164194 
L 332.658976 138.358155 
L 333.937815 238.531523 
L 335.216654 184.280801 
L 336.495493 176.441756 
L 337.774332 120.932858 
L 339.05317 119.820196 
L 340.332009 234.083993 
L 341.610848 86.108249 
L 342.889687 60.144921 
L 344.168526 91.747435 
L 345.447364 85.326112 
L 346.726203 133.830592 
L 348.005042 201.156263 
L 349.283881 121.501921 
L 350.56272 175.036507 
L 351.841558 83.038424 
L 353.120397 199.560287 
L 354.399236 125.07325 
L 355.678075 91.104575 
L 356.956914 168.110043 
L 358.235752 184.406567 
L 359.514591 218.338863 
L 360.79343 69.892278 
L 362.072269 171.846114 
L 363.351108 230.547484 
L 364.629947 242.116364 
L 365.908785 192.974221 
L 367.187624 180.734418 
L 368.466463 196.981571 
L 369.745302 124.456375 
L 371.024141 88.00097 
L 372.302979 150.651486 
L 373.581818 236.38883 
L 373.581818 236.38883 
" style="fill:none;stroke:#1f77b4;stroke-linecap:square;stroke-width:1.5;"/>
   </g>
   <g id="line2d_16">
    <path clip-path="url(#p1beec873b8)" d="M 69.218182 201.473746 
L 70.497021 107.28883 
L 71.775859 174.228983 
L 73.054698 178.689815 
L 74.333537 164.959076 
L 75.612376 93.033449 
L 76.891215 75.829609 
L 78.170053 109.141722 
L 79.448892 91.860215 
L 80.727731 173.485621 
L 82.00657 192.18736 
L 83.285409 91.632331 
L 84.564248 84.697991 
L 85.843086 72.340436 
L 87.121925 184.95552 
L 88.400764 167.140159 
L 89.679603 179.793003 
L 90.958442 110.197636 
L 92.23728 84.226553 
L 93.516119 168.909019 
L 94.794958 112.236003 
L 96.073797 111.888651 
L 97.352636 114.235363 
L 98.631474 122.660014 
L 99.910313 94.907476 
L 101.189152 93.459075 
L 102.467991 90.629075 
L 103.74683 78.320537 
L 105.025668 96.911226 
L 106.304507 120.292529 
L 107.583346 156.077948 
L 108.862185 106.034212 
L 110.141024 68.609813 
L 111.419862 120.056791 
L 112.698701 92.084882 
L 113.97754 93.569202 
L 115.256379 120.565498 
L 116.535218 118.592598 
L 117.814057 147.632169 
L 119.092895 118.330154 
L 120.371734 181.92161 
L 121.650573 76.233079 
L 122.929412 140.21287 
L 124.208251 136.105866 
L 125.487089 153.795139 
L 126.765928 100.372825 
L 128.044767 91.038087 
L 129.323606 120.336715 
L 130.602445 159.271989 
L 131.881283 126.33376 
L 133.160122 195.071888 
L 134.438961 67.025946 
L 135.7178 204.376238 
L 136.996639 92.086779 
L 138.275477 178.966977 
L 139.554316 78.809105 
L 140.833155 93.119666 
L 142.111994 114.61498 
L 143.390833 171.912216 
L 144.669672 118.088915 
L 145.94851 110.213769 
L 147.227349 201.364017 
L 148.506188 97.06377 
L 149.785027 77.936455 
L 151.063866 142.206068 
L 152.342704 125.016803 
L 153.621543 182.586937 
L 154.900382 75.482459 
L 156.179221 177.254216 
L 157.45806 169.151441 
L 158.736898 204.124311 
L 160.015737 91.948006 
L 161.294576 125.24917 
L 162.573415 138.828109 
L 163.852254 155.356087 
L 165.131092 205.195646 
L 166.409931 94.795676 
L 167.68877 175.270549 
L 168.967609 83.530399 
L 170.246448 70.820137 
L 171.525286 141.563361 
L 172.804125 124.372996 
L 174.082964 70.80431 
L 175.361803 125.250314 
L 177.919481 184.906501 
L 179.198319 86.23859 
L 180.477158 169.058206 
L 181.755997 93.442461 
L 183.034836 169.304091 
L 184.313675 105.617231 
L 185.592513 158.236148 
L 186.871352 147.224651 
L 188.150191 189.451355 
L 189.42903 83.689524 
L 190.707869 81.136207 
L 191.986707 118.048203 
L 193.265546 111.64779 
L 194.544385 93.149856 
L 195.823224 85.64444 
L 197.102063 71.542316 
L 198.380901 120.13963 
L 199.65974 127.245068 
L 200.938579 143.024139 
L 202.217418 90.261497 
L 203.496257 98.356882 
L 204.775095 114.956341 
L 206.053934 80.280044 
L 207.332773 73.21844 
L 208.611612 154.037902 
L 209.890451 103.619784 
L 211.16929 162.994151 
L 212.448128 122.552254 
L 213.726967 100.194284 
L 215.005806 89.918348 
L 216.284645 66.663561 
L 217.563484 121.717914 
L 218.842322 181.566067 
L 220.121161 132.23551 
L 221.4 102.304565 
L 222.678839 170.270231 
L 223.957678 110.200326 
L 225.236516 159.907179 
L 226.515355 87.577863 
L 227.794194 139.055766 
L 230.351872 106.730321 
L 231.63071 111.600016 
L 232.909549 85.610993 
L 234.188388 125.764715 
L 235.467227 112.923982 
L 236.746066 145.965537 
L 238.024905 91.25389 
L 239.303743 169.229498 
L 240.582582 98.235192 
L 241.861421 69.608362 
L 243.14026 74.451361 
L 244.419099 171.72405 
L 245.697937 87.917498 
L 246.976776 64.558917 
L 248.255615 187.8508 
L 249.534454 102.630777 
L 250.813293 112.200626 
L 252.092131 184.29112 
L 253.37097 205.990254 
L 254.649809 126.658144 
L 255.928648 131.856271 
L 257.207487 103.84416 
L 258.486325 141.214626 
L 259.765164 91.035663 
L 261.044003 110.277038 
L 262.322842 127.746169 
L 263.601681 166.649228 
L 264.880519 106.447168 
L 266.159358 152.594243 
L 267.438197 119.794241 
L 268.717036 122.341634 
L 269.995875 187.208367 
L 271.274714 161.552258 
L 272.553552 139.756884 
L 273.832391 198.440215 
L 275.11123 125.327605 
L 276.390069 199.244616 
L 277.668908 101.229162 
L 278.947746 170.331447 
L 280.226585 185.789237 
L 281.505424 106.665403 
L 282.784263 160.030331 
L 284.063102 162.489785 
L 285.34194 143.804917 
L 286.620779 95.646548 
L 287.899618 168.970117 
L 289.178457 174.336507 
L 290.457296 97.617204 
L 291.736134 114.201576 
L 293.014973 76.547443 
L 294.293812 167.539486 
L 295.572651 145.096341 
L 296.85149 99.029784 
L 298.130328 63.876494 
L 299.409167 74.167366 
L 300.688006 76.339794 
L 301.966845 122.045767 
L 303.245684 197.341926 
L 304.524523 106.878658 
L 305.803361 165.603306 
L 307.0822 88.449945 
L 308.361039 102.118543 
L 309.639878 199.660629 
L 310.918717 167.246547 
L 312.197555 102.856268 
L 313.476394 144.150868 
L 314.755233 173.671488 
L 316.034072 128.004467 
L 317.312911 90.555414 
L 318.591749 66.900652 
L 319.870588 83.09366 
L 321.149427 97.583878 
L 322.428266 92.98692 
L 323.707105 90.604763 
L 324.985943 120.576836 
L 326.264782 109.733509 
L 327.543621 90.224955 
L 328.82246 109.626508 
L 330.101299 109.356164 
L 331.380138 128.230008 
L 332.658976 117.725034 
L 333.937815 208.880869 
L 335.216654 156.821592 
L 336.495493 158.943518 
L 337.774332 129.565696 
L 339.05317 135.147669 
L 340.332009 197.067774 
L 341.610848 90.337242 
L 342.889687 66.139554 
L 344.168526 94.333119 
L 345.447364 91.57176 
L 346.726203 147.822053 
L 348.005042 172.713458 
L 349.283881 139.161626 
L 350.56272 160.68862 
L 351.841558 99.348 
L 353.120397 179.853506 
L 354.399236 122.121559 
L 355.678075 107.529653 
L 356.956914 151.284016 
L 358.235752 161.4144 
L 359.514591 205.548157 
L 360.79343 84.237423 
L 362.072269 176.774935 
L 363.351108 201.345678 
L 364.629947 205.899795 
L 365.908785 171.175981 
L 367.187624 167.374808 
L 368.466463 182.860359 
L 369.745302 107.524828 
L 371.024141 105.565559 
L 372.302979 135.315257 
L 373.581818 208.764235 
L 373.581818 208.764235 
" style="fill:none;stroke:#ff7f0e;stroke-linecap:square;stroke-width:1.5;"/>
   </g>
   <g id="line2d_17">
    <path clip-path="url(#p1beec873b8)" d="M 69.218182 222.665306 
L 70.497021 127.314863 
L 71.775859 190.877841 
L 73.054698 196.737033 
L 74.333537 178.07786 
L 75.612376 125.385457 
L 76.891215 122.559288 
L 78.170053 127.316574 
L 79.448892 125.173702 
L 80.727731 193.396718 
L 82.00657 213.016391 
L 83.285409 125.121111 
L 84.564248 123.80719 
L 85.843086 122.685348 
L 87.121925 206.383494 
L 88.400764 182.812928 
L 89.679603 197.474272 
L 90.958442 128.014411 
L 92.23728 124.06554 
L 93.516119 182.060519 
L 94.794958 127.612357 
L 96.073797 127.701193 
L 97.352636 128.673644 
L 98.631474 130.038174 
L 99.910313 125.797711 
L 101.189152 125.679994 
L 102.467991 125.173214 
L 103.74683 123.523558 
L 105.025668 125.920254 
L 106.304507 129.186624 
L 107.583346 168.842119 
L 108.862185 126.662723 
L 110.141024 122.142306 
L 111.419862 129.07857 
L 112.698701 125.048578 
L 113.97754 125.169938 
L 115.256379 128.899788 
L 116.535218 129.049728 
L 117.814057 160.682673 
L 119.092895 129.40132 
L 120.371734 198.634296 
L 121.650573 123.34802 
L 122.929412 152.628628 
L 124.208251 149.29465 
L 125.487089 166.903015 
L 126.765928 125.976664 
L 128.044767 124.986729 
L 129.323606 129.077445 
L 130.602445 175.433926 
L 131.881283 133.525802 
L 133.160122 217.926087 
L 134.438961 121.429158 
L 135.7178 228.142353 
L 136.996639 124.510408 
L 138.275477 194.884035 
L 139.554316 122.623575 
L 140.833155 125.124385 
L 142.111994 129.084111 
L 143.390833 191.866111 
L 144.669672 128.613799 
L 145.94851 127.375072 
L 147.227349 222.835079 
L 148.506188 125.905845 
L 149.785027 123.516968 
L 151.063866 153.693799 
L 152.342704 130.462143 
L 153.621543 201.489874 
L 154.900382 123.196854 
L 156.179221 193.219117 
L 157.45806 182.941817 
L 158.736898 226.341919 
L 160.015737 125.005384 
L 161.294576 130.227623 
L 162.573415 146.887793 
L 163.852254 165.940479 
L 165.131092 229.552006 
L 166.409931 125.109915 
L 167.68877 190.034267 
L 168.967609 124.002311 
L 170.246448 121.99204 
L 171.525286 150.586024 
L 172.804125 131.224294 
L 174.082964 122.31459 
L 175.361803 130.191055 
L 176.640642 172.474175 
L 177.919481 202.189408 
L 179.198319 123.614 
L 180.477158 187.218256 
L 181.755997 125.262883 
L 183.034836 185.023297 
L 184.313675 126.99903 
L 185.592513 175.053338 
L 186.871352 157.752896 
L 188.150191 209.774362 
L 189.42903 123.35302 
L 190.707869 123.635841 
L 191.986707 129.300843 
L 193.265546 127.961241 
L 194.544385 125.196365 
L 195.823224 124.109927 
L 197.102063 122.520542 
L 198.380901 128.92308 
L 199.65974 136.423416 
L 200.938579 150.738765 
L 202.217418 125.068306 
L 203.496257 125.764184 
L 204.775095 127.227129 
L 206.053934 123.549531 
L 207.332773 122.631844 
L 208.611612 163.813242 
L 209.890451 125.758623 
L 211.16929 177.67277 
L 212.448128 131.170241 
L 213.726967 125.932152 
L 215.005806 124.722891 
L 216.284645 121.739519 
L 217.563484 129.831504 
L 218.842322 202.304561 
L 220.121161 140.615458 
L 221.4 125.545446 
L 222.678839 188.513615 
L 223.957678 126.873259 
L 225.236516 173.653388 
L 226.515355 124.358309 
L 227.794194 150.158977 
L 229.073033 132.010173 
L 230.351872 126.383055 
L 231.63071 127.863372 
L 232.909549 124.172036 
L 234.188388 130.663611 
L 235.467227 127.478233 
L 236.746066 155.923428 
L 238.024905 125.072007 
L 239.303743 182.675441 
L 240.582582 126.216447 
L 241.861421 122.33564 
L 243.14026 122.518504 
L 244.419099 185.897156 
L 245.697937 124.416072 
L 246.976776 121.431762 
L 248.255615 206.977228 
L 249.534454 126.71484 
L 250.813293 128.5843 
L 252.092131 202.731123 
L 253.37097 228.538352 
L 254.649809 136.647218 
L 255.928648 138.561889 
L 257.207487 125.948213 
L 258.486325 148.835678 
L 259.765164 125.224228 
L 261.044003 127.541236 
L 262.322842 134.622171 
L 263.601681 181.680318 
L 264.880519 127.583245 
L 266.159358 165.692975 
L 267.438197 129.627946 
L 268.717036 132.100422 
L 269.995875 209.553797 
L 271.274714 174.60406 
L 272.553552 151.457266 
L 273.832391 220.246034 
L 275.11123 132.58215 
L 276.390069 220.66449 
L 277.668908 126.633182 
L 278.947746 186.921684 
L 280.226585 207.804848 
L 281.505424 127.036902 
L 282.784263 175.665394 
L 284.063102 174.240911 
L 285.34194 156.264057 
L 286.620779 125.085788 
L 287.899618 184.326838 
L 289.178457 191.452441 
L 290.457296 125.517345 
L 291.736134 128.866858 
L 293.014973 122.52794 
L 294.293812 182.66113 
L 296.85149 126.24978 
L 298.130328 121.281611 
L 299.409167 122.874903 
L 300.688006 123.367081 
L 301.966845 129.125211 
L 303.245684 220.810093 
L 304.524523 127.1915 
L 305.803361 179.489874 
L 307.0822 124.309518 
L 308.361039 126.137741 
L 309.639878 222.361392 
L 310.918717 180.561848 
L 312.197555 125.899456 
L 314.755233 190.335319 
L 316.034072 137.492447 
L 317.312911 125.090672 
L 318.591749 121.914075 
L 321.149427 126.051766 
L 322.428266 125.01269 
L 323.707105 124.976217 
L 324.985943 130.434884 
L 326.264782 127.085578 
L 327.543621 125.096061 
L 328.82246 128.077448 
L 330.101299 127.649946 
L 331.380138 134.798863 
L 332.658976 127.952862 
L 333.937815 232.691689 
L 335.216654 174.136956 
L 336.495493 172.528011 
L 337.774332 135.073555 
L 339.05317 142.701967 
L 340.332009 220.720534 
L 341.610848 124.601903 
L 342.889687 121.377511 
L 344.168526 125.135253 
L 345.447364 124.965233 
L 348.005042 191.697338 
L 349.283881 147.772191 
L 350.56272 173.803266 
L 351.841558 126.386339 
L 353.120397 197.392232 
L 354.399236 129.355883 
L 355.678075 127.728167 
L 356.956914 163.874284 
L 358.235752 177.836912 
L 359.514591 227.911604 
L 360.79343 123.947811 
L 362.072269 192.853025 
L 363.351108 224.076585 
L 364.629947 230.304098 
L 365.908785 187.663971 
L 367.187624 180.850097 
L 368.466463 200.016728 
L 369.745302 126.298215 
L 371.024141 127.502919 
L 372.302979 143.379718 
L 373.581818 232.275982 
L 373.581818 232.275982 
" style="fill:none;stroke:#2ca02c;stroke-linecap:square;stroke-width:1.5;"/>
   </g>
   <g id="line2d_18">
    <path clip-path="url(#p1beec873b8)" d="M 69.218182 133.954385 
L 70.497021 100.275454 
L 71.775859 131.347643 
L 73.054698 131.748859 
L 74.333537 130.7761 
L 75.612376 81.659375 
L 76.891215 61.109243 
L 78.170053 103.3301 
L 79.448892 80.771461 
L 80.727731 131.124325 
L 82.00657 133.338 
L 83.285409 80.931453 
L 84.564248 72.61993 
L 85.843086 54.465303 
L 87.121925 132.450334 
L 88.400764 131.572509 
L 89.679603 131.951938 
L 92.23728 70.053312 
L 93.516119 131.275962 
L 94.794958 106.163759 
L 96.073797 106.204883 
L 97.352636 106.542157 
L 98.631474 119.148952 
L 99.910313 82.917423 
L 101.189152 80.061179 
L 102.467991 77.756294 
L 103.74683 62.304455 
L 105.025668 85.218452 
L 106.304507 116.472698 
L 107.583346 130.545128 
L 108.862185 98.467921 
L 110.141024 49.78246 
L 111.419862 116.083781 
L 112.698701 82.028023 
L 113.97754 83.927616 
L 115.256379 115.593175 
L 116.535218 114.464691 
L 117.814057 127.686707 
L 119.092895 111.748194 
L 120.371734 132.433152 
L 121.650573 59.225152 
L 122.929412 126.44119 
L 124.208251 124.891188 
L 125.487089 129.093402 
L 126.765928 92.43989 
L 128.044767 80.367204 
L 129.323606 116.208738 
L 130.602445 129.634446 
L 131.881283 118.196955 
L 133.160122 132.940711 
L 134.438961 49.517057 
L 135.7178 133.98788 
L 136.996639 81.401844 
L 138.275477 132.271511 
L 139.554316 64.289137 
L 140.833155 83.354651 
L 142.111994 104.576351 
L 143.390833 131.040698 
L 144.669672 113.449651 
L 145.94851 104.355935 
L 147.227349 133.852756 
L 148.506188 86.009628 
L 149.785027 62.204124 
L 151.063866 127.005334 
L 152.342704 121.854272 
L 153.621543 132.903844 
L 154.900382 58.501705 
L 156.179221 131.717341 
L 157.45806 131.167126 
L 158.736898 134.187251 
L 160.015737 81.870701 
L 161.294576 121.232094 
L 162.573415 128.007592 
L 163.852254 130.199311 
L 165.131092 133.990183 
L 166.409931 85.151099 
L 167.68877 131.676979 
L 168.967609 68.880867 
L 170.246448 54.601432 
L 171.525286 128.512379 
L 172.804125 118.980817 
L 174.082964 53.894011 
L 175.361803 121.195945 
L 176.640642 128.84835 
L 177.919481 132.62531 
L 179.198319 73.412828 
L 180.477158 130.93182 
L 181.755997 83.468844 
L 183.034836 131.618236 
L 184.313675 99.062676 
L 185.592513 129.44154 
L 186.871352 129.439033 
L 188.150191 133.277762 
L 189.42903 70.11322 
L 190.707869 66.447914 
L 191.986707 111.589985 
L 193.265546 105.4933 
L 194.544385 83.092593 
L 195.823224 73.130788 
L 197.102063 54.269937 
L 198.380901 112.829432 
L 200.938579 128.241692 
L 202.217418 78.126025 
L 203.496257 89.918301 
L 204.775095 105.914022 
L 206.053934 65.233091 
L 207.332773 57.194508 
L 208.611612 129.850349 
L 209.890451 93.281345 
L 211.16929 130.444013 
L 212.448128 113.750506 
L 213.726967 92.328117 
L 215.005806 79.030682 
L 216.284645 48.373853 
L 217.563484 118.227342 
L 218.842322 131.975808 
L 220.121161 124.303808 
L 221.4 91.3998 
L 222.678839 130.990167 
L 223.957678 101.551024 
L 225.236516 131.077437 
L 226.515355 75.550207 
L 227.794194 126.247999 
L 229.073033 116.313262 
L 230.351872 97.876736 
L 231.63071 105.816211 
L 232.909549 72.54915 
L 234.188388 122.367468 
L 235.467227 106.335415 
L 236.746066 129.263728 
L 238.024905 80.438654 
L 239.303743 131.220977 
L 240.582582 85.544677 
L 241.861421 50.887935 
L 243.14026 59.287228 
L 244.419099 131.322361 
L 245.697937 75.960857 
L 246.976776 44.974753 
L 248.255615 133.347845 
L 249.534454 93.50347 
L 250.813293 101.677014 
L 252.092131 132.57573 
L 253.37097 134.095887 
L 254.649809 119.346447 
L 255.928648 124.690242 
L 257.207487 94.649218 
L 258.486325 128.103468 
L 259.765164 77.654166 
L 261.044003 104.72912 
L 262.322842 120.33364 
L 263.601681 130.85986 
L 264.880519 95.726009 
L 266.159358 128.803001 
L 267.438197 114.25173 
L 268.717036 114.725711 
L 269.995875 132.412154 
L 271.274714 131.141604 
L 272.553552 126.416895 
L 273.832391 133.250666 
L 275.11123 117.832428 
L 276.390069 133.900535 
L 277.668908 90.080306 
L 278.947746 131.740976 
L 280.226585 132.446948 
L 281.505424 100.270559 
L 282.784263 129.746719 
L 284.063102 130.843445 
L 285.34194 127.156536 
L 286.620779 85.602639 
L 287.899618 131.04419 
L 289.178457 132.100794 
L 290.457296 88.232223 
L 291.736134 105.435313 
L 293.014973 61.592563 
L 294.293812 130.999239 
L 295.572651 129.019899 
L 298.130328 44.443636 
L 299.409167 56.601848 
L 300.688006 59.326351 
L 301.966845 117.113953 
L 303.245684 133.135896 
L 304.524523 100.586531 
L 305.803361 131.340866 
L 307.0822 77.417044 
L 308.361039 94.576146 
L 309.639878 133.275779 
L 310.918717 131.292894 
L 312.197555 94.064343 
L 313.476394 127.139502 
L 314.755233 131.304752 
L 316.034072 120.904824 
L 317.312911 78.735758 
L 318.591749 47.53756 
L 319.870588 68.595147 
L 321.149427 85.613475 
L 322.428266 83.067379 
L 323.707105 79.504368 
L 324.985943 111.558467 
L 326.264782 102.373093 
L 327.543621 77.878433 
L 328.82246 98.678221 
L 330.101299 102.848592 
L 331.380138 121.377225 
L 332.658976 109.213488 
L 333.937815 134.213926 
L 335.216654 129.167194 
L 336.495493 129.719471 
L 337.774332 124.311192 
L 339.05317 126.773945 
L 340.332009 133.076588 
L 341.610848 79.879474 
L 342.889687 48.243197 
L 344.168526 84.792321 
L 345.447364 81.429486 
L 346.726203 129.510735 
L 348.005042 131.11762 
L 349.283881 128.117314 
L 350.56272 130.030925 
L 351.841558 87.455019 
L 353.120397 131.980777 
L 354.399236 118.003491 
L 355.678075 96.657461 
L 356.956914 128.557534 
L 358.235752 129.872931 
L 359.514591 134.15914 
L 360.79343 71.195013 
L 362.072269 132.129788 
L 363.351108 133.617841 
L 364.629947 134.053682 
L 365.908785 131.143007 
L 367.187624 131.062658 
L 368.466463 132.515651 
L 369.745302 97.800758 
L 371.024141 93.873174 
L 372.302979 125.707969 
L 373.581818 134.234468 
L 373.581818 134.234468 
" style="fill:none;stroke:#d62728;stroke-linecap:square;stroke-width:1.5;"/>
   </g>
   <g id="patch_3">
    <path d="M 54 252 
L 54 34.56 
" style="fill:none;stroke:#000000;stroke-linecap:square;stroke-linejoin:miter;stroke-width:0.8;"/>
   </g>
   <g id="patch_4">
    <path d="M 388.8 252 
L 388.8 34.56 
" style="fill:none;stroke:#000000;stroke-linecap:square;stroke-linejoin:miter;stroke-width:0.8;"/>
   </g>
   <g id="patch_5">
    <path d="M 54 252 
L 388.8 252 
" style="fill:none;stroke:#000000;stroke-linecap:square;stroke-linejoin:miter;stroke-width:0.8;"/>
   </g>
   <g id="patch_6">
    <path d="M 54 34.56 
L 388.8 34.56 
" style="fill:none;stroke:#000000;stroke-linecap:square;stroke-linejoin:miter;stroke-width:0.8;"/>
   </g>
   <g id="text_15">
    <!-- Plot of Train Data vs MCMC Uncertainty  -->
    <defs>
     <path d="M 19.671875 64.796875 
L 19.671875 37.40625 
L 32.078125 37.40625 
Q 38.96875 37.40625 42.71875 40.96875 
Q 46.484375 44.53125 46.484375 51.125 
Q 46.484375 57.671875 42.71875 61.234375 
Q 38.96875 64.796875 32.078125 64.796875 
z
M 9.8125 72.90625 
L 32.078125 72.90625 
Q 44.34375 72.90625 50.609375 67.359375 
Q 56.890625 61.8125 56.890625 51.125 
Q 56.890625 40.328125 50.609375 34.8125 
Q 44.34375 29.296875 32.078125 29.296875 
L 19.671875 29.296875 
L 19.671875 0 
L 9.8125 0 
z
" id="DejaVuSans-80"/>
     <path d="M 9.421875 75.984375 
L 18.40625 75.984375 
L 18.40625 0 
L 9.421875 0 
z
" id="DejaVuSans-108"/>
     <path d="M 30.609375 48.390625 
Q 23.390625 48.390625 19.1875 42.75 
Q 14.984375 37.109375 14.984375 27.296875 
Q 14.984375 17.484375 19.15625 11.84375 
Q 23.34375 6.203125 30.609375 6.203125 
Q 37.796875 6.203125 41.984375 11.859375 
Q 46.1875 17.53125 46.1875 27.296875 
Q 46.1875 37.015625 41.984375 42.703125 
Q 37.796875 48.390625 30.609375 48.390625 
z
M 30.609375 56 
Q 42.328125 56 49.015625 48.375 
Q 55.71875 40.765625 55.71875 27.296875 
Q 55.71875 13.875 49.015625 6.21875 
Q 42.328125 -1.421875 30.609375 -1.421875 
Q 18.84375 -1.421875 12.171875 6.21875 
Q 5.515625 13.875 5.515625 27.296875 
Q 5.515625 40.765625 12.171875 48.375 
Q 18.84375 56 30.609375 56 
z
" id="DejaVuSans-111"/>
     <path d="M 18.3125 70.21875 
L 18.3125 54.6875 
L 36.8125 54.6875 
L 36.8125 47.703125 
L 18.3125 47.703125 
L 18.3125 18.015625 
Q 18.3125 11.328125 20.140625 9.421875 
Q 21.96875 7.515625 27.59375 7.515625 
L 36.8125 7.515625 
L 36.8125 0 
L 27.59375 0 
Q 17.1875 0 13.234375 3.875 
Q 9.28125 7.765625 9.28125 18.015625 
L 9.28125 47.703125 
L 2.6875 47.703125 
L 2.6875 54.6875 
L 9.28125 54.6875 
L 9.28125 70.21875 
z
" id="DejaVuSans-116"/>
     <path id="DejaVuSans-32"/>
     <path d="M 37.109375 75.984375 
L 37.109375 68.5 
L 28.515625 68.5 
Q 23.6875 68.5 21.796875 66.546875 
Q 19.921875 64.59375 19.921875 59.515625 
L 19.921875 54.6875 
L 34.71875 54.6875 
L 34.71875 47.703125 
L 19.921875 47.703125 
L 19.921875 0 
L 10.890625 0 
L 10.890625 47.703125 
L 2.296875 47.703125 
L 2.296875 54.6875 
L 10.890625 54.6875 
L 10.890625 58.5 
Q 10.890625 67.625 15.140625 71.796875 
Q 19.390625 75.984375 28.609375 75.984375 
z
" id="DejaVuSans-102"/>
     <path d="M -0.296875 72.90625 
L 61.375 72.90625 
L 61.375 64.59375 
L 35.5 64.59375 
L 35.5 0 
L 25.59375 0 
L 25.59375 64.59375 
L -0.296875 64.59375 
z
" id="DejaVuSans-84"/>
     <path d="M 41.109375 46.296875 
Q 39.59375 47.171875 37.8125 47.578125 
Q 36.03125 48 33.890625 48 
Q 26.265625 48 22.1875 43.046875 
Q 18.109375 38.09375 18.109375 28.8125 
L 18.109375 0 
L 9.078125 0 
L 9.078125 54.6875 
L 18.109375 54.6875 
L 18.109375 46.1875 
Q 20.953125 51.171875 25.484375 53.578125 
Q 30.03125 56 36.53125 56 
Q 37.453125 56 38.578125 55.875 
Q 39.703125 55.765625 41.0625 55.515625 
z
" id="DejaVuSans-114"/>
     <path d="M 34.28125 27.484375 
Q 23.390625 27.484375 19.1875 25 
Q 14.984375 22.515625 14.984375 16.5 
Q 14.984375 11.71875 18.140625 8.90625 
Q 21.296875 6.109375 26.703125 6.109375 
Q 34.1875 6.109375 38.703125 11.40625 
Q 43.21875 16.703125 43.21875 25.484375 
L 43.21875 27.484375 
z
M 52.203125 31.203125 
L 52.203125 0 
L 43.21875 0 
L 43.21875 8.296875 
Q 40.140625 3.328125 35.546875 0.953125 
Q 30.953125 -1.421875 24.3125 -1.421875 
Q 15.921875 -1.421875 10.953125 3.296875 
Q 6 8.015625 6 15.921875 
Q 6 25.140625 12.171875 29.828125 
Q 18.359375 34.515625 30.609375 34.515625 
L 43.21875 34.515625 
L 43.21875 35.40625 
Q 43.21875 41.609375 39.140625 45 
Q 35.0625 48.390625 27.6875 48.390625 
Q 23 48.390625 18.546875 47.265625 
Q 14.109375 46.140625 10.015625 43.890625 
L 10.015625 52.203125 
Q 14.9375 54.109375 19.578125 55.046875 
Q 24.21875 56 28.609375 56 
Q 40.484375 56 46.34375 49.84375 
Q 52.203125 43.703125 52.203125 31.203125 
z
" id="DejaVuSans-97"/>
     <path d="M 9.421875 54.6875 
L 18.40625 54.6875 
L 18.40625 0 
L 9.421875 0 
z
M 9.421875 75.984375 
L 18.40625 75.984375 
L 18.40625 64.59375 
L 9.421875 64.59375 
z
" id="DejaVuSans-105"/>
     <path d="M 54.890625 33.015625 
L 54.890625 0 
L 45.90625 0 
L 45.90625 32.71875 
Q 45.90625 40.484375 42.875 44.328125 
Q 39.84375 48.1875 33.796875 48.1875 
Q 26.515625 48.1875 22.3125 43.546875 
Q 18.109375 38.921875 18.109375 30.90625 
L 18.109375 0 
L 9.078125 0 
L 9.078125 54.6875 
L 18.109375 54.6875 
L 18.109375 46.1875 
Q 21.34375 51.125 25.703125 53.5625 
Q 30.078125 56 35.796875 56 
Q 45.21875 56 50.046875 50.171875 
Q 54.890625 44.34375 54.890625 33.015625 
z
" id="DejaVuSans-110"/>
     <path d="M 19.671875 64.796875 
L 19.671875 8.109375 
L 31.59375 8.109375 
Q 46.6875 8.109375 53.6875 14.9375 
Q 60.6875 21.78125 60.6875 36.53125 
Q 60.6875 51.171875 53.6875 57.984375 
Q 46.6875 64.796875 31.59375 64.796875 
z
M 9.8125 72.90625 
L 30.078125 72.90625 
Q 51.265625 72.90625 61.171875 64.09375 
Q 71.09375 55.28125 71.09375 36.53125 
Q 71.09375 17.671875 61.125 8.828125 
Q 51.171875 0 30.078125 0 
L 9.8125 0 
z
" id="DejaVuSans-68"/>
     <path d="M 2.984375 54.6875 
L 12.5 54.6875 
L 29.59375 8.796875 
L 46.6875 54.6875 
L 56.203125 54.6875 
L 35.6875 0 
L 23.484375 0 
z
" id="DejaVuSans-118"/>
     <path d="M 44.28125 53.078125 
L 44.28125 44.578125 
Q 40.484375 46.53125 36.375 47.5 
Q 32.28125 48.484375 27.875 48.484375 
Q 21.1875 48.484375 17.84375 46.4375 
Q 14.5 44.390625 14.5 40.28125 
Q 14.5 37.15625 16.890625 35.375 
Q 19.28125 33.59375 26.515625 31.984375 
L 29.59375 31.296875 
Q 39.15625 29.25 43.1875 25.515625 
Q 47.21875 21.78125 47.21875 15.09375 
Q 47.21875 7.46875 41.1875 3.015625 
Q 35.15625 -1.421875 24.609375 -1.421875 
Q 20.21875 -1.421875 15.453125 -0.5625 
Q 10.6875 0.296875 5.421875 2 
L 5.421875 11.28125 
Q 10.40625 8.6875 15.234375 7.390625 
Q 20.0625 6.109375 24.8125 6.109375 
Q 31.15625 6.109375 34.5625 8.28125 
Q 37.984375 10.453125 37.984375 14.40625 
Q 37.984375 18.0625 35.515625 20.015625 
Q 33.0625 21.96875 24.703125 23.78125 
L 21.578125 24.515625 
Q 13.234375 26.265625 9.515625 29.90625 
Q 5.8125 33.546875 5.8125 39.890625 
Q 5.8125 47.609375 11.28125 51.796875 
Q 16.75 56 26.8125 56 
Q 31.78125 56 36.171875 55.265625 
Q 40.578125 54.546875 44.28125 53.078125 
z
" id="DejaVuSans-115"/>
     <path d="M 9.8125 72.90625 
L 24.515625 72.90625 
L 43.109375 23.296875 
L 61.8125 72.90625 
L 76.515625 72.90625 
L 76.515625 0 
L 66.890625 0 
L 66.890625 64.015625 
L 48.09375 14.015625 
L 38.1875 14.015625 
L 19.390625 64.015625 
L 19.390625 0 
L 9.8125 0 
z
" id="DejaVuSans-77"/>
     <path d="M 64.40625 67.28125 
L 64.40625 56.890625 
Q 59.421875 61.53125 53.78125 63.8125 
Q 48.140625 66.109375 41.796875 66.109375 
Q 29.296875 66.109375 22.65625 58.46875 
Q 16.015625 50.828125 16.015625 36.375 
Q 16.015625 21.96875 22.65625 14.328125 
Q 29.296875 6.6875 41.796875 6.6875 
Q 48.140625 6.6875 53.78125 8.984375 
Q 59.421875 11.28125 64.40625 15.921875 
L 64.40625 5.609375 
Q 59.234375 2.09375 53.4375 0.328125 
Q 47.65625 -1.421875 41.21875 -1.421875 
Q 24.65625 -1.421875 15.125 8.703125 
Q 5.609375 18.84375 5.609375 36.375 
Q 5.609375 53.953125 15.125 64.078125 
Q 24.65625 74.21875 41.21875 74.21875 
Q 47.75 74.21875 53.53125 72.484375 
Q 59.328125 70.75 64.40625 67.28125 
z
" id="DejaVuSans-67"/>
     <path d="M 8.6875 72.90625 
L 18.609375 72.90625 
L 18.609375 28.609375 
Q 18.609375 16.890625 22.84375 11.734375 
Q 27.09375 6.59375 36.625 6.59375 
Q 46.09375 6.59375 50.34375 11.734375 
Q 54.59375 16.890625 54.59375 28.609375 
L 54.59375 72.90625 
L 64.5 72.90625 
L 64.5 27.390625 
Q 64.5 13.140625 57.4375 5.859375 
Q 50.390625 -1.421875 36.625 -1.421875 
Q 22.796875 -1.421875 15.734375 5.859375 
Q 8.6875 13.140625 8.6875 27.390625 
z
" id="DejaVuSans-85"/>
     <path d="M 48.78125 52.59375 
L 48.78125 44.1875 
Q 44.96875 46.296875 41.140625 47.34375 
Q 37.3125 48.390625 33.40625 48.390625 
Q 24.65625 48.390625 19.8125 42.84375 
Q 14.984375 37.3125 14.984375 27.296875 
Q 14.984375 17.28125 19.8125 11.734375 
Q 24.65625 6.203125 33.40625 6.203125 
Q 37.3125 6.203125 41.140625 7.25 
Q 44.96875 8.296875 48.78125 10.40625 
L 48.78125 2.09375 
Q 45.015625 0.34375 40.984375 -0.53125 
Q 36.96875 -1.421875 32.421875 -1.421875 
Q 20.0625 -1.421875 12.78125 6.34375 
Q 5.515625 14.109375 5.515625 27.296875 
Q 5.515625 40.671875 12.859375 48.328125 
Q 20.21875 56 33.015625 56 
Q 37.15625 56 41.109375 55.140625 
Q 45.0625 54.296875 48.78125 52.59375 
z
" id="DejaVuSans-99"/>
     <path d="M 56.203125 29.59375 
L 56.203125 25.203125 
L 14.890625 25.203125 
Q 15.484375 15.921875 20.484375 11.0625 
Q 25.484375 6.203125 34.421875 6.203125 
Q 39.59375 6.203125 44.453125 7.46875 
Q 49.3125 8.734375 54.109375 11.28125 
L 54.109375 2.78125 
Q 49.265625 0.734375 44.1875 -0.34375 
Q 39.109375 -1.421875 33.890625 -1.421875 
Q 20.796875 -1.421875 13.15625 6.1875 
Q 5.515625 13.8125 5.515625 26.8125 
Q 5.515625 40.234375 12.765625 48.109375 
Q 20.015625 56 32.328125 56 
Q 43.359375 56 49.78125 48.890625 
Q 56.203125 41.796875 56.203125 29.59375 
z
M 47.21875 32.234375 
Q 47.125 39.59375 43.09375 43.984375 
Q 39.0625 48.390625 32.421875 48.390625 
Q 24.90625 48.390625 20.390625 44.140625 
Q 15.875 39.890625 15.1875 32.171875 
z
" id="DejaVuSans-101"/>
     <path d="M 32.171875 -5.078125 
Q 28.375 -14.84375 24.75 -17.8125 
Q 21.140625 -20.796875 15.09375 -20.796875 
L 7.90625 -20.796875 
L 7.90625 -13.28125 
L 13.1875 -13.28125 
Q 16.890625 -13.28125 18.9375 -11.515625 
Q 21 -9.765625 23.484375 -3.21875 
L 25.09375 0.875 
L 2.984375 54.6875 
L 12.5 54.6875 
L 29.59375 11.921875 
L 46.6875 54.6875 
L 56.203125 54.6875 
z
" id="DejaVuSans-121"/>
    </defs>
    <g transform="translate(100.906875 28.56)scale(0.12 -0.12)">
     <use xlink:href="#DejaVuSans-80"/>
     <use x="60.302734" xlink:href="#DejaVuSans-108"/>
     <use x="88.085938" xlink:href="#DejaVuSans-111"/>
     <use x="149.267578" xlink:href="#DejaVuSans-116"/>
     <use x="188.476562" xlink:href="#DejaVuSans-32"/>
     <use x="220.263672" xlink:href="#DejaVuSans-111"/>
     <use x="281.445312" xlink:href="#DejaVuSans-102"/>
     <use x="316.650391" xlink:href="#DejaVuSans-32"/>
     <use x="348.4375" xlink:href="#DejaVuSans-84"/>
     <use x="409.302734" xlink:href="#DejaVuSans-114"/>
     <use x="450.416016" xlink:href="#DejaVuSans-97"/>
     <use x="511.695312" xlink:href="#DejaVuSans-105"/>
     <use x="539.478516" xlink:href="#DejaVuSans-110"/>
     <use x="602.857422" xlink:href="#DejaVuSans-32"/>
     <use x="634.644531" xlink:href="#DejaVuSans-68"/>
     <use x="711.646484" xlink:href="#DejaVuSans-97"/>
     <use x="772.925781" xlink:href="#DejaVuSans-116"/>
     <use x="812.134766" xlink:href="#DejaVuSans-97"/>
     <use x="873.414062" xlink:href="#DejaVuSans-32"/>
     <use x="905.201172" xlink:href="#DejaVuSans-118"/>
     <use x="964.380859" xlink:href="#DejaVuSans-115"/>
     <use x="1016.480469" xlink:href="#DejaVuSans-32"/>
     <use x="1048.267578" xlink:href="#DejaVuSans-77"/>
     <use x="1134.546875" xlink:href="#DejaVuSans-67"/>
     <use x="1204.371094" xlink:href="#DejaVuSans-77"/>
     <use x="1290.650391" xlink:href="#DejaVuSans-67"/>
     <use x="1360.474609" xlink:href="#DejaVuSans-32"/>
     <use x="1392.261719" xlink:href="#DejaVuSans-85"/>
     <use x="1465.455078" xlink:href="#DejaVuSans-110"/>
     <use x="1528.833984" xlink:href="#DejaVuSans-99"/>
     <use x="1583.814453" xlink:href="#DejaVuSans-101"/>
     <use x="1645.337891" xlink:href="#DejaVuSans-114"/>
     <use x="1686.451172" xlink:href="#DejaVuSans-116"/>
     <use x="1725.660156" xlink:href="#DejaVuSans-97"/>
     <use x="1786.939453" xlink:href="#DejaVuSans-105"/>
     <use x="1814.722656" xlink:href="#DejaVuSans-110"/>
     <use x="1878.101562" xlink:href="#DejaVuSans-116"/>
     <use x="1917.310547" xlink:href="#DejaVuSans-121"/>
     <use x="1976.490234" xlink:href="#DejaVuSans-32"/>
    </g>
   </g>
   <g id="legend_1">
    <g id="patch_7">
     <path d="M 251.923438 101.2725 
L 381.8 101.2725 
Q 383.8 101.2725 383.8 99.2725 
L 383.8 41.56 
Q 383.8 39.56 381.8 39.56 
L 251.923438 39.56 
Q 249.923438 39.56 249.923438 41.56 
L 249.923438 99.2725 
Q 249.923438 101.2725 251.923438 101.2725 
z
" style="fill:#ffffff;opacity:0.8;stroke:#cccccc;stroke-linejoin:miter;"/>
    </g>
    <g id="line2d_19">
     <path d="M 253.923438 47.658437 
L 273.923437 47.658437 
" style="fill:none;stroke:#1f77b4;stroke-linecap:square;stroke-width:1.5;"/>
    </g>
    <g id="line2d_20"/>
    <g id="text_16">
     <!-- actual -->
     <defs>
      <path d="M 8.5 21.578125 
L 8.5 54.6875 
L 17.484375 54.6875 
L 17.484375 21.921875 
Q 17.484375 14.15625 20.5 10.265625 
Q 23.53125 6.390625 29.59375 6.390625 
Q 36.859375 6.390625 41.078125 11.03125 
Q 45.3125 15.671875 45.3125 23.6875 
L 45.3125 54.6875 
L 54.296875 54.6875 
L 54.296875 0 
L 45.3125 0 
L 45.3125 8.40625 
Q 42.046875 3.421875 37.71875 1 
Q 33.40625 -1.421875 27.6875 -1.421875 
Q 18.265625 -1.421875 13.375 4.4375 
Q 8.5 10.296875 8.5 21.578125 
z
M 31.109375 56 
z
" id="DejaVuSans-117"/>
     </defs>
     <g transform="translate(281.923437 51.158437)scale(0.1 -0.1)">
      <use xlink:href="#DejaVuSans-97"/>
      <use x="61.279297" xlink:href="#DejaVuSans-99"/>
      <use x="116.259766" xlink:href="#DejaVuSans-116"/>
      <use x="155.46875" xlink:href="#DejaVuSans-117"/>
      <use x="218.847656" xlink:href="#DejaVuSans-97"/>
      <use x="280.126953" xlink:href="#DejaVuSans-108"/>
     </g>
    </g>
    <g id="line2d_21">
     <path d="M 253.923438 62.336562 
L 273.923437 62.336562 
" style="fill:none;stroke:#ff7f0e;stroke-linecap:square;stroke-width:1.5;"/>
    </g>
    <g id="line2d_22"/>
    <g id="text_17">
     <!-- pred. (mean) -->
     <defs>
      <path d="M 18.109375 8.203125 
L 18.109375 -20.796875 
L 9.078125 -20.796875 
L 9.078125 54.6875 
L 18.109375 54.6875 
L 18.109375 46.390625 
Q 20.953125 51.265625 25.265625 53.625 
Q 29.59375 56 35.59375 56 
Q 45.5625 56 51.78125 48.09375 
Q 58.015625 40.1875 58.015625 27.296875 
Q 58.015625 14.40625 51.78125 6.484375 
Q 45.5625 -1.421875 35.59375 -1.421875 
Q 29.59375 -1.421875 25.265625 0.953125 
Q 20.953125 3.328125 18.109375 8.203125 
z
M 48.6875 27.296875 
Q 48.6875 37.203125 44.609375 42.84375 
Q 40.53125 48.484375 33.40625 48.484375 
Q 26.265625 48.484375 22.1875 42.84375 
Q 18.109375 37.203125 18.109375 27.296875 
Q 18.109375 17.390625 22.1875 11.75 
Q 26.265625 6.109375 33.40625 6.109375 
Q 40.53125 6.109375 44.609375 11.75 
Q 48.6875 17.390625 48.6875 27.296875 
z
" id="DejaVuSans-112"/>
      <path d="M 45.40625 46.390625 
L 45.40625 75.984375 
L 54.390625 75.984375 
L 54.390625 0 
L 45.40625 0 
L 45.40625 8.203125 
Q 42.578125 3.328125 38.25 0.953125 
Q 33.9375 -1.421875 27.875 -1.421875 
Q 17.96875 -1.421875 11.734375 6.484375 
Q 5.515625 14.40625 5.515625 27.296875 
Q 5.515625 40.1875 11.734375 48.09375 
Q 17.96875 56 27.875 56 
Q 33.9375 56 38.25 53.625 
Q 42.578125 51.265625 45.40625 46.390625 
z
M 14.796875 27.296875 
Q 14.796875 17.390625 18.875 11.75 
Q 22.953125 6.109375 30.078125 6.109375 
Q 37.203125 6.109375 41.296875 11.75 
Q 45.40625 17.390625 45.40625 27.296875 
Q 45.40625 37.203125 41.296875 42.84375 
Q 37.203125 48.484375 30.078125 48.484375 
Q 22.953125 48.484375 18.875 42.84375 
Q 14.796875 37.203125 14.796875 27.296875 
z
" id="DejaVuSans-100"/>
      <path d="M 31 75.875 
Q 24.46875 64.65625 21.28125 53.65625 
Q 18.109375 42.671875 18.109375 31.390625 
Q 18.109375 20.125 21.3125 9.0625 
Q 24.515625 -2 31 -13.1875 
L 23.1875 -13.1875 
Q 15.875 -1.703125 12.234375 9.375 
Q 8.59375 20.453125 8.59375 31.390625 
Q 8.59375 42.28125 12.203125 53.3125 
Q 15.828125 64.359375 23.1875 75.875 
z
" id="DejaVuSans-40"/>
      <path d="M 52 44.1875 
Q 55.375 50.25 60.0625 53.125 
Q 64.75 56 71.09375 56 
Q 79.640625 56 84.28125 50.015625 
Q 88.921875 44.046875 88.921875 33.015625 
L 88.921875 0 
L 79.890625 0 
L 79.890625 32.71875 
Q 79.890625 40.578125 77.09375 44.375 
Q 74.3125 48.1875 68.609375 48.1875 
Q 61.625 48.1875 57.5625 43.546875 
Q 53.515625 38.921875 53.515625 30.90625 
L 53.515625 0 
L 44.484375 0 
L 44.484375 32.71875 
Q 44.484375 40.625 41.703125 44.40625 
Q 38.921875 48.1875 33.109375 48.1875 
Q 26.21875 48.1875 22.15625 43.53125 
Q 18.109375 38.875 18.109375 30.90625 
L 18.109375 0 
L 9.078125 0 
L 9.078125 54.6875 
L 18.109375 54.6875 
L 18.109375 46.1875 
Q 21.1875 51.21875 25.484375 53.609375 
Q 29.78125 56 35.6875 56 
Q 41.65625 56 45.828125 52.96875 
Q 50 49.953125 52 44.1875 
z
" id="DejaVuSans-109"/>
      <path d="M 8.015625 75.875 
L 15.828125 75.875 
Q 23.140625 64.359375 26.78125 53.3125 
Q 30.421875 42.28125 30.421875 31.390625 
Q 30.421875 20.453125 26.78125 9.375 
Q 23.140625 -1.703125 15.828125 -13.1875 
L 8.015625 -13.1875 
Q 14.5 -2 17.703125 9.0625 
Q 20.90625 20.125 20.90625 31.390625 
Q 20.90625 42.671875 17.703125 53.65625 
Q 14.5 64.65625 8.015625 75.875 
z
" id="DejaVuSans-41"/>
     </defs>
     <g transform="translate(281.923437 65.836562)scale(0.1 -0.1)">
      <use xlink:href="#DejaVuSans-112"/>
      <use x="63.476562" xlink:href="#DejaVuSans-114"/>
      <use x="104.558594" xlink:href="#DejaVuSans-101"/>
      <use x="166.082031" xlink:href="#DejaVuSans-100"/>
      <use x="229.558594" xlink:href="#DejaVuSans-46"/>
      <use x="261.345703" xlink:href="#DejaVuSans-32"/>
      <use x="293.132812" xlink:href="#DejaVuSans-40"/>
      <use x="332.146484" xlink:href="#DejaVuSans-109"/>
      <use x="429.558594" xlink:href="#DejaVuSans-101"/>
      <use x="491.082031" xlink:href="#DejaVuSans-97"/>
      <use x="552.361328" xlink:href="#DejaVuSans-110"/>
      <use x="615.740234" xlink:href="#DejaVuSans-41"/>
     </g>
    </g>
    <g id="line2d_23">
     <path d="M 253.923438 77.014687 
L 273.923437 77.014687 
" style="fill:none;stroke:#2ca02c;stroke-linecap:square;stroke-width:1.5;"/>
    </g>
    <g id="line2d_24"/>
    <g id="text_18">
     <!-- pred.(5th percen.) -->
     <defs>
      <path d="M 54.890625 33.015625 
L 54.890625 0 
L 45.90625 0 
L 45.90625 32.71875 
Q 45.90625 40.484375 42.875 44.328125 
Q 39.84375 48.1875 33.796875 48.1875 
Q 26.515625 48.1875 22.3125 43.546875 
Q 18.109375 38.921875 18.109375 30.90625 
L 18.109375 0 
L 9.078125 0 
L 9.078125 75.984375 
L 18.109375 75.984375 
L 18.109375 46.1875 
Q 21.34375 51.125 25.703125 53.5625 
Q 30.078125 56 35.796875 56 
Q 45.21875 56 50.046875 50.171875 
Q 54.890625 44.34375 54.890625 33.015625 
z
" id="DejaVuSans-104"/>
     </defs>
     <g transform="translate(281.923437 80.514687)scale(0.1 -0.1)">
      <use xlink:href="#DejaVuSans-112"/>
      <use x="63.476562" xlink:href="#DejaVuSans-114"/>
      <use x="104.558594" xlink:href="#DejaVuSans-101"/>
      <use x="166.082031" xlink:href="#DejaVuSans-100"/>
      <use x="229.558594" xlink:href="#DejaVuSans-46"/>
      <use x="261.345703" xlink:href="#DejaVuSans-40"/>
      <use x="300.359375" xlink:href="#DejaVuSans-53"/>
      <use x="363.982422" xlink:href="#DejaVuSans-116"/>
      <use x="403.191406" xlink:href="#DejaVuSans-104"/>
      <use x="466.570312" xlink:href="#DejaVuSans-32"/>
      <use x="498.357422" xlink:href="#DejaVuSans-112"/>
      <use x="561.833984" xlink:href="#DejaVuSans-101"/>
      <use x="623.357422" xlink:href="#DejaVuSans-114"/>
      <use x="664.439453" xlink:href="#DejaVuSans-99"/>
      <use x="719.419922" xlink:href="#DejaVuSans-101"/>
      <use x="780.943359" xlink:href="#DejaVuSans-110"/>
      <use x="844.322266" xlink:href="#DejaVuSans-46"/>
      <use x="876.109375" xlink:href="#DejaVuSans-41"/>
     </g>
    </g>
    <g id="line2d_25">
     <path d="M 253.923438 91.692813 
L 273.923437 91.692813 
" style="fill:none;stroke:#d62728;stroke-linecap:square;stroke-width:1.5;"/>
    </g>
    <g id="line2d_26"/>
    <g id="text_19">
     <!-- pred.(95th percen.) -->
     <defs>
      <path d="M 10.984375 1.515625 
L 10.984375 10.5 
Q 14.703125 8.734375 18.5 7.8125 
Q 22.3125 6.890625 25.984375 6.890625 
Q 35.75 6.890625 40.890625 13.453125 
Q 46.046875 20.015625 46.78125 33.40625 
Q 43.953125 29.203125 39.59375 26.953125 
Q 35.25 24.703125 29.984375 24.703125 
Q 19.046875 24.703125 12.671875 31.3125 
Q 6.296875 37.9375 6.296875 49.421875 
Q 6.296875 60.640625 12.9375 67.421875 
Q 19.578125 74.21875 30.609375 74.21875 
Q 43.265625 74.21875 49.921875 64.515625 
Q 56.59375 54.828125 56.59375 36.375 
Q 56.59375 19.140625 48.40625 8.859375 
Q 40.234375 -1.421875 26.421875 -1.421875 
Q 22.703125 -1.421875 18.890625 -0.6875 
Q 15.09375 0.046875 10.984375 1.515625 
z
M 30.609375 32.421875 
Q 37.25 32.421875 41.125 36.953125 
Q 45.015625 41.5 45.015625 49.421875 
Q 45.015625 57.28125 41.125 61.84375 
Q 37.25 66.40625 30.609375 66.40625 
Q 23.96875 66.40625 20.09375 61.84375 
Q 16.21875 57.28125 16.21875 49.421875 
Q 16.21875 41.5 20.09375 36.953125 
Q 23.96875 32.421875 30.609375 32.421875 
z
" id="DejaVuSans-57"/>
     </defs>
     <g transform="translate(281.923437 95.192813)scale(0.1 -0.1)">
      <use xlink:href="#DejaVuSans-112"/>
      <use x="63.476562" xlink:href="#DejaVuSans-114"/>
      <use x="104.558594" xlink:href="#DejaVuSans-101"/>
      <use x="166.082031" xlink:href="#DejaVuSans-100"/>
      <use x="229.558594" xlink:href="#DejaVuSans-46"/>
      <use x="261.345703" xlink:href="#DejaVuSans-40"/>
      <use x="300.359375" xlink:href="#DejaVuSans-57"/>
      <use x="363.982422" xlink:href="#DejaVuSans-53"/>
      <use x="427.605469" xlink:href="#DejaVuSans-116"/>
      <use x="466.814453" xlink:href="#DejaVuSans-104"/>
      <use x="530.193359" xlink:href="#DejaVuSans-32"/>
      <use x="561.980469" xlink:href="#DejaVuSans-112"/>
      <use x="625.457031" xlink:href="#DejaVuSans-101"/>
      <use x="686.980469" xlink:href="#DejaVuSans-114"/>
      <use x="728.0625" xlink:href="#DejaVuSans-99"/>
      <use x="783.042969" xlink:href="#DejaVuSans-101"/>
      <use x="844.566406" xlink:href="#DejaVuSans-110"/>
      <use x="907.945312" xlink:href="#DejaVuSans-46"/>
      <use x="939.732422" xlink:href="#DejaVuSans-41"/>
     </g>
    </g>
   </g>
  </g>
 </g>
 <defs>
  <clipPath id="p1beec873b8">
   <rect height="217.44" width="334.8" x="54" y="34.56"/>
  </clipPath>
 </defs>
</svg>
