<?xml version="1.0" encoding="utf-8" standalone="no"?>
<!DOCTYPE svg PUBLIC "-//W3C//DTD SVG 1.1//EN"
  "http://www.w3.org/Graphics/SVG/1.1/DTD/svg11.dtd">
<!-- Created with matplotlib (https://matplotlib.org/) -->
<svg height="345.6pt" version="1.1" viewBox="0 0 460.8 345.6" width="460.8pt" xmlns="http://www.w3.org/2000/svg" xmlns:xlink="http://www.w3.org/1999/xlink">
 <defs>
  <style type="text/css">
*{stroke-linecap:butt;stroke-linejoin:round;}
  </style>
 </defs>
 <g id="figure_1">
  <g id="patch_1">
   <path d="M 0 345.6 
L 460.8 345.6 
L 460.8 0 
L 0 0 
z
" style="fill:#ffffff;"/>
  </g>
  <g id="axes_1">
   <g id="patch_2">
    <path d="M 57.6 307.584 
L 414.72 307.584 
L 414.72 41.472 
L 57.6 41.472 
z
" style="fill:#ffffff;"/>
   </g>
   <g id="PolyCollection_1">
    <path clip-path="url(#pcb29543740)" d="M 73.832727 158.090115 
L 73.832727 218.169753 
L 75.196822 151.104103 
L 76.560917 152.11838 
L 77.925011 205.027541 
L 79.289106 201.809758 
L 80.653201 200.643428 
L 82.017296 157.410198 
L 83.38139 150.504711 
L 84.745485 150.443422 
L 86.10958 150.227764 
L 87.473675 217.103724 
L 88.837769 263.511788 
L 90.201864 250.38564 
L 91.565959 150.927073 
L 92.930053 151.662481 
L 94.294148 150.850266 
L 95.658243 152.113161 
L 97.022338 153.478166 
L 98.386432 150.587201 
L 99.750527 181.168749 
L 101.114622 156.966061 
L 102.478717 200.90165 
L 103.842811 286.489513 
L 105.206906 151.780091 
L 106.571001 151.002269 
L 107.935095 210.221634 
L 109.29919 264.827077 
L 110.663285 149.882675 
L 112.02738 268.546308 
L 113.391474 262.683206 
L 114.755569 276.708039 
L 116.119664 224.411284 
L 117.483759 285.996665 
L 118.847853 151.29627 
L 120.211948 152.833948 
L 121.576043 159.938943 
L 122.940138 152.435557 
L 124.304232 151.741244 
L 125.668327 150.724625 
L 127.032422 154.025471 
L 128.396516 237.030338 
L 129.760611 149.750257 
L 131.124706 155.408605 
L 132.488801 155.251966 
L 133.852895 173.725938 
L 135.21699 277.617852 
L 136.581085 150.851258 
L 137.94518 150.556482 
L 139.309274 197.712659 
L 140.673369 213.331302 
L 142.037464 150.962292 
L 143.401558 179.828957 
L 144.765653 272.685255 
L 146.129748 152.155258 
L 147.493843 152.130957 
L 148.857937 150.860315 
L 150.222032 150.941191 
L 151.586127 151.060741 
L 152.950222 216.415094 
L 154.314316 153.641335 
L 155.678411 149.938499 
L 157.042506 150.845766 
L 158.4066 149.889329 
L 159.770695 149.874433 
L 161.13479 246.425995 
L 162.498885 151.907805 
L 163.862979 153.711714 
L 165.227074 152.982892 
L 166.591169 151.743003 
L 167.955264 220.655718 
L 169.319358 272.124149 
L 170.683453 152.957202 
L 172.047548 150.145999 
L 173.411642 151.301849 
L 174.775737 150.509023 
L 176.139832 151.388677 
L 177.503927 150.397813 
L 178.868021 151.424635 
L 180.232116 222.088791 
L 181.596211 152.961864 
L 182.960306 163.959357 
L 184.3244 152.604296 
L 185.688495 151.00592 
L 187.05259 152.260343 
L 188.416684 150.831656 
L 189.780779 175.831625 
L 191.144874 151.078437 
L 192.508969 153.442708 
L 193.873063 160.716794 
L 195.237158 195.22902 
L 196.601253 153.68682 
L 197.965348 150.932546 
L 199.329442 280.087532 
L 200.693537 151.075462 
L 202.057632 159.212991 
L 203.421727 242.539315 
L 204.785821 154.142922 
L 206.149916 179.425092 
L 207.514011 152.041936 
L 208.878105 209.380095 
L 210.2422 244.809534 
L 211.606295 157.183515 
L 212.97039 153.897911 
L 214.334484 179.7847 
L 215.698579 151.699508 
L 217.062674 151.232756 
L 218.426769 151.670421 
L 219.790863 150.77487 
L 221.154958 150.682733 
L 222.519053 197.856891 
L 223.883147 152.379253 
L 225.247242 236.27827 
L 226.611337 150.901636 
L 227.975432 226.07802 
L 229.339526 150.03283 
L 230.703621 224.291593 
L 232.067716 154.575514 
L 233.431811 222.275736 
L 234.795905 150.954207 
L 236.16 181.190181 
L 237.524095 164.548034 
L 238.888189 157.771502 
L 240.252284 153.553682 
L 241.616379 151.029377 
L 242.980474 190.054892 
L 244.344568 206.914381 
L 245.708663 225.826853 
L 247.072758 149.718414 
L 248.436853 242.573897 
L 249.800947 210.759911 
L 251.165042 151.865669 
L 252.529137 242.584213 
L 253.893231 165.020605 
L 255.257326 272.65845 
L 256.621421 169.484231 
L 257.985516 237.163703 
L 259.34961 188.320543 
L 260.713705 152.056816 
L 262.0778 227.013527 
L 263.441895 174.739396 
L 264.805989 151.324741 
L 266.170084 186.311552 
L 267.534179 255.261055 
L 268.898273 196.467026 
L 270.262368 223.402708 
L 271.626463 155.071078 
L 272.990558 149.532632 
L 274.354652 149.618098 
L 275.718747 232.276399 
L 277.082842 203.340383 
L 278.446937 150.310867 
L 279.811031 149.469649 
L 281.175126 150.702444 
L 282.539221 260.361981 
L 283.903316 150.93901 
L 285.26741 245.688065 
L 286.631505 204.864641 
L 287.9956 215.690482 
L 289.359694 151.14853 
L 290.723789 174.946458 
L 292.087884 210.264315 
L 293.451979 150.218632 
L 294.816073 200.052826 
L 296.180168 277.179845 
L 297.544263 149.55109 
L 298.908358 151.029012 
L 300.272452 149.716127 
L 301.636547 193.270236 
L 303.000642 222.086103 
L 304.364736 152.412756 
L 305.728831 222.510524 
L 307.092926 171.942543 
L 308.457021 222.412303 
L 309.821115 238.390916 
L 311.18521 250.044122 
L 312.549305 152.770896 
L 313.9134 223.350708 
L 315.277494 152.95463 
L 316.641589 259.99978 
L 318.005684 152.630019 
L 319.369778 149.689423 
L 320.733873 151.996435 
L 322.097968 154.091676 
L 323.462063 256.907703 
L 324.826157 150.935558 
L 326.190252 149.80248 
L 327.554347 153.659984 
L 328.918442 219.221557 
L 330.282536 215.790723 
L 331.646631 150.461901 
L 333.010726 269.265724 
L 334.37482 267.375547 
L 335.738915 153.376999 
L 337.10301 156.061311 
L 338.467105 151.11173 
L 339.831199 226.744645 
L 341.195294 151.284607 
L 342.559389 224.044888 
L 343.923484 149.686554 
L 345.287578 151.409338 
L 346.651673 150.965915 
L 348.015768 193.082204 
L 349.379862 152.350345 
L 350.743957 236.533917 
L 352.108052 178.174063 
L 353.472147 229.15571 
L 354.836241 150.81724 
L 356.200336 149.792985 
L 357.564431 198.389658 
L 358.928526 283.161561 
L 360.29262 150.619559 
L 361.656715 150.454649 
L 363.02081 151.091235 
L 364.384905 151.628093 
L 365.748999 207.558919 
L 367.113094 151.151506 
L 368.477189 265.935647 
L 369.841283 149.513435 
L 371.205378 184.659905 
L 372.569473 150.98306 
L 373.933568 149.540479 
L 375.297662 150.840961 
L 376.661757 151.555605 
L 378.025852 151.357593 
L 379.389947 151.27934 
L 380.754041 237.084627 
L 382.118136 152.661596 
L 383.482231 252.828472 
L 384.846325 196.76205 
L 386.21042 152.36206 
L 387.574515 151.542717 
L 388.93861 233.117499 
L 390.302704 150.890465 
L 391.666799 150.18591 
L 393.030894 244.64486 
L 394.394989 152.119372 
L 395.759083 154.290327 
L 397.123178 246.625231 
L 398.487273 229.899286 
L 398.487273 158.398962 
L 398.487273 158.398962 
L 397.123178 158.467851 
L 395.759083 140.186334 
L 394.394989 118.501659 
L 393.030894 158.712368 
L 391.666799 79.748841 
L 390.302704 97.164113 
L 388.93861 158.509063 
L 387.574515 112.416987 
L 386.21042 122.243997 
L 384.846325 155.78445 
L 383.482231 159.234115 
L 382.118136 111.877453 
L 380.754041 158.163188 
L 379.389947 98.947892 
L 378.025852 95.000688 
L 376.661757 112.30113 
L 375.297662 86.482257 
L 373.933568 55.900194 
L 372.569473 99.874301 
L 371.205378 154.664753 
L 369.841283 60.428943 
L 368.477189 159.468233 
L 367.113094 103.729499 
L 365.748999 157.496615 
L 364.384905 114.467454 
L 363.02081 102.051135 
L 361.656715 88.536707 
L 360.29262 89.210807 
L 358.928526 160.01115 
L 357.564431 155.053269 
L 356.200336 69.655412 
L 354.836241 94.696816 
L 353.472147 158.145031 
L 352.108052 150.051517 
L 350.743957 158.562555 
L 349.379862 127.833013 
L 348.015768 156.427803 
L 346.651673 99.904333 
L 345.287578 99.296133 
L 343.923484 63.196351 
L 342.559389 158.210378 
L 341.195294 97.00375 
L 339.831199 158.40146 
L 338.467105 94.540037 
L 337.10301 150.036076 
L 335.738915 133.764189 
L 334.37482 159.60133 
L 333.010726 159.57754 
L 331.646631 85.864102 
L 330.282536 157.403024 
L 328.918442 157.316076 
L 327.554347 142.40376 
L 326.190252 65.267009 
L 324.826157 93.324551 
L 323.462063 159.254907 
L 322.097968 145.704978 
L 320.733873 121.752208 
L 319.369778 67.554054 
L 318.005684 123.640517 
L 316.641589 159.067762 
L 315.277494 121.009081 
L 313.9134 158.218577 
L 312.549305 131.25127 
L 311.18521 159.158114 
L 309.821115 158.277956 
L 308.457021 157.480155 
L 307.092926 146.534875 
L 305.728831 157.055651 
L 304.364736 122.388858 
L 303.000642 158.25719 
L 301.636547 155.265503 
L 300.272452 65.64559 
L 298.908358 101.372245 
L 297.544263 61.76444 
L 296.180168 159.670261 
L 294.816073 157.10967 
L 293.451979 78.261976 
L 292.087884 157.637968 
L 290.723789 147.688637 
L 289.359694 104.089985 
L 287.9956 157.581526 
L 286.631505 156.538532 
L 285.26741 158.495048 
L 283.903316 98.028743 
L 282.539221 159.347752 
L 281.175126 90.988692 
L 279.811031 54.127267 
L 278.446937 80.483579 
L 277.082842 156.058035 
L 275.718747 158.51412 
L 274.354652 59.414737 
L 272.990558 59.263412 
L 271.626463 143.464431 
L 270.262368 157.425612 
L 268.898273 154.646562 
L 267.534179 158.840468 
L 266.170084 155.124988 
L 264.805989 106.44239 
L 263.441895 144.004406 
L 262.0778 158.083071 
L 260.713705 121.682971 
L 259.34961 155.272698 
L 257.985516 158.599141 
L 256.621421 141.978806 
L 255.257326 159.631471 
L 253.893231 137.212623 
L 252.529137 158.426944 
L 251.165042 117.399043 
L 249.800947 157.789368 
L 248.436853 158.876411 
L 247.072758 66.759804 
L 245.708663 157.623763 
L 244.344568 156.615466 
L 242.980474 154.790944 
L 241.616379 99.987261 
L 240.252284 136.74955 
L 238.888189 129.437452 
L 237.524095 138.844254 
L 236.16 154.568254 
L 234.795905 95.928434 
L 233.431811 158.162364 
L 232.067716 124.782628 
L 230.703621 157.241788 
L 229.339526 72.499211 
L 227.975432 158.071023 
L 226.611337 97.271963 
L 225.247242 158.585654 
L 223.883147 127.544205 
L 222.519053 156.93416 
L 221.154958 91.108173 
L 219.790863 94.232848 
L 218.426769 98.940446 
L 217.062674 105.209528 
L 215.698579 115.303901 
L 214.334484 153.568571 
L 212.97039 122.622692 
L 211.606295 145.296717 
L 210.2422 158.698048 
L 208.878105 156.764016 
L 207.514011 122.391822 
L 206.149916 149.607818 
L 204.785821 145.877536 
L 203.421727 158.911741 
L 202.057632 132.914432 
L 200.693537 101.64489 
L 199.329442 159.872124 
L 197.965348 96.915616 
L 196.601253 142.525835 
L 195.237158 156.539412 
L 193.873063 142.387343 
L 192.508969 139.930438 
L 191.144874 101.28269 
L 189.780779 146.156848 
L 188.416684 90.871155 
L 187.05259 125.34865 
L 185.688495 89.694569 
L 184.3244 129.948939 
L 182.960306 150.526194 
L 181.596211 126.770389 
L 180.232116 157.850813 
L 178.868021 97.976058 
L 177.503927 80.002563 
L 176.139832 109.858984 
L 174.775737 90.413861 
L 173.411642 96.487362 
L 172.047548 76.711233 
L 170.683453 118.61737 
L 169.319358 159.575998 
L 167.955264 158.251818 
L 166.591169 109.232497 
L 165.227074 115.059121 
L 163.862979 143.357093 
L 162.498885 120.287367 
L 161.13479 159.090344 
L 159.770695 67.915473 
L 158.4066 68.05387 
L 157.042506 89.481653 
L 155.678411 73.034359 
L 154.314316 127.640576 
L 152.950222 157.912348 
L 151.586127 100.971659 
L 150.222032 97.393409 
L 148.857937 88.053136 
L 147.493843 107.682307 
L 146.129748 107.316559 
L 144.765653 159.810199 
L 143.401558 149.29937 
L 142.037464 100.169481 
L 140.673369 157.844134 
L 139.309274 155.466765 
L 137.94518 88.354962 
L 136.581085 96.11494 
L 135.21699 159.819985 
L 133.852895 144.501763 
L 132.488801 135.692426 
L 131.124706 148.434015 
L 129.760611 65.216821 
L 128.396516 158.57366 
L 127.032422 139.826192 
L 125.668327 92.023525 
L 124.304232 116.614576 
L 122.940138 110.983248 
L 121.576043 135.503422 
L 120.211948 132.026919 
L 118.847853 108.673054 
L 117.483759 160.036751 
L 116.119664 157.353827 
L 114.755569 159.670791 
L 113.391474 159.183279 
L 112.02738 159.55261 
L 110.663285 68.13941 
L 109.29919 159.320931 
L 107.935095 156.905119 
L 106.571001 95.595731 
L 105.206906 116.44846 
L 103.842811 160.206518 
L 102.478717 155.628742 
L 101.114622 149.453708 
L 99.750527 155.602558 
L 98.386432 89.016471 
L 97.022338 128.319557 
L 95.658243 122.109877 
L 94.294148 95.80102 
L 92.930053 101.93962 
L 91.565959 96.648851 
L 90.201864 159.088315 
L 88.837769 159.305665 
L 87.473675 157.521084 
L 86.10958 79.018185 
L 84.745485 79.514073 
L 83.38139 82.180919 
L 82.017296 149.459371 
L 80.653201 156.024128 
L 79.289106 157.210859 
L 77.925011 156.292027 
L 76.560917 107.328839 
L 75.196822 102.358323 
L 73.832727 158.090115 
z
" style="fill:#008000;fill-opacity:0.4;"/>
   </g>
   <g id="matplotlib.axis_1">
    <g id="xtick_1">
     <g id="line2d_1">
      <defs>
       <path d="M 0 0 
L 0 3.5 
" id="m2674808438" style="stroke:#000000;stroke-width:0.8;"/>
      </defs>
      <g>
       <use style="stroke:#000000;stroke-width:0.8;" x="73.832727" xlink:href="#m2674808438" y="307.584"/>
      </g>
     </g>
     <g id="text_1">
      <!-- 0.0 -->
      <defs>
       <path d="M 31.78125 66.40625 
Q 24.171875 66.40625 20.328125 58.90625 
Q 16.5 51.421875 16.5 36.375 
Q 16.5 21.390625 20.328125 13.890625 
Q 24.171875 6.390625 31.78125 6.390625 
Q 39.453125 6.390625 43.28125 13.890625 
Q 47.125 21.390625 47.125 36.375 
Q 47.125 51.421875 43.28125 58.90625 
Q 39.453125 66.40625 31.78125 66.40625 
z
M 31.78125 74.21875 
Q 44.046875 74.21875 50.515625 64.515625 
Q 56.984375 54.828125 56.984375 36.375 
Q 56.984375 17.96875 50.515625 8.265625 
Q 44.046875 -1.421875 31.78125 -1.421875 
Q 19.53125 -1.421875 13.0625 8.265625 
Q 6.59375 17.96875 6.59375 36.375 
Q 6.59375 54.828125 13.0625 64.515625 
Q 19.53125 74.21875 31.78125 74.21875 
z
" id="DejaVuSans-48"/>
       <path d="M 10.6875 12.40625 
L 21 12.40625 
L 21 0 
L 10.6875 0 
z
" id="DejaVuSans-46"/>
      </defs>
      <g transform="translate(65.881165 322.182437)scale(0.1 -0.1)">
       <use xlink:href="#DejaVuSans-48"/>
       <use x="63.623047" xlink:href="#DejaVuSans-46"/>
       <use x="95.410156" xlink:href="#DejaVuSans-48"/>
      </g>
     </g>
    </g>
    <g id="xtick_2">
     <g id="line2d_2">
      <g>
       <use style="stroke:#000000;stroke-width:0.8;" x="138.763636" xlink:href="#m2674808438" y="307.584"/>
      </g>
     </g>
     <g id="text_2">
      <!-- 0.2 -->
      <defs>
       <path d="M 19.1875 8.296875 
L 53.609375 8.296875 
L 53.609375 0 
L 7.328125 0 
L 7.328125 8.296875 
Q 12.9375 14.109375 22.625 23.890625 
Q 32.328125 33.6875 34.8125 36.53125 
Q 39.546875 41.84375 41.421875 45.53125 
Q 43.3125 49.21875 43.3125 52.78125 
Q 43.3125 58.59375 39.234375 62.25 
Q 35.15625 65.921875 28.609375 65.921875 
Q 23.96875 65.921875 18.8125 64.3125 
Q 13.671875 62.703125 7.8125 59.421875 
L 7.8125 69.390625 
Q 13.765625 71.78125 18.9375 73 
Q 24.125 74.21875 28.421875 74.21875 
Q 39.75 74.21875 46.484375 68.546875 
Q 53.21875 62.890625 53.21875 53.421875 
Q 53.21875 48.921875 51.53125 44.890625 
Q 49.859375 40.875 45.40625 35.40625 
Q 44.1875 33.984375 37.640625 27.21875 
Q 31.109375 20.453125 19.1875 8.296875 
z
" id="DejaVuSans-50"/>
      </defs>
      <g transform="translate(130.812074 322.182437)scale(0.1 -0.1)">
       <use xlink:href="#DejaVuSans-48"/>
       <use x="63.623047" xlink:href="#DejaVuSans-46"/>
       <use x="95.410156" xlink:href="#DejaVuSans-50"/>
      </g>
     </g>
    </g>
    <g id="xtick_3">
     <g id="line2d_3">
      <g>
       <use style="stroke:#000000;stroke-width:0.8;" x="203.694545" xlink:href="#m2674808438" y="307.584"/>
      </g>
     </g>
     <g id="text_3">
      <!-- 0.4 -->
      <defs>
       <path d="M 37.796875 64.3125 
L 12.890625 25.390625 
L 37.796875 25.390625 
z
M 35.203125 72.90625 
L 47.609375 72.90625 
L 47.609375 25.390625 
L 58.015625 25.390625 
L 58.015625 17.1875 
L 47.609375 17.1875 
L 47.609375 0 
L 37.796875 0 
L 37.796875 17.1875 
L 4.890625 17.1875 
L 4.890625 26.703125 
z
" id="DejaVuSans-52"/>
      </defs>
      <g transform="translate(195.742983 322.182437)scale(0.1 -0.1)">
       <use xlink:href="#DejaVuSans-48"/>
       <use x="63.623047" xlink:href="#DejaVuSans-46"/>
       <use x="95.410156" xlink:href="#DejaVuSans-52"/>
      </g>
     </g>
    </g>
    <g id="xtick_4">
     <g id="line2d_4">
      <g>
       <use style="stroke:#000000;stroke-width:0.8;" x="268.625455" xlink:href="#m2674808438" y="307.584"/>
      </g>
     </g>
     <g id="text_4">
      <!-- 0.6 -->
      <defs>
       <path d="M 33.015625 40.375 
Q 26.375 40.375 22.484375 35.828125 
Q 18.609375 31.296875 18.609375 23.390625 
Q 18.609375 15.53125 22.484375 10.953125 
Q 26.375 6.390625 33.015625 6.390625 
Q 39.65625 6.390625 43.53125 10.953125 
Q 47.40625 15.53125 47.40625 23.390625 
Q 47.40625 31.296875 43.53125 35.828125 
Q 39.65625 40.375 33.015625 40.375 
z
M 52.59375 71.296875 
L 52.59375 62.3125 
Q 48.875 64.0625 45.09375 64.984375 
Q 41.3125 65.921875 37.59375 65.921875 
Q 27.828125 65.921875 22.671875 59.328125 
Q 17.53125 52.734375 16.796875 39.40625 
Q 19.671875 43.65625 24.015625 45.921875 
Q 28.375 48.1875 33.59375 48.1875 
Q 44.578125 48.1875 50.953125 41.515625 
Q 57.328125 34.859375 57.328125 23.390625 
Q 57.328125 12.15625 50.6875 5.359375 
Q 44.046875 -1.421875 33.015625 -1.421875 
Q 20.359375 -1.421875 13.671875 8.265625 
Q 6.984375 17.96875 6.984375 36.375 
Q 6.984375 53.65625 15.1875 63.9375 
Q 23.390625 74.21875 37.203125 74.21875 
Q 40.921875 74.21875 44.703125 73.484375 
Q 48.484375 72.75 52.59375 71.296875 
z
" id="DejaVuSans-54"/>
      </defs>
      <g transform="translate(260.673892 322.182437)scale(0.1 -0.1)">
       <use xlink:href="#DejaVuSans-48"/>
       <use x="63.623047" xlink:href="#DejaVuSans-46"/>
       <use x="95.410156" xlink:href="#DejaVuSans-54"/>
      </g>
     </g>
    </g>
    <g id="xtick_5">
     <g id="line2d_5">
      <g>
       <use style="stroke:#000000;stroke-width:0.8;" x="333.556364" xlink:href="#m2674808438" y="307.584"/>
      </g>
     </g>
     <g id="text_5">
      <!-- 0.8 -->
      <defs>
       <path d="M 31.78125 34.625 
Q 24.75 34.625 20.71875 30.859375 
Q 16.703125 27.09375 16.703125 20.515625 
Q 16.703125 13.921875 20.71875 10.15625 
Q 24.75 6.390625 31.78125 6.390625 
Q 38.8125 6.390625 42.859375 10.171875 
Q 46.921875 13.96875 46.921875 20.515625 
Q 46.921875 27.09375 42.890625 30.859375 
Q 38.875 34.625 31.78125 34.625 
z
M 21.921875 38.8125 
Q 15.578125 40.375 12.03125 44.71875 
Q 8.5 49.078125 8.5 55.328125 
Q 8.5 64.0625 14.71875 69.140625 
Q 20.953125 74.21875 31.78125 74.21875 
Q 42.671875 74.21875 48.875 69.140625 
Q 55.078125 64.0625 55.078125 55.328125 
Q 55.078125 49.078125 51.53125 44.71875 
Q 48 40.375 41.703125 38.8125 
Q 48.828125 37.15625 52.796875 32.3125 
Q 56.78125 27.484375 56.78125 20.515625 
Q 56.78125 9.90625 50.3125 4.234375 
Q 43.84375 -1.421875 31.78125 -1.421875 
Q 19.734375 -1.421875 13.25 4.234375 
Q 6.78125 9.90625 6.78125 20.515625 
Q 6.78125 27.484375 10.78125 32.3125 
Q 14.796875 37.15625 21.921875 38.8125 
z
M 18.3125 54.390625 
Q 18.3125 48.734375 21.84375 45.5625 
Q 25.390625 42.390625 31.78125 42.390625 
Q 38.140625 42.390625 41.71875 45.5625 
Q 45.3125 48.734375 45.3125 54.390625 
Q 45.3125 60.0625 41.71875 63.234375 
Q 38.140625 66.40625 31.78125 66.40625 
Q 25.390625 66.40625 21.84375 63.234375 
Q 18.3125 60.0625 18.3125 54.390625 
z
" id="DejaVuSans-56"/>
      </defs>
      <g transform="translate(325.604801 322.182437)scale(0.1 -0.1)">
       <use xlink:href="#DejaVuSans-48"/>
       <use x="63.623047" xlink:href="#DejaVuSans-46"/>
       <use x="95.410156" xlink:href="#DejaVuSans-56"/>
      </g>
     </g>
    </g>
    <g id="xtick_6">
     <g id="line2d_6">
      <g>
       <use style="stroke:#000000;stroke-width:0.8;" x="398.487273" xlink:href="#m2674808438" y="307.584"/>
      </g>
     </g>
     <g id="text_6">
      <!-- 1.0 -->
      <defs>
       <path d="M 12.40625 8.296875 
L 28.515625 8.296875 
L 28.515625 63.921875 
L 10.984375 60.40625 
L 10.984375 69.390625 
L 28.421875 72.90625 
L 38.28125 72.90625 
L 38.28125 8.296875 
L 54.390625 8.296875 
L 54.390625 0 
L 12.40625 0 
z
" id="DejaVuSans-49"/>
      </defs>
      <g transform="translate(390.53571 322.182437)scale(0.1 -0.1)">
       <use xlink:href="#DejaVuSans-49"/>
       <use x="63.623047" xlink:href="#DejaVuSans-46"/>
       <use x="95.410156" xlink:href="#DejaVuSans-48"/>
      </g>
     </g>
    </g>
   </g>
   <g id="matplotlib.axis_2">
    <g id="ytick_1">
     <g id="line2d_7">
      <defs>
       <path d="M 0 0 
L -3.5 0 
" id="ma3a0d9033f" style="stroke:#000000;stroke-width:0.8;"/>
      </defs>
      <g>
       <use style="stroke:#000000;stroke-width:0.8;" x="57.6" xlink:href="#ma3a0d9033f" y="287.035286"/>
      </g>
     </g>
     <g id="text_7">
      <!-- 0.20 -->
      <g transform="translate(28.334375 290.834504)scale(0.1 -0.1)">
       <use xlink:href="#DejaVuSans-48"/>
       <use x="63.623047" xlink:href="#DejaVuSans-46"/>
       <use x="95.410156" xlink:href="#DejaVuSans-50"/>
       <use x="159.033203" xlink:href="#DejaVuSans-48"/>
      </g>
     </g>
    </g>
    <g id="ytick_2">
     <g id="line2d_8">
      <g>
       <use style="stroke:#000000;stroke-width:0.8;" x="57.6" xlink:href="#ma3a0d9033f" y="255.044087"/>
      </g>
     </g>
     <g id="text_8">
      <!-- 0.25 -->
      <defs>
       <path d="M 10.796875 72.90625 
L 49.515625 72.90625 
L 49.515625 64.59375 
L 19.828125 64.59375 
L 19.828125 46.734375 
Q 21.96875 47.46875 24.109375 47.828125 
Q 26.265625 48.1875 28.421875 48.1875 
Q 40.625 48.1875 47.75 41.5 
Q 54.890625 34.8125 54.890625 23.390625 
Q 54.890625 11.625 47.5625 5.09375 
Q 40.234375 -1.421875 26.90625 -1.421875 
Q 22.3125 -1.421875 17.546875 -0.640625 
Q 12.796875 0.140625 7.71875 1.703125 
L 7.71875 11.625 
Q 12.109375 9.234375 16.796875 8.0625 
Q 21.484375 6.890625 26.703125 6.890625 
Q 35.15625 6.890625 40.078125 11.328125 
Q 45.015625 15.765625 45.015625 23.390625 
Q 45.015625 31 40.078125 35.4375 
Q 35.15625 39.890625 26.703125 39.890625 
Q 22.75 39.890625 18.8125 39.015625 
Q 14.890625 38.140625 10.796875 36.28125 
z
" id="DejaVuSans-53"/>
      </defs>
      <g transform="translate(28.334375 258.843306)scale(0.1 -0.1)">
       <use xlink:href="#DejaVuSans-48"/>
       <use x="63.623047" xlink:href="#DejaVuSans-46"/>
       <use x="95.410156" xlink:href="#DejaVuSans-50"/>
       <use x="159.033203" xlink:href="#DejaVuSans-53"/>
      </g>
     </g>
    </g>
    <g id="ytick_3">
     <g id="line2d_9">
      <g>
       <use style="stroke:#000000;stroke-width:0.8;" x="57.6" xlink:href="#ma3a0d9033f" y="223.052889"/>
      </g>
     </g>
     <g id="text_9">
      <!-- 0.30 -->
      <defs>
       <path d="M 40.578125 39.3125 
Q 47.65625 37.796875 51.625 33 
Q 55.609375 28.21875 55.609375 21.1875 
Q 55.609375 10.40625 48.1875 4.484375 
Q 40.765625 -1.421875 27.09375 -1.421875 
Q 22.515625 -1.421875 17.65625 -0.515625 
Q 12.796875 0.390625 7.625 2.203125 
L 7.625 11.71875 
Q 11.71875 9.328125 16.59375 8.109375 
Q 21.484375 6.890625 26.8125 6.890625 
Q 36.078125 6.890625 40.9375 10.546875 
Q 45.796875 14.203125 45.796875 21.1875 
Q 45.796875 27.640625 41.28125 31.265625 
Q 36.765625 34.90625 28.71875 34.90625 
L 20.21875 34.90625 
L 20.21875 43.015625 
L 29.109375 43.015625 
Q 36.375 43.015625 40.234375 45.921875 
Q 44.09375 48.828125 44.09375 54.296875 
Q 44.09375 59.90625 40.109375 62.90625 
Q 36.140625 65.921875 28.71875 65.921875 
Q 24.65625 65.921875 20.015625 65.03125 
Q 15.375 64.15625 9.8125 62.3125 
L 9.8125 71.09375 
Q 15.4375 72.65625 20.34375 73.4375 
Q 25.25 74.21875 29.59375 74.21875 
Q 40.828125 74.21875 47.359375 69.109375 
Q 53.90625 64.015625 53.90625 55.328125 
Q 53.90625 49.265625 50.4375 45.09375 
Q 46.96875 40.921875 40.578125 39.3125 
z
" id="DejaVuSans-51"/>
      </defs>
      <g transform="translate(28.334375 226.852108)scale(0.1 -0.1)">
       <use xlink:href="#DejaVuSans-48"/>
       <use x="63.623047" xlink:href="#DejaVuSans-46"/>
       <use x="95.410156" xlink:href="#DejaVuSans-51"/>
       <use x="159.033203" xlink:href="#DejaVuSans-48"/>
      </g>
     </g>
    </g>
    <g id="ytick_4">
     <g id="line2d_10">
      <g>
       <use style="stroke:#000000;stroke-width:0.8;" x="57.6" xlink:href="#ma3a0d9033f" y="191.061691"/>
      </g>
     </g>
     <g id="text_10">
      <!-- 0.35 -->
      <g transform="translate(28.334375 194.86091)scale(0.1 -0.1)">
       <use xlink:href="#DejaVuSans-48"/>
       <use x="63.623047" xlink:href="#DejaVuSans-46"/>
       <use x="95.410156" xlink:href="#DejaVuSans-51"/>
       <use x="159.033203" xlink:href="#DejaVuSans-53"/>
      </g>
     </g>
    </g>
    <g id="ytick_5">
     <g id="line2d_11">
      <g>
       <use style="stroke:#000000;stroke-width:0.8;" x="57.6" xlink:href="#ma3a0d9033f" y="159.070493"/>
      </g>
     </g>
     <g id="text_11">
      <!-- 0.40 -->
      <g transform="translate(28.334375 162.869712)scale(0.1 -0.1)">
       <use xlink:href="#DejaVuSans-48"/>
       <use x="63.623047" xlink:href="#DejaVuSans-46"/>
       <use x="95.410156" xlink:href="#DejaVuSans-52"/>
       <use x="159.033203" xlink:href="#DejaVuSans-48"/>
      </g>
     </g>
    </g>
    <g id="ytick_6">
     <g id="line2d_12">
      <g>
       <use style="stroke:#000000;stroke-width:0.8;" x="57.6" xlink:href="#ma3a0d9033f" y="127.079295"/>
      </g>
     </g>
     <g id="text_12">
      <!-- 0.45 -->
      <g transform="translate(28.334375 130.878513)scale(0.1 -0.1)">
       <use xlink:href="#DejaVuSans-48"/>
       <use x="63.623047" xlink:href="#DejaVuSans-46"/>
       <use x="95.410156" xlink:href="#DejaVuSans-52"/>
       <use x="159.033203" xlink:href="#DejaVuSans-53"/>
      </g>
     </g>
    </g>
    <g id="ytick_7">
     <g id="line2d_13">
      <g>
       <use style="stroke:#000000;stroke-width:0.8;" x="57.6" xlink:href="#ma3a0d9033f" y="95.088096"/>
      </g>
     </g>
     <g id="text_13">
      <!-- 0.50 -->
      <g transform="translate(28.334375 98.887315)scale(0.1 -0.1)">
       <use xlink:href="#DejaVuSans-48"/>
       <use x="63.623047" xlink:href="#DejaVuSans-46"/>
       <use x="95.410156" xlink:href="#DejaVuSans-53"/>
       <use x="159.033203" xlink:href="#DejaVuSans-48"/>
      </g>
     </g>
    </g>
    <g id="ytick_8">
     <g id="line2d_14">
      <g>
       <use style="stroke:#000000;stroke-width:0.8;" x="57.6" xlink:href="#ma3a0d9033f" y="63.096898"/>
      </g>
     </g>
     <g id="text_14">
      <!-- 0.55 -->
      <g transform="translate(28.334375 66.896117)scale(0.1 -0.1)">
       <use xlink:href="#DejaVuSans-48"/>
       <use x="63.623047" xlink:href="#DejaVuSans-46"/>
       <use x="95.410156" xlink:href="#DejaVuSans-53"/>
       <use x="159.033203" xlink:href="#DejaVuSans-53"/>
      </g>
     </g>
    </g>
   </g>
   <g id="line2d_15">
    <path clip-path="url(#pcb29543740)" d="M 73.832727 200.547081 
L 75.196822 103.641263 
L 76.560917 109.631935 
L 77.925011 205.424459 
L 79.289106 169.25905 
L 80.653201 199.047334 
L 82.017296 153.740119 
L 83.38139 87.11589 
L 84.745485 79.019557 
L 86.10958 104.52358 
L 87.473675 216.271395 
L 88.837769 269.033838 
L 90.201864 249.286951 
L 91.565959 99.61805 
L 92.930053 100.212447 
L 94.294148 99.980191 
L 95.658243 119.549206 
L 97.022338 124.363882 
L 98.386432 94.741952 
L 99.750527 159.504294 
L 101.114622 152.848845 
L 102.478717 199.67948 
L 103.842811 291.209497 
L 105.206906 131.845983 
L 106.571001 99.028132 
L 107.935095 208.65749 
L 109.29919 270.684584 
L 110.663285 66.808517 
L 112.02738 273.104398 
L 113.391474 268.244296 
L 114.755569 284.541252 
L 116.119664 224.809846 
L 117.483759 295.488 
L 118.847853 121.522424 
L 120.211948 143.792776 
L 121.576043 134.40016 
L 122.940138 113.093383 
L 124.304232 144.513858 
L 125.668327 93.757263 
L 127.032422 143.268121 
L 128.396516 237.835382 
L 129.760611 69.246246 
L 131.124706 143.758866 
L 132.488801 139.63392 
L 133.852895 171.819625 
L 135.21699 266.349137 
L 136.581085 107.830831 
L 137.94518 86.645619 
L 139.309274 195.804706 
L 140.673369 194.073982 
L 142.037464 125.623055 
L 143.401558 177.884517 
L 144.765653 269.724208 
L 146.129748 108.190412 
L 147.493843 109.703595 
L 148.857937 88.394258 
L 150.222032 98.040884 
L 151.586127 100.348089 
L 152.950222 186.919471 
L 154.314316 131.369954 
L 155.678411 87.69749 
L 157.042506 89.595208 
L 158.4066 68.767658 
L 159.770695 65.037484 
L 161.13479 237.091267 
L 162.498885 123.348481 
L 163.862979 143.509974 
L 165.227074 116.848509 
L 166.591169 105.376466 
L 167.955264 210.942941 
L 169.319358 274.065414 
L 170.683453 116.898416 
L 172.047548 73.117181 
L 173.411642 98.715898 
L 174.775737 115.144018 
L 176.139832 113.821502 
L 177.503927 76.656688 
L 178.868021 99.772888 
L 180.232116 222.066921 
L 181.596211 152.091293 
L 182.960306 164.571699 
L 184.3244 129.480554 
L 185.688495 89.999576 
L 187.05259 128.520178 
L 188.416684 91.460295 
L 189.780779 147.127539 
L 191.144874 100.688476 
L 192.508969 144.583599 
L 193.873063 146.426932 
L 195.237158 163.945312 
L 196.601253 146.254179 
L 197.965348 97.127215 
L 199.329442 279.009334 
L 200.693537 103.159476 
L 202.057632 136.140482 
L 203.421727 209.076575 
L 204.785821 151.685645 
L 206.149916 150.270994 
L 207.514011 124.718344 
L 208.878105 205.888332 
L 210.2422 246.012972 
L 211.606295 159.357134 
L 212.97039 124.870622 
L 214.334484 181.329329 
L 215.698579 125.16942 
L 217.062674 125.448383 
L 218.426769 102.41792 
L 219.790863 103.17931 
L 221.154958 88.400017 
L 222.519053 181.583339 
L 223.883147 131.146016 
L 225.247242 218.638744 
L 226.611337 103.552328 
L 227.975432 226.482986 
L 229.339526 70.06778 
L 230.703621 224.418274 
L 232.067716 126.760023 
L 233.431811 188.690503 
L 234.795905 97.083068 
L 236.16 183.015265 
L 237.524095 142.264877 
L 238.888189 131.304052 
L 240.252284 131.843424 
L 241.616379 115.741614 
L 242.980474 186.982173 
L 244.344568 204.509511 
L 245.708663 224.573111 
L 247.072758 63.631791 
L 248.436853 235.95174 
L 249.800947 197.793279 
L 251.165042 140.914848 
L 252.529137 245.194637 
L 253.893231 138.013886 
L 255.257326 278.699659 
L 256.621421 145.057068 
L 257.985516 232.457022 
L 259.34961 157.781887 
L 260.713705 145.839573 
L 262.0778 227.509903 
L 263.441895 172.986024 
L 264.805989 136.663858 
L 266.170084 156.140099 
L 267.534179 259.353942 
L 268.898273 194.963338 
L 270.262368 223.690154 
L 271.626463 152.963373 
L 272.990558 62.842888 
L 274.354652 58.136343 
L 275.718747 212.012087 
L 277.082842 201.737154 
L 278.446937 76.886384 
L 279.811031 55.300003 
L 281.175126 91.252992 
L 282.539221 240.491291 
L 283.903316 100.838194 
L 285.26741 248.327855 
L 286.631505 202.350745 
L 287.9956 213.037085 
L 289.359694 120.063625 
L 290.723789 151.403482 
L 292.087884 179.964584 
L 293.451979 75.538275 
L 296.180168 285.733884 
L 297.544263 75.206846 
L 298.908358 115.630924 
L 300.272452 71.19451 
L 301.636547 190.123709 
L 303.000642 214.612971 
L 304.364736 150.764938 
L 305.728831 222.130903 
L 307.092926 171.452366 
L 308.457021 219.620234 
L 309.821115 240.697955 
L 311.18521 224.991556 
L 312.549305 137.844973 
L 313.9134 221.267141 
L 315.277494 124.579502 
L 316.641589 264.803962 
L 318.005684 126.907182 
L 319.369778 83.228319 
L 320.733873 131.519673 
L 322.097968 151.524409 
L 323.462063 226.669174 
L 324.826157 94.617826 
L 326.190252 64.9076 
L 327.554347 146.481317 
L 328.918442 219.590802 
L 330.282536 214.767169 
L 331.646631 83.587901 
L 333.010726 274.907422 
L 334.37482 248.397596 
L 335.738915 137.08998 
L 337.10301 146.295768 
L 338.467105 98.718458 
L 339.831199 221.293373 
L 341.195294 98.655115 
L 342.559389 188.835743 
L 343.923484 60.316863 
L 345.287578 101.153628 
L 346.651673 101.765299 
L 348.015768 165.018296 
L 349.379862 131.444814 
L 350.743957 237.526347 
L 352.108052 175.604824 
L 353.472147 225.388887 
L 354.836241 94.672851 
L 356.200336 76.338055 
L 357.564431 197.20848 
L 358.928526 290.240164 
L 360.29262 89.139013 
L 361.656715 98.463808 
L 363.02081 132.238835 
L 364.384905 143.994961 
L 365.748999 176.145475 
L 367.113094 110.495058 
L 368.477189 257.264916 
L 369.841283 71.587362 
L 371.205378 159.342418 
L 372.569473 99.316053 
L 373.933568 53.568 
L 375.297662 90.162732 
L 376.661757 115.17473 
L 378.025852 98.181645 
L 379.389947 100.89066 
L 380.754041 239.054887 
L 382.118136 113.790791 
L 383.482231 221.182044 
L 384.846325 193.969691 
L 386.21042 117.855592 
L 387.574515 113.832379 
L 388.93861 209.109206 
L 390.302704 102.542685 
L 391.666799 97.98266 
L 393.030894 244.500428 
L 394.394989 121.527542 
L 395.759083 143.687205 
L 397.123178 249.142351 
L 398.487273 195.835418 
L 398.487273 195.835418 
" style="fill:none;stroke:#1f77b4;stroke-linecap:square;stroke-width:1.5;"/>
   </g>
   <g id="line2d_16">
    <path clip-path="url(#pcb29543740)" d="M 73.832727 202.04252 
L 75.196822 111.107556 
L 76.560917 119.050275 
L 77.925011 190.985196 
L 79.289106 177.864675 
L 80.653201 186.691777 
L 82.017296 154.268874 
L 83.38139 94.646667 
L 84.745485 92.492733 
L 86.10958 100.83475 
L 87.473675 204.397355 
L 88.837769 243.033087 
L 90.201864 234.847676 
L 91.565959 105.535478 
L 92.930053 113.642422 
L 94.294148 104.804458 
L 95.658243 127.405269 
L 97.022338 136.315844 
L 98.386432 98.965255 
L 99.750527 167.939099 
L 101.114622 154.050154 
L 102.478717 185.303582 
L 103.842811 266.730775 
L 105.206906 129.938816 
L 106.571001 105.713216 
L 107.935095 197.236774 
L 109.29919 243.991845 
L 110.663285 82.809775 
L 112.02738 248.867338 
L 113.391474 242.08133 
L 114.755569 255.757033 
L 116.119664 206.92975 
L 117.483759 264.838273 
L 118.847853 121.587637 
L 120.211948 142.02159 
L 121.576043 145.539848 
L 122.940138 123.088636 
L 124.304232 135.928634 
L 125.668327 101.565154 
L 127.032422 144.013957 
L 128.396516 222.359336 
L 129.760611 78.946358 
L 131.124706 150.635417 
L 132.488801 143.280273 
L 133.852895 161.028122 
L 135.21699 256.674501 
L 136.581085 108.835805 
L 137.94518 98.389516 
L 139.309274 183.138186 
L 140.673369 198.96621 
L 142.037464 119.656871 
L 143.401558 166.441042 
L 144.765653 254.794952 
L 146.129748 119.815662 
L 147.493843 119.82416 
L 148.857937 100.894949 
L 150.222032 106.190892 
L 151.586127 109.180256 
L 152.950222 195.063918 
L 154.314316 136.766951 
L 155.678411 89.178097 
L 157.042506 101.389679 
L 158.4066 82.774748 
L 159.770695 82.297976 
L 161.13479 231.57623 
L 162.498885 126.039616 
L 163.862979 146.841143 
L 165.227074 127.464039 
L 166.591169 118.105148 
L 167.955264 207.904452 
L 169.319358 253.882984 
L 170.683453 129.230467 
L 172.047548 89.445827 
L 173.411642 108.694215 
L 174.775737 110.382072 
L 176.139832 118.887914 
L 177.503927 92.607319 
L 178.868021 110.419014 
L 180.232116 208.448197 
L 181.596211 143.226771 
L 182.960306 158.595498 
L 184.3244 134.719495 
L 185.688495 103.13388 
L 187.05259 130.309798 
L 188.416684 101.892919 
L 189.780779 156.946778 
L 191.144874 109.442596 
L 192.508969 144.606861 
L 193.873063 149.550757 
L 195.237158 172.272979 
L 196.601253 145.325779 
L 197.965348 105.781533 
L 199.329442 261.128093 
L 200.693537 110.562069 
L 202.057632 143.781023 
L 203.421727 215.457576 
L 204.785821 150.304606 
L 206.149916 160.182583 
L 207.514011 128.555203 
L 208.878105 196.164043 
L 210.2422 228.852342 
L 211.606295 152.214039 
L 212.97039 134.629444 
L 214.334484 169.446018 
L 215.698579 123.415916 
L 217.062674 119.689503 
L 219.790863 104.61372 
L 221.154958 100.814881 
L 222.519053 184.799476 
L 223.883147 132.47818 
L 225.247242 219.927402 
L 226.611337 107.380763 
L 227.975432 212.557831 
L 229.339526 86.157144 
L 230.703621 206.054233 
L 232.067716 136.819419 
L 233.431811 196.890306 
L 234.795905 105.361113 
L 236.16 171.899622 
L 237.524095 149.057916 
L 238.888189 141.281696 
L 240.252284 140.93055 
L 241.616379 114.661211 
L 242.980474 177.125169 
L 244.344568 194.130276 
L 245.708663 209.497544 
L 247.072758 80.647064 
L 248.436853 228.833052 
L 249.800947 197.326048 
L 251.165042 132.894634 
L 252.529137 224.351337 
L 253.893231 148.394215 
L 255.257326 252.387381 
L 256.621421 152.491953 
L 257.985516 223.988138 
L 259.34961 166.688541 
L 260.713705 137.314513 
L 262.0778 213.537328 
L 263.441895 161.39598 
L 264.805989 128.111904 
L 266.170084 165.94743 
L 267.534179 235.838572 
L 268.898273 180.153812 
L 270.262368 207.035208 
L 271.626463 150.424496 
L 272.990558 73.790362 
L 274.354652 74.836382 
L 275.718747 215.186652 
L 277.082842 188.249485 
L 278.446937 92.450416 
L 279.811031 69.684802 
L 281.175126 100.808679 
L 282.539221 239.029338 
L 283.903316 107.019817 
L 285.26741 226.398579 
L 286.631505 192.000486 
L 287.9956 203.969747 
L 289.359694 116.185641 
L 290.723789 157.468215 
L 292.087884 188.760436 
L 293.451979 90.646186 
L 294.816073 183.962354 
L 296.180168 255.83285 
L 297.544263 79.218537 
L 298.908358 112.948208 
L 300.272452 79.227921 
L 301.636547 180.269804 
L 303.000642 210.785091 
L 304.364736 141.428886 
L 305.728831 204.33111 
L 307.092926 160.811795 
L 308.457021 206.998657 
L 309.821115 220.805048 
L 311.18521 227.490166 
L 312.549305 138.39415 
L 313.9134 212.286773 
L 315.277494 130.200065 
L 316.641589 240.215565 
L 318.005684 130.170442 
L 319.369778 85.065504 
L 320.733873 131.978549 
L 322.097968 149.973975 
L 323.462063 230.502911 
L 324.826157 103.984539 
L 326.190252 80.228074 
L 327.554347 145.415378 
L 328.918442 203.883839 
L 330.282536 202.985459 
L 331.646631 96.322101 
L 333.010726 249.140028 
L 334.37482 245.299273 
L 335.738915 138.473766 
L 337.10301 152.261687 
L 338.467105 106.174703 
L 339.831199 215.104187 
L 341.195294 108.593336 
L 342.559389 196.206049 
L 343.923484 78.220091 
L 345.287578 110.925052 
L 346.651673 109.078243 
L 348.015768 174.859146 
L 349.379862 133.496839 
L 350.743957 221.812632 
L 352.108052 165.978091 
L 353.472147 215.503587 
L 354.836241 103.78844 
L 356.200336 82.810733 
L 357.564431 182.25058 
L 358.928526 262.919584 
L 360.29262 99.261095 
L 361.656715 100.350673 
L 363.02081 123.88123 
L 364.384905 135.033943 
L 365.748999 185.194923 
L 367.113094 114.389202 
L 368.477189 247.889785 
L 369.841283 76.987663 
L 371.205378 164.994536 
L 372.569473 108.30282 
L 373.933568 71.62877 
L 375.297662 99.940917 
L 376.661757 119.120806 
L 378.025852 108.345152 
L 379.389947 109.676434 
L 380.754041 219.460425 
L 382.118136 124.542784 
L 383.482231 225.933164 
L 384.846325 183.83767 
L 386.21042 128.440097 
L 387.574515 119.598353 
L 388.93861 213.68736 
L 390.302704 106.216066 
L 391.666799 97.023174 
L 393.030894 229.358369 
L 394.394989 125.208058 
L 395.759083 144.692443 
L 397.123178 226.782224 
L 398.487273 203.543731 
L 398.487273 203.543731 
" style="fill:none;stroke:#ff7f0e;stroke-linecap:square;stroke-width:1.5;"/>
   </g>
   <g id="line2d_17">
    <path clip-path="url(#pcb29543740)" d="M 73.832727 218.169753 
L 75.196822 151.104103 
L 76.560917 152.11838 
L 77.925011 205.027541 
L 79.289106 201.809758 
L 80.653201 200.643428 
L 82.017296 157.410198 
L 83.38139 150.504711 
L 84.745485 150.443422 
L 86.10958 150.227764 
L 87.473675 217.103724 
L 88.837769 263.511788 
L 90.201864 250.38564 
L 91.565959 150.927073 
L 92.930053 151.662481 
L 94.294148 150.850266 
L 97.022338 153.478166 
L 98.386432 150.587201 
L 99.750527 181.168749 
L 101.114622 156.966061 
L 102.478717 200.90165 
L 103.842811 286.489513 
L 105.206906 151.780091 
L 106.571001 151.002269 
L 109.29919 264.827077 
L 110.663285 149.882675 
L 112.02738 268.546308 
L 113.391474 262.683206 
L 114.755569 276.708039 
L 116.119664 224.411284 
L 117.483759 285.996665 
L 118.847853 151.29627 
L 120.211948 152.833948 
L 121.576043 159.938943 
L 122.940138 152.435557 
L 124.304232 151.741244 
L 125.668327 150.724625 
L 127.032422 154.025471 
L 128.396516 237.030338 
L 129.760611 149.750257 
L 131.124706 155.408605 
L 132.488801 155.251966 
L 133.852895 173.725938 
L 135.21699 277.617852 
L 136.581085 150.851258 
L 137.94518 150.556482 
L 139.309274 197.712659 
L 140.673369 213.331302 
L 142.037464 150.962292 
L 143.401558 179.828957 
L 144.765653 272.685255 
L 146.129748 152.155258 
L 147.493843 152.130957 
L 148.857937 150.860315 
L 151.586127 151.060741 
L 152.950222 216.415094 
L 154.314316 153.641335 
L 155.678411 149.938499 
L 157.042506 150.845766 
L 158.4066 149.889329 
L 159.770695 149.874433 
L 161.13479 246.425995 
L 162.498885 151.907805 
L 163.862979 153.711714 
L 165.227074 152.982892 
L 166.591169 151.743003 
L 167.955264 220.655718 
L 169.319358 272.124149 
L 170.683453 152.957202 
L 172.047548 150.145999 
L 173.411642 151.301849 
L 174.775737 150.509023 
L 176.139832 151.388677 
L 177.503927 150.397813 
L 178.868021 151.424635 
L 180.232116 222.088791 
L 181.596211 152.961864 
L 182.960306 163.959357 
L 184.3244 152.604296 
L 185.688495 151.00592 
L 187.05259 152.260343 
L 188.416684 150.831656 
L 189.780779 175.831625 
L 191.144874 151.078437 
L 192.508969 153.442708 
L 193.873063 160.716794 
L 195.237158 195.22902 
L 196.601253 153.68682 
L 197.965348 150.932546 
L 199.329442 280.087532 
L 200.693537 151.075462 
L 202.057632 159.212991 
L 203.421727 242.539315 
L 204.785821 154.142922 
L 206.149916 179.425092 
L 207.514011 152.041936 
L 208.878105 209.380095 
L 210.2422 244.809534 
L 211.606295 157.183515 
L 212.97039 153.897911 
L 214.334484 179.7847 
L 215.698579 151.699508 
L 217.062674 151.232756 
L 218.426769 151.670421 
L 219.790863 150.77487 
L 221.154958 150.682733 
L 222.519053 197.856891 
L 223.883147 152.379253 
L 225.247242 236.27827 
L 226.611337 150.901636 
L 227.975432 226.07802 
L 229.339526 150.03283 
L 230.703621 224.291593 
L 232.067716 154.575514 
L 233.431811 222.275736 
L 234.795905 150.954207 
L 236.16 181.190181 
L 237.524095 164.548034 
L 238.888189 157.771502 
L 240.252284 153.553682 
L 241.616379 151.029377 
L 242.980474 190.054892 
L 244.344568 206.914381 
L 245.708663 225.826853 
L 247.072758 149.718414 
L 248.436853 242.573897 
L 249.800947 210.759911 
L 251.165042 151.865669 
L 252.529137 242.584213 
L 253.893231 165.020605 
L 255.257326 272.65845 
L 256.621421 169.484231 
L 257.985516 237.163703 
L 259.34961 188.320543 
L 260.713705 152.056816 
L 262.0778 227.013527 
L 263.441895 174.739396 
L 264.805989 151.324741 
L 266.170084 186.311552 
L 267.534179 255.261055 
L 268.898273 196.467026 
L 270.262368 223.402708 
L 271.626463 155.071078 
L 272.990558 149.532632 
L 274.354652 149.618098 
L 275.718747 232.276399 
L 277.082842 203.340383 
L 278.446937 150.310867 
L 279.811031 149.469649 
L 281.175126 150.702444 
L 282.539221 260.361981 
L 283.903316 150.93901 
L 285.26741 245.688065 
L 286.631505 204.864641 
L 287.9956 215.690482 
L 289.359694 151.14853 
L 290.723789 174.946458 
L 292.087884 210.264315 
L 293.451979 150.218632 
L 294.816073 200.052826 
L 296.180168 277.179845 
L 297.544263 149.55109 
L 298.908358 151.029012 
L 300.272452 149.716127 
L 301.636547 193.270236 
L 303.000642 222.086103 
L 304.364736 152.412756 
L 305.728831 222.510524 
L 307.092926 171.942543 
L 308.457021 222.412303 
L 309.821115 238.390916 
L 311.18521 250.044122 
L 312.549305 152.770896 
L 313.9134 223.350708 
L 315.277494 152.95463 
L 316.641589 259.99978 
L 318.005684 152.630019 
L 319.369778 149.689423 
L 322.097968 154.091676 
L 323.462063 256.907703 
L 324.826157 150.935558 
L 326.190252 149.80248 
L 327.554347 153.659984 
L 328.918442 219.221557 
L 330.282536 215.790723 
L 331.646631 150.461901 
L 333.010726 269.265724 
L 334.37482 267.375547 
L 335.738915 153.376999 
L 337.10301 156.061311 
L 338.467105 151.11173 
L 339.831199 226.744645 
L 341.195294 151.284607 
L 342.559389 224.044888 
L 343.923484 149.686554 
L 345.287578 151.409338 
L 346.651673 150.965915 
L 348.015768 193.082204 
L 349.379862 152.350345 
L 350.743957 236.533917 
L 352.108052 178.174063 
L 353.472147 229.15571 
L 354.836241 150.81724 
L 356.200336 149.792985 
L 357.564431 198.389658 
L 358.928526 283.161561 
L 360.29262 150.619559 
L 361.656715 150.454649 
L 364.384905 151.628093 
L 365.748999 207.558919 
L 367.113094 151.151506 
L 368.477189 265.935647 
L 369.841283 149.513435 
L 371.205378 184.659905 
L 372.569473 150.98306 
L 373.933568 149.540479 
L 375.297662 150.840961 
L 376.661757 151.555605 
L 378.025852 151.357593 
L 379.389947 151.27934 
L 380.754041 237.084627 
L 382.118136 152.661596 
L 383.482231 252.828472 
L 384.846325 196.76205 
L 386.21042 152.36206 
L 387.574515 151.542717 
L 388.93861 233.117499 
L 390.302704 150.890465 
L 391.666799 150.18591 
L 393.030894 244.64486 
L 394.394989 152.119372 
L 395.759083 154.290327 
L 397.123178 246.625231 
L 398.487273 229.899286 
L 398.487273 229.899286 
" style="fill:none;stroke:#2ca02c;stroke-linecap:square;stroke-width:1.5;"/>
   </g>
   <g id="line2d_18">
    <path clip-path="url(#pcb29543740)" d="M 73.832727 158.090115 
L 75.196822 102.358323 
L 76.560917 107.328839 
L 77.925011 156.292027 
L 79.289106 157.210859 
L 80.653201 156.024128 
L 82.017296 149.459371 
L 83.38139 82.180919 
L 84.745485 79.514073 
L 86.10958 79.018185 
L 87.473675 157.521084 
L 88.837769 159.305665 
L 90.201864 159.088315 
L 91.565959 96.648851 
L 92.930053 101.93962 
L 94.294148 95.80102 
L 95.658243 122.109877 
L 97.022338 128.319557 
L 98.386432 89.016471 
L 99.750527 155.602558 
L 101.114622 149.453708 
L 102.478717 155.628742 
L 103.842811 160.206518 
L 105.206906 116.44846 
L 106.571001 95.595731 
L 107.935095 156.905119 
L 109.29919 159.320931 
L 110.663285 68.13941 
L 112.02738 159.55261 
L 113.391474 159.183279 
L 114.755569 159.670791 
L 116.119664 157.353827 
L 117.483759 160.036751 
L 118.847853 108.673054 
L 120.211948 132.026919 
L 121.576043 135.503422 
L 122.940138 110.983248 
L 124.304232 116.614576 
L 125.668327 92.023525 
L 127.032422 139.826192 
L 128.396516 158.57366 
L 129.760611 65.216821 
L 131.124706 148.434015 
L 132.488801 135.692426 
L 133.852895 144.501763 
L 135.21699 159.819985 
L 136.581085 96.11494 
L 137.94518 88.354962 
L 139.309274 155.466765 
L 140.673369 157.844134 
L 142.037464 100.169481 
L 143.401558 149.29937 
L 144.765653 159.810199 
L 146.129748 107.316559 
L 147.493843 107.682307 
L 148.857937 88.053136 
L 150.222032 97.393409 
L 151.586127 100.971659 
L 152.950222 157.912348 
L 154.314316 127.640576 
L 155.678411 73.034359 
L 157.042506 89.481653 
L 158.4066 68.05387 
L 159.770695 67.915473 
L 161.13479 159.090344 
L 162.498885 120.287367 
L 163.862979 143.357093 
L 165.227074 115.059121 
L 166.591169 109.232497 
L 167.955264 158.251818 
L 169.319358 159.575998 
L 172.047548 76.711233 
L 173.411642 96.487362 
L 174.775737 90.413861 
L 176.139832 109.858984 
L 177.503927 80.002563 
L 178.868021 97.976058 
L 180.232116 157.850813 
L 181.596211 126.770389 
L 182.960306 150.526194 
L 184.3244 129.948939 
L 185.688495 89.694569 
L 187.05259 125.34865 
L 188.416684 90.871155 
L 189.780779 146.156848 
L 191.144874 101.28269 
L 192.508969 139.930438 
L 193.873063 142.387343 
L 195.237158 156.539412 
L 196.601253 142.525835 
L 197.965348 96.915616 
L 199.329442 159.872124 
L 200.693537 101.64489 
L 202.057632 132.914432 
L 203.421727 158.911741 
L 204.785821 145.877536 
L 206.149916 149.607818 
L 207.514011 122.391822 
L 208.878105 156.764016 
L 210.2422 158.698048 
L 211.606295 145.296717 
L 212.97039 122.622692 
L 214.334484 153.568571 
L 215.698579 115.303901 
L 217.062674 105.209528 
L 218.426769 98.940446 
L 219.790863 94.232848 
L 221.154958 91.108173 
L 222.519053 156.93416 
L 223.883147 127.544205 
L 225.247242 158.585654 
L 226.611337 97.271963 
L 227.975432 158.071023 
L 229.339526 72.499211 
L 230.703621 157.241788 
L 232.067716 124.782628 
L 233.431811 158.162364 
L 234.795905 95.928434 
L 236.16 154.568254 
L 237.524095 138.844254 
L 238.888189 129.437452 
L 240.252284 136.74955 
L 241.616379 99.987261 
L 242.980474 154.790944 
L 244.344568 156.615466 
L 245.708663 157.623763 
L 247.072758 66.759804 
L 248.436853 158.876411 
L 249.800947 157.789368 
L 251.165042 117.399043 
L 252.529137 158.426944 
L 253.893231 137.212623 
L 255.257326 159.631471 
L 256.621421 141.978806 
L 257.985516 158.599141 
L 259.34961 155.272698 
L 260.713705 121.682971 
L 262.0778 158.083071 
L 263.441895 144.004406 
L 264.805989 106.44239 
L 266.170084 155.124988 
L 267.534179 158.840468 
L 268.898273 154.646562 
L 270.262368 157.425612 
L 271.626463 143.464431 
L 272.990558 59.263412 
L 274.354652 59.414737 
L 275.718747 158.51412 
L 277.082842 156.058035 
L 278.446937 80.483579 
L 279.811031 54.127267 
L 281.175126 90.988692 
L 282.539221 159.347752 
L 283.903316 98.028743 
L 285.26741 158.495048 
L 286.631505 156.538532 
L 287.9956 157.581526 
L 289.359694 104.089985 
L 290.723789 147.688637 
L 292.087884 157.637968 
L 293.451979 78.261976 
L 294.816073 157.10967 
L 296.180168 159.670261 
L 297.544263 61.76444 
L 298.908358 101.372245 
L 300.272452 65.64559 
L 301.636547 155.265503 
L 303.000642 158.25719 
L 304.364736 122.388858 
L 305.728831 157.055651 
L 307.092926 146.534875 
L 308.457021 157.480155 
L 311.18521 159.158114 
L 312.549305 131.25127 
L 313.9134 158.218577 
L 315.277494 121.009081 
L 316.641589 159.067762 
L 318.005684 123.640517 
L 319.369778 67.554054 
L 320.733873 121.752208 
L 322.097968 145.704978 
L 323.462063 159.254907 
L 324.826157 93.324551 
L 326.190252 65.267009 
L 327.554347 142.40376 
L 328.918442 157.316076 
L 330.282536 157.403024 
L 331.646631 85.864102 
L 333.010726 159.57754 
L 334.37482 159.60133 
L 335.738915 133.764189 
L 337.10301 150.036076 
L 338.467105 94.540037 
L 339.831199 158.40146 
L 341.195294 97.00375 
L 342.559389 158.210378 
L 343.923484 63.196351 
L 345.287578 99.296133 
L 346.651673 99.904333 
L 348.015768 156.427803 
L 349.379862 127.833013 
L 350.743957 158.562555 
L 352.108052 150.051517 
L 353.472147 158.145031 
L 354.836241 94.696816 
L 356.200336 69.655412 
L 357.564431 155.053269 
L 358.928526 160.01115 
L 360.29262 89.210807 
L 361.656715 88.536707 
L 364.384905 114.467454 
L 365.748999 157.496615 
L 367.113094 103.729499 
L 368.477189 159.468233 
L 369.841283 60.428943 
L 371.205378 154.664753 
L 372.569473 99.874301 
L 373.933568 55.900194 
L 375.297662 86.482257 
L 376.661757 112.30113 
L 378.025852 95.000688 
L 379.389947 98.947892 
L 380.754041 158.163188 
L 382.118136 111.877453 
L 383.482231 159.234115 
L 384.846325 155.78445 
L 386.21042 122.243997 
L 387.574515 112.416987 
L 388.93861 158.509063 
L 390.302704 97.164113 
L 391.666799 79.748841 
L 393.030894 158.712368 
L 394.394989 118.501659 
L 395.759083 140.186334 
L 397.123178 158.467851 
L 398.487273 158.398962 
L 398.487273 158.398962 
" style="fill:none;stroke:#d62728;stroke-linecap:square;stroke-width:1.5;"/>
   </g>
   <g id="patch_3">
    <path d="M 57.6 307.584 
L 57.6 41.472 
" style="fill:none;stroke:#000000;stroke-linecap:square;stroke-linejoin:miter;stroke-width:0.8;"/>
   </g>
   <g id="patch_4">
    <path d="M 414.72 307.584 
L 414.72 41.472 
" style="fill:none;stroke:#000000;stroke-linecap:square;stroke-linejoin:miter;stroke-width:0.8;"/>
   </g>
   <g id="patch_5">
    <path d="M 57.6 307.584 
L 414.72 307.584 
" style="fill:none;stroke:#000000;stroke-linecap:square;stroke-linejoin:miter;stroke-width:0.8;"/>
   </g>
   <g id="patch_6">
    <path d="M 57.6 41.472 
L 414.72 41.472 
" style="fill:none;stroke:#000000;stroke-linecap:square;stroke-linejoin:miter;stroke-width:0.8;"/>
   </g>
   <g id="text_15">
    <!-- Plot of Train Data vs MCMC Uncertainty  -->
    <defs>
     <path d="M 19.671875 64.796875 
L 19.671875 37.40625 
L 32.078125 37.40625 
Q 38.96875 37.40625 42.71875 40.96875 
Q 46.484375 44.53125 46.484375 51.125 
Q 46.484375 57.671875 42.71875 61.234375 
Q 38.96875 64.796875 32.078125 64.796875 
z
M 9.8125 72.90625 
L 32.078125 72.90625 
Q 44.34375 72.90625 50.609375 67.359375 
Q 56.890625 61.8125 56.890625 51.125 
Q 56.890625 40.328125 50.609375 34.8125 
Q 44.34375 29.296875 32.078125 29.296875 
L 19.671875 29.296875 
L 19.671875 0 
L 9.8125 0 
z
" id="DejaVuSans-80"/>
     <path d="M 9.421875 75.984375 
L 18.40625 75.984375 
L 18.40625 0 
L 9.421875 0 
z
" id="DejaVuSans-108"/>
     <path d="M 30.609375 48.390625 
Q 23.390625 48.390625 19.1875 42.75 
Q 14.984375 37.109375 14.984375 27.296875 
Q 14.984375 17.484375 19.15625 11.84375 
Q 23.34375 6.203125 30.609375 6.203125 
Q 37.796875 6.203125 41.984375 11.859375 
Q 46.1875 17.53125 46.1875 27.296875 
Q 46.1875 37.015625 41.984375 42.703125 
Q 37.796875 48.390625 30.609375 48.390625 
z
M 30.609375 56 
Q 42.328125 56 49.015625 48.375 
Q 55.71875 40.765625 55.71875 27.296875 
Q 55.71875 13.875 49.015625 6.21875 
Q 42.328125 -1.421875 30.609375 -1.421875 
Q 18.84375 -1.421875 12.171875 6.21875 
Q 5.515625 13.875 5.515625 27.296875 
Q 5.515625 40.765625 12.171875 48.375 
Q 18.84375 56 30.609375 56 
z
" id="DejaVuSans-111"/>
     <path d="M 18.3125 70.21875 
L 18.3125 54.6875 
L 36.8125 54.6875 
L 36.8125 47.703125 
L 18.3125 47.703125 
L 18.3125 18.015625 
Q 18.3125 11.328125 20.140625 9.421875 
Q 21.96875 7.515625 27.59375 7.515625 
L 36.8125 7.515625 
L 36.8125 0 
L 27.59375 0 
Q 17.1875 0 13.234375 3.875 
Q 9.28125 7.765625 9.28125 18.015625 
L 9.28125 47.703125 
L 2.6875 47.703125 
L 2.6875 54.6875 
L 9.28125 54.6875 
L 9.28125 70.21875 
z
" id="DejaVuSans-116"/>
     <path id="DejaVuSans-32"/>
     <path d="M 37.109375 75.984375 
L 37.109375 68.5 
L 28.515625 68.5 
Q 23.6875 68.5 21.796875 66.546875 
Q 19.921875 64.59375 19.921875 59.515625 
L 19.921875 54.6875 
L 34.71875 54.6875 
L 34.71875 47.703125 
L 19.921875 47.703125 
L 19.921875 0 
L 10.890625 0 
L 10.890625 47.703125 
L 2.296875 47.703125 
L 2.296875 54.6875 
L 10.890625 54.6875 
L 10.890625 58.5 
Q 10.890625 67.625 15.140625 71.796875 
Q 19.390625 75.984375 28.609375 75.984375 
z
" id="DejaVuSans-102"/>
     <path d="M -0.296875 72.90625 
L 61.375 72.90625 
L 61.375 64.59375 
L 35.5 64.59375 
L 35.5 0 
L 25.59375 0 
L 25.59375 64.59375 
L -0.296875 64.59375 
z
" id="DejaVuSans-84"/>
     <path d="M 41.109375 46.296875 
Q 39.59375 47.171875 37.8125 47.578125 
Q 36.03125 48 33.890625 48 
Q 26.265625 48 22.1875 43.046875 
Q 18.109375 38.09375 18.109375 28.8125 
L 18.109375 0 
L 9.078125 0 
L 9.078125 54.6875 
L 18.109375 54.6875 
L 18.109375 46.1875 
Q 20.953125 51.171875 25.484375 53.578125 
Q 30.03125 56 36.53125 56 
Q 37.453125 56 38.578125 55.875 
Q 39.703125 55.765625 41.0625 55.515625 
z
" id="DejaVuSans-114"/>
     <path d="M 34.28125 27.484375 
Q 23.390625 27.484375 19.1875 25 
Q 14.984375 22.515625 14.984375 16.5 
Q 14.984375 11.71875 18.140625 8.90625 
Q 21.296875 6.109375 26.703125 6.109375 
Q 34.1875 6.109375 38.703125 11.40625 
Q 43.21875 16.703125 43.21875 25.484375 
L 43.21875 27.484375 
z
M 52.203125 31.203125 
L 52.203125 0 
L 43.21875 0 
L 43.21875 8.296875 
Q 40.140625 3.328125 35.546875 0.953125 
Q 30.953125 -1.421875 24.3125 -1.421875 
Q 15.921875 -1.421875 10.953125 3.296875 
Q 6 8.015625 6 15.921875 
Q 6 25.140625 12.171875 29.828125 
Q 18.359375 34.515625 30.609375 34.515625 
L 43.21875 34.515625 
L 43.21875 35.40625 
Q 43.21875 41.609375 39.140625 45 
Q 35.0625 48.390625 27.6875 48.390625 
Q 23 48.390625 18.546875 47.265625 
Q 14.109375 46.140625 10.015625 43.890625 
L 10.015625 52.203125 
Q 14.9375 54.109375 19.578125 55.046875 
Q 24.21875 56 28.609375 56 
Q 40.484375 56 46.34375 49.84375 
Q 52.203125 43.703125 52.203125 31.203125 
z
" id="DejaVuSans-97"/>
     <path d="M 9.421875 54.6875 
L 18.40625 54.6875 
L 18.40625 0 
L 9.421875 0 
z
M 9.421875 75.984375 
L 18.40625 75.984375 
L 18.40625 64.59375 
L 9.421875 64.59375 
z
" id="DejaVuSans-105"/>
     <path d="M 54.890625 33.015625 
L 54.890625 0 
L 45.90625 0 
L 45.90625 32.71875 
Q 45.90625 40.484375 42.875 44.328125 
Q 39.84375 48.1875 33.796875 48.1875 
Q 26.515625 48.1875 22.3125 43.546875 
Q 18.109375 38.921875 18.109375 30.90625 
L 18.109375 0 
L 9.078125 0 
L 9.078125 54.6875 
L 18.109375 54.6875 
L 18.109375 46.1875 
Q 21.34375 51.125 25.703125 53.5625 
Q 30.078125 56 35.796875 56 
Q 45.21875 56 50.046875 50.171875 
Q 54.890625 44.34375 54.890625 33.015625 
z
" id="DejaVuSans-110"/>
     <path d="M 19.671875 64.796875 
L 19.671875 8.109375 
L 31.59375 8.109375 
Q 46.6875 8.109375 53.6875 14.9375 
Q 60.6875 21.78125 60.6875 36.53125 
Q 60.6875 51.171875 53.6875 57.984375 
Q 46.6875 64.796875 31.59375 64.796875 
z
M 9.8125 72.90625 
L 30.078125 72.90625 
Q 51.265625 72.90625 61.171875 64.09375 
Q 71.09375 55.28125 71.09375 36.53125 
Q 71.09375 17.671875 61.125 8.828125 
Q 51.171875 0 30.078125 0 
L 9.8125 0 
z
" id="DejaVuSans-68"/>
     <path d="M 2.984375 54.6875 
L 12.5 54.6875 
L 29.59375 8.796875 
L 46.6875 54.6875 
L 56.203125 54.6875 
L 35.6875 0 
L 23.484375 0 
z
" id="DejaVuSans-118"/>
     <path d="M 44.28125 53.078125 
L 44.28125 44.578125 
Q 40.484375 46.53125 36.375 47.5 
Q 32.28125 48.484375 27.875 48.484375 
Q 21.1875 48.484375 17.84375 46.4375 
Q 14.5 44.390625 14.5 40.28125 
Q 14.5 37.15625 16.890625 35.375 
Q 19.28125 33.59375 26.515625 31.984375 
L 29.59375 31.296875 
Q 39.15625 29.25 43.1875 25.515625 
Q 47.21875 21.78125 47.21875 15.09375 
Q 47.21875 7.46875 41.1875 3.015625 
Q 35.15625 -1.421875 24.609375 -1.421875 
Q 20.21875 -1.421875 15.453125 -0.5625 
Q 10.6875 0.296875 5.421875 2 
L 5.421875 11.28125 
Q 10.40625 8.6875 15.234375 7.390625 
Q 20.0625 6.109375 24.8125 6.109375 
Q 31.15625 6.109375 34.5625 8.28125 
Q 37.984375 10.453125 37.984375 14.40625 
Q 37.984375 18.0625 35.515625 20.015625 
Q 33.0625 21.96875 24.703125 23.78125 
L 21.578125 24.515625 
Q 13.234375 26.265625 9.515625 29.90625 
Q 5.8125 33.546875 5.8125 39.890625 
Q 5.8125 47.609375 11.28125 51.796875 
Q 16.75 56 26.8125 56 
Q 31.78125 56 36.171875 55.265625 
Q 40.578125 54.546875 44.28125 53.078125 
z
" id="DejaVuSans-115"/>
     <path d="M 9.8125 72.90625 
L 24.515625 72.90625 
L 43.109375 23.296875 
L 61.8125 72.90625 
L 76.515625 72.90625 
L 76.515625 0 
L 66.890625 0 
L 66.890625 64.015625 
L 48.09375 14.015625 
L 38.1875 14.015625 
L 19.390625 64.015625 
L 19.390625 0 
L 9.8125 0 
z
" id="DejaVuSans-77"/>
     <path d="M 64.40625 67.28125 
L 64.40625 56.890625 
Q 59.421875 61.53125 53.78125 63.8125 
Q 48.140625 66.109375 41.796875 66.109375 
Q 29.296875 66.109375 22.65625 58.46875 
Q 16.015625 50.828125 16.015625 36.375 
Q 16.015625 21.96875 22.65625 14.328125 
Q 29.296875 6.6875 41.796875 6.6875 
Q 48.140625 6.6875 53.78125 8.984375 
Q 59.421875 11.28125 64.40625 15.921875 
L 64.40625 5.609375 
Q 59.234375 2.09375 53.4375 0.328125 
Q 47.65625 -1.421875 41.21875 -1.421875 
Q 24.65625 -1.421875 15.125 8.703125 
Q 5.609375 18.84375 5.609375 36.375 
Q 5.609375 53.953125 15.125 64.078125 
Q 24.65625 74.21875 41.21875 74.21875 
Q 47.75 74.21875 53.53125 72.484375 
Q 59.328125 70.75 64.40625 67.28125 
z
" id="DejaVuSans-67"/>
     <path d="M 8.6875 72.90625 
L 18.609375 72.90625 
L 18.609375 28.609375 
Q 18.609375 16.890625 22.84375 11.734375 
Q 27.09375 6.59375 36.625 6.59375 
Q 46.09375 6.59375 50.34375 11.734375 
Q 54.59375 16.890625 54.59375 28.609375 
L 54.59375 72.90625 
L 64.5 72.90625 
L 64.5 27.390625 
Q 64.5 13.140625 57.4375 5.859375 
Q 50.390625 -1.421875 36.625 -1.421875 
Q 22.796875 -1.421875 15.734375 5.859375 
Q 8.6875 13.140625 8.6875 27.390625 
z
" id="DejaVuSans-85"/>
     <path d="M 48.78125 52.59375 
L 48.78125 44.1875 
Q 44.96875 46.296875 41.140625 47.34375 
Q 37.3125 48.390625 33.40625 48.390625 
Q 24.65625 48.390625 19.8125 42.84375 
Q 14.984375 37.3125 14.984375 27.296875 
Q 14.984375 17.28125 19.8125 11.734375 
Q 24.65625 6.203125 33.40625 6.203125 
Q 37.3125 6.203125 41.140625 7.25 
Q 44.96875 8.296875 48.78125 10.40625 
L 48.78125 2.09375 
Q 45.015625 0.34375 40.984375 -0.53125 
Q 36.96875 -1.421875 32.421875 -1.421875 
Q 20.0625 -1.421875 12.78125 6.34375 
Q 5.515625 14.109375 5.515625 27.296875 
Q 5.515625 40.671875 12.859375 48.328125 
Q 20.21875 56 33.015625 56 
Q 37.15625 56 41.109375 55.140625 
Q 45.0625 54.296875 48.78125 52.59375 
z
" id="DejaVuSans-99"/>
     <path d="M 56.203125 29.59375 
L 56.203125 25.203125 
L 14.890625 25.203125 
Q 15.484375 15.921875 20.484375 11.0625 
Q 25.484375 6.203125 34.421875 6.203125 
Q 39.59375 6.203125 44.453125 7.46875 
Q 49.3125 8.734375 54.109375 11.28125 
L 54.109375 2.78125 
Q 49.265625 0.734375 44.1875 -0.34375 
Q 39.109375 -1.421875 33.890625 -1.421875 
Q 20.796875 -1.421875 13.15625 6.1875 
Q 5.515625 13.8125 5.515625 26.8125 
Q 5.515625 40.234375 12.765625 48.109375 
Q 20.015625 56 32.328125 56 
Q 43.359375 56 49.78125 48.890625 
Q 56.203125 41.796875 56.203125 29.59375 
z
M 47.21875 32.234375 
Q 47.125 39.59375 43.09375 43.984375 
Q 39.0625 48.390625 32.421875 48.390625 
Q 24.90625 48.390625 20.390625 44.140625 
Q 15.875 39.890625 15.1875 32.171875 
z
" id="DejaVuSans-101"/>
     <path d="M 32.171875 -5.078125 
Q 28.375 -14.84375 24.75 -17.8125 
Q 21.140625 -20.796875 15.09375 -20.796875 
L 7.90625 -20.796875 
L 7.90625 -13.28125 
L 13.1875 -13.28125 
Q 16.890625 -13.28125 18.9375 -11.515625 
Q 21 -9.765625 23.484375 -3.21875 
L 25.09375 0.875 
L 2.984375 54.6875 
L 12.5 54.6875 
L 29.59375 11.921875 
L 46.6875 54.6875 
L 56.203125 54.6875 
z
" id="DejaVuSans-121"/>
    </defs>
    <g transform="translate(115.666875 35.472)scale(0.12 -0.12)">
     <use xlink:href="#DejaVuSans-80"/>
     <use x="60.302734" xlink:href="#DejaVuSans-108"/>
     <use x="88.085938" xlink:href="#DejaVuSans-111"/>
     <use x="149.267578" xlink:href="#DejaVuSans-116"/>
     <use x="188.476562" xlink:href="#DejaVuSans-32"/>
     <use x="220.263672" xlink:href="#DejaVuSans-111"/>
     <use x="281.445312" xlink:href="#DejaVuSans-102"/>
     <use x="316.650391" xlink:href="#DejaVuSans-32"/>
     <use x="348.4375" xlink:href="#DejaVuSans-84"/>
     <use x="409.302734" xlink:href="#DejaVuSans-114"/>
     <use x="450.416016" xlink:href="#DejaVuSans-97"/>
     <use x="511.695312" xlink:href="#DejaVuSans-105"/>
     <use x="539.478516" xlink:href="#DejaVuSans-110"/>
     <use x="602.857422" xlink:href="#DejaVuSans-32"/>
     <use x="634.644531" xlink:href="#DejaVuSans-68"/>
     <use x="711.646484" xlink:href="#DejaVuSans-97"/>
     <use x="772.925781" xlink:href="#DejaVuSans-116"/>
     <use x="812.134766" xlink:href="#DejaVuSans-97"/>
     <use x="873.414062" xlink:href="#DejaVuSans-32"/>
     <use x="905.201172" xlink:href="#DejaVuSans-118"/>
     <use x="964.380859" xlink:href="#DejaVuSans-115"/>
     <use x="1016.480469" xlink:href="#DejaVuSans-32"/>
     <use x="1048.267578" xlink:href="#DejaVuSans-77"/>
     <use x="1134.546875" xlink:href="#DejaVuSans-67"/>
     <use x="1204.371094" xlink:href="#DejaVuSans-77"/>
     <use x="1290.650391" xlink:href="#DejaVuSans-67"/>
     <use x="1360.474609" xlink:href="#DejaVuSans-32"/>
     <use x="1392.261719" xlink:href="#DejaVuSans-85"/>
     <use x="1465.455078" xlink:href="#DejaVuSans-110"/>
     <use x="1528.833984" xlink:href="#DejaVuSans-99"/>
     <use x="1583.814453" xlink:href="#DejaVuSans-101"/>
     <use x="1645.337891" xlink:href="#DejaVuSans-114"/>
     <use x="1686.451172" xlink:href="#DejaVuSans-116"/>
     <use x="1725.660156" xlink:href="#DejaVuSans-97"/>
     <use x="1786.939453" xlink:href="#DejaVuSans-105"/>
     <use x="1814.722656" xlink:href="#DejaVuSans-110"/>
     <use x="1878.101562" xlink:href="#DejaVuSans-116"/>
     <use x="1917.310547" xlink:href="#DejaVuSans-121"/>
     <use x="1976.490234" xlink:href="#DejaVuSans-32"/>
    </g>
   </g>
   <g id="legend_1">
    <g id="patch_7">
     <path d="M 277.843437 108.1845 
L 407.72 108.1845 
Q 409.72 108.1845 409.72 106.1845 
L 409.72 48.472 
Q 409.72 46.472 407.72 46.472 
L 277.843437 46.472 
Q 275.843437 46.472 275.843437 48.472 
L 275.843437 106.1845 
Q 275.843437 108.1845 277.843437 108.1845 
z
" style="fill:#ffffff;opacity:0.8;stroke:#cccccc;stroke-linejoin:miter;"/>
    </g>
    <g id="line2d_19">
     <path d="M 279.843437 54.570438 
L 299.843437 54.570438 
" style="fill:none;stroke:#1f77b4;stroke-linecap:square;stroke-width:1.5;"/>
    </g>
    <g id="line2d_20"/>
    <g id="text_16">
     <!-- actual -->
     <defs>
      <path d="M 8.5 21.578125 
L 8.5 54.6875 
L 17.484375 54.6875 
L 17.484375 21.921875 
Q 17.484375 14.15625 20.5 10.265625 
Q 23.53125 6.390625 29.59375 6.390625 
Q 36.859375 6.390625 41.078125 11.03125 
Q 45.3125 15.671875 45.3125 23.6875 
L 45.3125 54.6875 
L 54.296875 54.6875 
L 54.296875 0 
L 45.3125 0 
L 45.3125 8.40625 
Q 42.046875 3.421875 37.71875 1 
Q 33.40625 -1.421875 27.6875 -1.421875 
Q 18.265625 -1.421875 13.375 4.4375 
Q 8.5 10.296875 8.5 21.578125 
z
M 31.109375 56 
z
" id="DejaVuSans-117"/>
     </defs>
     <g transform="translate(307.843437 58.070438)scale(0.1 -0.1)">
      <use xlink:href="#DejaVuSans-97"/>
      <use x="61.279297" xlink:href="#DejaVuSans-99"/>
      <use x="116.259766" xlink:href="#DejaVuSans-116"/>
      <use x="155.46875" xlink:href="#DejaVuSans-117"/>
      <use x="218.847656" xlink:href="#DejaVuSans-97"/>
      <use x="280.126953" xlink:href="#DejaVuSans-108"/>
     </g>
    </g>
    <g id="line2d_21">
     <path d="M 279.843437 69.248563 
L 299.843437 69.248563 
" style="fill:none;stroke:#ff7f0e;stroke-linecap:square;stroke-width:1.5;"/>
    </g>
    <g id="line2d_22"/>
    <g id="text_17">
     <!-- pred. (mean) -->
     <defs>
      <path d="M 18.109375 8.203125 
L 18.109375 -20.796875 
L 9.078125 -20.796875 
L 9.078125 54.6875 
L 18.109375 54.6875 
L 18.109375 46.390625 
Q 20.953125 51.265625 25.265625 53.625 
Q 29.59375 56 35.59375 56 
Q 45.5625 56 51.78125 48.09375 
Q 58.015625 40.1875 58.015625 27.296875 
Q 58.015625 14.40625 51.78125 6.484375 
Q 45.5625 -1.421875 35.59375 -1.421875 
Q 29.59375 -1.421875 25.265625 0.953125 
Q 20.953125 3.328125 18.109375 8.203125 
z
M 48.6875 27.296875 
Q 48.6875 37.203125 44.609375 42.84375 
Q 40.53125 48.484375 33.40625 48.484375 
Q 26.265625 48.484375 22.1875 42.84375 
Q 18.109375 37.203125 18.109375 27.296875 
Q 18.109375 17.390625 22.1875 11.75 
Q 26.265625 6.109375 33.40625 6.109375 
Q 40.53125 6.109375 44.609375 11.75 
Q 48.6875 17.390625 48.6875 27.296875 
z
" id="DejaVuSans-112"/>
      <path d="M 45.40625 46.390625 
L 45.40625 75.984375 
L 54.390625 75.984375 
L 54.390625 0 
L 45.40625 0 
L 45.40625 8.203125 
Q 42.578125 3.328125 38.25 0.953125 
Q 33.9375 -1.421875 27.875 -1.421875 
Q 17.96875 -1.421875 11.734375 6.484375 
Q 5.515625 14.40625 5.515625 27.296875 
Q 5.515625 40.1875 11.734375 48.09375 
Q 17.96875 56 27.875 56 
Q 33.9375 56 38.25 53.625 
Q 42.578125 51.265625 45.40625 46.390625 
z
M 14.796875 27.296875 
Q 14.796875 17.390625 18.875 11.75 
Q 22.953125 6.109375 30.078125 6.109375 
Q 37.203125 6.109375 41.296875 11.75 
Q 45.40625 17.390625 45.40625 27.296875 
Q 45.40625 37.203125 41.296875 42.84375 
Q 37.203125 48.484375 30.078125 48.484375 
Q 22.953125 48.484375 18.875 42.84375 
Q 14.796875 37.203125 14.796875 27.296875 
z
" id="DejaVuSans-100"/>
      <path d="M 31 75.875 
Q 24.46875 64.65625 21.28125 53.65625 
Q 18.109375 42.671875 18.109375 31.390625 
Q 18.109375 20.125 21.3125 9.0625 
Q 24.515625 -2 31 -13.1875 
L 23.1875 -13.1875 
Q 15.875 -1.703125 12.234375 9.375 
Q 8.59375 20.453125 8.59375 31.390625 
Q 8.59375 42.28125 12.203125 53.3125 
Q 15.828125 64.359375 23.1875 75.875 
z
" id="DejaVuSans-40"/>
      <path d="M 52 44.1875 
Q 55.375 50.25 60.0625 53.125 
Q 64.75 56 71.09375 56 
Q 79.640625 56 84.28125 50.015625 
Q 88.921875 44.046875 88.921875 33.015625 
L 88.921875 0 
L 79.890625 0 
L 79.890625 32.71875 
Q 79.890625 40.578125 77.09375 44.375 
Q 74.3125 48.1875 68.609375 48.1875 
Q 61.625 48.1875 57.5625 43.546875 
Q 53.515625 38.921875 53.515625 30.90625 
L 53.515625 0 
L 44.484375 0 
L 44.484375 32.71875 
Q 44.484375 40.625 41.703125 44.40625 
Q 38.921875 48.1875 33.109375 48.1875 
Q 26.21875 48.1875 22.15625 43.53125 
Q 18.109375 38.875 18.109375 30.90625 
L 18.109375 0 
L 9.078125 0 
L 9.078125 54.6875 
L 18.109375 54.6875 
L 18.109375 46.1875 
Q 21.1875 51.21875 25.484375 53.609375 
Q 29.78125 56 35.6875 56 
Q 41.65625 56 45.828125 52.96875 
Q 50 49.953125 52 44.1875 
z
" id="DejaVuSans-109"/>
      <path d="M 8.015625 75.875 
L 15.828125 75.875 
Q 23.140625 64.359375 26.78125 53.3125 
Q 30.421875 42.28125 30.421875 31.390625 
Q 30.421875 20.453125 26.78125 9.375 
Q 23.140625 -1.703125 15.828125 -13.1875 
L 8.015625 -13.1875 
Q 14.5 -2 17.703125 9.0625 
Q 20.90625 20.125 20.90625 31.390625 
Q 20.90625 42.671875 17.703125 53.65625 
Q 14.5 64.65625 8.015625 75.875 
z
" id="DejaVuSans-41"/>
     </defs>
     <g transform="translate(307.843437 72.748563)scale(0.1 -0.1)">
      <use xlink:href="#DejaVuSans-112"/>
      <use x="63.476562" xlink:href="#DejaVuSans-114"/>
      <use x="104.558594" xlink:href="#DejaVuSans-101"/>
      <use x="166.082031" xlink:href="#DejaVuSans-100"/>
      <use x="229.558594" xlink:href="#DejaVuSans-46"/>
      <use x="261.345703" xlink:href="#DejaVuSans-32"/>
      <use x="293.132812" xlink:href="#DejaVuSans-40"/>
      <use x="332.146484" xlink:href="#DejaVuSans-109"/>
      <use x="429.558594" xlink:href="#DejaVuSans-101"/>
      <use x="491.082031" xlink:href="#DejaVuSans-97"/>
      <use x="552.361328" xlink:href="#DejaVuSans-110"/>
      <use x="615.740234" xlink:href="#DejaVuSans-41"/>
     </g>
    </g>
    <g id="line2d_23">
     <path d="M 279.843437 83.926688 
L 299.843437 83.926688 
" style="fill:none;stroke:#2ca02c;stroke-linecap:square;stroke-width:1.5;"/>
    </g>
    <g id="line2d_24"/>
    <g id="text_18">
     <!-- pred.(5th percen.) -->
     <defs>
      <path d="M 54.890625 33.015625 
L 54.890625 0 
L 45.90625 0 
L 45.90625 32.71875 
Q 45.90625 40.484375 42.875 44.328125 
Q 39.84375 48.1875 33.796875 48.1875 
Q 26.515625 48.1875 22.3125 43.546875 
Q 18.109375 38.921875 18.109375 30.90625 
L 18.109375 0 
L 9.078125 0 
L 9.078125 75.984375 
L 18.109375 75.984375 
L 18.109375 46.1875 
Q 21.34375 51.125 25.703125 53.5625 
Q 30.078125 56 35.796875 56 
Q 45.21875 56 50.046875 50.171875 
Q 54.890625 44.34375 54.890625 33.015625 
z
" id="DejaVuSans-104"/>
     </defs>
     <g transform="translate(307.843437 87.426688)scale(0.1 -0.1)">
      <use xlink:href="#DejaVuSans-112"/>
      <use x="63.476562" xlink:href="#DejaVuSans-114"/>
      <use x="104.558594" xlink:href="#DejaVuSans-101"/>
      <use x="166.082031" xlink:href="#DejaVuSans-100"/>
      <use x="229.558594" xlink:href="#DejaVuSans-46"/>
      <use x="261.345703" xlink:href="#DejaVuSans-40"/>
      <use x="300.359375" xlink:href="#DejaVuSans-53"/>
      <use x="363.982422" xlink:href="#DejaVuSans-116"/>
      <use x="403.191406" xlink:href="#DejaVuSans-104"/>
      <use x="466.570312" xlink:href="#DejaVuSans-32"/>
      <use x="498.357422" xlink:href="#DejaVuSans-112"/>
      <use x="561.833984" xlink:href="#DejaVuSans-101"/>
      <use x="623.357422" xlink:href="#DejaVuSans-114"/>
      <use x="664.439453" xlink:href="#DejaVuSans-99"/>
      <use x="719.419922" xlink:href="#DejaVuSans-101"/>
      <use x="780.943359" xlink:href="#DejaVuSans-110"/>
      <use x="844.322266" xlink:href="#DejaVuSans-46"/>
      <use x="876.109375" xlink:href="#DejaVuSans-41"/>
     </g>
    </g>
    <g id="line2d_25">
     <path d="M 279.843437 98.604813 
L 299.843437 98.604813 
" style="fill:none;stroke:#d62728;stroke-linecap:square;stroke-width:1.5;"/>
    </g>
    <g id="line2d_26"/>
    <g id="text_19">
     <!-- pred.(95th percen.) -->
     <defs>
      <path d="M 10.984375 1.515625 
L 10.984375 10.5 
Q 14.703125 8.734375 18.5 7.8125 
Q 22.3125 6.890625 25.984375 6.890625 
Q 35.75 6.890625 40.890625 13.453125 
Q 46.046875 20.015625 46.78125 33.40625 
Q 43.953125 29.203125 39.59375 26.953125 
Q 35.25 24.703125 29.984375 24.703125 
Q 19.046875 24.703125 12.671875 31.3125 
Q 6.296875 37.9375 6.296875 49.421875 
Q 6.296875 60.640625 12.9375 67.421875 
Q 19.578125 74.21875 30.609375 74.21875 
Q 43.265625 74.21875 49.921875 64.515625 
Q 56.59375 54.828125 56.59375 36.375 
Q 56.59375 19.140625 48.40625 8.859375 
Q 40.234375 -1.421875 26.421875 -1.421875 
Q 22.703125 -1.421875 18.890625 -0.6875 
Q 15.09375 0.046875 10.984375 1.515625 
z
M 30.609375 32.421875 
Q 37.25 32.421875 41.125 36.953125 
Q 45.015625 41.5 45.015625 49.421875 
Q 45.015625 57.28125 41.125 61.84375 
Q 37.25 66.40625 30.609375 66.40625 
Q 23.96875 66.40625 20.09375 61.84375 
Q 16.21875 57.28125 16.21875 49.421875 
Q 16.21875 41.5 20.09375 36.953125 
Q 23.96875 32.421875 30.609375 32.421875 
z
" id="DejaVuSans-57"/>
     </defs>
     <g transform="translate(307.843437 102.104813)scale(0.1 -0.1)">
      <use xlink:href="#DejaVuSans-112"/>
      <use x="63.476562" xlink:href="#DejaVuSans-114"/>
      <use x="104.558594" xlink:href="#DejaVuSans-101"/>
      <use x="166.082031" xlink:href="#DejaVuSans-100"/>
      <use x="229.558594" xlink:href="#DejaVuSans-46"/>
      <use x="261.345703" xlink:href="#DejaVuSans-40"/>
      <use x="300.359375" xlink:href="#DejaVuSans-57"/>
      <use x="363.982422" xlink:href="#DejaVuSans-53"/>
      <use x="427.605469" xlink:href="#DejaVuSans-116"/>
      <use x="466.814453" xlink:href="#DejaVuSans-104"/>
      <use x="530.193359" xlink:href="#DejaVuSans-32"/>
      <use x="561.980469" xlink:href="#DejaVuSans-112"/>
      <use x="625.457031" xlink:href="#DejaVuSans-101"/>
      <use x="686.980469" xlink:href="#DejaVuSans-114"/>
      <use x="728.0625" xlink:href="#DejaVuSans-99"/>
      <use x="783.042969" xlink:href="#DejaVuSans-101"/>
      <use x="844.566406" xlink:href="#DejaVuSans-110"/>
      <use x="907.945312" xlink:href="#DejaVuSans-46"/>
      <use x="939.732422" xlink:href="#DejaVuSans-41"/>
     </g>
    </g>
   </g>
  </g>
 </g>
 <defs>
  <clipPath id="pcb29543740">
   <rect height="266.112" width="357.12" x="57.6" y="41.472"/>
  </clipPath>
 </defs>
</svg>
